<svg width="194" height="51" viewBox="0 0 194 51" fill="none" xmlns="http://www.w3.org/2000/svg">
<path d="M169.475 0C169.93 0.0222124 170.386 0.0492207 170.84 0.0810248C177.913 0.577018 184.448 3.88238 188.759 9.52686C192.143 13.9582 193.776 19.3407 193.842 24.886V25.2532C193.829 25.8348 193.804 26.4154 193.767 26.9949C193.416 32.4561 191.395 37.7076 187.824 41.8232C183.908 46.3371 178.492 49.1442 172.586 49.9439C172.058 50.0156 171.528 50.0774 170.997 50.1294H166.527C162.927 49.8273 159.432 48.8171 156.273 47.08C149.863 43.5558 145.522 37.4214 144.134 30.1927C142.864 23.5813 144.073 16.4617 147.865 10.821C152.153 4.44425 159.078 0.620938 166.733 0.0802676C167.161 0.0504828 167.579 0.0237269 167.987 0H169.475ZM147.871 25.0882C147.873 29.3749 148.984 33.5768 151.314 37.1533C155.185 43.0976 161.708 46.2569 168.749 46.2553C175.791 46.2531 182.311 43.0901 186.179 37.1435C188.507 33.5662 189.616 29.3636 189.615 25.0768C189.614 20.7908 188.503 16.5889 186.173 13.0124C182.302 7.06809 175.779 3.90812 168.738 3.9104C161.696 3.91191 155.176 7.07567 151.307 13.0215C148.979 16.5995 147.871 20.8022 147.871 25.0882Z" fill="#1E1E1E"/>
<path d="M62.8254 11.3821C62.8262 13.1116 61.7191 14.1899 60.1099 14.5307C58.9854 14.7692 57.474 14.7109 56.4123 14.1718C55.3166 13.6152 54.8358 12.6065 54.8358 11.3836C54.8358 10.1599 55.3158 9.152 56.4116 8.59467C57.4732 8.05475 58.9847 7.99645 60.1092 8.23422C61.7183 8.57422 62.8254 9.65253 62.8254 11.3821Z" fill="#1E1E1E"/>
<path d="M0.0304154 39.5022C0.0255839 39.5022 0.0208171 39.5011 0.0165133 39.4989C0.0122096 39.4967 0.00849396 39.4936 0.00567705 39.4897C0.00286014 39.4859 0.00102378 39.4814 0.000321491 39.4767C-0.000380803 39.4721 7.13675e-05 39.4673 0.00164021 39.4629C4.065 27.1183 6.68581 19.1559 7.86408 15.5757C8.02613 15.0842 8.14502 14.8358 8.34947 14.3058C8.58472 13.6934 8.68114 13.0775 8.63874 12.4581C8.5403 11.0125 6.81984 11.1587 5.79378 11.1806C5.78494 11.1806 5.77647 11.1772 5.77022 11.1711C5.76397 11.165 5.76046 11.1567 5.76046 11.1481V8.64767C5.76046 8.64104 5.76317 8.63469 5.768 8.63C5.77283 8.62531 5.77938 8.62268 5.78621 8.62268C7.79593 8.62268 11.4685 8.62268 16.8041 8.62268C18.4352 8.62268 19.6059 8.99373 20.0814 10.6869C24.8551 27.6618 27.5549 37.257 28.1809 39.4727C28.1818 39.4762 28.182 39.4799 28.1813 39.4834C28.1806 39.487 28.1792 39.4903 28.177 39.4932C28.1749 39.496 28.1722 39.4983 28.169 39.4999C28.1659 39.5015 28.1624 39.5023 28.1589 39.5022H20.6668C20.6585 39.5023 20.6504 39.4996 20.6437 39.4947C20.637 39.4898 20.6321 39.4829 20.6297 39.475L18.4299 32.057C18.4263 32.0454 18.4192 32.0352 18.4095 32.028C18.3998 32.0208 18.3881 32.0169 18.3761 32.0169H9.35584C9.34356 32.0169 9.3316 32.0209 9.32177 32.0283C9.31194 32.0356 9.30476 32.046 9.30132 32.0578L7.10381 39.4682C7.10074 39.478 7.09461 39.4866 7.0863 39.4928C7.07799 39.4989 7.06794 39.5022 7.05762 39.5022H0.0304154ZM14.2219 14.8798C14.2206 14.8743 14.2176 14.8695 14.2132 14.866C14.2089 14.8625 14.2035 14.8606 14.1979 14.8605C14.1924 14.8604 14.1869 14.8622 14.1825 14.8655C14.1781 14.8689 14.1749 14.8736 14.1734 14.879L10.4342 27.0509C10.433 27.0547 10.4327 27.0587 10.4333 27.0626C10.434 27.0665 10.4356 27.0702 10.4379 27.0734C10.4403 27.0766 10.4434 27.0792 10.4469 27.0809C10.4505 27.0827 10.4544 27.0835 10.4584 27.0835H17.4969C17.5008 27.0835 17.5047 27.0826 17.5081 27.0809C17.5116 27.0792 17.5147 27.0767 17.517 27.0736C17.5194 27.0705 17.521 27.067 17.5217 27.0631C17.5224 27.0593 17.5222 27.0554 17.5212 27.0517L14.2219 14.8798Z" fill="#1E1E1E"/>
<path d="M30.854 39.4735C30.853 35.9755 30.8527 27.1214 30.8532 12.911C30.8532 11.7448 30.1285 11.1973 29.0283 11.1822C28.6926 11.1776 28.5005 11.1734 28.452 11.1693C28.4404 11.1684 28.4296 11.1631 28.4218 11.1545C28.4139 11.146 28.4096 11.1348 28.4096 11.1231V8.64468C28.4096 8.63905 28.4119 8.63366 28.416 8.62968C28.4202 8.62571 28.4257 8.62347 28.4316 8.62347C31.875 8.61994 34.2444 8.6212 35.5398 8.62726C35.8387 8.62877 36.1845 8.70778 36.5772 8.86428C36.9473 9.01118 37.2464 9.28657 37.4745 9.69043C37.7411 10.1614 37.7381 10.7112 37.735 11.3995C37.735 11.45 37.735 20.8108 37.735 39.4818C37.735 39.4876 37.7328 39.4932 37.7288 39.4973C37.7249 39.5015 37.7195 39.5038 37.7138 39.5038H30.8843C30.8762 39.5038 30.8685 39.5006 30.8629 39.4949C30.8572 39.4892 30.854 39.4815 30.854 39.4735Z" fill="#1E1E1E"/>
<path d="M43.3189 39.5015C43.3108 39.5015 43.3031 39.4983 43.2975 39.4926C43.2918 39.4869 43.2886 39.4792 43.2886 39.4712C43.2876 35.9738 43.2876 27.1203 43.2886 12.911C43.2886 11.7448 42.5639 11.1973 41.4636 11.1822C41.1279 11.1776 40.9358 11.1733 40.8874 11.1693C40.8758 11.1683 40.865 11.1631 40.8571 11.1545C40.8493 11.1459 40.8449 11.1347 40.845 11.1231V8.64541C40.845 8.64262 40.8455 8.63987 40.8466 8.6373C40.8477 8.63472 40.8494 8.63239 40.8514 8.63042C40.8534 8.62845 40.8559 8.62689 40.8585 8.62582C40.8612 8.62475 40.8641 8.62421 40.8669 8.62421C44.3099 8.62067 46.679 8.62193 47.9744 8.62799C48.2733 8.62951 48.6191 8.70851 49.0118 8.86501C49.3819 9.01191 49.681 9.2873 49.9092 9.69116C50.1757 10.1622 50.1727 10.7119 50.1696 11.3995C50.1696 11.45 50.1694 20.8102 50.1689 39.4803C50.1689 39.4861 50.1667 39.4917 50.1627 39.4958C50.1587 39.4999 50.1533 39.5022 50.1477 39.5022L43.3189 39.5015Z" fill="#1E1E1E"/>
<path d="M163.221 12.1537C163.217 12.1538 163.213 12.1532 163.21 12.1519C163.207 12.1506 163.204 12.1487 163.201 12.1462C163.199 12.1437 163.197 12.1408 163.195 12.1375C163.194 12.1342 163.193 12.1307 163.193 12.1272V9.29511C163.193 9.28667 163.197 9.27859 163.202 9.27262C163.208 9.26666 163.216 9.26331 163.224 9.26331C165.629 9.26381 167.549 9.26406 168.985 9.26406C169.718 9.26406 170.456 9.29435 171.093 9.66313C171.898 10.1281 172.076 11.1466 172.076 12.0401C172.076 13.7999 172.076 22.5213 172.076 38.2043C172.076 38.2126 172.072 38.2205 172.067 38.2263C172.061 38.2321 172.053 38.2354 172.045 38.2354H165.435C165.432 38.2354 165.429 38.2348 165.427 38.2338C165.424 38.2327 165.422 38.2311 165.42 38.2292C165.418 38.2272 165.416 38.2248 165.415 38.2223C165.414 38.2197 165.413 38.2169 165.413 38.2142C165.414 29.774 165.414 21.6551 165.413 13.8575C165.413 13.0495 165.24 12.2923 164.297 12.1825C164.012 12.1492 163.653 12.1396 163.221 12.1537Z" fill="#1E1E1E"/>
<path d="M155.442 38.2355C155.439 38.2355 155.436 38.2349 155.433 38.2337C155.431 38.2325 155.428 38.2308 155.426 38.2286C155.424 38.2264 155.422 38.2238 155.421 38.221C155.42 38.2181 155.419 38.2151 155.419 38.212C155.421 37.1236 155.421 30.5704 155.42 18.5525C155.42 17.8611 155.497 17.1811 155.895 16.5965C156.389 15.8703 157.388 15.6848 158.234 15.6856C159.878 15.6866 161.074 15.6858 161.824 15.6833C161.834 15.6833 161.843 15.6871 161.85 15.6939C161.857 15.7008 161.86 15.71 161.86 15.7196V38.2059C161.86 38.2138 161.857 38.2213 161.852 38.2268C161.846 38.2323 161.839 38.2355 161.831 38.2355H155.442Z" fill="#1E1E1E"/>
<path d="M182.045 38.2355H175.656C175.652 38.2355 175.648 38.2347 175.645 38.2332C175.641 38.2317 175.638 38.2295 175.635 38.2268C175.632 38.2241 175.63 38.2208 175.629 38.2172C175.627 38.2136 175.626 38.2098 175.626 38.2059L175.626 15.7196C175.626 15.71 175.629 15.7008 175.636 15.6939C175.643 15.6871 175.652 15.6833 175.662 15.6833C176.412 15.6858 177.608 15.6866 179.252 15.6856C180.098 15.6848 181.097 15.8703 181.591 16.5965C181.989 17.1811 182.066 17.8611 182.066 18.5525C182.065 30.5704 182.066 37.1236 182.067 38.212C182.067 38.2151 182.067 38.2181 182.066 38.221C182.065 38.2238 182.063 38.2264 182.061 38.2286C182.059 38.2308 182.056 38.2325 182.053 38.2337C182.051 38.2349 182.048 38.2355 182.045 38.2355Z" fill="#1E1E1E"/>
<path d="M69.2468 22.6998L67.7286 18.5335C67.7248 18.5225 67.725 18.5104 67.7291 18.4996C67.7333 18.4888 67.7411 18.4799 67.7513 18.4744C68.8528 17.8818 69.8009 17.4582 70.5955 17.2038C73.1656 16.3804 75.8114 16.0031 78.5329 16.0717C80.8516 16.13 83.4201 16.551 84.6665 18.7122C84.9836 19.2625 85.2158 19.8667 85.3632 20.525C85.5793 21.4928 85.6883 22.457 85.6903 23.4177C85.7019 29.2722 85.7027 33.0029 85.6926 34.6097C85.6876 35.3579 85.7226 35.8403 85.7979 36.0568C86.1068 36.9428 86.9322 37.1351 87.8727 37.1291C87.8786 37.1291 87.8844 37.1302 87.8898 37.1325C87.8952 37.1347 87.9001 37.138 87.9043 37.1422C87.9084 37.1463 87.9117 37.1512 87.914 37.1567C87.9162 37.1621 87.9174 37.1679 87.9174 37.1738V39.4546C87.9174 39.4672 87.9124 39.4794 87.9034 39.4883C87.8945 39.4972 87.8823 39.5023 87.8697 39.5023C85.1956 39.5033 82.9229 39.5028 81.0515 39.5008C81.0156 39.5008 80.896 39.4844 80.6925 39.4515C79.7566 39.3001 79.2894 38.5307 79.2689 37.6349C79.2583 37.1861 79.2545 36.881 79.2576 36.7194C79.2576 36.7149 79.2565 36.7104 79.2543 36.7064C79.252 36.7024 79.2488 36.6991 79.2449 36.6968C79.241 36.6945 79.2365 36.6933 79.2319 36.6932C79.2274 36.6932 79.2229 36.6944 79.2189 36.6967C79.2018 36.7073 79.0491 36.8436 78.7608 37.1056C78.1207 37.6877 77.4821 38.1302 76.845 38.4331C76.7334 38.4861 76.4591 38.6269 76.0219 38.8556C75.2308 39.2701 74.3524 39.5341 73.3867 39.6477C71.7722 39.837 69.811 39.7416 68.4457 38.7458C66.7313 37.4956 66.4049 35.3208 66.3829 33.3292C66.3678 31.9988 66.5654 30.6395 67.1417 29.4446C67.7626 28.1565 68.8258 27.2062 70.1457 26.5981C70.7868 26.3028 71.4852 26.035 72.241 25.7947C72.7897 25.6205 73.5164 25.4438 74.4211 25.2646C75.9164 24.9683 77.4349 24.699 78.9766 24.4566C78.9932 24.4541 79.0083 24.4458 79.0192 24.4332C79.0302 24.4206 79.0363 24.4045 79.0365 24.3877C79.0471 23.401 79.094 21.9759 78.0513 21.4368C77.1123 20.9514 75.903 21.0695 74.8466 21.1816C73.3518 21.3406 71.8555 21.7419 70.4652 22.2796C70.1583 22.3982 69.7756 22.5486 69.3173 22.7309C69.3106 22.7336 69.3035 22.7349 69.2963 22.7348C69.2891 22.7346 69.2821 22.7331 69.2755 22.7302C69.2689 22.7273 69.263 22.7231 69.2581 22.7179C69.2532 22.7127 69.2493 22.7066 69.2468 22.6998ZM79.0365 28.3118C79.0365 28.3083 79.0358 28.3049 79.0344 28.3018C79.0329 28.2987 79.0308 28.2959 79.0281 28.2937C79.0255 28.2914 79.0223 28.2898 79.0189 28.2889C79.0155 28.2879 79.0119 28.2877 79.0084 28.2883C77.525 28.5404 76.1733 28.8184 74.7853 29.384C73.6888 29.83 73.0535 30.3677 72.8922 31.5028C72.7983 32.1621 72.7945 32.8027 72.8808 33.4247C73.1057 35.0406 74.6013 35.1996 75.8803 34.8445C77.0563 34.5181 78.1573 33.7965 79.0069 32.9317C79.0258 32.9128 79.0364 32.8872 79.0365 32.8605V28.3118Z" fill="#1E1E1E"/>
<path d="M97.9122 19.7292C97.9122 19.7333 97.9133 19.7374 97.9155 19.7409C97.9178 19.7444 97.921 19.7472 97.9248 19.7489C97.9286 19.7506 97.9328 19.7511 97.9369 19.7504C97.9409 19.7498 97.9448 19.7479 97.9478 19.7451C99.0594 18.7804 100.186 17.905 101.424 17.2106C102.864 16.4024 104.432 16.0384 106.126 16.1187C107.489 16.183 108.581 16.5253 109.623 17.3787C110.001 17.6882 110.319 18.09 110.578 18.5842C111.399 20.1555 111.455 22.0486 111.455 23.8153C111.456 29.4214 111.456 34.6403 111.455 39.472C111.455 39.476 111.455 39.4799 111.453 39.4836C111.452 39.4873 111.449 39.4906 111.447 39.4934C111.444 39.4962 111.44 39.4985 111.437 39.5C111.433 39.5015 111.429 39.5023 111.425 39.5023H104.605C104.596 39.5023 104.587 39.4988 104.581 39.4925C104.575 39.4863 104.571 39.4778 104.571 39.469C104.572 31.215 104.572 26.2748 104.57 24.6482C104.569 24.254 104.548 23.8953 104.505 23.5722C104.319 22.1713 103.705 21.7631 102.322 21.823C100.709 21.8934 99.5115 22.7294 98.3749 23.8077C98.3682 23.8142 98.3628 23.8219 98.3592 23.8303C98.3556 23.8388 98.3537 23.8478 98.3537 23.8569V39.4637C98.3537 39.4739 98.3496 39.4837 98.3424 39.491C98.3351 39.4982 98.3253 39.5023 98.3151 39.5023H91.4969C91.4935 39.5023 91.4901 39.5016 91.487 39.5003C91.4839 39.499 91.4811 39.4971 91.4787 39.4947C91.4763 39.4924 91.4744 39.4895 91.4731 39.4864C91.4718 39.4833 91.4711 39.4799 91.4711 39.4765C91.4711 27.2607 91.4709 21.018 91.4704 20.7484C91.4688 19.315 90.6306 18.8319 89.2963 18.8856C89.2906 18.8859 89.2848 18.885 89.2794 18.883C89.274 18.881 89.269 18.8779 89.2649 18.8738C89.2607 18.8698 89.2574 18.8649 89.2551 18.8595C89.2528 18.8541 89.2516 18.8483 89.2516 18.8425V16.4011C89.2516 16.3951 89.254 16.3893 89.2583 16.3851C89.2626 16.3808 89.2683 16.3784 89.2744 16.3784C92.0746 16.3774 94.3123 16.3776 95.9873 16.3792C97.2898 16.3807 97.9084 17.2152 97.9084 18.4578C97.9079 19.0343 97.9092 19.4581 97.9122 19.7292Z" fill="#1E1E1E"/>
<path d="M53.5008 18.8311V16.4049C53.5008 16.3973 53.5037 16.39 53.509 16.3846C53.5143 16.3792 53.5214 16.3761 53.5288 16.3761C56.3114 16.3797 58.46 16.3789 59.9745 16.3739C60.5772 16.3724 60.9982 16.4163 61.2375 16.5056C62.1864 16.8608 62.6051 17.6854 62.6051 18.666C62.6046 19.9877 62.6046 26.924 62.6051 39.475C62.6051 39.4823 62.6022 39.4892 62.5969 39.4943C62.5916 39.4994 62.5845 39.5023 62.5771 39.5023H55.7513C55.7433 39.5023 55.7356 39.4991 55.7299 39.4934C55.7242 39.4878 55.721 39.4801 55.721 39.472C55.7215 31.7133 55.7213 25.3838 55.7203 20.4834C55.7203 20.383 55.7013 20.2378 55.6635 20.048C55.4461 18.944 54.52 18.8304 53.5644 18.8909C53.5562 18.8915 53.548 18.8903 53.5403 18.8875C53.5326 18.8848 53.5256 18.8804 53.5196 18.8748C53.5137 18.8692 53.5089 18.8624 53.5057 18.8549C53.5024 18.8474 53.5008 18.8393 53.5008 18.8311Z" fill="#1E1E1E"/>
<path d="M122.616 35.0815H132.736C132.741 35.0815 132.745 35.0825 132.75 35.0844C132.755 35.0864 132.759 35.0892 132.762 35.0928C132.766 35.0964 132.769 35.1006 132.771 35.1053C132.772 35.11 132.773 35.115 132.773 35.1201V39.4727C132.773 39.4806 132.77 39.4881 132.765 39.4936C132.76 39.4992 132.752 39.5023 132.745 39.5023H115.028C115.023 39.5023 115.018 39.5001 115.014 39.4963C115.01 39.4924 115.008 39.4872 115.008 39.4818V34.7483C115.008 34.7202 115.017 34.6927 115.033 34.6696L124.98 20.7802C124.982 20.7771 124.983 20.7736 124.983 20.7698C124.984 20.7661 124.983 20.7624 124.981 20.7591C124.98 20.7559 124.977 20.7531 124.974 20.7512C124.971 20.7494 124.968 20.7484 124.964 20.7484C121.754 20.7484 120.021 20.7484 119.765 20.7484C118.805 20.7484 117.906 20.9491 117.716 22.0357C117.664 22.3346 117.652 22.6408 117.678 22.9543C117.678 22.9595 117.678 22.9647 117.676 22.9697C117.674 22.9747 117.672 22.9792 117.668 22.983C117.665 22.9869 117.66 22.9899 117.656 22.992C117.651 22.9941 117.646 22.9952 117.641 22.9952H115.279C115.267 22.9952 115.255 22.9904 115.247 22.9819C115.238 22.9733 115.233 22.9618 115.233 22.9497C115.227 21.1036 115.229 19.6269 115.239 18.5199C115.242 18.1322 115.319 17.7644 115.469 17.4166C115.845 16.5435 116.804 16.3776 117.638 16.3776C123.696 16.3776 128.576 16.3776 132.28 16.3776C132.293 16.3776 132.305 16.3827 132.314 16.3918C132.323 16.4009 132.328 16.4132 132.328 16.4261V21.0983C132.328 21.1184 132.322 21.1383 132.31 21.1551L122.592 35.0345C122.588 35.039 122.586 35.0442 122.586 35.0497C122.586 35.0552 122.587 35.0606 122.589 35.0655C122.592 35.0704 122.595 35.0745 122.6 35.0773C122.605 35.0801 122.61 35.0816 122.616 35.0815Z" fill="#1E1E1E"/>
</svg>
