<svg width="172" height="30" viewBox="0 0 172 30" fill="none" xmlns="http://www.w3.org/2000/svg">
<path d="M24.8498 24.2566C25.3382 17.5851 23.4445 11.7461 19.1687 6.73961C17.0289 4.23345 14.6284 2.14401 11.9671 0.471289C11.9545 0.463752 11.9445 0.45256 11.9383 0.439193C11.9322 0.425825 11.9303 0.41091 11.9328 0.39642C11.9353 0.381929 11.9422 0.368546 11.9524 0.358035C11.9627 0.347523 11.976 0.340381 11.9904 0.33755C13.4732 0.0429346 14.955 -0.0588248 16.4358 0.0322733C16.5392 0.0397 16.6377 0.0827727 16.7149 0.154383C22.9367 6.05347 26.3558 13.9209 25.2219 22.5965C25.1328 23.2768 25.0262 23.8341 24.9021 24.2683C24.9013 24.2717 24.8999 24.2749 24.8979 24.2778C24.8959 24.2807 24.8933 24.2832 24.8903 24.2851C24.8874 24.2869 24.884 24.2882 24.8806 24.2888C24.8771 24.2894 24.8736 24.2894 24.8701 24.2886C24.8667 24.2878 24.8634 24.2864 24.8605 24.2844C24.8577 24.2824 24.8552 24.2798 24.8533 24.2768C24.8514 24.2739 24.8501 24.2705 24.8495 24.2671C24.8489 24.2636 24.849 24.2601 24.8498 24.2566Z" fill="#1E1E1E"/>
<path d="M25.9894 26.3354C26.2026 25.2732 26.3548 24.4863 26.4459 23.9746C28.0043 15.2873 24.9951 6.8094 18.971 0.494557C18.9614 0.484802 18.9552 0.472229 18.9533 0.458681C18.9513 0.445133 18.9538 0.431326 18.9603 0.419289C18.9668 0.407251 18.977 0.397618 18.9894 0.391803C19.0018 0.385989 19.0157 0.384301 19.0291 0.386985C21.1031 0.766884 23.0549 1.4821 24.8846 2.53264C24.9718 2.58187 25.0417 2.65587 25.0852 2.74488C28.8939 10.5483 29.4841 18.4128 26.0534 26.3558C26.0492 26.3621 26.0431 26.3669 26.0359 26.3694C26.0287 26.3719 26.021 26.3721 26.0137 26.3698C26.0065 26.3674 26.0002 26.3629 25.9958 26.3567C25.9914 26.3505 25.9892 26.343 25.9894 26.3354Z" fill="#1E1E1E"/>
<path d="M33.0283 29.0858L45.5184 1.03824C45.5594 0.946472 45.6263 0.868701 45.7109 0.814526C45.7956 0.76035 45.8942 0.73214 45.9947 0.733376C46.0952 0.734613 46.1931 0.765244 46.2764 0.821486C46.3596 0.877728 46.4246 0.957122 46.4633 1.04987C49.7099 8.84167 52.4583 15.3872 54.7087 20.6864C55.9821 23.6848 57.2429 26.506 58.4912 29.1498C58.4956 29.16 58.4972 29.1713 58.4959 29.1824C58.4947 29.1935 58.4905 29.2039 58.4839 29.2126C58.4773 29.2213 58.4685 29.2279 58.4585 29.2317C58.4485 29.2355 58.4377 29.2363 58.4272 29.2341C57.1092 28.9802 55.7941 28.9753 54.4819 29.2195C54.4339 29.2291 54.384 29.2208 54.3417 29.1962C54.2994 29.1715 54.2676 29.1323 54.2522 29.0858C53.1571 25.878 51.7877 22.3581 50.1441 18.5262C50.1173 18.4639 50.073 18.4108 50.0167 18.3736C49.9603 18.3364 49.8944 18.3167 49.8272 18.3168H40.0641C40.0158 18.317 39.9687 18.3311 39.9289 18.3575C39.889 18.3839 39.8582 18.4214 39.8403 18.4651C38.3284 22.078 37.0366 25.6018 35.9647 29.0364C35.9447 29.1021 35.8993 29.1573 35.8384 29.19C35.7775 29.2226 35.7059 29.2301 35.6391 29.2108C34.8522 28.9802 34.0158 28.9792 33.13 29.2079C33.1139 29.2124 33.0967 29.2121 33.0807 29.2071C33.0647 29.2021 33.0505 29.1926 33.0397 29.1797C33.029 29.1668 33.0222 29.1511 33.0202 29.1344C33.0181 29.1178 33.0209 29.1009 33.0283 29.0858ZM40.6369 16.491C40.6307 16.5059 40.6283 16.5221 40.6298 16.5382C40.6314 16.5543 40.6368 16.5698 40.6457 16.5832C40.6546 16.5967 40.6667 16.6078 40.6809 16.6156C40.695 16.6233 40.7109 16.6275 40.727 16.6277L49.3329 16.6131C49.349 16.6129 49.3649 16.6088 49.3791 16.601C49.3933 16.5933 49.4053 16.5822 49.4142 16.5687C49.4231 16.5552 49.4286 16.5398 49.4301 16.5237C49.4316 16.5076 49.4292 16.4914 49.423 16.4765L45.1026 6.52448C45.0948 6.50712 45.0822 6.49239 45.0662 6.48206C45.0502 6.47172 45.0316 6.46623 45.0125 6.46623C44.9935 6.46623 44.9748 6.47172 44.9589 6.48206C44.9429 6.49239 44.9302 6.50712 44.9224 6.52448L40.6369 16.491Z" fill="#1E1E1E"/>
<path d="M149.37 22.4919C149.428 15.4289 149.335 8.43272 149.091 1.50345C149.09 1.47863 149.095 1.4539 149.105 1.43136C149.116 1.40882 149.132 1.38915 149.152 1.37401C149.172 1.35888 149.195 1.34873 149.22 1.34444C149.245 1.34015 149.271 1.34183 149.295 1.34936C150.037 1.58389 150.778 1.58583 151.519 1.35517C151.544 1.3476 151.57 1.34614 151.595 1.3509C151.621 1.35566 151.644 1.36651 151.665 1.38252C151.685 1.39852 151.701 1.41921 151.712 1.4428C151.722 1.46639 151.727 1.49219 151.725 1.51799C151.312 6.84238 151.111 11.7152 151.121 16.1363C151.126 19.2046 151.152 23.6926 151.199 29.6004C151.199 29.666 151.179 29.73 151.142 29.784C151.105 29.838 151.053 29.8795 150.991 29.9028C150.93 29.9262 150.863 29.9303 150.8 29.9148C150.736 29.8992 150.678 29.8646 150.635 29.8156C144.276 22.5394 137.508 15.1536 130.333 7.65839C130.322 7.64627 130.307 7.63791 130.291 7.63437C130.276 7.63084 130.259 7.63229 130.243 7.63855C130.228 7.64481 130.215 7.65558 130.205 7.66948C130.196 7.68338 130.191 7.69977 130.19 7.71654C130.012 14.923 130.088 22.047 130.42 29.0887C130.421 29.0991 130.419 29.1096 130.416 29.1194C130.412 29.1292 130.406 29.1383 130.399 29.1459C130.392 29.1536 130.383 29.1597 130.373 29.1638C130.363 29.168 130.352 29.1701 130.341 29.1701H127.64C127.632 29.1702 127.623 29.1684 127.615 29.1648C127.606 29.1612 127.599 29.156 127.593 29.1494C127.587 29.1428 127.582 29.1351 127.58 29.1266C127.577 29.1182 127.576 29.1092 127.576 29.1004C128.319 19.8684 128.549 10.5445 128.266 1.1284C128.262 1.04391 128.286 0.960657 128.332 0.889852C128.378 0.819046 128.444 0.764095 128.523 0.732409C128.602 0.700723 128.688 0.693826 128.771 0.712645C128.854 0.731464 128.929 0.775094 128.987 0.837656C136.038 8.60619 142.788 15.8417 149.237 22.5442C149.248 22.5554 149.262 22.5633 149.277 22.5667C149.293 22.57 149.309 22.5688 149.323 22.5632C149.338 22.5575 149.35 22.5477 149.358 22.5349C149.367 22.5222 149.371 22.5072 149.37 22.4919Z" fill="#1E1E1E"/>
<path d="M23.4891 21.6981C23.1693 20.5022 22.8349 19.4216 22.4861 18.4564C19.6223 10.5076 13.0051 5.31499 5.0272 2.94547C5.01229 2.94073 4.99899 2.9317 4.98903 2.91955C4.97907 2.90741 4.97291 2.8927 4.97134 2.87735C4.96978 2.862 4.97288 2.8467 4.98025 2.83344C4.98761 2.82019 4.99891 2.80958 5.01266 2.80301C6.5245 2.02189 8.07705 1.40358 9.6703 0.948094C9.71896 0.934269 9.77006 0.930491 9.82051 0.936986C9.87097 0.94348 9.91976 0.960113 9.96394 0.985889C17.715 5.53014 23.2769 12.3828 23.5269 21.6923C23.5261 21.6964 23.524 21.7001 23.521 21.703C23.518 21.7059 23.5142 21.7078 23.51 21.7084C23.5059 21.7091 23.5017 21.7084 23.4979 21.7066C23.4942 21.7047 23.4911 21.7018 23.4891 21.6981Z" fill="#1E1E1E"/>
<path d="M65.0124 1.52667C68.4897 1.52667 71.871 1.42782 75.2377 1.32315C75.2666 1.32222 75.2953 1.32825 75.3214 1.34074C75.3474 1.35322 75.3701 1.37179 75.3875 1.39488C75.4049 1.41797 75.4165 1.4449 75.4213 1.4734C75.4261 1.5019 75.424 1.53114 75.4151 1.55865C75.1883 2.24867 75.1873 2.94547 75.4122 3.64906C75.4163 3.66324 75.4171 3.67821 75.4143 3.69273C75.4115 3.70725 75.4053 3.7209 75.3963 3.73255C75.3872 3.7442 75.3754 3.75351 75.362 3.75973C75.3486 3.76594 75.3339 3.76886 75.3191 3.76826L66.9342 3.45717C66.9147 3.45678 66.8954 3.46016 66.8772 3.4671C66.8591 3.47405 66.8425 3.48444 66.8285 3.49767C66.8145 3.5109 66.8032 3.52671 66.7954 3.54421C66.7876 3.56171 66.7834 3.58054 66.783 3.59963C66.5621 12.5369 66.6251 21.0682 66.972 29.1934C66.9727 29.2056 66.9705 29.2179 66.9657 29.2292C66.961 29.2405 66.9537 29.2506 66.9445 29.2588C66.9352 29.2669 66.9243 29.2728 66.9124 29.2761C66.9006 29.2793 66.8882 29.2799 66.8761 29.2777C66.2578 29.1556 65.6375 29.0945 65.0154 29.0945C64.3932 29.0945 63.7729 29.1556 63.1546 29.2777C63.1425 29.2799 63.1301 29.2793 63.1183 29.2761C63.1064 29.2728 63.0955 29.2669 63.0862 29.2588C63.077 29.2506 63.0697 29.2405 63.065 29.2292C63.0602 29.2179 63.058 29.2056 63.0587 29.1934C63.4037 21.0682 63.4647 12.5369 63.2418 3.59963C63.2415 3.58054 63.2373 3.5617 63.2295 3.54421C63.2217 3.52671 63.2104 3.51089 63.1964 3.49766C63.1824 3.48443 63.1658 3.47405 63.1476 3.4671C63.1295 3.46015 63.1101 3.45678 63.0907 3.45717L54.7058 3.77117C54.691 3.77177 54.6763 3.76885 54.6629 3.76263C54.6495 3.75642 54.6377 3.74711 54.6286 3.73546C54.6195 3.7238 54.6134 3.71015 54.6106 3.69563C54.6078 3.68112 54.6086 3.66615 54.6127 3.65197C54.8376 2.94838 54.8356 2.25158 54.6069 1.56156C54.598 1.53405 54.5959 1.50481 54.6007 1.47631C54.6055 1.4478 54.6171 1.42087 54.6345 1.39778C54.6519 1.3747 54.6745 1.35613 54.7006 1.34364C54.7267 1.33116 54.7554 1.32513 54.7843 1.32606C58.151 1.43072 61.5352 1.52667 65.0124 1.52667Z" fill="#1E1E1E"/>
<path d="M91.1906 13.354C93.7413 13.354 96.514 13.3191 99.5086 13.2493C99.5338 13.2485 99.5586 13.2428 99.5816 13.2325C99.6046 13.2221 99.6253 13.2074 99.6426 13.189C99.6599 13.1706 99.6734 13.149 99.6823 13.1255C99.6913 13.1019 99.6954 13.0768 99.6947 13.0516L99.3603 1.40459C99.36 1.39226 99.3626 1.38003 99.3677 1.36881C99.3728 1.3576 99.3804 1.3477 99.39 1.33985C99.3995 1.33201 99.4107 1.32644 99.4226 1.32355C99.4346 1.32066 99.4471 1.32054 99.4592 1.32319C100.5 1.53639 101.401 1.58582 102.163 1.47146C102.632 1.40168 102.945 1.36679 103.102 1.36679C103.124 1.36674 103.145 1.37113 103.164 1.3797C103.184 1.38826 103.202 1.40082 103.216 1.41661C103.231 1.4324 103.242 1.45108 103.25 1.47151C103.257 1.49194 103.26 1.51369 103.259 1.53542C102.906 8.64689 102.846 16.0588 103.079 23.7711C103.1 24.4553 103.157 26.2405 103.25 29.1265C103.251 29.1475 103.247 29.1684 103.239 29.1877C103.231 29.2069 103.218 29.2241 103.202 29.2378C103.186 29.2515 103.167 29.2614 103.147 29.2668C103.127 29.2722 103.105 29.2729 103.085 29.269C101.875 29.0345 100.685 29.0374 99.5144 29.2777C99.4896 29.2826 99.464 29.2819 99.4395 29.2755C99.4151 29.2692 99.3924 29.2575 99.3733 29.2412C99.3542 29.2249 99.3392 29.2045 99.3294 29.1816C99.3196 29.1587 99.3152 29.1339 99.3167 29.1091C99.5803 24.3158 99.685 19.7134 99.6307 15.3019C99.6307 15.27 99.6183 15.2394 99.596 15.2166C99.5737 15.1938 99.5434 15.1806 99.5115 15.1798C95.6776 15.1158 92.904 15.0838 91.1906 15.0838C89.4771 15.0838 86.7045 15.1168 82.8725 15.1827C82.8412 15.1834 82.8113 15.1962 82.7891 15.2184C82.7669 15.2406 82.7541 15.2705 82.7533 15.3019C82.6991 19.7134 82.8037 24.3158 83.0673 29.1091C83.0688 29.1339 83.0645 29.1587 83.0546 29.1816C83.0448 29.2045 83.0298 29.2249 83.0107 29.2412C82.9916 29.2575 82.969 29.2692 82.9445 29.2755C82.9201 29.2819 82.8944 29.2826 82.8696 29.2777C81.6989 29.0374 80.5088 29.0345 79.2994 29.269C79.2787 29.2729 79.2575 29.2722 79.2372 29.2668C79.2169 29.2614 79.198 29.2515 79.1821 29.2378C79.1662 29.2241 79.1535 29.2069 79.1452 29.1877C79.1368 29.1684 79.1328 29.1475 79.1336 29.1265C79.2267 26.2405 79.2839 24.4553 79.3052 23.7711C79.5378 16.0588 79.4767 8.64689 79.122 1.53542C79.1208 1.51369 79.124 1.49194 79.1314 1.47151C79.1387 1.45108 79.1501 1.4324 79.1648 1.41661C79.1795 1.40082 79.1972 1.38826 79.2168 1.3797C79.2365 1.37113 79.2576 1.36674 79.279 1.36679C79.436 1.36679 79.749 1.40168 80.2181 1.47146C80.9798 1.58582 81.8811 1.53639 82.922 1.32319C82.934 1.32054 82.9465 1.32066 82.9585 1.32355C82.9705 1.32644 82.9817 1.33201 82.9912 1.33985C83.0007 1.3477 83.0083 1.3576 83.0135 1.36881C83.0186 1.38003 83.0211 1.39226 83.0208 1.40459L82.6894 13.0516C82.6878 13.102 82.7061 13.151 82.7404 13.188C82.7747 13.225 82.8221 13.247 82.8725 13.2493C85.8691 13.3191 88.6418 13.354 91.1906 13.354Z" fill="#1E1E1E"/>
<path d="M122.317 13.3103C122.329 13.309 122.341 13.3104 122.353 13.3142C122.365 13.3181 122.375 13.3243 122.384 13.3325C122.393 13.3407 122.401 13.3508 122.406 13.362C122.41 13.3732 122.413 13.3853 122.413 13.3975V15.6653C122.413 15.6777 122.41 15.6901 122.406 15.7015C122.401 15.713 122.394 15.7234 122.385 15.7321C122.376 15.7408 122.365 15.7476 122.353 15.7521C122.342 15.7566 122.329 15.7587 122.317 15.7583L112.659 15.4036C112.651 15.4032 112.643 15.4044 112.636 15.4071C112.628 15.4099 112.621 15.4141 112.616 15.4196C112.61 15.425 112.605 15.4315 112.602 15.4388C112.599 15.446 112.598 15.4538 112.598 15.4617V27.1C112.598 27.1627 112.622 27.2229 112.666 27.2676C112.71 27.3122 112.77 27.3376 112.833 27.3384C116.57 27.4082 120.107 27.256 123.445 26.882C123.456 26.8807 123.466 26.8818 123.477 26.885C123.487 26.8882 123.496 26.8936 123.504 26.9008C123.512 26.9079 123.519 26.9167 123.523 26.9264C123.527 26.9362 123.529 26.9468 123.529 26.9575V29.2137C123.529 29.226 123.527 29.2382 123.522 29.2496C123.517 29.2609 123.51 29.2711 123.501 29.2796C123.492 29.288 123.481 29.2945 123.47 29.2987C123.458 29.3029 123.446 29.3046 123.433 29.3038C118.727 29.0247 113.96 29.0237 109.132 29.3009C109.109 29.3026 109.086 29.2994 109.065 29.2916C109.044 29.2837 109.024 29.2714 109.008 29.2555C108.992 29.2395 108.979 29.2202 108.971 29.199C108.963 29.1778 108.959 29.155 108.96 29.1323C109.395 19.9488 109.397 10.7382 108.966 1.50046C108.965 1.47646 108.969 1.45246 108.977 1.43002C108.986 1.40758 108.999 1.38721 109.016 1.37021C109.033 1.35322 109.054 1.33998 109.076 1.33137C109.099 1.32275 109.123 1.31895 109.147 1.3202C113.953 1.59737 118.644 1.59543 123.218 1.31439C123.231 1.31359 123.244 1.31548 123.256 1.31995C123.268 1.32441 123.279 1.33135 123.288 1.34034C123.297 1.34933 123.304 1.36018 123.309 1.37222C123.315 1.38425 123.317 1.39723 123.317 1.41033V3.7217C123.317 3.73176 123.315 3.74171 123.311 3.75094C123.307 3.76016 123.302 3.76845 123.295 3.77528C123.288 3.78211 123.279 3.78734 123.27 3.79062C123.261 3.79391 123.251 3.7952 123.242 3.79439C119.64 3.43193 116.191 3.25555 112.894 3.26524C112.824 3.26601 112.758 3.29422 112.709 3.34376C112.66 3.39329 112.632 3.46015 112.632 3.52982V13.4992C112.632 13.5558 112.655 13.6101 112.694 13.6504C112.734 13.6906 112.788 13.7136 112.845 13.7144C116.064 13.7338 119.222 13.5991 122.317 13.3103Z" fill="#1E1E1E"/>
<path d="M169.934 13.3103C169.946 13.309 169.959 13.3104 169.97 13.3142C169.982 13.3181 169.993 13.3243 170.002 13.3325C170.011 13.3407 170.018 13.3508 170.023 13.362C170.028 13.3732 170.03 13.3853 170.03 13.3975V15.6653C170.03 15.6777 170.028 15.6901 170.023 15.7015C170.018 15.713 170.011 15.7234 170.002 15.7321C169.993 15.7408 169.982 15.7476 169.971 15.7521C169.959 15.7566 169.947 15.7587 169.934 15.7583L160.279 15.4036C160.271 15.4032 160.263 15.4044 160.256 15.4071C160.248 15.4099 160.241 15.4141 160.236 15.4196C160.23 15.425 160.225 15.4315 160.222 15.4388C160.219 15.446 160.218 15.4538 160.218 15.4617V27.1C160.218 27.1627 160.242 27.2229 160.286 27.2676C160.331 27.3122 160.39 27.3376 160.453 27.3384C164.19 27.4082 167.727 27.256 171.065 26.882C171.076 26.8807 171.087 26.8818 171.097 26.885C171.107 26.8882 171.116 26.8936 171.124 26.9008C171.132 26.9079 171.139 26.9167 171.143 26.9264C171.147 26.9362 171.15 26.9468 171.149 26.9575V29.2137C171.149 29.226 171.147 29.2382 171.142 29.2496C171.137 29.2609 171.13 29.2711 171.121 29.2796C171.112 29.288 171.101 29.2945 171.09 29.2987C171.078 29.3029 171.066 29.3046 171.054 29.3038C166.347 29.0247 161.58 29.0237 156.752 29.3009C156.729 29.3026 156.707 29.2994 156.685 29.2916C156.664 29.2837 156.644 29.2714 156.628 29.2555C156.612 29.2395 156.599 29.2202 156.591 29.199C156.583 29.1778 156.579 29.155 156.581 29.1323C157.015 19.9488 157.016 10.7382 156.583 1.50046C156.582 1.47646 156.586 1.45246 156.595 1.43002C156.603 1.40758 156.616 1.38721 156.633 1.37021C156.65 1.35322 156.671 1.33998 156.693 1.33137C156.716 1.32275 156.74 1.31895 156.764 1.3202C161.571 1.59737 166.261 1.59543 170.835 1.31439C170.848 1.31359 170.861 1.31548 170.873 1.31995C170.885 1.32441 170.896 1.33135 170.905 1.34034C170.914 1.34933 170.922 1.36018 170.927 1.37222C170.932 1.38425 170.934 1.39723 170.934 1.41033V3.7217C170.934 3.73176 170.932 3.74171 170.928 3.75094C170.925 3.76016 170.919 3.76845 170.912 3.77528C170.905 3.78211 170.896 3.78734 170.887 3.79062C170.878 3.79391 170.868 3.7952 170.859 3.79439C167.257 3.43193 163.808 3.25555 160.511 3.26524C160.442 3.26601 160.375 3.29422 160.326 3.34376C160.277 3.39329 160.25 3.46015 160.25 3.52982V13.4992C160.25 13.5558 160.272 13.6101 160.312 13.6504C160.351 13.6906 160.405 13.7136 160.462 13.7144C163.681 13.7338 166.839 13.5991 169.934 13.3103Z" fill="#1E1E1E"/>
<path d="M21.1254 19.0291C16.116 12.063 8.51899 7.8415 0.0933781 6.38199C0.0717498 6.37843 0.0517393 6.3686 0.0357525 6.35368C0.0197658 6.33875 0.00848342 6.31938 0.00326257 6.29788C-0.00195829 6.27638 -0.000895424 6.25368 0.00632308 6.2325C0.0135416 6.21131 0.0266084 6.19255 0.0439525 6.17848L2.91064 4.00666C2.96956 3.96229 3.03764 3.93189 3.10968 3.91779C3.18173 3.90368 3.25585 3.90623 3.32639 3.92525C11.1473 6.01276 17.718 10.4611 20.8521 18.0348C20.9704 18.3217 21.077 18.6454 21.1719 19.0059C21.1742 19.0119 21.1741 19.0186 21.1717 19.0245C21.1693 19.0305 21.1648 19.0354 21.1591 19.0383C21.1533 19.0412 21.1467 19.0418 21.1405 19.0401C21.1343 19.0384 21.1289 19.0345 21.1254 19.0291Z" fill="#1E1E1E"/>
<path d="M26.35 28.9957C30.4126 21.0023 30.7595 12.8277 27.3908 4.47188C27.3856 4.45923 27.3848 4.4452 27.3886 4.43204C27.3923 4.41888 27.4003 4.40736 27.4114 4.39931C27.4225 4.39127 27.4359 4.38717 27.4496 4.38768C27.4632 4.38818 27.4763 4.39326 27.4868 4.4021C29.049 5.78408 30.3292 7.28138 31.3274 8.89402C31.3771 8.97436 31.407 9.06504 31.4146 9.15859C32.0078 16.0578 30.3971 23.3117 26.411 29.0335C26.406 29.0416 26.398 29.0474 26.3887 29.0495C26.3795 29.0517 26.3697 29.0501 26.3616 29.0451C26.3535 29.0401 26.3477 29.0321 26.3456 29.0228C26.3434 29.0135 26.345 29.0038 26.35 28.9957Z" fill="#1E1E1E"/>
</svg>
