<svg width="215" height="60" viewBox="0 0 215 60" fill="none" xmlns="http://www.w3.org/2000/svg">
<path d="M213.101 3.61736C214.1 3.61736 214.91 2.80758 214.91 1.80868C214.91 0.809773 214.1 0 213.101 0C212.102 0 211.293 0.809773 211.293 1.80868C211.293 2.80758 212.102 3.61736 213.101 3.61736Z" fill="#1E1E1E"/>
<path d="M205.49 7.33154C206.851 7.33154 207.955 6.22803 207.955 4.86679C207.955 3.50554 206.851 2.40204 205.49 2.40204C204.129 2.40204 203.025 3.50554 203.025 4.86679C203.025 6.22803 204.129 7.33154 205.49 7.33154Z" fill="#1E1E1E"/>
<path d="M195.235 12.5604C197.357 12.5604 199.076 10.8405 199.076 8.71893C199.076 6.59737 197.357 4.8775 195.235 4.8775C193.113 4.8775 191.394 6.59737 191.394 8.71893C191.394 10.8405 193.113 12.5604 195.235 12.5604Z" fill="#1E1E1E"/>
<path d="M210.554 11.0457C211.725 11.0457 212.675 10.0963 212.675 8.92509C212.675 7.75392 211.725 6.8045 210.554 6.8045C209.383 6.8045 208.434 7.75392 208.434 8.92509C208.434 10.0963 209.383 11.0457 210.554 11.0457Z" fill="#1E1E1E"/>
<path d="M181.318 19.5549C184.333 19.5549 186.778 17.1103 186.778 14.0948C186.778 11.0793 184.333 8.6347 181.318 8.6347C178.302 8.6347 175.858 11.0793 175.858 14.0948C175.858 17.1103 178.302 19.5549 181.318 19.5549Z" fill="#1E1E1E"/>
<path d="M207.139 20.8347C208.922 20.8347 210.368 19.3893 210.368 17.6064C210.368 15.8234 208.922 14.378 207.139 14.378C205.356 14.378 203.911 15.8234 203.911 17.6064C203.911 19.3893 205.356 20.8347 207.139 20.8347Z" fill="#1E1E1E"/>
<path d="M140.055 33.085V21.6324C140.055 21.603 140.067 21.5747 140.088 21.5539C140.109 21.533 140.137 21.5213 140.166 21.5213H144.447C144.476 21.5213 144.504 21.5326 144.524 21.5528C144.545 21.573 144.556 21.6003 144.556 21.6289V49.8453C144.556 49.8586 144.551 49.8714 144.541 49.8808C144.531 49.8902 144.518 49.8955 144.504 49.8955H140.2C140.173 49.8955 140.146 49.8847 140.127 49.8656C140.107 49.8464 140.096 49.8204 140.096 49.7933V47.2103C140.097 47.2 140.094 47.1898 140.088 47.1814C140.082 47.173 140.074 47.1667 140.064 47.1637C140.054 47.1606 140.043 47.1609 140.034 47.1644C140.024 47.168 140.016 47.1747 140.01 47.1834C139.308 48.1729 138.357 48.9383 137.158 49.4796C133.616 51.084 129.734 50.2952 127.142 47.4272C122.863 42.6966 123.592 34.6338 129.216 31.1777C131.856 29.5555 135.092 29.6702 137.78 31.1526C138.696 31.6581 139.431 32.3094 139.987 33.1065C139.992 33.1129 139.998 33.1177 140.006 33.1202C140.013 33.1227 140.021 33.1227 140.029 33.1203C140.036 33.1179 140.043 33.1133 140.048 33.1069C140.052 33.1006 140.055 33.0929 140.055 33.085ZM134.5 34.1946C133.771 34.1959 133.049 34.3513 132.376 34.6519C131.703 34.9525 131.091 35.3925 130.577 35.9466C130.062 36.5008 129.654 37.1584 129.376 37.8818C129.098 38.6052 128.956 39.3802 128.957 40.1627C128.96 41.743 129.548 43.2575 130.591 44.3731C131.635 45.4887 133.048 46.114 134.521 46.1114C135.25 46.1101 135.972 45.9548 136.646 45.6542C137.319 45.3535 137.93 44.9136 138.445 44.3594C138.96 43.8052 139.368 43.1476 139.645 42.4242C139.923 41.7008 140.065 40.9258 140.064 40.1433C140.061 38.563 139.474 37.0485 138.43 35.9329C137.387 34.8173 135.973 34.192 134.5 34.1946Z" fill="#1E1E1E"/>
<path d="M83.4519 33.085C83.452 33.0929 83.4546 33.1006 83.4594 33.1069C83.4641 33.1132 83.4707 33.1179 83.4782 33.1203C83.4858 33.1227 83.4938 33.1226 83.5013 33.1202C83.5089 33.1177 83.5154 33.1129 83.52 33.1065C84.0757 32.3094 84.8113 31.6581 85.7266 31.1526C88.4155 29.6702 91.651 29.5537 94.2914 31.1759C99.9164 34.632 100.646 42.6948 96.3672 47.4272C93.7752 50.2952 89.8925 51.084 86.3505 49.4814C85.1518 48.9401 84.2012 48.1747 83.4985 47.1852C83.493 47.1764 83.4848 47.1698 83.4752 47.1662C83.4655 47.1626 83.455 47.1624 83.4451 47.1654C83.4353 47.1685 83.4268 47.1748 83.4209 47.1832C83.415 47.1916 83.412 47.2018 83.4125 47.2121V49.7951C83.4125 49.8085 83.4098 49.8218 83.4046 49.8342C83.3993 49.8466 83.3917 49.8579 83.382 49.8674C83.3724 49.8768 83.3609 49.8844 83.3483 49.8895C83.3357 49.8946 83.3222 49.8973 83.3085 49.8973H79.0046C78.9978 49.8973 78.991 49.896 78.9847 49.8935C78.9784 49.8909 78.9727 49.8873 78.9678 49.8826C78.963 49.8779 78.9592 49.8724 78.9566 49.8663C78.954 49.8602 78.9526 49.8537 78.9526 49.8471L78.949 21.6289C78.949 21.6006 78.9603 21.5735 78.9804 21.5534C79.0005 21.5333 79.0279 21.5218 79.0566 21.5213H83.339C83.3685 21.5213 83.3967 21.533 83.4176 21.5539C83.4384 21.5747 83.4501 21.603 83.4501 21.6324L83.4519 33.085ZM88.9927 34.1946C87.5198 34.1946 86.1073 34.8224 85.0659 35.9398C84.0244 37.0572 83.4394 38.5727 83.4394 40.153C83.4394 41.7333 84.0244 43.2488 85.0659 44.3663C86.1073 45.4837 87.5198 46.1114 88.9927 46.1114C89.7219 46.1114 90.4441 45.9573 91.1178 45.6579C91.7916 45.3584 92.4038 44.9195 92.9194 44.3663C93.4351 43.813 93.8442 43.1561 94.1233 42.4332C94.4023 41.7103 94.546 40.9355 94.546 40.153C94.546 39.3705 94.4023 38.5957 94.1233 37.8728C93.8442 37.1499 93.4351 36.4931 92.9194 35.9398C92.4038 35.3865 91.7916 34.9476 91.1178 34.6482C90.4441 34.3487 89.7219 34.1946 88.9927 34.1946Z" fill="#1E1E1E"/>
<path d="M118.687 21.5321C117.214 21.5295 116.018 22.6903 116.015 24.1248C116.013 25.5593 117.205 26.7243 118.678 26.7269C120.151 26.7294 121.347 25.5686 121.35 24.1341C121.352 22.6996 120.16 21.5346 118.687 21.5321Z" fill="#1E1E1E"/>
<path d="M202.617 34.0745C205.014 34.0745 206.957 32.1315 206.957 29.7347C206.957 27.3379 205.014 25.395 202.617 25.395C200.22 25.395 198.277 27.3379 198.277 29.7347C198.277 32.1315 200.22 34.0745 202.617 34.0745Z" fill="#1E1E1E"/>
<path d="M0 40.8682V39.4844C0.751076 29.8494 12.4833 26.8523 18.5546 33.8038C18.5725 33.8241 18.5813 33.8509 18.5793 33.8781C18.5773 33.9053 18.5646 33.9308 18.5439 33.949L15.5593 36.584C15.5487 36.5933 15.5363 36.6005 15.523 36.605C15.5097 36.6096 15.4956 36.6115 15.4816 36.6107C15.4676 36.6099 15.454 36.6063 15.4415 36.6002C15.429 36.5941 15.4178 36.5855 15.4087 36.5751C15.2868 36.4364 14.9809 36.164 14.4909 35.7577C9.89485 31.9521 3.38433 35.6214 4.70902 41.6085C5.35971 44.5411 7.79578 46.2745 10.784 46.1132C12.754 46.0074 14.2203 45.0699 15.5951 43.618C15.6135 43.5986 15.6387 43.587 15.6654 43.5857C15.6921 43.5843 15.7183 43.5933 15.7385 43.6108L18.7518 46.2423C18.7697 46.2576 18.7809 46.2793 18.7829 46.3028C18.785 46.3263 18.7776 46.3496 18.7626 46.3677C15.104 50.7093 8.3909 51.7292 3.83246 48.1316C1.56071 46.3391 0.283222 43.9179 0 40.8682Z" fill="#1E1E1E"/>
<path d="M20.1447 40.153C20.1447 38.8141 20.4111 37.4882 20.9288 36.2512C21.4465 35.0142 22.2054 33.8902 23.162 32.9434C24.1186 31.9966 25.2542 31.2456 26.5041 30.7332C27.754 30.2208 29.0936 29.957 30.4464 29.957C33.1786 29.957 35.7989 31.0313 37.7309 32.9434C39.6628 34.8555 40.7482 37.4489 40.7482 40.153C40.7482 41.492 40.4817 42.8178 39.964 44.0549C39.4463 45.2919 38.6875 46.4159 37.7309 47.3627C35.7989 49.2748 33.1786 50.349 30.4464 50.349C29.0936 50.349 27.754 50.0853 26.5041 49.5729C25.2542 49.0605 24.1186 48.3095 23.162 47.3627C22.2054 46.4159 21.4465 45.2919 20.9288 44.0549C20.4111 42.8178 20.1447 41.492 20.1447 40.153ZM30.4464 34.1785C28.9213 34.1785 27.4586 34.8098 26.3802 35.9336C25.3018 37.0574 24.6959 38.5817 24.6959 40.171C24.6959 41.7603 25.3018 43.2845 26.3802 44.4083C27.4586 45.5321 28.9213 46.1634 30.4464 46.1634C31.9715 46.1634 33.4342 45.5321 34.5126 44.4083C35.591 43.2845 36.1969 41.7603 36.1969 40.171C36.1969 39.384 36.0482 38.6048 35.7592 37.8777C35.4702 37.1507 35.0466 36.4901 34.5126 35.9336C33.9786 35.3772 33.3447 34.9358 32.647 34.6346C31.9493 34.3335 31.2016 34.1785 30.4464 34.1785Z" fill="#1E1E1E"/>
<path d="M55.2284 34.7216C54.8304 34.6588 54.4056 34.5441 54.0005 34.5387C51.8112 34.5065 50.2158 35.4195 49.2144 37.2777C48.5153 38.5791 48.5207 39.8142 48.5224 41.6623C48.526 46.5775 48.526 49.2854 48.5224 49.7861C48.5224 49.8151 48.5109 49.8429 48.4904 49.8634C48.4699 49.8839 48.4421 49.8955 48.4131 49.8955H44.1307C44.1017 49.8955 44.0739 49.8839 44.0534 49.8634C44.0329 49.8429 44.0214 49.8151 44.0214 49.7861V30.5163C44.0214 30.4839 44.0342 30.4529 44.0571 30.4301C44.0799 30.4072 44.1109 30.3944 44.1433 30.3944H48.3719C48.4013 30.3944 48.4296 30.4061 48.4505 30.4269C48.4713 30.4478 48.483 30.476 48.483 30.5055V32.9541C48.483 32.9654 48.4866 32.9764 48.4932 32.9856C48.4998 32.9947 48.5091 33.0016 48.5198 33.0051C48.5305 33.0087 48.542 33.0088 48.5528 33.0055C48.5636 33.0021 48.573 32.9954 48.5798 32.9864C50.1871 30.809 52.4069 29.8208 55.2391 30.0215C55.2659 30.0233 55.291 30.0351 55.3093 30.0544C55.3276 30.0737 55.3377 30.0991 55.3377 30.1255V34.6302C55.3376 34.6436 55.3346 34.6568 55.3289 34.6689C55.3232 34.6811 55.3148 34.6918 55.3044 34.7005C55.2941 34.7092 55.2819 34.7156 55.2688 34.7192C55.2556 34.7228 55.2419 34.7236 55.2284 34.7216Z" fill="#1E1E1E"/>
<path d="M71.8291 44.0321C71.8366 44.0252 71.8454 44.0199 71.855 44.0164C71.8646 44.013 71.8747 44.0115 71.8849 44.012C71.8951 44.0125 71.905 44.015 71.9142 44.0193C71.9234 44.0237 71.9316 44.0299 71.9384 44.0374L74.5 46.7442C74.5175 46.7625 74.5279 46.7865 74.5292 46.8119C74.5306 46.8372 74.5227 46.8622 74.5072 46.8822C74.3052 47.1403 74.0901 47.3656 73.8618 47.558C69.5472 51.2112 62.9291 51.351 58.8636 47.3375C53.9431 42.4833 55.3556 33.9598 61.7048 30.9465C65.3186 29.2328 69.9344 29.8315 72.8652 32.6763C75.2242 34.9654 76.0219 38.3121 75.4357 41.5386C75.4331 41.5543 75.4252 41.5684 75.4134 41.5786C75.4015 41.5888 75.3866 41.5944 75.3712 41.5942H60.6813C60.6743 41.5941 60.6674 41.5955 60.6611 41.5984C60.6547 41.6013 60.6491 41.6055 60.6447 41.6109C60.6402 41.6162 60.637 41.6224 60.6353 41.6292C60.6335 41.6359 60.6333 41.6429 60.6347 41.6498C61.2226 44.9534 64.338 46.5219 67.4625 46.1509C69.1008 45.9573 70.6388 45.1255 71.8291 44.0321ZM70.9651 38.2224C70.4901 35.98 68.9485 34.1641 66.5662 33.9275C63.5368 33.6263 61.2979 35.4189 60.5647 38.2905C60.5631 38.2971 60.563 38.3039 60.5644 38.3106C60.5658 38.3172 60.5687 38.3234 60.5728 38.3287C60.5769 38.3341 60.5822 38.3384 60.5883 38.3414C60.5943 38.3444 60.601 38.346 60.6078 38.3461H70.8647C70.88 38.3462 70.8951 38.3428 70.9089 38.3363C70.9227 38.3298 70.9349 38.3202 70.9445 38.3083C70.9542 38.2965 70.961 38.2826 70.9646 38.2677C70.9681 38.2528 70.9683 38.2374 70.9651 38.2224Z" fill="#1E1E1E"/>
<path d="M113.701 34.632C113.701 34.6454 113.698 34.6586 113.692 34.6707C113.687 34.6829 113.678 34.6937 113.668 34.7023C113.657 34.711 113.645 34.7174 113.632 34.721C113.619 34.7247 113.605 34.7255 113.592 34.7234C113.194 34.6607 112.769 34.5459 112.364 34.5406C110.175 34.5083 108.579 35.4213 107.578 37.2796C106.879 38.581 106.884 39.816 106.886 41.6641C106.891 46.5793 106.891 49.2872 106.888 49.7879C106.888 49.8169 106.876 49.8448 106.856 49.8653C106.835 49.8858 106.807 49.8973 106.778 49.8973H102.496C102.467 49.8973 102.439 49.8858 102.419 49.8653C102.398 49.8448 102.387 49.8169 102.387 49.7879L102.385 30.5181C102.385 30.5021 102.388 30.4862 102.394 30.4714C102.4 30.4567 102.409 30.4432 102.42 30.4319C102.432 30.4206 102.445 30.4116 102.46 30.4055C102.475 30.3994 102.491 30.3962 102.507 30.3962H106.735C106.765 30.3962 106.793 30.4079 106.814 30.4287C106.835 30.4496 106.846 30.4779 106.846 30.5073V32.956C106.846 32.9672 106.85 32.9782 106.857 32.9874C106.863 32.9965 106.872 33.0034 106.883 33.007C106.894 33.0105 106.905 33.0106 106.916 33.0073C106.927 33.0039 106.936 32.9972 106.943 32.9882C108.551 30.8109 110.77 29.8226 113.603 30.0233C113.629 30.0252 113.654 30.0369 113.673 30.0562C113.691 30.0755 113.701 30.1009 113.701 30.1273V34.632Z" fill="#1E1E1E"/>
<path d="M163.168 33.0796C163.172 33.0847 163.177 33.0884 163.183 33.0903C163.189 33.0921 163.195 33.0921 163.201 33.0901C163.207 33.088 163.212 33.0842 163.215 33.0791C163.219 33.074 163.22 33.0679 163.22 33.0617V30.5001C163.22 30.4721 163.231 30.4452 163.251 30.4254C163.27 30.4055 163.297 30.3944 163.324 30.3944L167.594 30.3962C167.61 30.3962 167.626 30.3993 167.641 30.4055C167.656 30.4116 167.67 30.4206 167.681 30.4319C167.693 30.4432 167.702 30.4566 167.708 30.4714C167.714 30.4862 167.718 30.5021 167.718 30.5181C167.726 42.4505 167.722 48.8958 167.705 49.8543C167.642 53.4519 166.038 56.4562 162.941 58.2846C161.655 59.0423 160.172 59.5023 158.491 59.6649C154.503 60.0503 150.852 58.4692 148.122 55.5563C148.102 55.5349 148.091 55.5065 148.092 55.4773C148.093 55.4481 148.106 55.4205 148.127 55.4004L151.162 52.5287C151.18 52.5113 151.205 52.5018 151.231 52.5025C151.256 52.5032 151.28 52.5139 151.298 52.5323C153.417 54.7623 156.622 56.0923 159.662 54.9218C161.718 54.1295 162.932 52.1666 163.15 49.9887C163.238 49.1175 163.255 48.2117 163.202 47.2712C163.202 47.2629 163.199 47.2549 163.194 47.2483C163.189 47.2418 163.182 47.237 163.174 47.2346C163.166 47.2322 163.158 47.2324 163.15 47.2351C163.142 47.2378 163.135 47.2429 163.131 47.2497C162.069 48.6425 160.66 49.5029 158.952 49.9815C155.613 50.919 152.339 49.7915 150.074 47.1762C147.958 44.7365 147.213 41.4651 147.724 38.2547C148.604 32.7139 153.781 28.5212 159.474 30.4894C160.984 31.0116 162.216 31.875 163.168 33.0796ZM157.676 34.1946C156.203 34.1946 154.791 34.8223 153.749 35.9398C152.708 37.0572 152.123 38.5727 152.123 40.153C152.123 40.9355 152.266 41.7103 152.545 42.4332C152.824 43.1561 153.233 43.813 153.749 44.3662C154.265 44.9195 154.877 45.3584 155.551 45.6579C156.224 45.9573 156.947 46.1114 157.676 46.1114C158.405 46.1114 159.127 45.9573 159.801 45.6579C160.475 45.3584 161.087 44.9195 161.603 44.3662C162.118 43.813 162.527 43.1561 162.806 42.4332C163.086 41.7103 163.229 40.9355 163.229 40.153C163.229 38.5727 162.644 37.0572 161.603 35.9398C160.561 34.8223 159.149 34.1946 157.676 34.1946Z" fill="#1E1E1E"/>
<path d="M186.663 44.0321C186.671 44.0252 186.679 44.0199 186.689 44.0164C186.699 44.013 186.709 44.0115 186.719 44.012C186.729 44.0125 186.739 44.015 186.748 44.0193C186.757 44.0237 186.766 44.0299 186.772 44.0374L189.334 46.7442C189.352 46.7625 189.362 46.7865 189.363 46.8119C189.365 46.8372 189.357 46.8622 189.341 46.8822C189.139 47.1403 188.924 47.3656 188.696 47.558C184.381 51.2112 177.763 51.351 173.698 47.3375C168.777 42.4833 170.19 33.9598 176.539 30.9465C180.153 29.2328 184.768 29.8315 187.699 32.6763C190.058 34.9654 190.856 38.3121 190.27 41.5386C190.267 41.5543 190.259 41.5684 190.247 41.5786C190.236 41.5888 190.221 41.5944 190.205 41.5942H175.515C175.508 41.5941 175.501 41.5955 175.495 41.5984C175.489 41.6013 175.483 41.6055 175.479 41.6109C175.474 41.6162 175.471 41.6224 175.469 41.6292C175.468 41.6359 175.467 41.6429 175.469 41.6498C176.057 44.9534 179.172 46.5219 182.296 46.1509C183.935 45.9573 185.473 45.1255 186.663 44.0321ZM185.801 38.2242C185.326 35.9817 183.784 34.1659 181.402 33.9275C178.371 33.6263 176.132 35.4189 175.397 38.2905C175.395 38.2971 175.395 38.3039 175.397 38.3106C175.398 38.3172 175.401 38.3234 175.405 38.3287C175.409 38.3341 175.414 38.3384 175.421 38.3414C175.427 38.3444 175.433 38.346 175.44 38.3461L185.701 38.3479C185.716 38.348 185.731 38.3446 185.745 38.3381C185.759 38.3315 185.771 38.322 185.78 38.3101C185.79 38.2983 185.797 38.2844 185.8 38.2695C185.804 38.2546 185.804 38.2392 185.801 38.2242Z" fill="#1E1E1E"/>
<path d="M120.852 30.3962H116.492C116.454 30.3962 116.422 30.4275 116.422 30.4661V49.8256C116.422 49.8642 116.454 49.8955 116.492 49.8955H120.852C120.89 49.8955 120.922 49.8642 120.922 49.8256V30.4661C120.922 30.4275 120.89 30.3962 120.852 30.3962Z" fill="#1E1E1E"/>
</svg>
