<svg width="285" height="53" viewBox="0 0 285 53" fill="none" xmlns="http://www.w3.org/2000/svg">
<path d="M284.973 36.284V38.1552C284.717 42.2792 283.045 45.6543 279.957 48.2807C279.256 48.8766 278.461 49.4276 277.574 49.9337C274.086 51.923 270.131 52.7779 266.131 52.9582C263.459 53.0792 260.872 52.8918 258.37 52.3961C255.128 51.7541 252.105 50.5961 249.302 48.9219C247.992 48.1397 246.738 47.2228 245.542 46.1712C244.371 45.1411 243.317 43.9998 242.381 42.7471C242.376 42.7413 242.373 42.7346 242.371 42.7276C242.37 42.7206 242.369 42.7133 242.371 42.7061C242.372 42.699 242.374 42.6921 242.378 42.686C242.382 42.6798 242.387 42.6745 242.393 42.6703L249.407 37.6142C249.413 37.6101 249.419 37.6072 249.426 37.6057C249.433 37.6041 249.44 37.6041 249.447 37.6054C249.454 37.6068 249.461 37.6095 249.467 37.6135C249.473 37.6175 249.478 37.6227 249.481 37.6287C250.428 39.0792 251.706 40.3092 253.112 41.3345C254.985 42.7003 257.276 43.7278 259.599 44.3111C262.89 45.1378 266.237 45.2001 269.638 44.4981C269.935 44.4365 270.44 44.2821 271.152 44.035C271.838 43.7961 272.49 43.4662 273.107 43.0454C274.717 41.9478 275.587 40.4647 275.717 38.5961C275.782 37.6602 275.67 36.8268 275.382 36.0959C274.784 34.5853 273.443 33.5523 271.972 32.8743C271.05 32.4498 270.126 32.1126 269.2 31.8625C268.077 31.5597 266.99 31.2944 265.939 31.0665C263.528 30.5433 261.214 30.0354 258.996 29.5426C257.875 29.2933 256.628 28.9459 255.253 28.5007C253.583 27.9597 252.012 27.2394 250.541 26.34C249.374 25.6268 248.336 24.7537 247.429 23.7207C245.891 21.9708 244.944 19.7578 244.628 17.4346C244.478 16.3303 244.435 15.294 244.498 14.3255C244.592 12.8621 244.872 11.5363 245.338 10.3481C246.196 8.16112 247.535 6.29173 249.355 4.73996C252.453 2.0984 256.381 0.686897 260.399 0.203779C262.829 -0.0886147 265.287 -0.0663511 267.773 0.27057C273.954 1.10768 279.169 3.78449 283.418 8.30101C283.423 8.3067 283.427 8.31346 283.43 8.32086C283.433 8.32825 283.434 8.33613 283.433 8.34398C283.433 8.35183 283.431 8.35948 283.427 8.36646C283.423 8.37343 283.418 8.37958 283.412 8.3845L277.059 13.4984C277.041 13.5131 277.018 13.5202 276.994 13.5181C276.971 13.516 276.949 13.505 276.933 13.4873C275.512 11.8569 273.842 10.5897 271.924 9.6858C271.273 9.37856 270.67 9.13032 270.113 8.94108C267.488 8.04832 264.751 7.71474 261.901 7.94034C260.717 8.03459 259.567 8.278 258.453 8.67058C257.215 9.10695 255.975 9.84832 255.122 10.8435C253.91 12.2587 253.481 13.9708 253.835 15.9797C253.921 16.4695 254.111 16.9704 254.405 17.4825C255.014 18.5444 256.138 19.3315 257.226 19.8201C258.661 20.4658 260.195 20.9077 261.68 21.2383C262.536 21.429 264.985 21.9712 269.025 22.8647C270.667 23.2276 272.403 23.7125 274.234 24.3196C275.794 24.8368 277.244 25.4665 278.584 26.2086C279.332 26.6227 280.027 27.0862 280.672 27.599C282.437 29.0031 283.654 30.7144 284.322 32.733C284.673 33.7949 284.89 34.9786 284.973 36.284Z" fill="#1E1E1E"/>
<path d="M217.75 35.9957C217.747 36.0001 217.741 36.0031 217.736 36.0039C217.73 36.0047 217.724 36.0034 217.719 36.0001L217.718 35.999C217.714 35.9959 217.711 35.9913 217.71 35.9862C217.709 35.981 217.71 35.9757 217.713 35.9712C219.26 33.3916 220.141 30.6168 220.356 27.6468C220.376 27.3841 220.39 27.0862 220.401 26.753C220.415 26.33 220.419 26.0309 220.412 25.8558C220.262 21.9493 219.107 18.4828 216.946 15.4565C215.545 13.4958 213.831 11.8643 211.803 10.5619C209.774 9.25869 207.574 8.38485 205.2 7.94032C202.919 7.51361 200.645 7.50841 198.378 7.92474C196.108 8.34181 193.983 9.15257 192.004 10.357C191.996 10.362 191.986 10.364 191.977 10.3628C191.968 10.3616 191.959 10.3571 191.953 10.3503C191.947 10.3434 191.943 10.3345 191.942 10.3252C191.942 10.3159 191.945 10.3066 191.95 10.2991C193.295 8.43272 194.828 6.67947 196.55 5.03939C197.702 3.94254 199.089 2.98262 200.712 2.15961C203.76 0.615266 207.012 -0.0400229 210.467 0.193744C213.804 0.420089 216.88 1.4854 219.694 3.38967C223.825 6.18485 226.726 10.6476 227.589 15.6123C228.016 18.071 227.969 20.4854 227.446 22.8557C226.698 26.2532 225.156 29.1908 222.821 31.6687C221.43 33.1448 219.787 34.5341 217.891 35.8365C217.869 35.8513 217.822 35.9044 217.75 35.9957Z" fill="#1E1E1E"/>
<path d="M75.5279 0.774813C89.7565 0.775556 96.882 0.774813 96.9042 0.772587C96.9091 0.771951 96.9141 0.7724 96.9188 0.773904C96.9235 0.775407 96.9278 0.77793 96.9315 0.781303C96.9352 0.784677 96.9381 0.788823 96.9402 0.793463C96.9422 0.798103 96.9432 0.803131 96.9432 0.808209V9.33624C96.9432 9.34421 96.9401 9.35185 96.9347 9.35749C96.9293 9.36313 96.9219 9.36629 96.9142 9.36629H79.8983C79.8773 9.36629 79.8572 9.37462 79.8424 9.38944C79.8275 9.40426 79.8192 9.42437 79.8192 9.44533V52.1756C79.8192 52.182 79.818 52.1883 79.8155 52.1942C79.813 52.2001 79.8094 52.2054 79.8048 52.2099C79.8002 52.2143 79.7948 52.2178 79.7889 52.2202C79.783 52.2225 79.7766 52.2237 79.7702 52.2235C79.4207 52.2228 78.0055 52.2224 75.5246 52.2224C73.0444 52.2224 71.6296 52.2228 71.2801 52.2235C71.2737 52.2237 71.2673 52.2225 71.2614 52.2202C71.2555 52.2178 71.2501 52.2143 71.2455 52.2099C71.2409 52.2054 71.2373 52.2001 71.2348 52.1942C71.2324 52.1883 71.2311 52.182 71.2311 52.1756L71.2355 9.44533C71.2355 9.42437 71.2272 9.40426 71.2124 9.38944C71.1976 9.37462 71.1775 9.36629 71.1565 9.36629L54.1405 9.36407C54.1328 9.36407 54.1255 9.3609 54.12 9.35526C54.1146 9.34963 54.1116 9.34198 54.1116 9.33401L54.1127 0.805982C54.1127 0.800905 54.1137 0.795877 54.1157 0.791237C54.1177 0.786596 54.1207 0.78245 54.1244 0.779077C54.1281 0.775704 54.1324 0.773181 54.1371 0.771677C54.1418 0.770174 54.1468 0.769725 54.1516 0.770361C54.1739 0.772587 61.2993 0.774071 75.5279 0.774813Z" fill="#1E1E1E"/>
<path d="M0 52.2191V0.77594L37.8591 0.780393C37.8785 0.780393 37.8972 0.788133 37.911 0.801911C37.9248 0.81569 37.9325 0.834377 37.9325 0.853862V9.27169C37.9325 9.29619 37.9228 9.31969 37.9055 9.33702C37.8881 9.35435 37.8646 9.36408 37.8401 9.36408H8.63378C8.61577 9.36408 8.5985 9.37123 8.58576 9.38397C8.57303 9.3967 8.56588 9.41398 8.56588 9.43198V22.1645C8.56588 22.1748 8.56998 22.1847 8.57729 22.192C8.58459 22.1993 8.5945 22.2034 8.60484 22.2034H34.0264C34.0394 22.2034 34.0518 22.2086 34.061 22.2178C34.0702 22.227 34.0754 22.2394 34.0754 22.2524V30.747C34.0754 30.7594 34.0705 30.7713 34.0617 30.7801C34.0529 30.7889 34.041 30.7938 34.0286 30.7938H8.61263C8.59994 30.7938 8.58776 30.7987 8.57878 30.8075C8.56981 30.8163 8.56476 30.8282 8.56476 30.8406V43.5808C8.56476 43.5877 8.56612 43.5945 8.56875 43.6009C8.57138 43.6072 8.57523 43.613 8.58009 43.6178C8.58495 43.6227 8.59071 43.6265 8.59706 43.6292C8.60341 43.6318 8.61021 43.6332 8.61708 43.6332H37.8446C37.8673 43.6332 37.8891 43.6422 37.9052 43.6583C37.9213 43.6743 37.9303 43.6961 37.9303 43.7189V52.1612C37.9303 52.1765 37.9242 52.1913 37.9133 52.2021C37.9025 52.213 37.8878 52.2191 37.8724 52.2191H0Z" fill="#1E1E1E"/>
<path d="M135.459 22.2034C139.712 22.2034 143.973 22.2034 148.242 22.2034C148.248 22.2036 148.255 22.2024 148.261 22.1998C148.268 22.1972 148.274 22.1934 148.278 22.1885C148.283 22.1837 148.287 22.1778 148.29 22.1714C148.293 22.165 148.294 22.1581 148.294 22.1511V0.822708C148.294 0.810308 148.299 0.798416 148.308 0.789648C148.316 0.78088 148.328 0.775955 148.341 0.775955H156.825C156.839 0.775955 156.852 0.781349 156.861 0.790952C156.871 0.800555 156.876 0.81358 156.876 0.827161C156.88 4.83162 156.882 13.389 156.881 26.4992C156.881 39.6087 156.879 48.166 156.875 52.1712C156.875 52.1848 156.87 52.1978 156.86 52.2074C156.851 52.217 156.838 52.2224 156.824 52.2224L148.34 52.2213C148.327 52.2213 148.315 52.2164 148.306 52.2076C148.298 52.1988 148.293 52.187 148.293 52.1746L148.294 30.8461C148.294 30.8393 148.292 30.8325 148.29 30.8262C148.287 30.8199 148.283 30.8142 148.278 30.8095C148.273 30.8047 148.268 30.801 148.261 30.7985C148.255 30.796 148.248 30.7948 148.242 30.7949C143.973 30.7942 139.712 30.7938 135.459 30.7938C131.206 30.7938 126.945 30.7938 122.675 30.7938C122.662 30.7938 122.649 30.7993 122.639 30.8091C122.629 30.819 122.624 30.8323 122.624 30.8461V52.1746C122.624 52.187 122.619 52.1988 122.61 52.2076C122.602 52.2164 122.59 52.2213 122.577 52.2213H114.093C114.079 52.2213 114.066 52.2159 114.056 52.2063C114.047 52.1967 114.041 52.1837 114.041 52.1701C114.038 48.1656 114.036 39.6083 114.037 26.4981C114.037 13.3886 114.039 4.83125 114.043 0.826047C114.043 0.812467 114.048 0.799442 114.058 0.789839C114.067 0.780236 114.08 0.774841 114.094 0.774841L122.578 0.775955C122.591 0.775955 122.603 0.78088 122.611 0.789648C122.62 0.798416 122.625 0.810308 122.625 0.822708L122.624 22.1511C122.624 22.158 122.626 22.1648 122.628 22.1711C122.631 22.1774 122.635 22.1831 122.64 22.1878C122.645 22.1926 122.65 22.1963 122.657 22.1988C122.663 22.2013 122.67 22.2025 122.676 22.2023C126.945 22.2031 131.206 22.2034 135.459 22.2034Z" fill="#1E1E1E"/>
<path d="M190.677 37.3604C192.008 38.6925 193.451 39.864 195.006 40.8747C200.858 44.6796 207.771 46.1489 214.684 45.0224C218.59 44.3857 222.329 42.9653 225.757 40.9771C225.762 40.9749 225.767 40.9742 225.772 40.9754C225.777 40.9765 225.782 40.9794 225.785 40.9835C225.788 40.9875 225.79 40.9925 225.79 40.9977C225.789 41.0028 225.788 41.0078 225.784 41.0116C225.56 41.232 224.653 42.1415 223.064 43.74C221.839 44.9719 220.909 45.8562 220.273 46.3927C217.668 48.5894 214.763 50.2406 211.558 51.3463C205.61 53.3979 199.101 53.3367 193.192 51.1872C189.835 49.9656 186.797 48.1178 184.078 45.6436C183.979 45.5534 183.914 45.4287 183.786 45.3619C183.764 45.3502 183.744 45.3352 183.726 45.3174C183.54 45.1252 183.372 44.9549 183.223 44.8064C183.075 44.6573 182.905 44.4896 182.713 44.3033C182.695 44.2855 182.68 44.2652 182.669 44.2432C182.602 44.1152 182.477 44.0506 182.387 43.9515C179.916 41.2295 178.071 38.1894 176.854 34.8313C174.71 28.9192 174.655 22.4105 176.712 16.465C177.822 13.2613 179.476 10.3582 181.675 7.75556C182.212 7.12031 183.097 6.1908 184.331 4.96706C185.931 3.37967 186.841 2.47392 187.061 2.2498C187.065 2.24644 187.07 2.24453 187.075 2.24439C187.08 2.24426 187.085 2.2459 187.089 2.24904C187.094 2.25219 187.096 2.25664 187.098 2.26165C187.099 2.26666 187.098 2.27191 187.096 2.27651C185.104 5.70286 183.681 9.4409 183.039 13.3459C181.906 20.2576 183.369 27.1715 187.167 33.028C188.176 34.5849 189.346 36.0291 190.677 37.3604Z" fill="#1E1E1E"/>
</svg>
