<svg width="40" height="29" viewBox="0 0 40 29" fill="none" xmlns="http://www.w3.org/2000/svg">
<path d="M19.6396 18.9251L17.9181 17.2493C17.9142 17.2454 17.9117 17.2404 17.911 17.235C17.9103 17.2295 17.9114 17.224 17.9143 17.2193L19.4294 14.7188C19.4307 14.7167 19.4314 14.7143 19.4315 14.7118C19.4316 14.7093 19.4309 14.7069 19.4297 14.7047C19.4285 14.7026 19.4267 14.7008 19.4246 14.6995C19.4224 14.6983 19.42 14.6977 19.4175 14.6977H17.5307C17.5266 14.6977 17.5225 14.6988 17.5189 14.7008C17.5153 14.7028 17.5122 14.7057 17.51 14.7092L16.7018 16.0429C16.7007 16.0448 16.6991 16.0464 16.6973 16.0476C16.6955 16.0488 16.6934 16.0496 16.6912 16.0499C16.689 16.0502 16.6868 16.05 16.6847 16.0493C16.6827 16.0486 16.6807 16.0475 16.6792 16.046C15.9447 15.3307 15.3687 14.7713 14.9511 14.3678C14.7302 14.1545 14.4974 13.9152 14.357 13.6467C14.0524 13.0633 14.4302 12.4284 15.1092 12.4998C15.5488 12.5458 15.7896 12.9332 15.8157 13.349C15.8161 13.3551 15.8188 13.3607 15.8232 13.3649C15.8276 13.369 15.8335 13.3713 15.8395 13.3713H17.5671C17.5697 13.3713 17.5722 13.3708 17.5746 13.3697C17.5769 13.3687 17.579 13.3672 17.5807 13.3654C17.5825 13.3635 17.5838 13.3613 17.5846 13.3589C17.5855 13.3564 17.5858 13.3539 17.5856 13.3513C17.4697 11.8435 16.4172 10.8443 14.8886 10.8999C14.816 10.9027 14.7627 10.9032 14.7287 10.9014C14.7258 10.9013 14.723 10.9005 14.7205 10.8992C14.718 10.8978 14.7158 10.896 14.714 10.8937C14.7123 10.8915 14.7111 10.8889 14.7104 10.8861C14.7098 10.8833 14.7097 10.8804 14.7103 10.8776C15.2258 8.13965 16.5019 5.54551 18.4758 3.58466C20.322 1.75115 22.8022 0.565124 25.3887 0.176175C26.0889 0.0708188 26.7921 0.0126426 27.4984 0.00164669C31.4339 -0.0589587 35.3215 1.55322 37.6045 4.85852C38.6202 6.32916 39.1883 8.0265 39.3621 9.80553C39.4222 10.421 39.4686 10.9041 39.5013 11.2547C39.5015 11.2571 39.5013 11.2595 39.5005 11.2618C39.4997 11.264 39.4985 11.2661 39.4968 11.2679C39.4952 11.2697 39.4932 11.2711 39.491 11.272C39.4888 11.273 39.4865 11.2735 39.4841 11.2735H31.8735C31.8694 11.2735 31.8654 11.2722 31.8622 11.2696C31.8589 11.2671 31.8567 11.2636 31.8558 11.2597C31.6821 10.5067 31.6054 10.0767 31.3944 9.50596C31.0054 8.45291 30.2902 7.74904 29.2487 7.39436C28.8375 7.25422 28.4077 7.17853 27.9594 7.16728C26.971 7.14235 25.9476 7.28427 25.093 7.82128C24.459 8.21969 23.956 8.72729 23.584 9.34409C22.9016 10.476 22.602 11.715 22.4735 13.0621C22.3883 13.9553 22.4037 14.8518 22.5195 15.7514C22.6653 16.8837 22.9756 17.9643 23.5851 18.9347C24.2683 20.0225 25.3315 20.7866 26.5855 20.9995C27.1598 21.0972 27.7582 21.1215 28.3806 21.0724C28.9215 21.0297 29.4132 20.9278 29.8559 20.7667C30.9115 20.3823 31.6253 19.5381 31.9602 18.4852C31.9605 18.484 31.9606 18.4827 31.9604 18.4815C31.9602 18.4802 31.9597 18.4791 31.9589 18.4781C31.9582 18.4771 31.9572 18.4762 31.9561 18.4757C31.955 18.4751 31.9537 18.4748 31.9525 18.4748H26.8532C26.8462 18.4748 26.8394 18.472 26.8345 18.467C26.8295 18.4621 26.8267 18.4553 26.8267 18.4483V12.6421C26.8267 12.6393 26.8279 12.6365 26.8299 12.6345C26.8319 12.6325 26.8346 12.6314 26.8375 12.6314H39.7296C39.7344 12.6314 39.7391 12.6333 39.7426 12.6368C39.746 12.6402 39.748 12.6449 39.748 12.6498V27.6542C39.748 27.6611 39.7452 27.6678 39.7403 27.6727C39.7354 27.6776 39.7288 27.6803 39.7219 27.6803H33.9279C33.9239 27.6803 33.92 27.6789 33.9169 27.6764C33.9138 27.6739 33.9118 27.6704 33.911 27.6665L33.6422 26.3098C33.6417 26.3073 33.6405 26.3051 33.6389 26.3032C33.6373 26.3013 33.6352 26.2998 33.6328 26.299C33.6305 26.2981 33.628 26.2979 33.6255 26.2983C33.623 26.2987 33.6207 26.2998 33.6188 26.3013C32.8351 26.9185 32.0131 27.3358 31.0296 27.6738C29.8689 28.0724 28.6599 28.2561 27.4025 28.2246C26.52 28.2026 25.6921 28.1205 24.9188 27.9783C22.3531 27.5065 19.9507 26.2626 18.1598 24.3788C16.7283 22.8729 15.7279 21.0712 15.1073 19.0947C15.1065 19.0924 15.1062 19.09 15.1065 19.0877C15.1068 19.0853 15.1076 19.0831 15.1088 19.081C15.1101 19.079 15.1117 19.0773 15.1137 19.076C15.1157 19.0747 15.118 19.0739 15.1203 19.0736C15.7067 18.9979 16.2393 18.8007 16.7183 18.4821C16.7238 18.4785 16.7303 18.4768 16.7368 18.4773C16.7434 18.4779 16.7496 18.4807 16.7543 18.4852L17.2235 18.9282C17.2343 18.9383 17.2486 18.9439 17.2634 18.9439H19.6319C19.6341 18.9438 19.6362 18.9431 19.6379 18.9419C19.6397 18.9407 19.6411 18.939 19.6419 18.937C19.6427 18.935 19.6429 18.9328 19.6425 18.9307C19.6421 18.9286 19.6411 18.9267 19.6396 18.9251Z" fill="#1E1E1E"/>
<path d="M13.7781 11.0917C13.7802 11.0917 13.7821 11.0924 13.7836 11.0937C13.7852 11.095 13.7862 11.0968 13.7866 11.0987C13.787 11.1007 13.7868 11.1028 13.7858 11.1045C13.7849 11.1063 13.7834 11.1077 13.7816 11.1086C13.6637 11.1579 13.5645 11.2046 13.4839 11.2486C12.3915 11.8443 11.996 13.1342 12.5818 14.2397C12.6112 14.2955 12.6756 14.4003 12.7751 14.5542C12.7764 14.5564 12.7773 14.5588 12.7777 14.5613C12.7781 14.5638 12.778 14.5663 12.7773 14.5688C12.7767 14.5712 12.7755 14.5735 12.774 14.5755C12.7724 14.5775 12.7704 14.5791 12.7682 14.5803C11.9822 14.9954 11.4648 15.7138 11.4537 16.621C11.4395 17.7579 12.1763 18.639 13.2618 18.9478C13.2642 18.9487 13.2662 18.9503 13.2675 18.9525C13.2687 18.9547 13.2693 18.9572 13.2689 18.9597C13.2685 18.9622 13.2673 18.9645 13.2655 18.9663C13.2637 18.968 13.2613 18.969 13.2588 18.9692H7.89558C7.89202 18.9692 7.88861 18.9706 7.88609 18.9731C7.88357 18.9755 7.88216 18.9788 7.88216 18.9823V27.6615C7.88216 27.6638 7.8817 27.6661 7.88081 27.6683C7.87993 27.6704 7.87863 27.6724 7.87699 27.674C7.87535 27.6756 7.87341 27.6769 7.87127 27.6778C7.86913 27.6787 7.86683 27.6792 7.86451 27.6792H0.021864C0.0160653 27.6792 0.010504 27.6769 0.00640371 27.6728C0.00230342 27.6687 0 27.6631 0 27.6573V0.041165C0 0.0361802 0.00198018 0.0313996 0.00550499 0.0278748C0.0090298 0.0243499 0.0138104 0.0223695 0.0187953 0.0223695H22.5207C22.5223 0.0223609 22.5239 0.022936 22.5251 0.0239948C22.5263 0.0250537 22.5271 0.0265297 22.5273 0.028168C22.5275 0.0298063 22.5272 0.0315041 22.5263 0.0329668C22.5255 0.0344296 22.5241 0.0355653 22.5226 0.0361783C22.0339 0.195236 21.55 0.395336 21.0707 0.636479C18.7933 1.78108 17.0156 3.47189 15.7375 5.70892C15.3362 6.41113 14.9929 7.1366 14.7076 7.88535C14.7061 7.88928 14.7034 7.89267 14.6999 7.89507C14.6964 7.89746 14.6923 7.89876 14.688 7.89877H7.91016C7.90273 7.89877 7.89561 7.90172 7.89036 7.90698C7.88511 7.91223 7.88216 7.91935 7.88216 7.92678V11.0775C7.88216 11.0813 7.88365 11.0849 7.88632 11.0875C7.88898 11.0902 7.89259 11.0917 7.89635 11.0917H13.7781Z" fill="#1E1E1E"/>
<path d="M15.4759 17.2915C15.477 17.2925 15.4778 17.2939 15.4783 17.2953C15.4788 17.2968 15.4789 17.2983 15.4786 17.2999C15.4784 17.3014 15.4777 17.3029 15.4768 17.3042C15.4758 17.3054 15.4746 17.3065 15.4732 17.3072C15.0975 17.4967 14.7109 17.5728 14.3132 17.5354C13.7432 17.4814 13.1568 17.061 13.2584 16.425C13.3064 16.1266 13.5342 15.8669 13.792 15.7204C13.7956 15.7183 13.7999 15.7174 13.8041 15.718C13.8083 15.7186 13.8123 15.7205 13.8154 15.7234L15.4759 17.2915Z" fill="#1E1E1E"/>
</svg>
