<svg width="147" height="46" viewBox="0 0 147 46" fill="none" xmlns="http://www.w3.org/2000/svg">
<path d="M37.1357 7.5791L37.1387 8.22173" stroke="#000940" stroke-width="0.198342"/>
<path d="M35.298 8.72052L35.2951 7.80518" stroke="#000940" stroke-width="0.198342"/>
<path d="M29.562 36.9268L28.6536 37.5972" stroke="#000940" stroke-width="0.198342"/>
<path d="M8.08157 34.1152L7.65018 33.5053" stroke="#000940" stroke-width="0.198342"/>
<path d="M5.62808 33.7602L6.03567 34.4088" stroke="#000940" stroke-width="0.198342"/>
<path d="M31.2935 37.8986L32.2128 37.0477" stroke="#000940" stroke-width="0.198342"/>
<path d="M37.1357 7.57915L37.1387 8.22178L37.1397 14.3446C37.1397 14.4187 37.1165 14.4909 37.0733 14.5509C36.5444 15.2827 35.9695 15.9614 35.3487 16.5868C35.3446 16.5913 35.3392 16.5943 35.3333 16.5957C35.3275 16.597 35.3213 16.5965 35.3157 16.5942C35.3101 16.592 35.3054 16.588 35.302 16.583C35.2987 16.578 35.297 16.572 35.2971 16.566L35.2981 8.72061L35.2951 7.80526L35.2991 6.7719C35.2991 6.76743 35.2982 6.76301 35.2964 6.7589C35.2946 6.7548 35.2919 6.7511 35.2886 6.74803C35.2852 6.74496 35.2813 6.7426 35.2769 6.74107C35.2726 6.73955 35.268 6.7389 35.2634 6.73917C33.3282 6.87934 31.4129 6.74182 29.5174 6.32662C26.2101 5.60168 23.0525 4.18552 20.238 2.30425C20.2254 2.29572 20.2105 2.29108 20.1952 2.29091C20.1799 2.29073 20.1648 2.29502 20.1517 2.30326C15.6623 5.21591 10.5004 7.15073 5.11743 6.73719C5.11237 6.73678 5.10728 6.73742 5.10248 6.73908C5.09767 6.74074 5.09327 6.74338 5.08954 6.74683C5.08581 6.75028 5.08284 6.75446 5.08081 6.75912C5.07879 6.76378 5.07775 6.7688 5.07776 6.77388C5.07776 17.4004 5.07776 23.5539 5.07776 25.2345C5.07776 25.5281 5.10718 26.0147 5.16603 26.6943C5.16658 26.7011 5.16571 26.708 5.16345 26.7144C5.1612 26.7208 5.15762 26.7267 5.15294 26.7317C5.14827 26.7366 5.1426 26.7405 5.13631 26.7432C5.13002 26.7458 5.12325 26.7471 5.11644 26.7469C4.53596 26.729 3.96507 26.7743 3.40376 26.8828C3.39687 26.8842 3.38976 26.8841 3.38289 26.8826C3.37603 26.8811 3.36956 26.8781 3.36394 26.8739C3.35831 26.8697 3.35364 26.8643 3.35025 26.8581C3.34686 26.852 3.34481 26.8452 3.34426 26.8381C3.27748 26.1016 3.24409 25.6792 3.24409 25.5707C3.24211 18.9236 3.24178 11.9694 3.2431 4.70815C3.24302 4.70024 3.24467 4.6924 3.24792 4.68517C3.25118 4.67793 3.25597 4.67147 3.26198 4.66621C3.26799 4.66095 3.27508 4.65702 3.28277 4.65467C3.29046 4.65233 3.29858 4.65163 3.30657 4.65262C3.99283 4.74286 4.80009 4.89261 5.47742 4.92534C7.25787 5.01261 8.93551 4.87344 10.5103 4.50783C13.3883 3.84008 16.1109 2.68639 18.6781 1.04677C19.1951 0.716857 19.681 0.372404 20.1359 0.013405C20.1465 0.00489897 20.1597 0.000184872 20.1734 5.3255e-06C20.187 -0.000174221 20.2004 0.00419077 20.2112 0.012413C22.0948 1.41932 24.152 2.55945 26.3826 3.43282C29.2685 4.56237 32.2218 5.1455 35.2475 4.89658C35.5265 4.87344 36.1371 4.79014 37.0792 4.64667C37.0857 4.64567 37.0923 4.64608 37.0986 4.64786C37.1049 4.64964 37.1107 4.65275 37.1157 4.65698C37.1207 4.66121 37.1247 4.66647 37.1275 4.67239C37.1302 4.67831 37.1317 4.68476 37.1318 4.6913L37.1357 7.57915Z" fill="#00112A"/>
<path d="M29.562 36.9267L28.6536 37.5971C27.5627 37.3836 26.4524 37.0676 25.3225 36.6491C21.0799 35.0762 17.72 33.664 13.6689 32.0168C13.6493 32.0087 13.6282 32.005 13.607 32.0058C13.5857 32.0067 13.5649 32.0121 13.5459 32.0217C12.1496 32.7265 10.7027 33.3229 9.20521 33.8108C8.87002 33.9199 8.45945 34.0111 8.08161 34.1152L7.65021 33.5053C9.25877 33.1285 10.8029 32.356 12.1774 31.4257C12.1817 31.4228 12.1852 31.4188 12.1875 31.4141C12.1897 31.4094 12.1906 31.4042 12.1901 31.399C12.1896 31.3938 12.1877 31.3888 12.1846 31.3846C12.1814 31.3804 12.1772 31.3771 12.1724 31.3752C10.6227 30.7325 9.04985 30.193 7.45386 29.7567C6.28364 29.436 5.12301 29.2876 3.97197 29.3114C3.38884 29.3233 2.87117 29.3904 2.41895 29.5127C1.05039 29.8836 0.501976 31.1084 1.54129 32.2419C2.62324 33.425 4.06519 33.8088 5.62812 33.7602L6.03571 34.4088C4.67443 34.5417 3.41991 34.4038 2.27218 33.9952C1.88541 33.8571 1.49468 33.6201 1.09998 33.2842C-0.247755 32.1338 -0.346926 30.437 0.746929 29.0674C1.43716 28.2027 2.36011 27.6612 3.51578 27.443C5.13425 27.1366 6.95205 27.4143 8.43565 27.9815C10.1354 28.6321 11.9056 29.4979 13.5489 30.3418C13.5652 30.3503 13.5837 30.3536 13.6021 30.3513C13.6205 30.349 13.6379 30.3412 13.652 30.3289C14.5862 29.5012 15.1892 28.9504 15.4609 28.6767C16.9465 27.1806 18.3927 25.5542 19.7996 23.7975C19.8034 23.7928 19.8058 23.7871 19.8067 23.7811C19.8075 23.7752 19.8067 23.7691 19.8044 23.7635C19.802 23.7579 19.7983 23.7531 19.7934 23.7495C19.7886 23.7458 19.7828 23.7436 19.7768 23.743C18.1273 23.5922 16.5693 23.1367 15.1029 22.3764C14.408 22.0161 13.8114 21.5533 13.3129 20.988C12.6359 20.2204 12.3615 19.2955 12.4898 18.2132C12.8924 14.8176 17.5653 13.6256 20.349 13.5016C22.5361 13.4044 24.6501 13.7254 26.691 14.4645C26.6997 14.4675 26.7091 14.4677 26.718 14.4653C26.7268 14.4628 26.7347 14.4577 26.7406 14.4507C27.7317 13.2613 28.7534 12.1648 29.806 11.1612C31.3431 9.69541 33.2274 8.37544 35.2951 7.80521L35.2981 8.72056C34.4868 9.13906 33.7156 9.65706 32.9844 10.2746C31.9702 11.1321 31.0658 12.0411 30.2711 13.0018C29.6929 13.7009 28.9908 14.7373 28.5435 15.3719C28.5394 15.3779 28.5365 15.3845 28.5349 15.3916C28.5334 15.3986 28.5332 15.4059 28.5345 15.413C28.5358 15.4201 28.5385 15.4269 28.5424 15.433C28.5464 15.439 28.5515 15.4442 28.5574 15.4483C29.2939 15.9633 29.9263 16.5471 30.4546 17.1997C30.682 17.4807 30.758 17.797 30.6827 18.1487C30.6803 18.1603 30.6746 18.1709 30.6663 18.1793C30.6581 18.1877 30.6476 18.1936 30.6361 18.1962C30.6246 18.1988 30.6126 18.1981 30.6015 18.194C30.5904 18.19 30.5807 18.1829 30.5736 18.1735C29.8747 17.2922 29.0632 16.568 28.1389 16.0007C28.132 15.9963 28.1235 15.9949 28.1154 15.9968C28.1072 15.9986 28.1 16.0036 28.0953 16.0106C26.5254 18.357 25.1588 20.4693 23.4233 22.8693C23.4211 22.8727 23.4199 22.8766 23.4198 22.8807C23.4197 22.8848 23.4207 22.8888 23.4228 22.8923C23.4248 22.8958 23.4279 22.8987 23.4315 22.9005C23.4351 22.9024 23.4391 22.9033 23.4432 22.903C25.9667 22.6676 28.3859 21.9377 30.7005 20.7133C33.1143 19.436 35.1457 17.8129 36.7946 15.844C37.6633 14.8067 38.3783 13.6761 38.8821 12.4295C39.1826 11.6887 39.4216 10.7982 39.3194 9.98895C39.1856 8.93576 38.5271 8.30206 37.4759 8.25446C37.3648 8.24983 37.2524 8.23892 37.1387 8.22173L37.1357 7.5791C38.7651 7.58505 39.8976 8.18801 40.2963 9.8283C40.3607 10.0951 40.3964 10.581 40.3697 10.9013C40.3115 11.5916 40.1842 12.2058 39.9879 12.7439C39.1707 14.9822 37.7198 16.8159 35.9169 18.4334C33.6528 20.4654 30.6678 22.0293 27.7561 22.8445C26.2038 23.2802 24.5582 23.5664 22.8194 23.7033C22.8059 23.7045 22.7927 23.7085 22.7806 23.715C22.7685 23.7214 22.7578 23.7303 22.749 23.741C20.3748 26.7617 18.1018 29.2142 15.0593 31.1124C15.0553 31.115 15.052 31.1186 15.0498 31.1229C15.0476 31.1272 15.0466 31.1319 15.0468 31.1367C15.047 31.1415 15.0484 31.1462 15.051 31.1502C15.0535 31.1543 15.057 31.1577 15.0613 31.16C16.8562 32.0733 19.155 33.2475 21.3933 34.1837C23.0825 34.8904 24.581 35.4914 25.8887 35.9866C27.0391 36.4216 28.2635 36.735 29.562 36.9267ZM26.2031 15.0734C24.9787 14.6113 23.6392 14.3158 22.1847 14.1869C20.9418 14.0764 19.8453 14.1439 18.8952 14.3892C17.1161 14.8493 14.7945 16.0314 14.2699 17.9861C14.017 18.9292 14.1747 19.9864 14.8004 20.746C15.7902 21.948 17.3184 22.4924 18.7891 22.8246C19.2592 22.9311 19.7676 23.0071 20.3143 23.0527C20.3302 23.0543 20.3462 23.0518 20.3611 23.0456C20.376 23.0394 20.3892 23.0296 20.3996 23.017C20.998 22.2911 21.5563 21.5556 22.0746 20.8105C23.7645 18.3808 24.7284 16.9408 26.216 15.123C26.2192 15.1192 26.2214 15.1146 26.2224 15.1097C26.2235 15.1049 26.2234 15.0998 26.2221 15.095C26.2209 15.0901 26.2185 15.0857 26.2152 15.0819C26.2119 15.0782 26.2077 15.0753 26.2031 15.0734Z" fill="#C7E4FF"/>
<path d="M100.498 21.29C102.166 22.4021 103.991 22.9113 105.972 22.8178C106.63 22.7869 107.197 22.6311 107.672 22.3505C108.483 21.8702 108.601 20.7657 107.775 20.2176C107.436 19.9933 107.045 19.8205 106.601 19.6992C106.029 19.5423 105.212 19.3385 104.151 19.0881C103 18.8158 101.886 18.4532 100.967 17.7648C100.116 17.1267 99.6561 16.2556 99.5863 15.1515C99.4151 12.4383 101.222 10.7096 103.721 10.2162C106.13 9.74178 108.969 10.0236 111.144 11.3064C111.163 11.3176 111.177 11.3352 111.184 11.356C111.19 11.3768 111.189 11.3993 111.181 11.4194L110.118 13.959C110.115 13.9669 110.11 13.9741 110.103 13.98C110.097 13.9858 110.089 13.9903 110.081 13.993C110.073 13.9957 110.064 13.9966 110.056 13.9956C110.047 13.9947 110.039 13.9919 110.031 13.9875C109.175 13.4905 108.22 13.1445 107.167 12.9496C105.996 12.7332 103.253 12.6476 103.071 14.4084C102.964 15.4475 104.05 15.8803 104.891 16.0943C104.978 16.1165 105.787 16.3075 107.319 16.6674C108.423 16.9274 109.398 17.3177 110.244 17.8385C111.125 18.3818 111.716 19.3603 111.824 20.4649C112.139 23.6905 109.432 25.3705 106.605 25.6213C104.119 25.8425 101.353 25.3883 99.2796 23.9509C99.2672 23.9422 99.2583 23.9295 99.2544 23.9149C99.2505 23.9004 99.2518 23.8849 99.2582 23.8712L100.408 21.3162C100.412 21.308 100.417 21.3008 100.424 21.2949C100.43 21.289 100.438 21.2847 100.447 21.2822C100.456 21.2797 100.465 21.2792 100.473 21.2805C100.482 21.2818 100.491 21.2851 100.498 21.29Z" fill="#00112A"/>
<path d="M121.57 10.0057C126.126 10.0129 129.858 13.1184 129.851 17.8504C129.844 22.5836 126.101 25.6772 121.546 25.6701C116.99 25.663 113.258 22.5574 113.265 17.8242C113.272 13.0923 117.015 9.99862 121.57 10.0057ZM116.826 17.9217C116.875 20.5755 118.758 22.5931 121.449 22.6775C124.257 22.7643 126.328 20.516 126.278 17.7505C126.227 14.985 124.076 12.8128 121.273 13.0019C118.587 13.1826 116.778 15.268 116.826 17.9217Z" fill="#00112A"/>
<path d="M55.6132 22.5252H63.0382C63.0508 22.5252 63.0629 22.5303 63.0718 22.5392C63.0807 22.5481 63.0857 22.5602 63.0857 22.5728V25.3585C63.0857 25.3647 63.0845 25.3709 63.0821 25.3767C63.0797 25.3825 63.0762 25.3877 63.0718 25.3921C63.0674 25.3965 63.0621 25.4 63.0564 25.4024C63.0506 25.4048 63.0444 25.4061 63.0382 25.4061H52.0476C52.0349 25.4061 52.0228 25.401 52.0139 25.3921C52.005 25.3832 52 25.3711 52 25.3585V10.2969C52 10.2843 52.005 10.2722 52.0139 10.2633C52.0228 10.2544 52.0349 10.2494 52.0476 10.2494H55.5181C55.5307 10.2494 55.5428 10.2544 55.5517 10.2633C55.5606 10.2722 55.5656 10.2843 55.5656 10.2969V22.4777C55.5656 22.4903 55.5707 22.5024 55.5796 22.5113C55.5885 22.5202 55.6006 22.5252 55.6132 22.5252Z" fill="#00112A"/>
<path d="M76.736 25.4061H65.0998C65.0859 25.4061 65.0726 25.4005 65.0628 25.3907C65.053 25.3809 65.0475 25.3676 65.0475 25.3537V10.3017C65.0475 10.2878 65.053 10.2745 65.0628 10.2647C65.0726 10.2549 65.0859 10.2494 65.0998 10.2494H76.4685C76.4824 10.2494 76.4957 10.2549 76.5055 10.2647C76.5153 10.2745 76.5208 10.2878 76.5208 10.3017V13.0517C76.5208 13.0656 76.5153 13.0789 76.5055 13.0887C76.4957 13.0985 76.4824 13.104 76.4685 13.104H68.6072C68.5933 13.104 68.58 13.1096 68.5702 13.1194C68.5604 13.1292 68.5549 13.1425 68.5549 13.1564V16.2916C68.5549 16.3055 68.5604 16.3188 68.5702 16.3286C68.58 16.3384 68.5933 16.3439 68.6072 16.3439H75.5185C75.5324 16.3439 75.5457 16.3494 75.5555 16.3592C75.5653 16.3691 75.5708 16.3824 75.5708 16.3962V19.0523C75.5708 19.0662 75.5653 19.0795 75.5555 19.0893C75.5457 19.0991 75.5324 19.1046 75.5185 19.1046H68.6072C68.5933 19.1046 68.58 19.1102 68.5702 19.12C68.5604 19.1298 68.5549 19.1431 68.5549 19.157V22.5324C68.5549 22.5462 68.5604 22.5596 68.5702 22.5694C68.58 22.5792 68.5933 22.5847 68.6072 22.5847H76.736C76.7429 22.5847 76.7497 22.586 76.756 22.5887C76.7624 22.5913 76.7681 22.5952 76.773 22.6C76.7778 22.6049 76.7817 22.6106 76.7843 22.617C76.787 22.6233 76.7883 22.6301 76.7883 22.637V25.3537C76.7883 25.3606 76.787 25.3674 76.7843 25.3738C76.7817 25.3801 76.7778 25.3859 76.773 25.3907C76.7681 25.3956 76.7624 25.3994 76.756 25.4021C76.7497 25.4047 76.7429 25.4061 76.736 25.4061Z" fill="#00112A"/>
<path d="M83.0387 10.2494H79.605C79.5762 10.2494 79.5527 10.2728 79.5527 10.3017V25.3537C79.5527 25.3826 79.5762 25.4061 79.605 25.4061H83.0387C83.0676 25.4061 83.091 25.3826 83.091 25.3537V10.3017C83.091 10.2728 83.0676 10.2494 83.0387 10.2494Z" fill="#00112A"/>
<path d="M90.1963 13.1516V17.0062C90.1963 17.0188 90.2013 17.0309 90.2102 17.0398C90.2191 17.0487 90.2312 17.0537 90.2438 17.0537H97.1016C97.1143 17.0537 97.1263 17.0587 97.1353 17.0676C97.1442 17.0766 97.1492 17.0887 97.1492 17.1013V19.862C97.1492 19.8746 97.1442 19.8867 97.1353 19.8956C97.1263 19.9046 97.1143 19.9096 97.1016 19.9096H90.2414C90.2288 19.9096 90.2167 19.9146 90.2078 19.9235C90.1989 19.9324 90.1939 19.9445 90.1939 19.9571V25.3585C90.1939 25.3647 90.1926 25.3709 90.1903 25.3767C90.1879 25.3825 90.1844 25.3877 90.1799 25.3921C90.1755 25.3965 90.1703 25.4 90.1645 25.4024C90.1587 25.4048 90.1526 25.4061 90.1463 25.4061H86.6734C86.6672 25.4061 86.661 25.4048 86.6552 25.4024C86.6494 25.4 86.6442 25.3965 86.6398 25.3921C86.6354 25.3877 86.6319 25.3825 86.6295 25.3767C86.6271 25.3709 86.6259 25.3647 86.6259 25.3585V10.2969C86.6259 10.2843 86.6309 10.2722 86.6398 10.2633C86.6487 10.2544 86.6608 10.2494 86.6734 10.2494H98.0528C98.0654 10.2494 98.0775 10.2544 98.0864 10.2633C98.0953 10.2722 98.1004 10.2843 98.1004 10.2969V13.0565C98.1004 13.0691 98.0953 13.0812 98.0864 13.0901C98.0775 13.099 98.0654 13.104 98.0528 13.104H90.2438C90.2312 13.104 90.2191 13.1091 90.2102 13.118C90.2013 13.1269 90.1963 13.139 90.1963 13.1516Z" fill="#00112A"/>
<path d="M140.711 16.772C141.354 17.567 142.053 18.4202 142.81 19.3318C142.814 19.336 142.82 19.3389 142.825 19.3402C142.831 19.3415 142.837 19.3411 142.842 19.339C142.848 19.337 142.852 19.3335 142.856 19.3288C142.859 19.3241 142.861 19.3185 142.862 19.3127V10.2958C142.862 10.2851 142.866 10.2748 142.873 10.2672C142.881 10.2596 142.891 10.2554 142.902 10.2554H146.294C146.3 10.2554 146.306 10.2565 146.311 10.2588C146.317 10.2611 146.322 10.2644 146.326 10.2686C146.33 10.2728 146.333 10.2778 146.336 10.2833C146.338 10.2887 146.339 10.2946 146.339 10.3005V25.3728C146.339 25.3832 146.335 25.3932 146.328 25.4005C146.32 25.4079 146.31 25.412 146.3 25.412H143.509C143.487 25.412 143.464 25.407 143.444 25.3974C143.423 25.3877 143.405 25.3736 143.391 25.3562C140.958 22.4147 139.19 20.2611 138.086 18.8954C137.443 18.1004 136.743 17.2472 135.987 16.3356C135.983 16.3315 135.978 16.3285 135.972 16.3272C135.967 16.3259 135.961 16.3263 135.955 16.3284C135.95 16.3304 135.945 16.3339 135.942 16.3386C135.938 16.3433 135.936 16.3489 135.936 16.3547V25.3716C135.936 25.3823 135.932 25.3926 135.924 25.4002C135.916 25.4078 135.906 25.412 135.895 25.412H132.503C132.491 25.412 132.48 25.4073 132.471 25.3988C132.463 25.3903 132.458 25.3788 132.458 25.3669V10.2946C132.458 10.2842 132.462 10.2742 132.47 10.2669C132.477 10.2595 132.487 10.2554 132.497 10.2554H135.288C135.311 10.2555 135.333 10.2606 135.353 10.2703C135.373 10.2799 135.391 10.2939 135.406 10.3113C137.839 13.2527 139.607 15.4063 140.711 16.772Z" fill="#00112A"/>
<path d="M34.7774 29.018C35.1232 27.6699 35.2967 26.3678 35.298 25.1116C35.3013 21.755 35.3017 19.9666 35.299 19.7465C35.2987 19.7286 35.3026 19.711 35.3104 19.695C35.3181 19.6789 35.3295 19.665 35.3436 19.6543C35.9578 19.1749 36.5377 18.6599 37.0831 18.1092C37.0869 18.1053 37.0918 18.1026 37.0972 18.1014C37.1025 18.1003 37.1081 18.1008 37.1132 18.1028C37.1182 18.1048 37.1226 18.1083 37.1257 18.1127C37.1289 18.1172 37.1306 18.1225 37.1307 18.128C37.1419 20.1458 37.1396 22.5395 37.1238 25.309C37.1158 26.6941 36.9357 28.0431 36.5833 29.3561C36.5812 29.3635 36.5777 29.3703 36.573 29.3762C36.5683 29.3822 36.5625 29.3872 36.5558 29.3909C36.5492 29.3945 36.5419 29.3969 36.5344 29.3977C36.5268 29.3986 36.5192 29.3979 36.5119 29.3958C35.9757 29.2444 35.4107 29.1376 34.817 29.0755C34.8105 29.0747 34.8042 29.0725 34.7985 29.0691C34.7929 29.0657 34.788 29.0611 34.7842 29.0557C34.7805 29.0502 34.7779 29.0441 34.7768 29.0376C34.7756 29.0311 34.7758 29.0244 34.7774 29.018Z" fill="#00112A"/>
<path d="M70.5595 35.4348C70.5968 35.4871 70.7117 35.5723 70.9043 35.6904C71.8396 36.265 72.8601 36.4866 73.9659 36.355C74.596 36.2801 75.2987 35.9936 75.433 35.298C75.6137 34.3647 74.703 33.9712 73.9659 33.7881C72.5724 33.4445 70.5096 33.1734 70.2516 31.497C70.0352 30.0928 70.9079 29.062 72.2692 28.7386C73.5783 28.4283 75.1465 28.6162 76.2938 29.326C76.3118 29.3374 76.3253 29.3546 76.3318 29.3747C76.3384 29.3947 76.3375 29.4162 76.3295 29.4353L75.955 30.3294C75.9516 30.3374 75.9466 30.3446 75.9402 30.3505C75.9338 30.3563 75.9262 30.3607 75.9179 30.3633C75.9097 30.3659 75.9009 30.3667 75.8923 30.3656C75.8837 30.3644 75.8755 30.3614 75.8682 30.3568C74.9059 29.748 73.841 29.5511 72.6735 29.7659C72.4626 29.8047 72.2407 29.8994 72.0077 30.05C71.3668 30.4614 71.2432 31.4137 71.9019 31.8751C72.1555 32.0518 72.4254 32.1774 72.7115 32.252C73.5628 32.4723 74.2504 32.6558 74.7743 32.8024C75.7564 33.0771 76.6017 33.6537 76.6957 34.7642C76.8003 36.0126 76.0013 36.9649 74.8112 37.2812C73.3024 37.683 71.3894 37.475 70.1077 36.4751C70.0788 36.4522 70.0583 36.4203 70.0495 36.3844C70.0407 36.3484 70.044 36.3105 70.059 36.2765L70.4323 35.4478C70.4376 35.436 70.4459 35.4257 70.4564 35.4181C70.4669 35.4105 70.4792 35.4058 70.4921 35.4045C70.505 35.4031 70.5181 35.4052 70.5299 35.4105C70.5417 35.4159 70.552 35.4242 70.5595 35.4348Z" fill="#00112A"/>
<path d="M129.189 33.038C129.19 34.0557 129.648 35.0009 130.399 35.6061C131.727 36.6773 133.776 36.581 134.96 35.3516C134.968 35.3431 134.978 35.3363 134.989 35.3316C135 35.3269 135.011 35.3245 135.023 35.3244C135.035 35.3243 135.047 35.3265 135.058 35.331C135.069 35.3355 135.079 35.3421 135.087 35.3504L135.791 36.0555C135.806 36.0701 135.815 36.09 135.815 36.1109C135.815 36.1318 135.808 36.152 135.793 36.1673C135.173 36.8228 134.399 37.2306 133.471 37.3907C130.62 37.8841 127.945 36.1149 127.943 33.0391C127.939 29.9633 130.611 28.1883 133.463 28.6757C134.39 28.835 135.165 29.2417 135.787 29.8956C135.802 29.9108 135.81 29.931 135.809 29.9519C135.809 29.9729 135.8 29.9927 135.785 30.0073L135.082 30.7136C135.074 30.7219 135.064 30.7286 135.053 30.733C135.042 30.7375 135.03 30.7398 135.019 30.7397C135.007 30.7395 134.995 30.7371 134.984 30.7324C134.973 30.7277 134.963 30.7209 134.955 30.7124C133.769 29.4854 131.72 29.3938 130.394 30.4675C129.644 31.0738 129.188 32.0202 129.189 33.038Z" fill="#00112A"/>
<path d="M53.2282 28.7054H52.0487C52.0218 28.7054 52 28.7273 52 28.7542V37.3384C52 37.3653 52.0218 37.3871 52.0487 37.3871H53.2282C53.2551 37.3871 53.2769 37.3653 53.2769 37.3384V28.7542C53.2769 28.7273 53.2551 28.7054 53.2282 28.7054Z" fill="#00112A"/>
<path d="M61.5495 33.4277C61.089 32.861 60.4478 32.0656 59.6258 31.0415C59.622 31.0364 59.6167 31.0327 59.6106 31.0308C59.6045 31.029 59.598 31.0292 59.5921 31.0313C59.5861 31.0334 59.5809 31.0374 59.5774 31.0427C59.5738 31.0479 59.5721 31.0542 59.5723 31.0605L59.5735 37.312C59.5735 37.3312 59.5659 37.3497 59.5523 37.3633C59.5387 37.3769 59.5202 37.3845 59.501 37.3845H58.3798C58.3612 37.3845 58.3434 37.3773 58.3302 37.3643C58.3171 37.3514 58.3097 37.3338 58.3097 37.3156L58.3085 28.7766C58.3085 28.7573 58.3161 28.7389 58.3297 28.7253C58.3433 28.7117 58.3618 28.704 58.381 28.704H59.2537C59.2826 28.704 59.3112 28.7105 59.3373 28.723C59.3635 28.7356 59.3865 28.7539 59.4047 28.7766C61.479 31.3542 62.5209 32.6486 62.5304 32.6597C62.9909 33.2264 63.6318 34.0218 64.4529 35.0459C64.4567 35.0509 64.4621 35.0547 64.4681 35.0565C64.4742 35.0584 64.4807 35.0582 64.4867 35.0561C64.4927 35.0539 64.4978 35.05 64.5014 35.0447C64.5049 35.0394 64.5067 35.0332 64.5064 35.0268L64.5052 28.7754C64.5052 28.7561 64.5129 28.7377 64.5265 28.7241C64.5401 28.7105 64.5585 28.7028 64.5778 28.7028L65.6989 28.7017C65.7176 28.7017 65.7354 28.7089 65.7486 28.7219C65.7617 28.7348 65.7691 28.7523 65.7691 28.7706L65.7703 37.3108C65.7703 37.33 65.7626 37.3485 65.749 37.3621C65.7354 37.3757 65.717 37.3833 65.6978 37.3833H64.8251C64.7961 37.3834 64.7676 37.3769 64.7414 37.3643C64.7153 37.3518 64.6923 37.3335 64.6741 37.3108C62.5998 34.7324 61.5583 33.438 61.5495 33.4277Z" fill="#00112A"/>
<path d="M84.5535 36.3489C86.0824 36.3466 86.942 35.3871 86.9658 33.8795C86.9722 33.4872 86.971 31.7866 86.9623 28.7778C86.9623 28.7576 86.9703 28.7382 86.9845 28.7239C86.9988 28.7097 87.0182 28.7017 87.0384 28.7017H88.1274C88.1385 28.7017 88.1495 28.7038 88.1597 28.7081C88.17 28.7123 88.1793 28.7185 88.1871 28.7264C88.195 28.7342 88.2012 28.7435 88.2054 28.7538C88.2097 28.764 88.2118 28.775 88.2118 28.7861C88.215 29.5304 88.2174 31.179 88.219 33.7321C88.2202 36.0505 86.8838 37.4737 84.5558 37.4773C82.2267 37.4808 80.8868 36.0624 80.8796 33.744C80.8725 31.1909 80.8693 29.5422 80.8701 28.798C80.8701 28.7756 80.879 28.7541 80.8948 28.7383C80.9107 28.7224 80.9321 28.7135 80.9545 28.7135L82.0436 28.71C82.0536 28.71 82.0635 28.712 82.0727 28.7158C82.082 28.7196 82.0903 28.7252 82.0974 28.7323C82.1045 28.7393 82.1101 28.7477 82.1139 28.757C82.1177 28.7662 82.1197 28.7761 82.1197 28.7861C82.1213 31.7949 82.1256 33.4955 82.1328 33.8878C82.1613 35.3942 83.0245 36.3513 84.5535 36.3489Z" fill="#00112A"/>
<path d="M94.3622 37.3871H93.2279C93.2194 37.3871 93.2112 37.3838 93.2052 37.3777C93.1992 37.3717 93.1958 37.3635 93.1958 37.355V28.7459C93.1958 28.7352 93.2001 28.7249 93.2076 28.7173C93.2152 28.7097 93.2255 28.7055 93.2362 28.7055C94.2381 28.7078 95.3129 28.7074 96.4606 28.7043C97.0274 28.7027 97.4605 28.7376 97.7602 28.8089C99.4758 29.2167 100.403 30.4425 100.155 32.2236C100.006 33.2904 99.4128 34.03 98.376 34.4421C98.3674 34.4455 98.3596 34.4509 98.3533 34.4578C98.347 34.4647 98.3424 34.473 98.3398 34.482C98.3372 34.4911 98.3366 34.5006 98.3381 34.51C98.3397 34.5193 98.3433 34.5282 98.3487 34.536L100.312 37.3051C100.317 37.3129 100.321 37.322 100.322 37.3316C100.322 37.3412 100.321 37.3508 100.316 37.3594C100.312 37.368 100.305 37.3753 100.297 37.3804C100.289 37.3855 100.28 37.3882 100.27 37.3883H99.0383C99.0214 37.3883 99.0048 37.3842 98.9899 37.3764C98.9749 37.3685 98.9622 37.3571 98.9527 37.3431L97.1395 34.7857C97.13 34.7722 97.1172 34.7611 97.1023 34.7534C97.0874 34.7458 97.0708 34.7418 97.0539 34.7417H94.4918C94.4791 34.7417 94.467 34.7469 94.4581 34.756C94.4492 34.7652 94.4442 34.7776 94.4442 34.7905V37.3051C94.4442 37.3269 94.4356 37.3477 94.4202 37.3631C94.4048 37.3785 94.3839 37.3871 94.3622 37.3871ZM94.4347 29.8528L94.4537 33.636C94.4537 33.6406 94.4546 33.6452 94.4564 33.6495C94.4582 33.6538 94.4609 33.6576 94.4642 33.6608C94.4675 33.664 94.4715 33.6666 94.4758 33.6682C94.4801 33.6699 94.4847 33.6707 94.4894 33.6705L96.891 33.6574C97.1602 33.656 97.4265 33.6074 97.6747 33.5143C97.9229 33.4212 98.1482 33.2856 98.3377 33.115C98.5271 32.9444 98.677 32.7423 98.7789 32.5202C98.8807 32.2981 98.9325 32.0603 98.9313 31.8205V31.6208C98.93 31.3809 98.8758 31.1437 98.7716 30.9227C98.6674 30.7017 98.5154 30.5011 98.3242 30.3326C98.133 30.164 97.9063 30.0306 97.6571 29.9402C97.408 29.8497 97.1412 29.8038 96.872 29.8052L94.4692 29.8183C94.46 29.8183 94.4512 29.8219 94.4448 29.8284C94.4383 29.8349 94.4347 29.8437 94.4347 29.8528Z" fill="#00112A"/>
<path d="M107.865 28.7079C108.056 28.7079 108.243 28.7118 108.426 28.7198C108.449 28.7205 108.471 28.7276 108.49 28.7404C108.509 28.7533 108.525 28.7712 108.534 28.7923L112.403 37.323C112.406 37.3299 112.408 37.3375 112.407 37.3452C112.407 37.3528 112.404 37.3602 112.4 37.3666C112.396 37.373 112.39 37.3782 112.384 37.3818C112.377 37.3855 112.369 37.3873 112.362 37.3872H111.168C111.154 37.3872 111.14 37.3832 111.128 37.3756C111.116 37.368 111.106 37.3572 111.1 37.3444L110.156 35.2625C110.15 35.2498 110.141 35.239 110.129 35.2315C110.118 35.2239 110.104 35.2198 110.09 35.2197C109.978 35.2189 109.236 35.2185 107.865 35.2185C106.495 35.2185 105.753 35.2189 105.642 35.2197C105.628 35.2198 105.614 35.2239 105.602 35.2315C105.59 35.239 105.581 35.2498 105.575 35.2625L104.631 37.3444C104.625 37.3572 104.615 37.368 104.603 37.3756C104.591 37.3832 104.578 37.3872 104.563 37.3872H103.37C103.362 37.3873 103.354 37.3855 103.348 37.3818C103.341 37.3782 103.335 37.373 103.331 37.3666C103.327 37.3602 103.325 37.3528 103.324 37.3452C103.323 37.3375 103.325 37.3299 103.328 37.323L107.197 28.7923C107.206 28.7714 107.222 28.7535 107.24 28.7407C107.259 28.7279 107.281 28.7207 107.304 28.7198C107.488 28.7118 107.675 28.7079 107.865 28.7079ZM106.04 34.1532C106.037 34.1592 106.036 34.1657 106.037 34.1721C106.038 34.1785 106.04 34.1847 106.043 34.1901C106.047 34.1956 106.052 34.2 106.057 34.2031C106.063 34.2062 106.069 34.2079 106.076 34.2079H109.64C109.647 34.2079 109.653 34.2062 109.659 34.2031C109.664 34.2 109.669 34.1956 109.673 34.1901C109.676 34.1847 109.678 34.1785 109.679 34.1721C109.679 34.1657 109.678 34.1592 109.676 34.1532L107.894 30.0978C107.89 30.0909 107.885 30.0851 107.879 30.0811C107.873 30.077 107.865 30.0749 107.858 30.0749C107.85 30.0749 107.843 30.077 107.837 30.0811C107.83 30.0851 107.825 30.0909 107.822 30.0978L106.04 34.1532Z" fill="#00112A"/>
<path d="M119.389 33.4292C118.929 32.8625 118.288 32.0671 117.466 31.043C117.462 31.0385 117.457 31.0352 117.451 31.0336C117.445 31.032 117.439 31.0322 117.433 31.0341C117.428 31.0361 117.423 31.0396 117.419 31.0444C117.416 31.0492 117.414 31.0549 117.413 31.0608V37.3135C117.413 37.323 117.411 37.3324 117.408 37.3412C117.404 37.35 117.399 37.358 117.392 37.3648C117.385 37.3715 117.377 37.3769 117.369 37.3805C117.36 37.3841 117.35 37.386 117.341 37.386H116.22C116.201 37.386 116.183 37.3788 116.17 37.3658C116.157 37.3529 116.15 37.3353 116.15 37.3171V28.7769C116.15 28.7576 116.157 28.7392 116.171 28.7256C116.184 28.712 116.203 28.7043 116.222 28.7043H117.095C117.124 28.7044 117.152 28.7111 117.179 28.7239C117.205 28.7366 117.228 28.7552 117.246 28.7781C119.32 31.3565 120.362 32.6508 120.37 32.6612C120.831 33.2287 121.472 34.0245 122.293 35.0486C122.297 35.0536 122.302 35.0574 122.308 35.0592C122.314 35.061 122.321 35.0609 122.327 35.0588C122.333 35.0566 122.338 35.0526 122.341 35.0474C122.345 35.0421 122.347 35.0359 122.346 35.0295V28.7769C122.346 28.7576 122.354 28.7392 122.368 28.7256C122.381 28.712 122.4 28.7043 122.419 28.7043H123.54C123.559 28.7043 123.576 28.7116 123.59 28.7245C123.603 28.7375 123.61 28.755 123.61 28.7733V37.3135C123.61 37.3327 123.603 37.3512 123.589 37.3648C123.575 37.3784 123.557 37.386 123.538 37.386H122.665C122.636 37.3861 122.607 37.3796 122.581 37.367C122.555 37.3545 122.532 37.3362 122.514 37.3135C120.44 34.7351 119.398 33.4403 119.389 33.4292Z" fill="#00112A"/>
<path d="M146.295 37.3871H140.088C140.075 37.3871 140.063 37.3821 140.054 37.3732C140.045 37.3643 140.04 37.3522 140.04 37.3396V28.7542C140.04 28.7416 140.045 28.7295 140.054 28.7206C140.063 28.7117 140.075 28.7067 140.088 28.7067H146.116C146.128 28.7067 146.14 28.7117 146.149 28.7206C146.158 28.7295 146.163 28.7416 146.163 28.7542V29.7577C146.163 29.7639 146.162 29.7701 146.16 29.7759C146.157 29.7817 146.154 29.7869 146.149 29.7913C146.145 29.7957 146.14 29.7992 146.134 29.8016C146.128 29.804 146.122 29.8053 146.116 29.8053H141.366C141.353 29.8053 141.341 29.8103 141.332 29.8192C141.323 29.8281 141.318 29.8402 141.318 29.8528V32.3769C141.318 32.3895 141.323 32.4016 141.332 32.4106C141.341 32.4195 141.353 32.4245 141.366 32.4245H145.582C145.594 32.4245 145.607 32.4295 145.615 32.4384C145.624 32.4473 145.629 32.4594 145.629 32.4721V33.4434C145.629 33.4497 145.628 33.4558 145.626 33.4616C145.623 33.4674 145.62 33.4726 145.615 33.4771C145.611 33.4815 145.606 33.485 145.6 33.4874C145.594 33.4897 145.588 33.491 145.582 33.491H141.366C141.353 33.491 141.341 33.496 141.332 33.5049C141.323 33.5138 141.318 33.5259 141.318 33.5385V36.2101C141.318 36.2227 141.323 36.2348 141.332 36.2437C141.341 36.2526 141.353 36.2577 141.366 36.2577H146.295C146.308 36.2577 146.32 36.2627 146.329 36.2716C146.338 36.2805 146.343 36.2926 146.343 36.3052V37.3396C146.343 37.3522 146.338 37.3643 146.329 37.3732C146.32 37.3821 146.308 37.3871 146.295 37.3871Z" fill="#00112A"/>
<path d="M31.2936 37.8987L32.2129 37.0478C34.3411 36.9546 37.1764 36.182 37.5384 33.6958C37.7109 32.5147 37.4808 31.4426 36.3344 30.8615C34.7358 30.0513 32.7454 30.2387 31.1101 30.7703C30.3729 31.0103 29.7111 31.3455 29.1247 31.7759C29.0474 31.8327 28.9535 31.84 28.8431 31.7977C28.8259 31.791 28.8119 31.7781 28.8038 31.7616C28.7958 31.745 28.7942 31.7261 28.7994 31.7084C28.9055 31.3365 29.1852 31.0995 29.5313 30.9161C30.4067 30.4539 31.3861 30.0929 32.4697 29.8331C33.513 29.5825 34.5573 29.5604 35.6025 29.7667C37.0187 30.0473 39.0368 30.7772 39.3036 32.4502C39.5383 33.9173 39.1092 35.1202 38.0164 36.0591C36.2541 37.5744 33.5477 38.0494 31.2936 37.8987Z" fill="#C7E4FF"/>
<path d="M7.65019 33.5054L8.08158 34.1153C9.00652 35.3609 10.0964 36.4332 11.3512 37.3324C14.2867 39.4361 17.2232 41.5405 20.1606 43.6456C20.1675 43.6507 20.1758 43.6535 20.1844 43.6535C20.193 43.6535 20.2013 43.6507 20.2082 43.6456L28.6536 37.5972L29.562 36.9268C31.5738 35.3262 33.0898 33.3358 34.11 30.9557C34.1158 30.9416 34.1257 30.9296 34.1385 30.9213C34.1512 30.913 34.1662 30.9087 34.1814 30.9091C34.7863 30.9269 35.3579 31.0525 35.896 31.2859C35.9096 31.2918 35.9204 31.3028 35.9259 31.3165C35.9315 31.3303 35.9314 31.3456 35.9258 31.3593C35.1212 33.3665 34.0022 35.1331 32.5689 36.659C32.3771 36.8626 32.2585 36.9922 32.2128 37.0478L31.2935 37.8986C30.8949 38.22 30.4972 38.5423 30.0757 38.8457C26.7046 41.2609 23.427 43.6096 20.2429 45.8918C20.2259 45.9039 20.2055 45.9104 20.1847 45.9104C20.1639 45.9104 20.1437 45.9039 20.1269 45.8918C16.5376 43.3101 13.6004 41.2067 11.3155 39.5816C10.0667 38.6937 9.1437 37.9677 8.54669 37.4038C7.59664 36.5046 6.75964 35.5063 6.03569 34.4088L5.6281 33.7602C4.93192 32.5788 4.37358 31.3094 3.9531 29.9521C3.95109 29.9459 3.95055 29.9393 3.95152 29.9329C3.9525 29.9265 3.95497 29.9204 3.95873 29.9151C3.96248 29.9098 3.96743 29.9054 3.97317 29.9024C3.97891 29.8993 3.98528 29.8977 3.99178 29.8975C4.61126 29.8797 5.23108 29.9184 5.85123 30.0136C5.86865 30.0162 5.88495 30.0235 5.89841 30.0345C5.91186 30.0455 5.92195 30.0599 5.92759 30.076C6.3613 31.3005 6.9355 32.4436 7.65019 33.5054Z" fill="#00112A"/>
</svg>
