<svg width="775" height="876" viewBox="0 0 775 876" fill="none" xmlns="http://www.w3.org/2000/svg">
<g clip-path="url(#clip0_12_192)">
<path d="M594.958 698.095C558.168 698.095 521.415 691.665 486.721 679.456C458.874 669.657 431.319 658.981 403.85 648.17C388.14 641.987 372.436 635.77 356.848 629.283C328.199 617.382 300.051 605.866 272.38 594.695C251.503 605.377 228.93 614.958 204.661 623.456C180.38 631.945 155.145 636.678 128.931 637.656C96.8908 637.656 73.3398 631.832 58.2988 620.179C43.2458 608.528 35.7258 594.695 35.7258 578.676C35.7258 562.654 43.2458 547.852 58.2988 534.257C73.3398 520.671 94.2178 513.867 120.922 513.867C144.223 513.867 168.492 519.216 193.739 529.889C218.975 540.571 245.188 552.952 272.381 567.024C290.824 551.494 309.154 533.894 327.358 514.234C345.563 494.571 363.642 473.581 381.607 451.246C368.5 450.279 354.54 447.73 339.737 443.6C324.923 439.481 310.974 433.895 297.867 426.852C284.76 419.821 273.951 411.082 265.463 400.638C256.963 390.206 252.72 377.951 252.72 363.866C252.72 347.847 257.328 334.136 266.555 322.724C275.772 311.324 287.786 301.971 302.599 294.69C317.401 287.408 333.422 281.947 350.659 278.306C367.884 274.665 384.518 272.845 400.538 272.845C419.47 272.845 437.425 274.427 454.422 277.579C471.409 280.742 486.94 284.985 501.025 290.321C518.501 268.966 536.944 249.18 556.366 230.975C575.776 212.77 596.051 198.093 617.168 186.921C638.285 175.76 660.244 170.173 683.068 170.173C702 170.173 715.949 175.156 724.938 185.101C733.914 195.056 738.409 207.8 738.409 223.33C738.409 242.752 731.729 264.597 718.384 288.865C705.026 313.146 685.253 336.925 659.038 360.226C632.824 383.527 600.659 403.438 562.555 419.935C524.439 436.445 480.874 446.639 431.848 450.519C412.426 475.766 391.673 499.557 369.589 521.88C347.494 544.212 323.1 563.634 296.408 580.133C320.187 592.273 344.342 604.287 368.861 616.176C388.599 625.753 409.077 633.947 429.372 642.248C453.658 652.182 478.07 662.463 503.071 670.49C530.558 679.315 559.558 683.533 588.404 683.533C603.934 683.533 619.465 681.463 635.006 677.343C650.537 673.213 663.644 665.931 674.328 655.5C685 645.054 690.348 630.866 690.348 612.9C690.348 595.915 683.908 583.775 671.05 576.493C658.183 569.211 642.527 565.57 624.084 565.57C611.454 565.57 597.744 567.64 582.942 571.76C568.129 575.89 555.385 581.84 544.713 589.599C542.767 591.057 541.072 591.785 539.615 591.785C538.16 591.785 537.431 591.308 537.431 590.327C537.431 585.481 542.767 580.26 553.451 574.672C564.123 569.099 576.865 564.241 591.68 560.111C606.482 555.991 619.464 553.921 630.637 553.921C641.309 553.921 653.689 555.74 667.774 559.381C681.847 563.022 694.227 569.212 704.91 577.95C715.582 586.69 720.93 598.829 720.93 614.36C720.93 633.782 714.376 649.676 701.269 662.054C688.162 674.435 672.017 683.536 652.846 689.362C633.665 695.182 614.369 698.095 594.958 698.095ZM128.93 626.006C150.775 626.006 171.642 622.24 191.553 614.719C211.452 607.186 230.624 597.129 249.078 584.5C223.831 574.305 199.437 565.693 175.897 558.649C152.345 551.618 129.897 548.09 108.541 548.09C88.6298 548.09 74.3168 551.003 65.5778 556.83C56.8408 562.654 52.4718 569.697 52.4718 577.946C52.4718 588.63 59.5028 599.315 73.5888 609.987C87.6628 620.659 106.106 626.006 128.93 626.006ZM390.343 439.594C404.418 422.607 419.948 401.491 436.946 376.242C453.933 351.007 472.627 325.76 493.015 300.513C463.889 289.352 431.849 283.765 396.897 283.765C386.213 283.765 374.198 285.585 360.853 289.226C347.495 292.867 334.877 298.214 322.988 305.245C311.087 312.288 301.257 320.9 293.497 331.096C285.727 341.29 281.846 353.191 281.846 366.777C281.846 382.318 287.671 395.425 299.323 406.097C310.974 416.781 325.287 424.791 342.284 430.127C359.271 435.475 375.291 438.627 390.343 439.594ZM442.044 437.41C485.734 432.563 524.691 421.64 558.915 404.641C593.139 387.654 622.38 367.869 646.659 345.295C670.928 322.722 689.371 300.035 702.001 277.211C714.618 254.399 720.932 234.739 720.932 218.229C720.932 207.068 717.895 198.09 711.831 191.287C705.755 184.494 696.414 181.093 683.796 181.093C671.656 181.093 659.038 184.62 645.931 191.651C632.824 198.694 620.08 207.557 607.702 218.229C595.322 228.913 584.15 239.711 574.206 250.633C564.251 261.556 556.605 270.909 551.269 278.668L531.609 306.339C545.682 316.055 557.573 327.216 567.29 339.834C569.224 342.269 570.202 345.659 570.202 350.029C570.202 352.941 569.713 354.398 568.745 354.398C568.256 354.398 567.528 353.67 566.561 352.214C555.389 338.139 541.553 326 525.055 315.806C511.948 335.228 498.591 355.252 485.006 375.879C471.409 396.519 457.085 417.021 442.044 437.41Z" fill="white"/>
<path d="M540.948 688.398L387.068 798.676L233.187 688.398C188.61 656.451 155.736 611.571 138.196 560.899C128.034 559.379 118.122 558.588 108.542 558.588C107.114 558.588 105.751 558.609 104.419 558.64C122.783 620.517 161.262 675.596 214.842 713.994L387.067 837.423L559.291 713.994C605.653 680.769 640.703 635.051 661.209 583.253C652.324 579.167 641.901 576.803 630.088 576.215C611.56 620.588 580.977 659.71 540.948 688.398ZM650.365 381.042V475.368C650.365 498.768 647.201 521.806 641.181 543.936C650.09 544.738 659.863 546.491 670.404 549.216C671.014 549.374 671.599 549.575 672.203 549.742C678.524 525.698 681.858 500.726 681.858 475.369V353.142C676.84 358.154 671.567 363.134 666.013 368.071C661.019 372.509 655.797 376.832 650.365 381.042ZM663.814 121.567C525.946 141.9 397.881 46.048 396.614 45.084L387.074 37.828L377.532 45.077C376.254 46.048 248.19 141.904 110.321 121.567L92.2769 118.906V475.368C92.2769 485.634 92.8509 495.833 93.9149 505.938C102.275 504.249 111.268 503.37 120.921 503.37C122.379 503.37 123.851 503.432 125.319 503.472C124.312 494.185 123.77 484.808 123.77 475.368V154.823C132.694 155.588 141.525 155.946 150.271 155.946C261.886 155.94 357.172 97.414 387.068 76.951C416.965 97.416 512.236 155.949 623.864 155.946C632.602 155.946 641.451 155.586 650.365 154.822V327.041C662.681 314.598 673.211 302.087 681.858 289.614V118.905L663.814 121.567Z" fill="white"/>
</g>
<defs>
<clipPath id="clip0_12_192">
<rect width="774.134" height="875.25" fill="white"/>
</clipPath>
</defs>
</svg>
