<svg width="862" height="867" viewBox="0 0 862 867" fill="none" xmlns="http://www.w3.org/2000/svg">
<g opacity="0.02">
<path d="M829.516 212.982L833.849 196.602" stroke="#C7E4FF" stroke-width="3.67338"/>
<path d="M588.481 708.315L568.507 718.841" stroke="#C7E4FF" stroke-width="3.67338"/>
<path d="M205.645 623.346L200.609 611.739" stroke="#C7E4FF" stroke-width="3.67338"/>
<path d="M162.079 613.034L166.491 625.295" stroke="#C7E4FF" stroke-width="3.67338"/>
<path d="M615.769 728.496L636.809 714.758" stroke="#C7E4FF" stroke-width="3.67338"/>
<path d="M868.893 195.53L865.867 207.031L836.536 316.565C836.181 317.892 835.406 319.145 834.322 320.148C821.055 332.388 807.196 343.6 792.744 353.787C792.647 353.86 792.533 353.906 792.419 353.92C792.304 353.934 792.193 353.915 792.1 353.866C792.008 353.816 791.938 353.739 791.901 353.643C791.864 353.548 791.861 353.439 791.892 353.331L829.517 212.983L833.85 196.603L838.876 178.124C838.898 178.044 838.902 177.963 838.888 177.887C838.875 177.81 838.843 177.74 838.796 177.68C838.749 177.619 838.687 177.571 838.615 177.536C838.542 177.502 838.461 177.483 838.374 177.481C801.999 176.864 767.321 171.313 734.339 160.825C676.794 142.518 625.324 112.087 582.415 73.8891C582.223 73.7161 581.971 73.6091 581.689 73.5812C581.407 73.5533 581.108 73.6058 580.828 73.7321C484.036 118.591 379.525 144.872 282.192 128.785C282.1 128.769 282.003 128.772 281.906 128.794C281.81 128.816 281.716 128.856 281.631 128.912C281.545 128.968 281.47 129.038 281.411 129.118C281.351 129.198 281.308 129.286 281.284 129.377C230.346 319.478 200.849 429.562 192.794 459.627C191.386 464.878 189.597 473.631 187.425 485.884C187.402 486.007 187.353 486.127 187.281 486.239C187.209 486.35 187.114 486.45 187.004 486.531C186.894 486.612 186.771 486.673 186.642 486.71C186.514 486.746 186.383 486.758 186.258 486.744C175.633 485.488 164.883 485.377 154.008 486.41C153.874 486.425 153.743 486.412 153.623 486.374C153.504 486.335 153.399 486.272 153.315 486.187C153.232 486.103 153.171 485.999 153.138 485.883C153.105 485.768 153.1 485.642 153.124 485.516C155.422 472.233 156.831 464.621 157.351 462.681C189.177 343.766 222.505 219.359 257.336 89.4609C257.373 89.3191 257.441 89.1815 257.535 89.0574C257.63 88.9332 257.75 88.8253 257.886 88.7409C258.022 88.6566 258.171 88.5976 258.324 88.5681C258.478 88.5386 258.631 88.5392 258.773 88.5698C271.002 91.292 285.178 95.2739 297.518 96.9527C329.949 101.388 361.569 101.606 392.377 97.6077C448.676 90.3075 504.437 74.0634 559.662 48.8754C570.782 43.8081 581.398 38.4304 591.511 32.7424C591.749 32.6074 592.015 32.5444 592.268 32.5632C592.521 32.582 592.745 32.6816 592.907 32.8463C620.915 61.0554 653.404 84.7722 690.374 103.997C738.203 128.862 789.897 144.061 846.914 144.492C852.173 144.528 863.837 144.024 881.907 142.978C882.031 142.971 882.15 142.988 882.258 143.03C882.366 143.072 882.458 143.138 882.53 143.221C882.602 143.305 882.651 143.406 882.673 143.516C882.696 143.626 882.693 143.744 882.662 143.861L868.893 195.53Z" fill="#C7E4FF"/>
<path d="M588.482 708.315L568.508 718.841C549.405 713.26 530.433 705.814 511.593 696.504C440.858 661.518 385.637 630.832 318.789 594.825C318.467 594.648 318.095 594.547 317.699 594.528C317.304 594.509 316.893 594.573 316.497 594.715C287.356 605.069 257.802 613.402 227.835 619.713C221.128 621.124 213.115 622.093 205.645 623.346L200.61 611.739C232.094 607.594 264.285 596.266 294.104 581.843C294.198 581.799 294.282 581.733 294.346 581.652C294.41 581.571 294.452 581.479 294.467 581.385C294.483 581.291 294.471 581.199 294.434 581.119C294.396 581.039 294.334 580.974 294.255 580.931C268.743 566.933 242.31 554.743 214.956 544.361C194.902 536.735 174.2 532.207 152.849 530.775C142.034 530.046 132.161 530.411 123.231 531.869C96.2034 536.295 80.2144 557.32 93.9561 579.276C108.247 602.187 133.011 611.381 162.08 613.034L166.491 625.295C140.739 625.475 118.254 620.984 99.0365 611.822C92.563 608.726 86.4901 603.855 80.8178 597.209C61.4665 574.454 67.7704 543.939 94.5169 521.204C111.397 506.848 131.021 498.652 153.389 496.614C184.718 493.744 216.926 501.646 241.579 514.189C269.821 528.571 298.332 546.916 324.604 564.666C324.864 564.844 325.19 564.934 325.541 564.922C325.891 564.911 326.25 564.799 326.569 564.602C347.773 551.302 361.537 542.423 367.863 537.965C402.443 513.598 436.922 486.837 471.3 457.683C471.392 457.604 471.464 457.507 471.508 457.401C471.552 457.296 471.567 457.185 471.551 457.082C471.534 456.978 471.488 456.885 471.416 456.813C471.343 456.741 471.249 456.691 471.141 456.67C441.429 451.311 414.868 440.647 391.458 424.678C380.365 417.111 371.574 407.869 365.087 396.952C356.275 382.127 355.647 365.138 363.201 345.983C386.906 285.888 478.836 272.106 530.79 274.382C571.606 276.173 609.071 285.328 643.183 301.845C643.33 301.912 643.502 301.932 643.677 301.902C643.852 301.872 644.022 301.793 644.165 301.677C668.151 281.999 692.259 264.033 716.489 247.778C751.875 224.038 792.966 203.466 833.849 196.603L829.516 212.982C812.543 219.16 795.831 227.181 779.38 237.048C756.558 250.751 735.514 265.554 716.247 281.456C702.229 293.03 684.307 310.436 673.012 321.069C672.907 321.168 672.821 321.282 672.759 321.406C672.697 321.53 672.659 321.66 672.649 321.789C672.639 321.918 672.656 322.044 672.699 322.158C672.743 322.273 672.812 322.375 672.902 322.457C684.022 332.86 692.891 344.324 699.51 356.85C702.359 362.244 702.245 368.026 699.169 374.197C699.069 374.399 698.914 374.58 698.721 374.717C698.528 374.854 698.306 374.942 698.082 374.97C697.857 374.999 697.639 374.966 697.454 374.876C697.269 374.786 697.124 374.643 697.037 374.464C688.368 357.57 676.867 343.303 662.533 331.663C662.426 331.574 662.277 331.536 662.118 331.556C661.958 331.576 661.802 331.653 661.681 331.77C621.469 371.212 586.131 406.794 542.607 446.926C542.549 446.984 542.508 447.052 542.486 447.125C542.465 447.198 542.465 447.271 542.486 447.337C542.507 447.403 542.549 447.459 542.607 447.499C542.664 447.539 542.735 447.56 542.811 447.562C590.499 447.424 638.63 438.272 687.205 420.104C737.863 401.15 783.121 375.392 822.981 342.832C843.981 325.677 862.593 306.606 877.863 285.119C886.958 272.352 895.636 256.806 897.631 242.164C900.209 223.107 891.097 210.708 871.931 208.159C869.904 207.897 867.882 207.521 865.867 207.03L868.892 195.529C898.926 198.265 916.931 210.88 916.423 240.867C916.334 245.743 914.663 254.494 912.634 260.181C908.252 272.435 902.96 283.217 896.757 292.528C870.951 331.25 835.393 361.712 794.376 387.737C742.863 420.434 680.293 443.593 622.665 453.477C591.936 458.765 560.203 461.23 527.466 460.872C527.211 460.872 526.949 460.922 526.695 461.018C526.441 461.114 526.2 461.255 525.986 461.432C467.704 511.639 414.011 551.844 348.777 580.889C348.69 580.93 348.613 580.989 348.552 581.062C348.491 581.135 348.449 581.219 348.43 581.305C348.41 581.391 348.415 581.476 348.442 581.553C348.469 581.63 348.519 581.696 348.586 581.744C377.325 600.981 414.109 625.697 450.918 646.057C478.696 661.427 503.462 674.597 525.216 685.567C544.355 695.206 565.444 702.789 588.482 708.315ZM631.262 311.951C610.887 301.707 587.59 294.258 561.373 289.604C538.97 285.622 518.416 285.059 499.712 287.913C464.681 293.273 416.181 310.673 397.133 344.794C387.946 361.258 385.788 380.424 393.692 395.024C406.191 418.124 431.777 430.33 457.319 438.648C465.481 441.311 474.497 443.491 484.366 445.19C484.651 445.243 484.959 445.226 485.263 445.138C485.567 445.051 485.858 444.897 486.111 444.689C500.63 432.668 514.457 420.412 527.592 407.919C570.416 367.181 595.103 342.977 631.262 312.859C631.339 312.795 631.402 312.717 631.445 312.631C631.488 312.546 631.51 312.455 631.51 312.367C631.51 312.278 631.488 312.194 631.445 312.122C631.402 312.05 631.339 311.991 631.262 311.951Z" fill="#C7E4FF"/>
<path d="M722.615 575.25C735.457 551.692 744.9 528.678 750.946 506.208C767.097 446.166 775.675 414.174 776.682 410.231C776.762 409.911 776.919 409.601 777.138 409.327C777.358 409.053 777.635 408.822 777.947 408.653C791.577 401.07 804.743 392.792 817.446 383.82C817.536 383.756 817.639 383.716 817.743 383.705C817.847 383.693 817.948 383.71 818.032 383.754C818.116 383.799 818.18 383.868 818.216 383.953C818.252 384.038 818.258 384.136 818.234 384.234C808.769 420.349 797.253 463.167 783.685 512.686C776.899 537.451 767.108 561.294 754.313 584.215C754.24 584.342 754.143 584.459 754.028 584.558C753.912 584.657 753.781 584.736 753.64 584.791C753.5 584.847 753.354 584.877 753.211 584.88C753.068 584.883 752.93 584.859 752.805 584.809C743.639 581.235 733.727 578.413 723.071 576.343C722.954 576.318 722.848 576.269 722.76 576.199C722.672 576.129 722.604 576.039 722.561 575.936C722.518 575.832 722.5 575.718 722.51 575.599C722.519 575.481 722.555 575.362 722.615 575.25Z" fill="#C7E4FF"/>
<path d="M615.77 728.497L636.81 714.759C676.522 716.527 732.536 707.283 751.132 663.39C759.978 642.539 760.872 622.99 742.506 610.743C716.895 593.668 679.274 593.809 646.555 600.678C631.803 603.781 617.986 608.71 605.104 615.463C603.404 616.355 601.637 616.334 599.803 615.398C599.519 615.251 599.322 614.998 599.252 614.689C599.182 614.38 599.244 614.038 599.426 613.731C603.166 607.25 609.462 603.461 616.727 600.738C635.092 593.883 654.894 589.006 676.132 586.107C696.582 583.309 715.954 584.598 734.251 589.976C759.034 597.282 792.769 613.597 789.672 643.957C786.97 670.581 773.287 691.408 748.623 706.439C708.846 730.703 656.636 734.832 615.77 728.497Z" fill="#C7E4FF"/>
<path d="M200.609 611.739L205.645 623.346C216.739 647.122 231.707 668.065 250.549 686.176C294.624 728.549 338.714 770.936 382.819 813.336C382.921 813.439 383.062 813.502 383.22 813.516C383.379 813.53 383.546 813.493 383.697 813.412L568.508 718.842L588.481 708.315C633.272 682.929 670.783 649.769 701.013 608.837C701.188 608.595 701.428 608.397 701.703 608.268C701.978 608.14 702.275 608.088 702.554 608.119C713.63 609.415 723.573 612.584 732.383 617.628C732.606 617.756 732.751 617.97 732.788 618.224C732.824 618.479 732.75 618.753 732.58 618.989C708.114 653.598 679.001 683.395 645.241 708.379C640.728 711.712 637.917 713.839 636.809 714.758L615.769 728.496C606.873 733.601 597.991 738.725 588.761 743.473C514.986 781.237 443.256 817.963 373.571 853.652C373.198 853.841 372.791 853.925 372.408 853.891C372.024 853.858 371.682 853.708 371.43 853.465C317.582 801.485 273.475 759.115 239.109 726.355C220.323 708.455 206.774 693.979 198.463 682.926C185.244 665.308 174.587 646.097 166.491 625.295L162.08 613.035C154.898 590.775 150.682 567.166 149.43 542.205C149.423 542.092 149.444 541.973 149.493 541.86C149.542 541.747 149.617 541.641 149.711 541.553C149.806 541.464 149.918 541.394 150.039 541.349C150.159 541.304 150.285 541.284 150.405 541.292C161.92 541.973 173.171 543.665 184.156 546.369C184.464 546.445 184.731 546.601 184.926 546.819C185.122 547.038 185.239 547.311 185.265 547.61C187.398 570.215 192.513 591.591 200.609 611.739Z" fill="#C7E4FF"/>
</g>
</svg>
