<svg width="96" height="23" viewBox="0 0 96 23" fill="none" xmlns="http://www.w3.org/2000/svg">
<path d="M0.247064 22V20.9712C0.995303 20.9712 1.5357 20.9296 1.86825 20.8465C2.2008 20.7633 2.40864 20.5971 2.49178 20.3476C2.57492 20.0982 2.61649 19.7241 2.61649 19.2253V4.22933C2.61649 3.73051 2.56453 3.35639 2.4606 3.10698C2.37747 2.83678 2.16962 2.66011 1.83707 2.57698C1.50452 2.49384 0.974518 2.45227 0.247064 2.45227V1.42344H9.35063V2.45227C8.60239 2.45227 8.05161 2.49384 7.69827 2.57698C7.36572 2.66011 7.14749 2.83678 7.04356 3.10698C6.96043 3.35639 6.91886 3.73051 6.91886 4.22933V18.6641C6.91886 19.35 7.002 19.8384 7.16827 20.1294C7.33455 20.4204 7.63592 20.6074 8.07239 20.6906C8.50886 20.7529 9.14279 20.7841 9.97417 20.7841C11.0965 20.7841 12.0006 20.649 12.6865 20.3788C13.3932 20.1086 13.9544 19.6618 14.3701 19.0382C14.8065 18.3939 15.1599 17.521 15.4301 16.4194H16.3965L16.0536 22H0.247064ZM17.0746 22V20.9712C17.6982 20.9712 18.145 20.9296 18.4152 20.8465C18.7062 20.7633 18.8829 20.6074 18.9452 20.3788C19.0284 20.1502 19.0699 19.828 19.0699 19.4123V10.2776C19.0699 9.75799 19.0076 9.41504 18.8829 9.24877C18.779 9.08249 18.5503 8.99936 18.197 8.99936H17.2305V7.93935L22.0005 7.19111H23.1541V19.4123C23.1541 19.8488 23.1956 20.1814 23.2788 20.41C23.3619 20.6178 23.5282 20.7633 23.7776 20.8465C24.0478 20.9296 24.4739 20.9712 25.0558 20.9712V22H17.0746ZM21.0029 5.28934C20.3378 5.28934 19.787 5.0711 19.3505 4.63463C18.9141 4.19816 18.6958 3.65776 18.6958 3.01345C18.6958 2.36913 18.9141 1.82874 19.3505 1.39226C19.8078 0.955792 20.3586 0.737555 21.0029 0.737555C21.4394 0.737555 21.8343 0.841477 22.1876 1.04932C22.5409 1.25716 22.8111 1.53775 22.9982 1.89109C23.206 2.22364 23.31 2.59776 23.31 3.01345C23.31 3.65776 23.0813 4.19816 22.6241 4.63463C22.1876 5.0711 21.6472 5.28934 21.0029 5.28934ZM32.8062 22.3429C30.5407 22.3429 28.8259 21.709 27.662 20.4412C26.4981 19.1525 25.9161 17.2508 25.9161 14.7359C25.9161 13.0107 26.1863 11.5766 26.7267 10.4335C27.2671 9.29034 28.0465 8.43818 29.065 7.877C30.0834 7.29503 31.3409 7.00405 32.8373 7.00405C34.0428 7.00405 35.0717 7.19111 35.9238 7.56523C36.776 7.91857 37.4619 8.42778 37.9815 9.09289C38.5219 9.75799 38.9168 10.5478 39.1662 11.4623C39.4156 12.356 39.5403 13.3641 39.5403 14.4864V14.8294H28.5661V13.6447H35.2691C35.2691 12.46 35.2068 11.4727 35.082 10.6829C34.9781 9.8723 34.7495 9.25916 34.3962 8.84347C34.0636 8.407 33.5544 8.18876 32.8685 8.18876C32.2658 8.18876 31.7565 8.37582 31.3409 8.74994C30.946 9.10328 30.655 9.70603 30.4679 10.5582C30.2809 11.3896 30.1873 12.5015 30.1873 13.8941C30.1873 14.9541 30.2497 15.8894 30.3744 16.7C30.4991 17.4898 30.7069 18.1653 30.9979 18.7265C31.2889 19.2669 31.6838 19.6825 32.1826 19.9735C32.7022 20.2437 33.3569 20.3788 34.1468 20.3788C34.8534 20.3788 35.4666 20.2645 35.9862 20.0359C36.5266 19.8072 36.9838 19.4851 37.3579 19.0694C37.7321 18.6329 38.0438 18.1237 38.2932 17.5417L39.3221 18.0717C39.0519 18.7368 38.6778 19.4019 38.1997 20.0671C37.7425 20.7114 37.0877 21.2518 36.2356 21.6882C35.3834 22.1247 34.2403 22.3429 32.8062 22.3429ZM40.4929 22V20.9712C41.1164 20.9712 41.5633 20.9296 41.8335 20.8465C42.1245 20.7633 42.3011 20.6178 42.3635 20.41C42.4466 20.1814 42.4882 19.8488 42.4882 19.4123V8.53171H40.4929V7.347H42.4882V5.56993C42.4882 4.44757 42.7168 3.4707 43.1741 2.63933C43.6521 1.80795 44.3172 1.17403 45.1694 0.737555C46.0215 0.280298 47.0192 0.0516695 48.1623 0.0516695C49.4925 0.0516695 50.5214 0.342651 51.2488 0.924614C51.9971 1.48579 52.3712 2.21325 52.3712 3.10698C52.3712 3.62659 52.2153 4.06306 51.9035 4.4164C51.6125 4.74895 51.1657 4.91522 50.5629 4.91522C50.0018 4.91522 49.5549 4.76973 49.2223 4.47875C48.9106 4.16698 48.7547 3.75129 48.7547 3.23168C48.7547 2.9407 48.7963 2.71207 48.8794 2.5458C48.9833 2.37952 49.0769 2.23403 49.16 2.10933C49.2639 1.98462 49.3159 1.83913 49.3159 1.67285C49.3159 1.48579 49.2223 1.32991 49.0353 1.2052C48.8482 1.05971 48.6092 0.986969 48.3182 0.986969C47.8817 0.986969 47.5284 1.12207 47.2582 1.39226C47.0088 1.64168 46.8321 1.99501 46.7282 2.45227C46.6243 2.88874 46.5723 3.41874 46.5723 4.04228V7.347H49.8147V8.53171H46.5723V19.4123C46.5723 19.8488 46.6243 20.1814 46.7282 20.41C46.8321 20.6386 47.0608 20.7945 47.4141 20.8776C47.7882 20.94 48.3598 20.9712 49.1288 20.9712V22H40.4929ZM55.7088 22.3429C54.9813 22.3429 54.389 22.2702 53.9317 22.1247C53.4745 22 53.0899 21.8753 52.7782 21.7506C52.4664 21.6259 52.1443 21.5635 51.8117 21.5635C51.5623 21.5635 51.3752 21.6155 51.2505 21.7194C51.1258 21.8025 51.0115 21.9169 50.9076 22.0624H50.2529L49.9723 16.9494H50.8452C51.1778 18.238 51.7597 19.2669 52.5911 20.0359C53.4433 20.8049 54.4201 21.1894 55.5217 21.1894C56.27 21.1894 56.8831 21.0023 57.3611 20.6282C57.86 20.2333 58.1094 19.6721 58.1094 18.9447C58.1094 18.5082 58.0158 18.1549 57.8288 17.8847C57.6625 17.6145 57.3819 17.3651 56.987 17.1364C56.5921 16.887 56.0621 16.6272 55.397 16.357L54.2123 15.9517C52.7574 15.349 51.7286 14.7255 51.1258 14.0811C50.5439 13.416 50.2529 12.5743 50.2529 11.5558C50.2529 10.1217 50.7413 9.00975 51.7182 8.21994C52.695 7.40935 54.0045 7.00405 55.6464 7.00405C56.3115 7.00405 56.8415 7.05601 57.2364 7.15994C57.6313 7.26386 57.9639 7.36778 58.2341 7.4717C58.5251 7.57562 58.7953 7.62759 59.0447 7.62759C59.3357 7.62759 59.5123 7.56523 59.5747 7.44053C59.6578 7.29503 59.7202 7.17033 59.7617 7.06641H60.4788L60.697 11.6494H59.8553C59.6682 10.9427 59.3772 10.3296 58.9823 9.80995C58.6082 9.29034 58.1613 8.89543 57.6417 8.62524C57.1429 8.33425 56.5713 8.18876 55.927 8.18876C55.2203 8.18876 54.6384 8.35504 54.1811 8.68759C53.7447 9.02014 53.5264 9.45661 53.5264 9.99701C53.5264 10.3919 53.6407 10.7349 53.8694 11.0258C54.098 11.3168 54.389 11.5662 54.7423 11.7741C55.1164 11.9611 55.4802 12.1274 55.8335 12.2729L57.0806 12.7094C57.9951 13.0627 58.7745 13.4472 59.4188 13.8629C60.0631 14.2786 60.5515 14.7774 60.8841 15.3594C61.2374 15.9206 61.4141 16.6168 61.4141 17.4482C61.4141 18.4043 61.1855 19.2565 60.7282 20.0047C60.271 20.7322 59.6162 21.3037 58.7641 21.7194C57.9119 22.1351 56.8935 22.3429 55.7088 22.3429ZM70.0286 22.3429C67.4721 22.3429 65.5807 21.7194 64.3544 20.4723C63.1282 19.2253 62.515 17.3027 62.515 14.7047C62.515 12.0858 63.1282 10.1529 64.3544 8.90583C65.6015 7.63798 67.5137 7.00405 70.0909 7.00405C72.6266 7.00405 74.4972 7.62758 75.7027 8.87465C76.929 10.1009 77.5421 12.0235 77.5421 14.6423C77.5421 17.2819 76.929 19.2253 75.7027 20.4723C74.4764 21.7194 72.5851 22.3429 70.0286 22.3429ZM70.0286 21.1582C71.2133 21.1582 72.0551 20.6282 72.5539 19.5682C73.0527 18.4874 73.2813 16.8455 73.2398 14.6423C73.219 12.3976 72.9488 10.7556 72.4292 9.71642C71.9304 8.6772 71.1198 8.15759 69.9974 8.15759C68.8543 8.15759 68.0229 8.69798 67.5033 9.77877C67.0045 10.8596 66.755 12.5015 66.755 14.7047C66.755 16.9494 67.0045 18.5914 67.5033 19.6306C68.0229 20.649 68.8647 21.1582 70.0286 21.1582ZM88.2528 22V20.9712C88.7516 20.9712 89.1153 20.94 89.344 20.8776C89.5934 20.8153 89.7596 20.6906 89.8428 20.5035C89.9259 20.2957 89.9675 19.9839 89.9675 19.5682V12.0858C89.9675 11.3584 89.874 10.766 89.6869 10.3088C89.4998 9.85152 89.2192 9.51897 88.8451 9.31112C88.4918 9.08249 88.0449 8.96818 87.5045 8.96818C86.8186 8.96818 86.2263 9.13445 85.7275 9.46701C85.2286 9.77877 84.7402 10.1737 84.2622 10.6517L84.1998 9.46701C84.6986 8.98896 85.2286 8.57328 85.7898 8.21994C86.3718 7.84582 86.9745 7.55484 87.5981 7.347C88.2424 7.11837 88.9283 7.00405 89.6557 7.00405C90.9859 7.00405 92.0355 7.39896 92.8046 8.18876C93.5944 8.97857 93.9893 10.1737 93.9893 11.7741V19.4123C93.9893 19.828 94.0308 20.1502 94.114 20.3788C94.2179 20.6074 94.405 20.7633 94.6751 20.8465C94.9661 20.9296 95.4026 20.9712 95.9846 20.9712V22H88.2528ZM78.401 22V20.9712C79.0245 20.9712 79.4714 20.9296 79.7416 20.8465C80.0325 20.7633 80.2092 20.6178 80.2716 20.41C80.3547 20.1814 80.3963 19.8488 80.3963 19.4123V10.2776C80.3963 9.77877 80.3339 9.44622 80.2092 9.27995C80.1053 9.09289 79.8767 8.99936 79.5233 8.99936H78.5257V7.93935L83.2333 7.19111H84.3557V9.24877H84.4804V19.5059C84.4804 19.9631 84.522 20.2957 84.6051 20.5035C84.709 20.7114 84.8857 20.8465 85.1351 20.9088C85.3845 20.9504 85.7379 20.9712 86.1951 20.9712V22H78.401Z" fill="#00112A"/>
</svg>
