<svg width="172" height="60" viewBox="0 0 172 60" fill="none" xmlns="http://www.w3.org/2000/svg">
<path d="M22.7472 1C21.8879 1.02659 21.321 1.04866 21.0466 1.06623C19.224 1.18397 17.4382 1.46692 15.6892 1.91509C14.7658 2.15152 14.0107 2.37893 13.4239 2.59732C12.7218 2.85796 12.0129 3.20026 11.2975 3.62422C8.36135 5.36468 5.59541 8.37702 5.52349 11.974C5.52208 12.0511 5.50126 12.1263 5.46296 12.1926C5.16671 12.7049 4.66964 13.5773 3.97174 14.8097C3.27812 16.0346 2.68396 17.2951 2.18927 18.5912C1.51606 20.3563 1.11964 22.1794 1 24.0604" stroke="#1E1E1E" stroke-width="0.142427"/>
<path d="M23.1944 1C24.0219 1.02659 24.5712 1.04771 24.8423 1.06338C26.4441 1.15643 28.0196 1.39666 29.5687 1.78406" stroke="#1E1E1E" stroke-width="0.142427"/>
<path d="M29.5687 1.78404C29.5398 1.77264 29.5141 1.7698 29.4918 1.77549C29.4883 1.77642 29.4851 1.77842 29.4827 1.78124C29.4803 1.78406 29.4789 1.78755 29.4785 1.79122C29.4782 1.79489 29.4791 1.79857 29.4809 1.80175C29.4828 1.80493 29.4856 1.80745 29.489 1.80896C29.818 1.95709 30.0777 2.07293 30.2681 2.15649C32.1517 2.98256 33.6706 4.30001 34.0338 6.41791C34.0723 6.64104 34.0998 6.8618 34.1164 7.08019C34.1189 7.11437 34.1284 7.14768 34.1444 7.17806C34.1603 7.20844 34.1823 7.23524 34.209 7.2568C34.8067 7.73868 35.3477 8.21961 35.832 8.69959C37.0393 9.8955 37.8739 11.3043 38.3358 12.9261C38.4992 13.501 38.6613 14.1598 38.8222 14.9023C39.1028 16.2012 39.4973 17.4923 40.0863 18.5847C40.3711 19.1141 40.7303 19.7398 41.1637 20.4619C41.1765 20.4834 41.1834 20.5078 41.1836 20.5327C41.1839 20.5576 41.1775 20.5821 41.1652 20.6037L38.2205 25.7538" stroke="#1E1E1E" stroke-width="0.142427"/>
<path d="M38.2205 25.7538C37.9171 26.2632 37.6175 26.7605 37.3218 27.2457C36.8769 27.9754 36.2258 28.3061 35.3684 28.2377C35.3636 28.2374 35.3589 28.2382 35.3546 28.2401C35.3502 28.242 35.3464 28.245 35.3435 28.2487C35.3406 28.2525 35.3387 28.2569 35.338 28.2615C35.3372 28.2662 35.3376 28.271 35.3392 28.2755L36.5704 31.6681C36.5752 31.6813 36.5841 31.6925 36.5957 31.7002C36.6074 31.7079 36.6213 31.7117 36.6353 31.7108C36.8688 31.6961 37.0905 31.6304 37.3004 31.5136C37.9612 31.1442 38.3852 30.5721 38.5723 29.7973" stroke="#1E1E1E" stroke-width="0.142427"/>
<path d="M38.5723 29.7974C38.5837 30.491 38.5025 31.1725 38.3287 31.8419C38.0282 33.0027 37.4236 33.9078 36.7905 35.0088C36.2984 35.864 36.1325 36.8155 36.1254 37.7996C36.1216 38.3394 36.1202 39.3711 36.1211 40.8946C36.1211 41.0484 36.1489 41.2727 36.1966 41.3995C36.6941 42.7245 36.9873 43.5333 37.0761 43.8257C37.3543 44.7392 37.3901 45.6222 37.1836 46.4749C36.9294 47.5239 36.203 48.5707 35.3897 49.2593C34.7801 49.7754 34.2465 50.2228 33.7889 50.6017C33.7866 50.6035 33.7848 50.6058 33.7837 50.6085C33.7826 50.6111 33.7821 50.614 33.7823 50.6169C33.7825 50.6197 33.7834 50.6225 33.7849 50.625C33.7864 50.6274 33.7885 50.6294 33.791 50.6309C36.0461 51.9298 38.0569 53.0913 39.8235 54.1154C39.8529 54.132 39.8976 54.1462 39.9574 54.1581C39.966 54.1598 39.974 54.1636 39.9808 54.1691C39.9877 54.1745 39.993 54.1815 39.9965 54.1894L40.0094 54.2194" stroke="#1E1E1E" stroke-width="0.142427"/>
<path d="M40.0094 54.2194C35.4356 57.4648 30.3549 59.2648 24.7675 59.6195C24.5453 59.6337 24.0172 59.6539 23.183 59.68" stroke="#1E1E1E" stroke-width="0.142427"/>
<path d="M22.7643 59.68C22.53 59.6529 22.2216 59.6658 22.0642 59.6608C14.6659 59.4236 7.7674 56.4789 2.46768 51.3338C2.46063 51.3268 2.45509 51.3185 2.45142 51.3093C2.44774 51.3001 2.44602 51.2903 2.44635 51.2804C2.44669 51.2706 2.44908 51.2609 2.45336 51.2521C2.45765 51.2432 2.46374 51.2354 2.47124 51.2291L9.81621 45.0534C9.82064 45.0499 9.82598 45.0476 9.83163 45.0469C9.83728 45.0462 9.84301 45.047 9.84819 45.0494C9.85337 45.0518 9.85778 45.0555 9.86094 45.0603C9.8641 45.065 9.86587 45.0705 9.86606 45.0762C9.90879 46.5667 10.5077 47.981 11.291 49.2465C11.8437 50.1386 12.467 50.9753 13.1611 51.7568C14.0864 52.7984 14.9961 53.6988 15.89 54.4579C17.3983 55.7383 18.6021 56.7493 19.5013 57.4909C19.516 57.5032 19.5343 57.5107 19.5535 57.5122C19.5728 57.5137 19.5921 57.5093 19.6088 57.4994C20.6447 56.8785 21.717 56.3356 22.8255 55.8708C24.1472 55.3163 25.665 54.9517 27.3789 54.7769C28.111 54.7024 28.9083 54.6521 29.771 54.626C30.9868 54.5889 32.155 54.5775 33.2754 54.5918C33.2801 54.5919 33.2848 54.591 33.2892 54.5893C33.2936 54.5875 33.2977 54.5849 33.301 54.5816C33.3044 54.5783 33.3071 54.5743 33.3089 54.57C33.3108 54.5656 33.3117 54.5609 33.3117 54.5562V51.061C33.3118 51.0559 33.3104 51.0508 33.3076 51.0464C33.3049 51.0421 33.3009 51.0386 33.2962 51.0365C33.2915 51.0344 33.2863 51.0337 33.2812 51.0345C33.2761 51.0353 33.2714 51.0376 33.2676 51.0411C32.9666 51.3074 32.6359 51.5859 32.2756 51.8764C31.4089 52.5757 30.152 52.8841 28.9613 52.966C28.7419 52.9807 28.1537 52.9883 27.1966 52.9888C25.5891 52.9888 24.6491 52.9857 24.3765 52.9795C22.9259 52.9453 21.5024 52.6391 20.2504 51.9419C19.9912 51.7976 19.5746 51.484 19.0006 51.0012C17.1424 49.4392 15.9688 48.4472 15.4798 48.0252C14.1659 46.89 13.0664 45.5569 12.4732 43.9689C12.2463 43.3602 12.0837 42.7115 11.9854 42.0226C11.9194 41.5592 11.8871 40.8908 11.8885 40.0172C11.8923 36.9038 11.8923 34.5504 11.8885 32.9571C11.8835 30.7082 11.5367 28.435 10.727 26.3278C10.0918 24.6764 8.83703 22.6176 6.8231 22.5507C5.48856 22.5058 4.36624 23.1617 3.7538 24.3559C2.77675 26.2609 3.2788 28.7014 4.28505 30.4725C4.99956 31.7291 5.61627 32.8037 6.13518 33.6963C6.75688 34.7659 7.93546 36.2678 9.37611 35.5849C9.52898 35.5122 9.67806 35.4322 9.82333 35.3449C9.82777 35.3421 9.83288 35.3405 9.83814 35.3403C9.84339 35.3402 9.84859 35.3414 9.85318 35.344C9.85778 35.3466 9.8616 35.3503 9.86424 35.3548C9.86688 35.3594 9.86825 35.3646 9.8682 35.3698V40.4003C9.86813 40.4061 9.86632 40.4117 9.86301 40.4164C9.8597 40.4211 9.85503 40.4247 9.84963 40.4267C9.84424 40.4287 9.83836 40.429 9.83277 40.4276C9.82719 40.4262 9.82216 40.4232 9.81835 40.4189C7.99528 38.2193 6.22895 36.096 4.51935 34.0488C2.46839 31.5926 1.18085 28.6914 0.999969 25.4704" stroke="#1E1E1E" stroke-width="0.142427"/>
<path d="M33.5859 43.3023C31.2017 43.3061 29.8766 43.3039 29.6108 43.2959C28.163 43.2517 26.8042 42.8451 26.038 41.5711C26.0337 41.564 26.0308 41.556 26.0297 41.5478C26.0285 41.5396 26.029 41.5312 26.0311 41.5232C26.0332 41.5151 26.0369 41.5076 26.042 41.501C26.0471 41.4944 26.0535 41.489 26.0608 41.4849C26.1325 41.4446 26.2146 41.4398 26.3072 41.4707C26.9633 41.6886 27.4656 41.8232 27.814 41.8744C28.1815 41.929 28.7033 41.954 29.3793 41.9492C30.4803 41.9411 31.153 41.9404 31.3975 41.9471C31.8139 41.9589 32.1237 41.9248 32.3269 41.8445C32.6877 41.7021 32.9642 41.4894 33.1565 41.2065C33.3416 40.9337 33.3438 40.6688 33.0867 40.4865C33.0174 40.4371 32.8659 40.4131 32.6324 40.4146C31.0215 40.4222 28.8628 40.4212 26.1562 40.4117C25.3088 40.4082 24.4812 40.2899 23.7705 39.8036C23.7666 39.8008 23.7633 39.7972 23.761 39.793C23.7586 39.7888 23.7572 39.7841 23.757 39.7792C23.7567 39.7744 23.7575 39.7695 23.7594 39.7649C23.7612 39.7604 23.7641 39.7563 23.7677 39.753C23.8185 39.7088 23.988 39.5636 24.2762 39.3172C24.5539 39.08 24.7027 39.0451 25.0616 39.0572C25.0737 39.0576 25.0852 39.0627 25.0937 39.0714C25.1022 39.0802 25.107 39.0919 25.1072 39.1042C25.1096 39.2619 25.1395 39.4052 25.1969 39.5344C25.323 39.8164 25.7254 39.832 25.9967 39.7964C27.1579 39.6445 28.628 39.4472 30.4069 39.2046C30.7438 39.1591 31.0244 39.1605 31.2907 39.325C31.5547 39.4874 31.7059 39.578 31.7443 39.597C32.1745 39.8107 32.3539 39.4995 32.6616 39.2851C32.9201 39.1064 33.0696 39.1819 33.3808 39.2922C33.7055 39.4076 33.9819 39.5087 34.2097 39.5956C34.2136 39.5972 34.2179 39.5976 34.222 39.5967C34.226 39.5957 34.2297 39.5935 34.2325 39.5904C34.2352 39.5872 34.2369 39.5833 34.2373 39.5791C34.2377 39.5749 34.2368 39.5707 34.2347 39.5671C34.0937 39.3221 33.9123 39.0162 33.6906 38.6492C33.2106 37.8544 32.4038 37.393 31.5563 37.0811C30.4074 36.658 29.6834 36.3915 29.3843 36.2813C29.0368 36.1539 28.6081 35.874 28.5646 35.5001C28.5423 35.3078 28.5938 35.1419 28.7192 35.0023C29.0012 34.689 29.405 34.6456 29.8493 34.6456C32.103 34.6456 33.3554 34.6467 33.6066 34.6491C34.0994 34.6539 34.4417 34.6206 34.6335 34.5494C35.3876 34.2688 35.7551 33.4584 35.4951 32.6957C34.8108 30.6882 34.0388 28.6814 32.9614 26.8306C32.6587 26.3107 32.3959 25.469 32.72 24.9042C32.8481 24.6806 33.0086 24.4012 33.2014 24.0661C33.4955 23.5547 33.7853 23.2421 34.3144 23.0434C35.4894 22.6033 36.7029 22.1613 37.9549 21.7174C37.9655 21.7137 37.9747 21.7069 37.9812 21.6978C37.9877 21.6888 37.9912 21.678 37.9912 21.6669C38.0031 20.7136 37.9943 19.9905 37.9648 19.4977C37.7156 15.3139 34.5957 11.89 31.4609 9.42882C31.4541 9.42343 31.4456 9.42055 31.4369 9.42068C31.4282 9.42081 31.4198 9.42394 31.4132 9.42953C30.6574 10.0595 30.2135 10.4275 30.0815 10.5333C28.8417 11.5318 27.0364 11.0589 25.699 10.5725C23.2678 9.68851 21.9674 9.21447 21.7979 9.15037C20.9476 8.8292 20.2148 8.659 19.4101 8.68108C16.7325 8.75443 14.0193 10.4814 13.3029 13.1419C13.1865 13.5744 13.1281 13.9547 13.1277 14.2827C13.1248 19.0664 13.1246 23.1044 13.127 26.3969C13.127 27.0428 13.1547 27.6873 13.2473 28.257C13.3731 29.0261 13.6359 29.7563 14.0356 30.4475C14.8228 31.8091 15.2577 32.5611 15.3403 32.7036C16.1336 34.0766 16.39 35.5286 16.3942 37.0875C16.3995 39.0254 16.4035 40.0521 16.4063 40.1675C16.4348 41.309 16.6905 42.2597 17.5899 43.0224C18.9069 44.1386 20.2412 45.2597 21.5928 46.3858C21.6037 46.3949 21.6175 46.3998 21.6317 46.3995C21.646 46.3993 21.6597 46.3939 21.6704 46.3844C22.017 46.0701 22.3527 45.8007 22.6774 45.5761C23.2322 45.1923 23.9308 45.0477 24.6265 45.0477C28.6909 45.0463 30.7454 45.0458 30.7901 45.0463C31.7678 45.0563 32.4472 44.9687 33.0112 44.2466C33.25 43.9408 33.4504 43.641 33.6123 43.3471C33.6149 43.3426 33.6163 43.3374 33.6163 43.3321C33.6162 43.3268 33.6148 43.3216 33.6121 43.317C33.6095 43.3125 33.6056 43.3087 33.601 43.3061C33.5964 43.3035 33.5912 43.3022 33.5859 43.3023Z" stroke="#1E1E1E" stroke-width="0.142427"/>
<path d="M171.913 23.3433C171.89 23.047 171.864 22.7517 171.834 22.4574C171.553 19.6943 170.185 17.2638 167.245 16.7439C164.552 16.2682 162.049 17.2488 160.256 19.2713C160.251 19.2773 160.245 19.2821 160.237 19.2856C160.23 19.289 160.222 19.291 160.214 19.2913C160.206 19.2916 160.198 19.2903 160.19 19.2875C160.182 19.2847 160.175 19.2804 160.17 19.2748C160.127 19.235 159.955 17.8969 159.82 16.9675C159.818 16.9533 159.811 16.9403 159.8 16.9309C159.789 16.9216 159.775 16.9166 159.76 16.917L155.645 17.0359C155.639 17.036 155.634 17.0371 155.629 17.0393C155.624 17.0414 155.62 17.0445 155.616 17.0483C155.613 17.0522 155.61 17.0567 155.608 17.0616C155.606 17.0666 155.605 17.0719 155.605 17.0772C155.672 19.2126 155.707 20.7672 155.708 21.741C155.713 25.2632 155.714 29.5574 155.71 34.6235C155.71 34.6293 155.711 34.635 155.713 34.6403C155.715 34.6457 155.719 34.6506 155.723 34.6547C155.727 34.6588 155.732 34.662 155.737 34.6643C155.743 34.6665 155.748 34.6677 155.754 34.6677H160.543C160.552 34.6677 160.559 34.6644 160.565 34.6587C160.571 34.6529 160.574 34.6452 160.574 34.637V23.0655C160.574 23.0068 160.59 22.949 160.62 22.8982C161.228 21.8656 162.213 21.0096 163.38 20.719C164.447 20.4541 165.763 20.5481 166.407 21.5672C166.662 21.9703 166.827 22.4327 166.903 22.9544C166.976 23.4506 167.012 23.8297 167.012 24.0917C167.013 27.6709 167.014 31.1827 167.014 34.6271C167.014 34.6384 167.018 34.6493 167.026 34.6573C167.034 34.6653 167.045 34.6698 167.057 34.6698L171.913 34.6634" stroke="#1E1E1E" stroke-width="0.142427"/>
<path d="M40.0094 54.2193C44.144 51.2476 47.3779 47.3472 49.547 42.7497C52.8485 35.7515 53.1832 27.5028 50.5205 20.259C47.5972 12.3073 41.4244 6.05046 33.5368 2.96478C32.2763 2.47198 30.941 2.0504 29.5688 1.78406" stroke="#1E1E1E" stroke-width="0.142427"/>
<path d="M145.69 8.67039C145.689 9.55486 145.688 16.7603 145.688 30.2866C145.687 31.116 145.725 31.6945 145.803 32.022C146.14 33.4541 147.166 34.4326 148.576 34.7915C149.939 35.1391 151.357 34.9411 152.722 34.4939C152.734 34.4899 152.744 34.4823 152.752 34.472C152.759 34.4618 152.763 34.4495 152.763 34.4369L152.725 30.8506C152.725 30.8436 152.723 30.8367 152.72 30.8305C152.717 30.8243 152.712 30.8189 152.707 30.8148C152.701 30.8106 152.695 30.8079 152.688 30.8066C152.681 30.8054 152.674 30.8059 152.667 30.8078C152.345 30.9037 152.031 30.95 151.725 30.9467C151.182 30.9403 150.88 30.56 150.754 30.08C150.599 29.4883 150.569 28.9128 150.569 28.2605C150.571 16.0094 150.57 9.51593 150.568 8.78006C150.568 8.66374 150.565 8.57567 150.56 8.51585C150.559 8.50987 150.557 8.50433 150.552 8.50036C150.548 8.49638 150.542 8.49428 150.536 8.49449L145.727 8.63264C145.717 8.63301 145.707 8.63715 145.7 8.64419C145.693 8.65123 145.69 8.66062 145.69 8.67039Z" stroke="#1E1E1E" stroke-width="0.142427"/>
<path d="M84.624 11.3224C84.624 10.61 84.341 9.92675 83.8372 9.42299C83.3335 8.91924 82.6502 8.63623 81.9378 8.63623C81.2254 8.63623 80.5421 8.91924 80.0384 9.42299C79.5346 9.92675 79.2516 10.61 79.2516 11.3224C79.2516 12.0348 79.5346 12.7181 80.0384 13.2218C80.5421 13.7256 81.2254 14.0086 81.9378 14.0086C82.6502 14.0086 83.3335 13.7256 83.8372 13.2218C84.341 12.7181 84.624 12.0348 84.624 11.3224Z" stroke="#1E1E1E" stroke-width="0.142427"/>
<path d="M62.0799 10.2008C62.0708 10.2008 62.0621 10.2044 62.0557 10.2108C62.0493 10.2172 62.0457 10.2259 62.0457 10.235V34.6334C62.0457 34.6425 62.0493 34.6512 62.0557 34.6576C62.0621 34.664 62.0708 34.6676 62.0799 34.6676H76.5947C76.6034 34.6676 76.6117 34.6643 76.6181 34.6584C76.6245 34.6524 76.6283 34.6443 76.6288 34.6356L76.8703 30.5864C76.8705 30.5817 76.8699 30.577 76.8683 30.5726C76.8667 30.5682 76.8642 30.5642 76.861 30.5608C76.8578 30.5574 76.854 30.5547 76.8497 30.5528C76.8454 30.551 76.8407 30.55 76.8361 30.5501H66.9623C66.9532 30.5501 66.9445 30.5465 66.9381 30.54C66.9317 30.5336 66.9281 30.5249 66.9281 30.5159V10.235C66.9281 10.2259 66.9245 10.2172 66.9181 10.2108C66.9117 10.2044 66.903 10.2008 66.8939 10.2008H62.0799Z" stroke="#1E1E1E" stroke-width="0.142427"/>
<path d="M104.76 34.6676C104.769 34.6676 104.779 34.6637 104.786 34.6568C104.793 34.6498 104.797 34.6404 104.797 34.6306C104.794 29.3214 104.795 25.9471 104.799 24.5076C104.804 22.582 104.626 20.5175 103.512 18.8917C102.221 17.0081 100.077 16.4284 97.8676 16.6869C95.9448 16.9112 94.3881 17.8975 93.1048 19.2905C93.0996 19.2963 93.0929 19.3005 93.0853 19.3026C93.0778 19.3047 93.0698 19.3046 93.0623 19.3023C93.0547 19.3 93.048 19.2956 93.0428 19.2896C93.0376 19.2836 93.0341 19.2762 93.0329 19.2684L92.6932 16.9618C92.6913 16.9489 92.6847 16.9371 92.6746 16.9287C92.6645 16.9203 92.6516 16.9159 92.6384 16.9162L88.4937 17.0359C88.4914 17.0359 88.4891 17.0365 88.487 17.0375C88.4848 17.0385 88.4829 17.0399 88.4813 17.0416C88.4798 17.0433 88.4785 17.0453 88.4777 17.0475C88.4769 17.0497 88.4765 17.052 88.4766 17.0544C88.535 18.7279 88.5756 20.3017 88.5749 22.0685C88.5735 26.226 88.5735 30.4119 88.5749 34.6263C88.5749 34.6373 88.5793 34.6478 88.587 34.6555C88.5948 34.6633 88.6053 34.6676 88.6162 34.6676H93.4196C93.4247 34.6676 93.4297 34.6666 93.4345 34.6647C93.4392 34.6627 93.4434 34.6599 93.447 34.6563C93.4506 34.6527 93.4534 34.6485 93.4553 34.6438C93.4572 34.6392 93.4581 34.6342 93.458 34.6292C93.4519 31.4663 93.4514 27.6097 93.4566 23.0591C93.4566 22.9836 93.4922 22.8899 93.5634 22.7778C94.2998 21.6163 95.4299 20.7731 96.7965 20.6207C97.9758 20.489 98.9984 20.8287 99.487 21.9517C99.8288 22.7372 99.895 23.6502 99.8957 24.5183C99.8986 27.7979 99.8991 31.1727 99.8972 34.6427C99.8972 34.6493 99.8998 34.6557 99.9045 34.6603C99.9091 34.665 99.9155 34.6676 99.9221 34.6676H104.76Z" stroke="#1E1E1E" stroke-width="0.142427"/>
<path d="M124.704 25.7752C124.694 27.4316 124.959 29.0418 125.666 30.4988C127.151 33.5638 130.223 35.0166 133.525 35.0365C136.826 35.0565 139.916 33.6407 141.438 30.5935C142.162 29.145 142.447 27.5377 142.457 25.882C142.467 24.2263 142.202 22.6155 141.495 21.1584C140.01 18.0934 136.938 16.6406 133.635 16.6207C130.334 16.6008 127.245 18.0165 125.722 21.0637C124.999 22.5122 124.714 24.1195 124.704 25.7752Z" stroke="#1E1E1E" stroke-width="0.142427"/>
<path d="M108.05 25.8521C108.049 29.5737 109.741 32.7947 113.299 34.2261C114.039 34.5238 114.8 34.7306 115.583 34.8464C117.846 35.1818 120.224 35.013 122.397 34.2318C122.411 34.2269 122.423 34.2176 122.432 34.2053C122.441 34.1931 122.445 34.1784 122.445 34.1635L122.407 30.5985C122.407 30.5889 122.405 30.5795 122.4 30.571C122.395 30.5626 122.389 30.5554 122.381 30.55C122.373 30.5447 122.364 30.5414 122.354 30.5404C122.344 30.5394 122.335 30.5408 122.326 30.5444C121.848 30.7357 121.347 30.8829 120.823 30.9859C119.734 31.1995 118.648 31.3213 117.54 31.2715C116.944 31.2444 116.393 31.1293 115.887 30.9261C113.765 30.0729 113.037 27.9999 113.037 25.8528C113.038 23.705 113.767 21.6327 115.889 20.7796C116.394 20.5768 116.945 20.462 117.542 20.4349C118.65 20.3858 119.736 20.5075 120.824 20.7219C121.348 20.8249 121.849 20.9721 122.327 21.1634C122.336 21.167 122.346 21.1684 122.355 21.1674C122.365 21.1664 122.374 21.1631 122.382 21.1578C122.39 21.1524 122.397 21.1452 122.401 21.1368C122.406 21.1283 122.408 21.1189 122.409 21.1093L122.448 17.5443C122.448 17.5294 122.443 17.5147 122.435 17.5024C122.426 17.4902 122.414 17.4809 122.4 17.476C120.227 16.694 117.849 16.5246 115.586 16.8593C114.803 16.9751 114.041 17.1816 113.302 17.4788C109.743 18.9095 108.05 22.1298 108.05 25.8521Z" stroke="#1E1E1E" stroke-width="0.142427"/>
<path d="M84.3377 34.6676C84.3477 34.6676 84.3573 34.6637 84.3644 34.6566C84.3715 34.6495 84.3754 34.6399 84.3754 34.6299V16.9454C84.3754 16.9403 84.3744 16.9353 84.3724 16.9306C84.3704 16.926 84.3675 16.9217 84.3639 16.9182C84.3602 16.9147 84.3559 16.9119 84.3512 16.9101C84.3464 16.9083 84.3413 16.9075 84.3363 16.9077L79.5472 17.0458C79.5375 17.0462 79.5284 17.0502 79.5216 17.0571C79.5149 17.064 79.511 17.0732 79.5108 17.0829V34.6299C79.5108 34.6399 79.5148 34.6495 79.5219 34.6566C79.529 34.6637 79.5386 34.6676 79.5486 34.6676H84.3377Z" stroke="#1E1E1E" stroke-width="0.142427"/>
<path d="M155.22 55.811C154.652 55.9833 153.991 56.1713 153.737 55.4399C153.632 55.1408 153.58 54.7798 153.58 54.3568C153.575 46.9055 153.575 41.9896 153.579 39.6092C153.579 39.6035 153.578 39.5978 153.576 39.5925C153.574 39.5872 153.571 39.5825 153.567 39.5785C153.563 39.5745 153.558 39.5713 153.553 39.5693C153.547 39.5672 153.542 39.5662 153.536 39.5664L151.11 39.6362C151.097 39.6366 151.084 39.6422 151.075 39.6517C151.066 39.6613 151.061 39.6741 151.061 39.6875C151.063 40.7377 151.063 46.031 151.061 55.5674C151.061 56.4804 151.409 57.3328 152.226 57.7757C153.166 58.2849 154.328 58.1126 155.296 57.7615C155.306 57.758 155.314 57.7515 155.32 57.7429C155.326 57.7343 155.329 57.7241 155.328 57.7138L155.275 55.8508C155.275 55.8443 155.273 55.8378 155.27 55.832C155.267 55.8262 155.262 55.8212 155.257 55.8174C155.252 55.8136 155.246 55.811 155.239 55.8099C155.233 55.8088 155.226 55.8091 155.22 55.811Z" stroke="#1E1E1E" stroke-width="0.142427"/>
<path d="M74.8667 40.1867C74.675 40.1863 74.4851 40.2244 74.3079 40.2988C74.1306 40.3731 73.9695 40.4823 73.8337 40.62C73.6979 40.7577 73.5901 40.9213 73.5164 41.1014C73.4427 41.2815 73.4046 41.4746 73.4043 41.6696C73.4039 41.8647 73.4414 42.058 73.5144 42.2383C73.5875 42.4187 73.6947 42.5826 73.83 42.7208C73.9653 42.859 74.1261 42.9687 74.3031 43.0437C74.4801 43.1186 74.6698 43.1574 74.8616 43.1577C75.0533 43.158 75.2432 43.12 75.4204 43.0456C75.5977 42.9713 75.7588 42.8621 75.8946 42.7244C76.0304 42.5867 76.1382 42.4231 76.2119 42.243C76.2856 42.0629 76.3237 41.8698 76.324 41.6747C76.3244 41.4797 76.2869 41.2864 76.2139 41.1061C76.1408 40.9257 76.0336 40.7618 75.8983 40.6236C75.763 40.4854 75.6022 40.3757 75.4252 40.3007C75.2482 40.2258 75.0585 40.187 74.8667 40.1867Z" stroke="#1E1E1E" stroke-width="0.142427"/>
<path d="M135.028 41.6729C135.028 41.2823 134.872 40.9078 134.596 40.6316C134.32 40.3554 133.945 40.2002 133.555 40.2002C133.164 40.2002 132.79 40.3554 132.514 40.6316C132.237 40.9078 132.082 41.2823 132.082 41.6729C132.082 42.0635 132.237 42.4381 132.514 42.7143C132.79 42.9905 133.164 43.1456 133.555 43.1456C133.748 43.1456 133.94 43.1075 134.118 43.0335C134.297 42.9595 134.459 42.851 134.596 42.7143C134.733 42.5775 134.841 42.4152 134.915 42.2365C134.989 42.0578 135.028 41.8663 135.028 41.6729Z" stroke="#1E1E1E" stroke-width="0.142427"/>
<path d="M159.843 41.8282C159.85 41.8283 159.857 41.8267 159.864 41.8236C159.871 41.8206 159.877 41.816 159.882 41.8104C159.887 41.8047 159.891 41.798 159.893 41.7907C159.895 41.7835 159.896 41.7759 159.895 41.7684C159.804 41.1498 159.436 40.7984 158.791 40.7144C158.172 40.6339 157.442 40.8775 157.329 41.5547C157.181 42.4435 158.158 42.6941 158.789 42.895C159.011 42.9655 159.333 43.1236 159.366 43.365C159.408 43.6669 159.308 43.8715 159.067 43.9788C158.586 44.1925 157.75 44.055 157.712 43.3913C157.711 43.3804 157.707 43.37 157.699 43.3625C157.691 43.3549 157.68 43.3507 157.669 43.3507H157.233C157.228 43.3507 157.223 43.3517 157.219 43.3536C157.214 43.3555 157.21 43.3584 157.207 43.3619C157.204 43.3654 157.201 43.3696 157.2 43.3742C157.198 43.3788 157.197 43.3836 157.198 43.3885C157.233 44.0201 157.736 44.3912 158.331 44.4659C159.072 44.5592 159.988 44.2865 159.878 43.3507C159.808 42.754 159.238 42.5133 158.695 42.3587C158.297 42.2455 157.666 42.0554 157.868 41.5034C158.083 40.9145 159.183 41.0042 159.344 41.6103C159.369 41.7052 159.381 41.7603 159.38 41.7755C159.38 41.7819 159.381 41.7883 159.383 41.7943C159.385 41.8003 159.388 41.8059 159.393 41.8105C159.397 41.8152 159.402 41.819 159.408 41.8215C159.414 41.824 159.42 41.8254 159.427 41.8253L159.843 41.8282Z" stroke="#1E1E1E" stroke-width="0.142427"/>
<path d="M64.5596 42.9156C64.5596 42.906 64.5634 42.8967 64.5702 42.8899C64.577 42.8831 64.5862 42.8793 64.5959 42.8793H71.4167C71.4263 42.8793 71.4356 42.8755 71.4424 42.8686C71.4492 42.8618 71.453 42.8526 71.453 42.843V40.7892C71.453 40.7795 71.4492 40.7703 71.4424 40.7635C71.4356 40.7567 71.4263 40.7528 71.4167 40.7528H62.082C62.0724 40.7528 62.0632 40.7567 62.0564 40.7635C62.0495 40.7703 62.0457 40.7795 62.0457 40.7892V57.8484C62.0457 57.858 62.0495 57.8672 62.0564 57.8741C62.0632 57.8809 62.0724 57.8847 62.082 57.8847H64.5232C64.5329 57.8847 64.5421 57.8809 64.5489 57.8741C64.5557 57.8672 64.5596 57.858 64.5596 57.8484V50.408C64.5596 50.3983 64.5634 50.3891 64.5702 50.3823C64.577 50.3755 64.5862 50.3717 64.5959 50.3717H70.7231C70.7327 50.3717 70.742 50.3678 70.7488 50.361C70.7556 50.3542 70.7594 50.345 70.7594 50.3353V48.2865C70.7594 48.2769 70.7556 48.2677 70.7488 48.2608C70.742 48.254 70.7327 48.2502 70.7231 48.2502H64.5959C64.5862 48.2502 64.577 48.2464 64.5702 48.2396C64.5634 48.2328 64.5596 48.2235 64.5596 48.2139V42.9156Z" stroke="#1E1E1E" stroke-width="0.142427"/>
<path d="M162.37 44.4445C162.424 44.4445 162.475 44.445 162.525 44.446C162.535 44.4463 162.546 44.4432 162.555 44.4372C162.564 44.4312 162.571 44.4226 162.575 44.4125L163.707 41.6145C163.708 41.6119 163.71 41.6097 163.713 41.6084C163.716 41.607 163.718 41.6065 163.721 41.607C163.724 41.6076 163.726 41.609 163.728 41.6112C163.73 41.6133 163.73 41.616 163.73 41.6188L163.697 44.4324C163.697 44.4355 163.698 44.4384 163.7 44.4405C163.702 44.4426 163.705 44.4438 163.708 44.4438H164.185C164.188 44.4438 164.191 44.4433 164.193 44.4422C164.196 44.4411 164.198 44.4396 164.2 44.4376C164.202 44.4356 164.203 44.4332 164.204 44.4306C164.205 44.428 164.206 44.4253 164.206 44.4225V40.7984C164.206 40.7861 164.201 40.7744 164.192 40.7657C164.184 40.757 164.172 40.7521 164.16 40.7521H163.606C163.592 40.7521 163.579 40.756 163.568 40.7634C163.557 40.7707 163.549 40.7812 163.544 40.7934C163.133 41.8013 162.753 42.7499 162.403 43.6391C162.394 43.6619 162.383 43.6733 162.37 43.6733C162.357 43.6733 162.346 43.6617 162.337 43.6384C161.987 42.7497 161.608 41.8011 161.198 40.7927C161.193 40.7805 161.184 40.77 161.173 40.7626C161.162 40.7553 161.149 40.7514 161.136 40.7514H160.582C160.57 40.7514 160.558 40.7563 160.549 40.765C160.54 40.7736 160.536 40.7854 160.536 40.7977L160.533 44.4218C160.533 44.4274 160.536 44.4329 160.539 44.4369C160.543 44.4409 160.549 44.4431 160.554 44.4431H161.031C161.033 44.4431 161.034 44.4428 161.036 44.4422C161.037 44.4417 161.038 44.4408 161.039 44.4398C161.04 44.4387 161.041 44.4375 161.042 44.4361C161.042 44.4347 161.043 44.4332 161.043 44.4317L161.011 41.6181C161.01 41.6153 161.011 41.6126 161.013 41.6105C161.014 41.6083 161.017 41.6068 161.02 41.6063C161.022 41.6058 161.025 41.6063 161.028 41.6076C161.03 41.609 161.032 41.6112 161.033 41.6138L162.164 44.4125C162.168 44.4226 162.175 44.4312 162.184 44.4372C162.193 44.4432 162.204 44.4463 162.215 44.446C162.264 44.445 162.316 44.4445 162.37 44.4445Z" stroke="#1E1E1E" stroke-width="0.142427"/>
<path d="M100.114 51.2291C99.6916 51.1023 99.2842 50.9957 98.8916 50.9093C96.6434 50.4158 93.7799 50.7391 92.931 53.2886C92.5913 54.3119 92.6846 55.5289 93.2629 56.4462C93.9636 57.5571 95.2063 58.1183 96.5273 58.1168C98.0722 58.1164 99.3279 57.5291 100.295 56.355C100.298 56.3503 100.303 56.3467 100.309 56.3446C100.314 56.3426 100.32 56.3421 100.326 56.3433C100.332 56.3445 100.337 56.3473 100.342 56.3514C100.346 56.3554 100.349 56.3607 100.351 56.3664C100.462 56.76 100.652 57.1051 100.92 57.4019C101.805 58.3818 103.253 58.1589 104.383 57.7665C104.393 57.7627 104.403 57.7557 104.409 57.7465C104.415 57.7372 104.418 57.7263 104.418 57.7152L104.363 55.8423C104.363 55.8356 104.361 55.8291 104.358 55.8233C104.355 55.8174 104.35 55.8124 104.345 55.8087C104.339 55.805 104.333 55.8027 104.326 55.802C104.32 55.8013 104.313 55.8021 104.307 55.8045C104.127 55.8729 103.935 55.9225 103.729 55.9534C103.101 56.0474 102.857 55.7084 102.754 55.118C102.707 54.8455 102.683 54.4963 102.683 54.0705C102.682 52.3115 102.682 50.7629 102.683 49.4245C102.683 49.0457 102.659 48.6967 102.612 48.3777C102.246 45.9472 100.026 45.2742 97.9074 45.2941C96.4298 45.3077 94.9314 45.569 93.5691 46.1651C93.5539 46.1717 93.5411 46.1829 93.5326 46.1972C93.524 46.2115 93.5201 46.2282 93.5214 46.2448L93.6617 48.0829C93.6619 48.088 93.6634 48.0929 93.6661 48.0973C93.6687 48.1017 93.6723 48.1054 93.6767 48.1081C93.6811 48.1109 93.6861 48.1125 93.6913 48.1129C93.6965 48.1134 93.7017 48.1126 93.7066 48.1106C94.3617 47.849 95.0356 47.656 95.7283 47.5317C96.627 47.37 97.5806 47.2774 98.4985 47.3985C100.217 47.6249 100.161 48.9289 100.17 50.2862C100.173 50.7913 100.171 51.094 100.163 51.1942C100.163 51.2 100.161 51.2056 100.158 51.2107C100.156 51.2158 100.152 51.2202 100.147 51.2235C100.142 51.2268 100.137 51.2291 100.131 51.23C100.125 51.231 100.119 51.2307 100.114 51.2291Z" stroke="#1E1E1E" stroke-width="0.142427"/>
<path d="M144.879 51.2291C144.457 51.1023 144.05 50.9957 143.657 50.9093C141.408 50.4151 138.545 50.7377 137.695 53.2878C137.355 54.3112 137.448 55.5282 138.026 56.4455C138.727 57.5571 139.97 58.1183 141.291 58.1176C142.836 58.1171 144.092 57.5298 145.059 56.3557C145.063 56.351 145.068 56.3474 145.074 56.3454C145.079 56.3433 145.085 56.3428 145.091 56.344C145.097 56.3452 145.102 56.348 145.107 56.3521C145.111 56.3561 145.114 56.3614 145.116 56.3671C145.227 56.7612 145.416 57.1066 145.684 57.4033C146.569 58.3832 148.018 58.161 149.148 57.7686C149.158 57.7648 149.167 57.7578 149.174 57.7486C149.18 57.7394 149.183 57.7284 149.183 57.7173L149.129 55.8444C149.128 55.8378 149.127 55.8312 149.123 55.8254C149.12 55.8196 149.116 55.8146 149.11 55.8109C149.105 55.8072 149.098 55.8048 149.092 55.8041C149.085 55.8034 149.078 55.8043 149.072 55.8067C148.893 55.8746 148.7 55.9239 148.494 55.9548C147.866 56.0488 147.622 55.7098 147.519 55.1195C147.472 54.847 147.449 54.4978 147.449 54.0719C147.448 52.3125 147.448 50.7636 147.449 49.4252C147.449 49.0459 147.426 48.6967 147.378 48.3777C147.013 45.9471 144.793 45.2735 142.674 45.2927C141.196 45.3062 139.698 45.5669 138.335 46.1629C138.319 46.1697 138.307 46.1809 138.298 46.1952C138.29 46.2095 138.286 46.2261 138.287 46.2427L138.427 48.0814C138.428 48.0865 138.429 48.0915 138.432 48.0959C138.434 48.1003 138.438 48.104 138.442 48.1067C138.447 48.1094 138.452 48.1111 138.457 48.1115C138.462 48.1119 138.467 48.1111 138.472 48.1092C139.127 47.8476 139.801 47.6546 140.494 47.5302C141.393 47.3686 142.347 47.2767 143.265 47.3978C144.983 47.6242 144.928 48.9289 144.935 50.2862C144.938 50.7913 144.936 51.094 144.929 51.1942C144.929 51.2 144.927 51.2056 144.924 51.2107C144.921 51.2158 144.917 51.2202 144.912 51.2235C144.908 51.2268 144.902 51.2291 144.896 51.23C144.891 51.231 144.885 51.2307 144.879 51.2291Z" stroke="#1E1E1E" stroke-width="0.142427"/>
<path d="M81.8367 47.328L81.6465 45.5334C81.6458 45.5256 81.6422 45.5185 81.6363 45.5133C81.6305 45.5082 81.623 45.5054 81.6152 45.5056L79.4909 45.5669C79.4849 45.567 79.479 45.5684 79.4736 45.5709C79.4681 45.5733 79.4632 45.5768 79.4591 45.5812C79.455 45.5856 79.4518 45.5907 79.4497 45.5963C79.4475 45.6019 79.4465 45.6079 79.4467 45.6139C79.4823 46.5275 79.5115 47.286 79.5123 48.1669C79.5123 50.7923 79.5125 54.0221 79.513 57.8562C79.513 57.8636 79.5159 57.8706 79.5211 57.8758C79.5263 57.881 79.5334 57.884 79.5407 57.884L81.9955 57.8833C81.9997 57.8833 82.0038 57.8824 82.0076 57.8809C82.0115 57.8793 82.015 57.8769 82.0179 57.874C82.0208 57.8711 82.0231 57.8676 82.0246 57.8639C82.0262 57.8601 82.0269 57.856 82.0268 57.8519C82.0263 55.3091 82.0261 52.5539 82.0261 49.5862C82.0261 49.4046 82.0703 49.3198 82.1578 49.1867C82.8358 48.1576 83.8677 47.4697 85.0854 47.4191C86.2619 47.3714 87.0616 47.9169 87.3764 49.0556C87.4936 49.4824 87.5528 49.8974 87.5537 50.3004C87.5594 52.8527 87.5601 55.3704 87.5558 57.8533C87.5558 57.8611 87.5589 57.8685 87.5644 57.874C87.5699 57.8795 87.5773 57.8825 87.585 57.8825L90.0298 57.8818C90.0409 57.8818 90.0516 57.8774 90.0595 57.8695C90.0674 57.8616 90.0718 57.851 90.0718 57.8398C90.0742 55.3644 90.0725 52.8143 90.0668 50.1893C90.0618 47.7253 89 45.4608 86.2427 45.3254C84.4844 45.2386 82.9683 46.0063 81.8765 47.3401C81.8737 47.3434 81.8699 47.3459 81.8656 47.3471C81.8614 47.3483 81.8569 47.3483 81.8527 47.347C81.8484 47.3457 81.8447 47.3432 81.8418 47.3399C81.839 47.3365 81.8372 47.3324 81.8367 47.328Z" stroke="#1E1E1E" stroke-width="0.142427"/>
<path d="M108.861 47.3287L108.671 45.5334C108.67 45.5257 108.666 45.5185 108.66 45.5133C108.655 45.5082 108.647 45.5054 108.639 45.5056L106.515 45.5669C106.509 45.5671 106.503 45.5684 106.498 45.5709C106.492 45.5734 106.487 45.5769 106.483 45.5812C106.479 45.5856 106.476 45.5907 106.474 45.5963C106.472 45.6019 106.471 45.6079 106.471 45.6139C106.506 46.5276 106.536 47.2867 106.536 48.1676C106.536 50.7935 106.535 54.0237 106.535 57.8583C106.535 57.8657 106.538 57.8728 106.543 57.878C106.548 57.8832 106.555 57.8861 106.563 57.8861H109.018C109.022 57.8861 109.026 57.8853 109.03 57.8837C109.034 57.8821 109.038 57.8798 109.041 57.8769C109.044 57.874 109.046 57.8705 109.047 57.8667C109.049 57.8629 109.05 57.8589 109.05 57.8548C109.05 55.3115 109.05 52.5558 109.05 49.5876C109.05 49.406 109.094 49.3213 109.182 49.1881C109.86 48.1583 110.893 47.4704 112.11 47.4206C113.287 47.3729 114.087 47.9184 114.401 49.0578C114.518 49.4846 114.578 49.8995 114.579 50.3026C114.584 52.8554 114.584 55.3735 114.58 57.8569C114.58 57.8647 114.583 57.8721 114.589 57.8776C114.594 57.883 114.601 57.8861 114.609 57.8861H117.054C117.065 57.8861 117.076 57.8817 117.084 57.8738C117.092 57.8659 117.096 57.8552 117.096 57.8441C117.099 55.3682 117.098 52.8174 117.092 50.1915C117.087 47.7275 116.026 45.4622 113.268 45.3262C111.509 45.2393 109.993 46.007 108.901 47.3408C108.898 47.3442 108.894 47.3466 108.89 47.3478C108.886 47.349 108.881 47.349 108.877 47.3477C108.873 47.3465 108.869 47.344 108.866 47.3406C108.863 47.3372 108.861 47.3331 108.861 47.3287Z" stroke="#1E1E1E" stroke-width="0.142427"/>
<path d="M119.836 51.729C119.835 54.2008 120.843 56.4455 123.188 57.5058C125.081 58.3618 127.433 58.2621 129.365 57.6198C129.456 57.5889 129.536 57.5524 129.605 57.5101C129.614 57.5044 129.621 57.4965 129.626 57.487C129.631 57.4775 129.634 57.4668 129.634 57.456L129.58 55.5717C129.579 55.5679 129.578 55.5642 129.576 55.5609C129.575 55.5576 129.572 55.5548 129.569 55.5527C129.566 55.5506 129.562 55.5493 129.558 55.5489C129.554 55.5485 129.55 55.549 129.547 55.5503C128.883 55.8029 128.183 55.97 127.448 56.0517C126.656 56.14 125.928 56.162 125.214 55.9826C123.205 55.4777 122.422 53.6532 122.422 51.7297C122.423 49.8062 123.207 47.9825 125.216 47.479C125.93 47.2995 126.658 47.3223 127.45 47.4106C128.186 47.4927 128.885 47.6603 129.549 47.9134C129.553 47.9147 129.556 47.9152 129.56 47.9148C129.564 47.9144 129.568 47.9131 129.571 47.911C129.574 47.9089 129.577 47.9061 129.579 47.9028C129.581 47.8995 129.582 47.8958 129.582 47.892L129.637 46.0077C129.637 45.9969 129.634 45.9862 129.629 45.9767C129.624 45.9672 129.617 45.9593 129.607 45.9536C129.54 45.9113 129.46 45.8748 129.368 45.8439C127.437 45.2001 125.085 45.0997 123.19 45.9543C120.846 47.0132 119.836 49.2572 119.836 51.729Z" stroke="#1E1E1E" stroke-width="0.142427"/>
<path d="M76.0783 57.8847C76.0884 57.8847 76.098 57.8807 76.105 57.8737C76.1121 57.8666 76.1161 57.857 76.1161 57.847V45.5405C76.1161 45.5355 76.1151 45.5304 76.1131 45.5258C76.1111 45.5211 76.1082 45.5169 76.1045 45.5133C76.1009 45.5098 76.0965 45.5071 76.0918 45.5053C76.0871 45.5034 76.082 45.5026 76.0769 45.5028L73.6357 45.5733C73.6261 45.5737 73.6169 45.5777 73.6102 45.5846C73.6034 45.5915 73.5996 45.6007 73.5994 45.6103V57.847C73.5994 57.857 73.6034 57.8666 73.6104 57.8737C73.6175 57.8807 73.6271 57.8847 73.6371 57.8847H76.0783Z" stroke="#1E1E1E" stroke-width="0.142427"/>
<path d="M134.793 57.884C134.799 57.884 134.805 57.8816 134.809 57.8775C134.813 57.8734 134.815 57.8677 134.815 57.8619V45.5234C134.815 45.5205 134.815 45.5175 134.814 45.5148C134.812 45.5121 134.811 45.5096 134.809 45.5076C134.806 45.5055 134.804 45.5039 134.801 45.5028C134.798 45.5018 134.795 45.5013 134.793 45.5014L132.319 45.5726C132.314 45.5728 132.308 45.5752 132.304 45.5793C132.3 45.5834 132.298 45.5889 132.298 45.5946V57.8619C132.298 57.8677 132.3 57.8734 132.304 57.8775C132.309 57.8816 132.314 57.884 132.32 57.884H134.793Z" stroke="#1E1E1E" stroke-width="0.142427"/>
<path d="M38.5723 29.7973C38.5718 29.5846 38.5659 29.3622 38.5545 29.1301C38.508 28.135 38.389 27.1489 38.1977 26.1718C38.185 26.1049 38.183 26.0366 38.192 25.9696L38.2205 25.7538" stroke="#1E1E1E" stroke-width="0.142427"/>
<path d="M25.0374 25.1393C23.8759 25.1286 22.5172 25.2575 21.5244 25.9233C21.1361 26.1835 20.7898 26.5241 20.4854 26.9452C20.4786 26.9547 20.4756 26.9665 20.477 26.9781C20.4785 26.9897 20.4843 27.0004 20.4933 27.0079C21.0957 27.5043 21.9111 27.5064 22.7023 27.5235C23.0152 27.5306 23.4164 27.5316 23.9058 27.5263C24.3936 27.5213 24.7298 27.5983 24.8088 28.1131C24.8102 28.1207 24.8532 28.3807 24.9377 28.8929C24.9387 28.8991 24.9418 28.9047 24.9465 28.9089C24.9511 28.913 24.9571 28.9155 24.9634 28.9157C26.2965 28.9599 27.5975 28.7882 28.3018 27.5555C28.4367 27.3191 28.7647 26.7508 29.286 25.8507C29.5858 25.333 29.8515 24.7077 29.6243 24.1294C29.3935 23.5441 28.6081 23.1617 27.9978 22.943C27.8933 22.9055 26.6886 22.473 24.3837 21.6455C23.4095 21.2959 22.3398 21.298 21.5074 21.9717C21.4523 22.0163 20.1949 23.0714 17.7352 25.1371C17.725 25.1458 17.7176 25.1572 17.7138 25.17C17.71 25.1828 17.71 25.1963 17.7138 25.209C17.7879 25.4476 17.9018 25.8129 18.0485 26.0123C18.3747 26.456 18.9444 26.5642 19.4073 26.2245C19.525 26.1381 19.6048 26.07 19.6465 26.0202C20.6499 24.8174 21.8421 24.227 23.4202 24.2185C23.9148 24.2156 24.2035 24.217 24.2861 24.2227C24.7939 24.2576 24.9277 24.6379 25.0702 25.0944C25.0717 25.0996 25.0721 25.1051 25.0712 25.1105C25.0703 25.1159 25.0681 25.1209 25.0649 25.1253C25.0617 25.1297 25.0576 25.1332 25.0528 25.1356C25.048 25.1381 25.0428 25.1393 25.0374 25.1393Z" stroke="#1E1E1E" stroke-width="0.142427"/>
<path d="M129.725 25.8542C129.726 28.3837 130.391 31.4609 133.585 31.4609C136.779 31.4609 137.444 28.383 137.444 25.8535C137.444 23.3247 136.778 20.2469 133.584 20.2476C130.39 20.2476 129.725 23.3254 129.725 25.8542Z" stroke="#1E1E1E" stroke-width="0.142427"/>
<path d="M7.12718 30.9225C7.14678 30.9277 7.16753 30.9262 7.1862 30.9184C7.20488 30.9105 7.22043 30.8967 7.23044 30.8791C7.48491 30.4338 7.92691 29.668 8.55644 28.5817C8.84699 28.0804 8.98372 27.7264 8.86693 27.2073C8.84225 27.0981 8.6324 26.5153 8.2374 25.459C7.88276 24.5097 7.34083 23.7079 6.23844 23.6523C4.96158 23.5868 4.24731 24.6899 4.13977 25.8115C4.13635 25.8471 4.14495 25.8826 4.16407 25.9119C4.18319 25.9412 4.21164 25.9624 4.24446 25.9717C4.32184 25.9945 4.40493 25.9805 4.49371 25.9297C4.66367 25.8324 5.12988 25.5618 5.89234 25.1179C6.08414 25.0063 6.22704 24.9458 6.32105 24.9363C6.82524 24.8864 6.90856 25.506 6.84803 25.8621C6.62014 27.1942 6.47321 28.0336 6.40722 28.3802C6.27689 29.066 6.23844 29.917 6.61302 30.5173C6.74785 30.7328 6.91924 30.8679 7.12718 30.9225Z" stroke="#1E1E1E" stroke-width="0.142427"/>
<path d="M100.147 52.8299C98.8375 52.3051 96.4105 51.7489 95.5033 53.2814C95.3618 53.5212 95.2759 53.7875 95.2455 54.0805C95.1216 55.2783 95.8031 56.0787 96.9646 56.256C98.0029 56.4148 99.1038 55.9484 99.7903 55.1942C99.994 54.9702 100.128 54.7292 100.191 54.4714C100.194 54.4615 100.195 54.4514 100.195 54.4415V52.9004C100.195 52.8853 100.19 52.8705 100.182 52.8579C100.173 52.8454 100.161 52.8356 100.147 52.8299Z" stroke="#1E1E1E" stroke-width="0.142427"/>
<path d="M144.908 52.8293C143.599 52.3051 141.173 51.7497 140.266 53.2822C140.125 53.5219 140.039 53.7883 140.009 54.0812C139.886 55.279 140.567 56.0787 141.729 56.2553C142.766 56.4141 143.867 55.947 144.553 55.1928C144.756 54.9688 144.89 54.7278 144.953 54.47C144.956 54.4601 144.957 54.45 144.957 54.4401L144.956 52.8998C144.956 52.8846 144.952 52.8698 144.943 52.8572C144.935 52.8447 144.922 52.8349 144.908 52.8293Z" stroke="#1E1E1E" stroke-width="0.142427"/>
<path d="M23.1944 1C24.0219 1.02659 24.5712 1.04771 24.8423 1.06338C26.4441 1.15643 28.0196 1.39666 29.5688 1.78406C29.5398 1.77267 29.5142 1.76982 29.4918 1.77552C29.4883 1.77644 29.4851 1.77845 29.4827 1.78127C29.4803 1.78408 29.4789 1.78757 29.4786 1.79124C29.4783 1.79492 29.4791 1.7986 29.481 1.80177C29.4828 1.80495 29.4856 1.80747 29.489 1.80899C29.818 1.95711 30.0777 2.07295 30.2681 2.15651C32.1517 2.98259 33.6707 4.30004 34.0339 6.41793C34.0723 6.64107 34.0998 6.86183 34.1165 7.08022C34.1189 7.11439 34.1285 7.1477 34.1444 7.17809C34.1603 7.20847 34.1823 7.23527 34.209 7.25683C34.8068 7.73871 35.3477 8.21963 35.832 8.69961C37.0393 9.89553 37.8739 11.3044 38.3359 12.9261C38.4992 13.5011 38.6613 14.1598 38.8223 14.9023C39.1028 16.2013 39.4974 17.4924 40.0863 18.5848C40.3711 19.1141 40.7303 19.7399 41.1638 20.462C41.1765 20.4834 41.1834 20.5078 41.1836 20.5327C41.1839 20.5576 41.1775 20.5821 41.1652 20.6037L38.2205 25.7538C37.9171 26.2633 37.6176 26.7606 37.3218 27.2458C36.8769 27.9755 36.2258 28.3061 35.3684 28.2378C35.3637 28.2374 35.3589 28.2382 35.3546 28.2401C35.3503 28.242 35.3465 28.245 35.3436 28.2487C35.3407 28.2525 35.3388 28.2569 35.338 28.2616C35.3372 28.2663 35.3376 28.271 35.3392 28.2755L36.5705 31.6681C36.5752 31.6813 36.5841 31.6926 36.5958 31.7003C36.6075 31.708 36.6213 31.7117 36.6353 31.7109C36.8689 31.6961 37.0906 31.6304 37.3004 31.5136C37.9613 31.1442 38.3852 30.5722 38.5723 29.7974C38.5837 30.491 38.5025 31.1725 38.3287 31.8419C38.0282 33.0027 37.4236 33.9078 36.7905 35.0088C36.2984 35.864 36.1325 36.8155 36.1254 37.7996C36.1216 38.3394 36.1202 39.3711 36.1211 40.8946C36.1211 41.0484 36.1489 41.2727 36.1966 41.3995C36.6942 42.7245 36.9873 43.5333 37.0761 43.8257C37.3543 44.7392 37.3901 45.6222 37.1836 46.4749C36.9294 47.5238 36.203 48.5707 35.3898 49.2593C34.7802 49.7754 34.2465 50.2228 33.7889 50.6017C33.7866 50.6035 33.7849 50.6058 33.7837 50.6085C33.7826 50.6111 33.7821 50.614 33.7823 50.6169C33.7825 50.6197 33.7834 50.6225 33.7849 50.6249C33.7864 50.6274 33.7885 50.6294 33.791 50.6309C36.0461 51.9298 38.0569 53.0913 39.8235 54.1154C39.8529 54.132 39.8976 54.1462 39.9574 54.1581C39.966 54.1598 39.974 54.1636 39.9809 54.169C39.9877 54.1745 39.9931 54.1815 39.9966 54.1894L40.0094 54.2193C35.4356 57.4648 30.355 59.2648 24.7675 59.6195C24.5454 59.6337 24.0172 59.6539 23.183 59.68H22.7643C22.53 59.6529 22.2217 59.6658 22.0643 59.6608C14.6659 59.4236 7.76743 56.479 2.46771 51.3338C2.46066 51.3268 2.45512 51.3185 2.45145 51.3093C2.44777 51.3001 2.44605 51.2903 2.44639 51.2804C2.44672 51.2706 2.44911 51.2609 2.45339 51.2521C2.45768 51.2432 2.46377 51.2354 2.47127 51.2291L9.81624 45.0534C9.82067 45.0499 9.82601 45.0476 9.83166 45.0469C9.83731 45.0462 9.84304 45.047 9.84822 45.0494C9.8534 45.0518 9.85781 45.0555 9.86097 45.0603C9.86413 45.065 9.8659 45.0705 9.86609 45.0762C9.90882 46.5667 10.5077 47.981 11.2911 49.2465C11.8437 50.1386 12.4671 50.9753 13.1611 51.7568C14.0864 52.7984 14.9961 53.6988 15.8901 54.4579C17.3984 55.7383 18.6021 56.7493 19.5013 57.4909C19.5161 57.5032 19.5343 57.5107 19.5536 57.5122C19.5728 57.5137 19.5921 57.5093 19.6088 57.4994C20.6447 56.8785 21.717 56.3356 22.8255 55.8708C24.1473 55.3163 25.6651 54.9517 27.3789 54.7769C28.111 54.7024 28.9084 54.6521 29.771 54.626C30.9869 54.5889 32.155 54.5775 33.2754 54.5918C33.2802 54.5919 33.2849 54.591 33.2893 54.5893C33.2937 54.5875 33.2977 54.5849 33.3011 54.5816C33.3044 54.5783 33.3071 54.5743 33.309 54.57C33.3108 54.5656 33.3117 54.5609 33.3117 54.5562V51.061C33.3118 51.0559 33.3104 51.0508 33.3077 51.0464C33.3049 51.0421 33.3009 51.0386 33.2962 51.0365C33.2915 51.0344 33.2863 51.0337 33.2812 51.0345C33.2761 51.0353 33.2714 51.0376 33.2676 51.0411C32.9666 51.3074 32.6359 51.5859 32.2756 51.8764C31.4089 52.5757 30.152 52.8841 28.9613 52.966C28.742 52.9807 28.1537 52.9883 27.1966 52.9888C25.5891 52.9888 24.6491 52.9857 24.3766 52.9795C22.926 52.9453 21.5024 52.6391 20.2505 51.9419C19.9912 51.7976 19.5746 51.484 19.0007 51.0012C17.1425 49.4393 15.9689 48.4472 15.4799 48.0252C14.166 46.89 13.0664 45.5569 12.4732 43.9689C12.2463 43.3602 12.0837 42.7115 11.9854 42.0226C11.9194 41.5592 11.8871 40.8908 11.8886 40.0172C11.8924 36.9038 11.8924 34.5504 11.8886 32.9571C11.8836 30.7082 11.5368 28.435 10.7271 26.3278C10.0918 24.6764 8.83706 22.6176 6.82314 22.5507C5.48859 22.5058 4.36627 23.1617 3.75383 24.3559C2.77678 26.2609 3.27884 28.7014 4.28508 30.4725C4.99959 31.7291 5.6163 32.8038 6.13521 33.6963C6.75691 34.7659 7.93549 36.2678 9.37614 35.5849C9.52902 35.5122 9.67809 35.4322 9.82336 35.3449C9.8278 35.3421 9.83291 35.3405 9.83817 35.3403C9.84342 35.3402 9.84862 35.3415 9.85321 35.344C9.85781 35.3466 9.86163 35.3503 9.86427 35.3548C9.86691 35.3594 9.86828 35.3646 9.86823 35.3698V40.4003C9.86816 40.4061 9.86635 40.4117 9.86304 40.4164C9.85973 40.4211 9.85506 40.4247 9.84966 40.4267C9.84427 40.4287 9.83839 40.4291 9.8328 40.4276C9.82722 40.4262 9.82219 40.4232 9.81838 40.4189C7.99531 38.2193 6.22898 36.096 4.51938 34.0488C2.46842 31.5926 1.18088 28.6914 1 25.4704V24.0604C1.11964 22.1794 1.51606 20.3563 2.18927 18.5912C2.68396 17.2951 3.27812 16.0346 3.97174 14.8097C4.66964 13.5773 5.16671 12.7049 5.46296 12.1926C5.50126 12.1263 5.52208 12.0511 5.52349 11.974C5.59541 8.37702 8.36135 5.36468 11.2975 3.62422C12.0129 3.20026 12.7218 2.85796 13.4239 2.59732C14.0107 2.37893 14.7658 2.15152 15.6892 1.91509C17.4382 1.46692 19.224 1.18397 21.0466 1.06623C21.321 1.04866 21.8879 1.02659 22.7472 1H23.1944ZM33.5859 43.3023C31.2017 43.3061 29.8766 43.304 29.6108 43.2959C28.163 43.2517 26.8042 42.8451 26.038 41.5711C26.0337 41.564 26.0309 41.5561 26.0297 41.5478C26.0285 41.5396 26.029 41.5312 26.0311 41.5232C26.0332 41.5151 26.0369 41.5076 26.042 41.501C26.0471 41.4945 26.0535 41.489 26.0608 41.4849C26.1325 41.4446 26.2146 41.4398 26.3072 41.4707C26.9633 41.6886 27.4656 41.8232 27.8141 41.8745C28.1815 41.9291 28.7033 41.954 29.3793 41.9492C30.4803 41.9412 31.153 41.9405 31.3975 41.9471C31.8139 41.959 32.1237 41.9248 32.3269 41.8446C32.6877 41.7021 32.9642 41.4894 33.1565 41.2065C33.3417 40.9337 33.3438 40.6688 33.0867 40.4865C33.0174 40.4371 32.8659 40.4132 32.6324 40.4146C31.0215 40.4222 28.8628 40.4212 26.1562 40.4117C25.3088 40.4082 24.4813 40.29 23.7705 39.8036C23.7666 39.8008 23.7633 39.7972 23.761 39.793C23.7586 39.7888 23.7572 39.7841 23.757 39.7792C23.7567 39.7744 23.7575 39.7695 23.7594 39.765C23.7612 39.7604 23.7641 39.7563 23.7677 39.753C23.8185 39.7089 23.988 39.5636 24.2762 39.3172C24.5539 39.08 24.7027 39.0451 25.0617 39.0573C25.0737 39.0576 25.0852 39.0627 25.0937 39.0715C25.1022 39.0802 25.1071 39.092 25.1072 39.1043C25.1096 39.2619 25.1395 39.4053 25.197 39.5344C25.323 39.8164 25.7254 39.8321 25.9967 39.7965C27.1579 39.6445 28.628 39.4473 30.4069 39.2047C30.7438 39.1591 31.0244 39.1605 31.2907 39.325C31.5547 39.4874 31.7059 39.5781 31.7443 39.5971C32.1745 39.8107 32.3539 39.4995 32.6616 39.2851C32.9201 39.1064 33.0696 39.1819 33.3808 39.2923C33.7056 39.4076 33.9819 39.5087 34.2097 39.5956C34.2136 39.5973 34.2179 39.5976 34.222 39.5967C34.2261 39.5957 34.2297 39.5935 34.2325 39.5904C34.2353 39.5872 34.2369 39.5833 34.2373 39.5791C34.2377 39.5749 34.2368 39.5708 34.2347 39.5671C34.0937 39.3222 33.9123 39.0162 33.6906 38.6492C33.2106 37.8545 32.4038 37.393 31.5563 37.0811C30.4074 36.6581 29.6834 36.3915 29.3843 36.2814C29.0368 36.1539 28.6081 35.874 28.5646 35.5001C28.5423 35.3079 28.5938 35.1419 28.7192 35.0024C29.0012 34.689 29.405 34.6456 29.8493 34.6456C32.103 34.6456 33.3554 34.6468 33.6066 34.6491C34.0994 34.6539 34.4417 34.6206 34.6335 34.5494C35.3876 34.2689 35.7551 33.4584 35.4952 32.6957C34.8108 30.6882 34.0388 28.6814 32.9614 26.8306C32.6587 26.3107 32.3959 25.469 32.72 24.9043C32.8481 24.6807 33.0086 24.4013 33.2014 24.0661C33.4955 23.5548 33.7853 23.2421 34.3144 23.0435C35.4895 22.6034 36.7029 22.1614 37.9549 21.7175C37.9655 21.7138 37.9747 21.7069 37.9812 21.6979C37.9877 21.6888 37.9912 21.678 37.9912 21.6669C38.0031 20.7136 37.9943 19.9905 37.9648 19.4977C37.7156 15.3139 34.5957 11.89 31.4609 9.42884C31.4541 9.42345 31.4456 9.42057 31.4369 9.4207C31.4282 9.42083 31.4198 9.42396 31.4132 9.42955C30.6574 10.0596 30.2135 10.4275 30.0815 10.5334C28.8417 11.5318 27.0364 11.0589 25.699 10.5725C23.2678 9.68853 21.9674 9.21449 21.7979 9.1504C20.9476 8.82922 20.2149 8.65902 19.4101 8.6811C16.7325 8.75445 14.0193 10.4814 13.3029 13.1419C13.1865 13.5744 13.1282 13.9547 13.1277 14.2828C13.1248 19.0664 13.1246 23.1045 13.127 26.3969C13.127 27.0428 13.1547 27.6873 13.2473 28.257C13.3731 29.0261 13.6359 29.7563 14.0356 30.4475C14.8228 31.8091 15.2577 32.5612 15.3403 32.7036C16.1336 34.0766 16.39 35.5286 16.3942 37.0875C16.3995 39.0254 16.4035 40.0521 16.4063 40.1675C16.4348 41.309 16.6905 42.2597 17.5899 43.0224C18.9069 44.1386 20.2412 45.2597 21.5928 46.3858C21.6037 46.395 21.6175 46.3998 21.6317 46.3996C21.646 46.3993 21.6597 46.3939 21.6705 46.3844C22.017 46.0701 22.3527 45.8007 22.6774 45.5762C23.2322 45.1923 23.9308 45.0477 24.6265 45.0477C28.6909 45.0463 30.7454 45.0458 30.7901 45.0463C31.7678 45.0563 32.4472 44.9687 33.0112 44.2466C33.25 43.9409 33.4504 43.641 33.6123 43.3472C33.6149 43.3426 33.6163 43.3374 33.6163 43.3321C33.6163 43.3268 33.6148 43.3216 33.6122 43.3171C33.6095 43.3125 33.6056 43.3087 33.601 43.3061C33.5964 43.3035 33.5912 43.3022 33.5859 43.3023Z" fill="#1E1E1E"/>
<path d="M29.5687 1.78404C30.941 2.05038 32.2763 2.47196 33.5368 2.96476C41.4244 6.05044 47.5972 12.3073 50.5205 20.259C53.1832 27.5028 52.8485 35.7515 49.547 42.7497C47.3778 47.3472 44.144 51.2476 40.0094 54.2193L39.9965 54.1894C39.993 54.1815 39.9877 54.1745 39.9808 54.169C39.974 54.1636 39.966 54.1598 39.9574 54.1581C39.8976 54.1462 39.8529 54.132 39.8235 54.1153C38.0569 53.0913 36.0461 51.9298 33.791 50.6309C33.7885 50.6294 33.7864 50.6274 33.7849 50.6249C33.7834 50.6225 33.7825 50.6197 33.7823 50.6168C33.7821 50.614 33.7826 50.6111 33.7837 50.6084C33.7848 50.6058 33.7866 50.6035 33.7889 50.6017C34.2465 50.2228 34.7802 49.7754 35.3897 49.2593C36.203 48.5707 36.9294 47.5238 37.1836 46.4748C37.3901 45.6222 37.3543 44.7391 37.0761 43.8257C36.9873 43.5332 36.6941 42.7245 36.1966 41.3995C36.1489 41.2727 36.1211 41.0484 36.1211 40.8945C36.1202 39.3711 36.1216 38.3394 36.1254 37.7996C36.1325 36.8154 36.2984 35.864 36.7905 35.0087C37.4236 33.9078 38.0282 33.0027 38.3287 31.8419C38.5025 31.1725 38.5837 30.491 38.5723 29.7973C38.5718 29.5846 38.5659 29.3622 38.5545 29.1301C38.5079 28.135 38.389 27.1489 38.1977 26.1718C38.185 26.1049 38.183 26.0366 38.192 25.9696L38.2205 25.7538L41.1652 20.6037C41.1775 20.5821 41.1839 20.5576 41.1836 20.5327C41.1834 20.5078 41.1765 20.4834 41.1637 20.4619C40.7303 19.7398 40.3711 19.1141 40.0863 18.5847C39.4973 17.4923 39.1028 16.2012 38.8222 14.9023C38.6613 14.1598 38.4992 13.501 38.3358 12.9261C37.8739 11.3043 37.0393 9.8955 35.832 8.69959C35.3477 8.21961 34.8067 7.73868 34.209 7.2568C34.1823 7.23524 34.1603 7.20844 34.1444 7.17806C34.1284 7.14768 34.1189 7.11437 34.1164 7.08019C34.0998 6.8618 34.0723 6.64104 34.0338 6.41791C33.6706 4.30001 32.1517 2.98256 30.2681 2.15649C30.0777 2.07293 29.818 1.95709 29.489 1.80896C29.4856 1.80745 29.4828 1.80493 29.4809 1.80175C29.4791 1.79857 29.4782 1.79489 29.4785 1.79122C29.4789 1.78755 29.4803 1.78406 29.4827 1.78124C29.4851 1.77842 29.4883 1.77642 29.4918 1.77549C29.5141 1.7698 29.5398 1.77264 29.5687 1.78404Z" fill="#1E1E1E"/>
<path d="M145.69 8.67039C145.69 8.66062 145.693 8.65123 145.7 8.64419C145.707 8.63715 145.717 8.63301 145.727 8.63264L150.536 8.49449C150.542 8.49428 150.548 8.49638 150.552 8.50036C150.557 8.50433 150.559 8.50987 150.56 8.51585C150.565 8.57567 150.568 8.66374 150.568 8.78006C150.57 9.51593 150.571 16.0094 150.569 28.2605C150.569 28.9128 150.599 29.4883 150.754 30.08C150.88 30.56 151.182 30.9403 151.725 30.9467C152.031 30.95 152.345 30.9037 152.667 30.8078C152.674 30.8059 152.681 30.8054 152.688 30.8066C152.695 30.8079 152.701 30.8106 152.707 30.8148C152.712 30.8189 152.717 30.8243 152.72 30.8305C152.723 30.8367 152.725 30.8436 152.725 30.8506L152.763 34.4369C152.763 34.4495 152.759 34.4618 152.752 34.472C152.744 34.4823 152.734 34.4899 152.722 34.4939C151.357 34.9411 149.939 35.1391 148.576 34.7915C147.166 34.4326 146.14 33.4541 145.803 32.022C145.725 31.6945 145.687 31.116 145.688 30.2866C145.688 16.7603 145.689 9.55486 145.69 8.67039Z" fill="#1E1E1E"/>
<path d="M81.9378 14.0086C83.4213 14.0086 84.624 12.8059 84.624 11.3224C84.624 9.83887 83.4213 8.63623 81.9378 8.63623C80.4543 8.63623 79.2516 9.83887 79.2516 11.3224C79.2516 12.8059 80.4543 14.0086 81.9378 14.0086Z" fill="#1E1E1E"/>
<path d="M33.6123 43.3471C33.4504 43.641 33.25 43.9408 33.0112 44.2466C32.4472 44.9687 31.7678 45.0563 30.7901 45.0463C30.7454 45.0458 28.6909 45.0463 24.6265 45.0477C23.9308 45.0477 23.2322 45.1923 22.6774 45.5761C22.3527 45.8007 22.017 46.0701 21.6704 46.3844C21.6597 46.3939 21.646 46.3993 21.6317 46.3995C21.6175 46.3998 21.6037 46.3949 21.5928 46.3858C20.2412 45.2597 18.9069 44.1386 17.5899 43.0224C16.6905 42.2597 16.4348 41.309 16.4063 40.1675C16.4035 40.0521 16.3995 39.0254 16.3942 37.0875C16.39 35.5286 16.1336 34.0766 15.3403 32.7036C15.2577 32.5611 14.8228 31.8091 14.0356 30.4475C13.6359 29.7563 13.3731 29.0261 13.2473 28.257C13.1547 27.6873 13.127 27.0428 13.127 26.3969C13.1246 23.1044 13.1248 19.0664 13.1277 14.2827C13.1281 13.9547 13.1865 13.5744 13.3029 13.1419C14.0193 10.4814 16.7325 8.75443 19.4101 8.68108C20.2148 8.659 20.9476 8.8292 21.7979 9.15037C21.9674 9.21447 23.2678 9.68851 25.699 10.5725C27.0364 11.0589 28.8417 11.5318 30.0815 10.5333C30.2135 10.4275 30.6574 10.0595 31.4132 9.42953C31.4198 9.42394 31.4282 9.42081 31.4369 9.42068C31.4456 9.42055 31.4541 9.42343 31.4609 9.42882C34.5957 11.89 37.7156 15.3139 37.9648 19.4977C37.9943 19.9905 38.0031 20.7136 37.9912 21.6669C37.9912 21.678 37.9877 21.6888 37.9812 21.6978C37.9747 21.7069 37.9655 21.7137 37.9549 21.7174C36.7029 22.1613 35.4894 22.6033 34.3144 23.0434C33.7853 23.2421 33.4955 23.5547 33.2014 24.0661C33.0086 24.4012 32.8481 24.6806 32.72 24.9042C32.3959 25.469 32.6587 26.3107 32.9614 26.8306C34.0388 28.6814 34.8108 30.6882 35.4951 32.6957C35.7551 33.4584 35.3876 34.2688 34.6335 34.5494C34.4417 34.6206 34.0994 34.6539 33.6066 34.6491C33.3554 34.6467 32.103 34.6456 29.8493 34.6456C29.405 34.6456 29.0012 34.689 28.7192 35.0023C28.5938 35.1419 28.5423 35.3078 28.5646 35.5001C28.6081 35.874 29.0368 36.1539 29.3843 36.2813C29.6834 36.3915 30.4074 36.658 31.5563 37.0811C32.4038 37.393 33.2106 37.8544 33.6906 38.6492C33.9123 39.0162 34.0937 39.3221 34.2347 39.5671C34.2368 39.5707 34.2377 39.5749 34.2373 39.5791C34.2369 39.5833 34.2352 39.5872 34.2325 39.5904C34.2297 39.5935 34.226 39.5957 34.222 39.5967C34.2179 39.5976 34.2136 39.5972 34.2097 39.5956C33.9819 39.5087 33.7055 39.4076 33.3808 39.2922C33.0696 39.1819 32.9201 39.1064 32.6616 39.2851C32.3539 39.4995 32.1745 39.8107 31.7443 39.597C31.7059 39.578 31.5547 39.4874 31.2907 39.325C31.0244 39.1605 30.7438 39.1591 30.4069 39.2046C28.628 39.4472 27.1579 39.6445 25.9967 39.7964C25.7254 39.832 25.323 39.8164 25.1969 39.5344C25.1395 39.4052 25.1096 39.2619 25.1072 39.1042C25.107 39.0919 25.1022 39.0802 25.0937 39.0714C25.0852 39.0627 25.0737 39.0576 25.0616 39.0572C24.7027 39.0451 24.5539 39.08 24.2762 39.3172C23.988 39.5636 23.8185 39.7088 23.7677 39.753C23.7641 39.7563 23.7612 39.7604 23.7594 39.7649C23.7575 39.7695 23.7567 39.7744 23.757 39.7792C23.7572 39.7841 23.7586 39.7888 23.761 39.793C23.7633 39.7972 23.7666 39.8008 23.7705 39.8036C24.4812 40.2899 25.3088 40.4082 26.1562 40.4117C28.8628 40.4212 31.0215 40.4222 32.6324 40.4146C32.8659 40.4131 33.0174 40.4371 33.0867 40.4865C33.3438 40.6688 33.3416 40.9337 33.1565 41.2065C32.9642 41.4894 32.6877 41.7021 32.3269 41.8445C32.1237 41.9248 31.8139 41.9589 31.3975 41.9471C31.153 41.9404 30.4803 41.9411 29.3793 41.9492C28.7033 41.954 28.1815 41.929 27.814 41.8744C27.4656 41.8232 26.9633 41.6886 26.3072 41.4707C26.2146 41.4398 26.1325 41.4446 26.0608 41.4849C26.0535 41.489 26.0471 41.4944 26.042 41.501C26.0369 41.5076 26.0332 41.5151 26.0311 41.5232C26.029 41.5312 26.0285 41.5396 26.0297 41.5478C26.0308 41.556 26.0337 41.564 26.038 41.5711C26.8042 42.8451 28.163 43.2517 29.6108 43.2959C29.8766 43.3039 31.2017 43.3061 33.5859 43.3023C33.5912 43.3022 33.5964 43.3035 33.601 43.3061C33.6056 43.3087 33.6095 43.3125 33.6121 43.317C33.6148 43.3216 33.6162 43.3268 33.6163 43.3321C33.6163 43.3374 33.6149 43.3426 33.6123 43.3471ZM25.0374 25.1393C23.8759 25.1286 22.5172 25.2575 21.5245 25.9233C21.1361 26.1835 20.7898 26.5241 20.4855 26.9452C20.4786 26.9547 20.4756 26.9665 20.477 26.9781C20.4785 26.9897 20.4843 27.0004 20.4933 27.0079C21.0958 27.5043 21.9112 27.5064 22.7023 27.5235C23.0152 27.5306 23.4164 27.5316 23.9058 27.5263C24.3937 27.5213 24.7298 27.5983 24.8088 28.1131C24.8103 28.1207 24.8532 28.3807 24.9377 28.8929C24.9387 28.8991 24.9418 28.9047 24.9465 28.9089C24.9511 28.913 24.9571 28.9155 24.9634 28.9157C26.2965 28.9599 27.5976 28.7882 28.3019 27.5555C28.4367 27.3191 28.7647 26.7508 29.286 25.8507C29.5858 25.333 29.8515 24.7077 29.6243 24.1294C29.3936 23.5441 28.6081 23.1616 27.9978 22.943C27.8933 22.9055 26.6886 22.473 24.3837 21.6455C23.4095 21.2959 22.3399 21.298 21.5074 21.9717C21.4523 22.0163 20.1949 23.0714 17.7352 25.1371C17.725 25.1458 17.7176 25.1572 17.7138 25.17C17.71 25.1828 17.71 25.1963 17.7138 25.209C17.7879 25.4476 17.9018 25.8129 18.0485 26.0123C18.3747 26.456 18.9444 26.5642 19.4073 26.2245C19.525 26.1381 19.6048 26.07 19.6466 26.0202C20.65 24.8174 21.8421 24.227 23.4202 24.2185C23.9149 24.2156 24.2035 24.217 24.2861 24.2227C24.7939 24.2576 24.9278 24.6379 25.0702 25.0944C25.0717 25.0996 25.0721 25.1051 25.0712 25.1105C25.0703 25.1159 25.0681 25.1209 25.065 25.1253C25.0618 25.1297 25.0576 25.1332 25.0528 25.1356C25.0481 25.1381 25.0428 25.1393 25.0374 25.1393Z" fill="white"/>
<path d="M62.0799 10.2008H66.8939C66.903 10.2008 66.9117 10.2044 66.9181 10.2108C66.9245 10.2172 66.9281 10.2259 66.9281 10.235V30.5159C66.9281 30.5249 66.9317 30.5336 66.9381 30.54C66.9445 30.5465 66.9532 30.5501 66.9623 30.5501H76.8361C76.8407 30.55 76.8454 30.551 76.8497 30.5528C76.854 30.5547 76.8578 30.5574 76.861 30.5608C76.8642 30.5642 76.8667 30.5682 76.8683 30.5726C76.8699 30.577 76.8705 30.5817 76.8703 30.5864L76.6288 34.6356C76.6283 34.6443 76.6245 34.6524 76.6181 34.6584C76.6117 34.6643 76.6034 34.6676 76.5947 34.6676H62.0799C62.0708 34.6676 62.0621 34.664 62.0557 34.6576C62.0493 34.6512 62.0457 34.6425 62.0457 34.6334V10.235C62.0457 10.2259 62.0493 10.2172 62.0557 10.2108C62.0621 10.2044 62.0708 10.2008 62.0799 10.2008Z" fill="#1E1E1E"/>
<path d="M104.76 34.6676H99.9221C99.9155 34.6676 99.9091 34.665 99.9045 34.6603C99.8998 34.6557 99.8972 34.6493 99.8972 34.6427C99.8991 31.1727 99.8986 27.7979 99.8957 24.5183C99.895 23.6502 99.8288 22.7372 99.487 21.9517C98.9984 20.8287 97.9758 20.489 96.7965 20.6207C95.4299 20.7731 94.2998 21.6163 93.5634 22.7778C93.4922 22.8899 93.4566 22.9836 93.4566 23.0591C93.4514 27.6097 93.4519 31.4663 93.458 34.6292C93.4581 34.6342 93.4572 34.6392 93.4553 34.6438C93.4534 34.6485 93.4506 34.6527 93.447 34.6563C93.4434 34.6599 93.4392 34.6627 93.4345 34.6647C93.4297 34.6666 93.4247 34.6676 93.4196 34.6676H88.6162C88.6053 34.6676 88.5948 34.6633 88.587 34.6555C88.5793 34.6478 88.5749 34.6373 88.5749 34.6263C88.5735 30.4119 88.5735 26.226 88.5749 22.0685C88.5756 20.3017 88.535 18.7279 88.4766 17.0544C88.4765 17.052 88.4769 17.0497 88.4777 17.0475C88.4785 17.0453 88.4798 17.0433 88.4813 17.0416C88.4829 17.0399 88.4848 17.0385 88.487 17.0375C88.4891 17.0365 88.4914 17.0359 88.4937 17.0359L92.6384 16.9162C92.6516 16.9159 92.6645 16.9203 92.6746 16.9287C92.6847 16.9371 92.6913 16.9489 92.6932 16.9618L93.0329 19.2684C93.0341 19.2762 93.0376 19.2836 93.0428 19.2896C93.048 19.2956 93.0547 19.3 93.0623 19.3023C93.0698 19.3046 93.0778 19.3047 93.0853 19.3026C93.0929 19.3005 93.0996 19.2963 93.1048 19.2905C94.3881 17.8975 95.9448 16.9112 97.8676 16.6869C100.077 16.4284 102.221 17.0081 103.512 18.8917C104.626 20.5175 104.804 22.582 104.799 24.5076C104.795 25.9471 104.794 29.3214 104.797 34.6306C104.797 34.6404 104.793 34.6498 104.786 34.6568C104.779 34.6637 104.769 34.6676 104.76 34.6676Z" fill="#1E1E1E"/>
<path d="M133.635 16.6207C136.938 16.6406 140.01 18.0934 141.495 21.1584C142.202 22.6155 142.467 24.2263 142.457 25.882C142.447 27.5377 142.162 29.145 141.438 30.5935C139.916 33.6407 136.826 35.0565 133.525 35.0365C130.223 35.0166 127.151 33.5638 125.666 30.4988C124.959 29.0418 124.694 27.4316 124.704 25.7752C124.714 24.1195 124.999 22.5122 125.722 21.0637C127.245 18.0165 130.334 16.6008 133.635 16.6207ZM129.725 25.8542C129.726 28.3838 130.391 31.4609 133.585 31.4609C136.779 31.4609 137.444 28.383 137.444 25.8535C137.444 23.3247 136.778 20.2469 133.584 20.2476C130.39 20.2476 129.725 23.3255 129.725 25.8542Z" fill="#1E1E1E"/>
<path d="M171.913 23.3433V34.6634L167.057 34.6698C167.045 34.6698 167.034 34.6653 167.026 34.6573C167.018 34.6493 167.014 34.6384 167.014 34.6271C167.014 31.1827 167.013 27.6709 167.012 24.0917C167.012 23.8297 166.976 23.4506 166.903 22.9544C166.827 22.4327 166.662 21.9703 166.407 21.5672C165.763 20.5481 164.447 20.4541 163.38 20.719C162.213 21.0096 161.228 21.8656 160.62 22.8982C160.59 22.949 160.574 23.0068 160.574 23.0655V34.637C160.574 34.6452 160.571 34.6529 160.565 34.6587C160.559 34.6644 160.552 34.6677 160.543 34.6677H155.754C155.748 34.6677 155.743 34.6665 155.737 34.6643C155.732 34.662 155.727 34.6588 155.723 34.6547C155.719 34.6506 155.715 34.6457 155.713 34.6403C155.711 34.635 155.71 34.6293 155.71 34.6235C155.714 29.5574 155.713 25.2632 155.708 21.741C155.707 20.7672 155.672 19.2126 155.605 17.0772C155.605 17.0719 155.606 17.0666 155.608 17.0616C155.61 17.0567 155.613 17.0522 155.616 17.0483C155.62 17.0445 155.624 17.0414 155.629 17.0393C155.634 17.0371 155.639 17.036 155.645 17.0359L159.76 16.917C159.775 16.9166 159.789 16.9216 159.8 16.9309C159.811 16.9403 159.818 16.9533 159.82 16.9675C159.955 17.8969 160.127 19.235 160.17 19.2748C160.175 19.2804 160.182 19.2847 160.19 19.2875C160.198 19.2903 160.206 19.2916 160.214 19.2913C160.222 19.291 160.23 19.289 160.237 19.2856C160.245 19.2821 160.251 19.2773 160.256 19.2713C162.049 17.2488 164.552 16.2682 167.245 16.7439C170.185 17.2638 171.553 19.6943 171.834 22.4574C171.864 22.7517 171.89 23.047 171.913 23.3433Z" fill="#1E1E1E"/>
<path d="M113.037 25.8528C113.037 27.9999 113.765 30.0729 115.887 30.9261C116.393 31.1293 116.944 31.2444 117.54 31.2715C118.648 31.3213 119.734 31.1995 120.823 30.9859C121.347 30.8829 121.848 30.7357 122.326 30.5444C122.335 30.5408 122.344 30.5394 122.354 30.5404C122.364 30.5414 122.373 30.5447 122.381 30.55C122.389 30.5554 122.395 30.5626 122.4 30.571C122.405 30.5795 122.407 30.5889 122.407 30.5985L122.445 34.1635C122.445 34.1784 122.441 34.1931 122.432 34.2053C122.423 34.2176 122.411 34.2269 122.397 34.2318C120.224 35.013 117.846 35.1818 115.583 34.8464C114.8 34.7306 114.039 34.5238 113.299 34.2261C109.741 32.7947 108.049 29.5737 108.05 25.8521C108.05 22.1298 109.743 18.9095 113.302 17.4788C114.041 17.1816 114.803 16.9751 115.586 16.8593C117.849 16.5246 120.227 16.694 122.4 17.476C122.414 17.4809 122.426 17.4902 122.435 17.5024C122.443 17.5147 122.448 17.5294 122.448 17.5443L122.409 21.1093C122.408 21.1189 122.406 21.1283 122.401 21.1368C122.397 21.1452 122.39 21.1524 122.382 21.1578C122.374 21.1631 122.365 21.1664 122.355 21.1674C122.346 21.1684 122.336 21.167 122.327 21.1634C121.849 20.9721 121.348 20.8249 120.824 20.7219C119.736 20.5075 118.65 20.3858 117.542 20.4349C116.945 20.462 116.394 20.5768 115.889 20.7796C113.767 21.6327 113.038 23.705 113.037 25.8528Z" fill="#1E1E1E"/>
<path d="M84.3377 34.6676H79.5486C79.5386 34.6676 79.529 34.6637 79.5219 34.6566C79.5148 34.6495 79.5108 34.6399 79.5108 34.6299V17.0829C79.511 17.0732 79.5149 17.064 79.5216 17.0571C79.5284 17.0502 79.5375 17.0462 79.5472 17.0458L84.3363 16.9077C84.3413 16.9075 84.3464 16.9083 84.3512 16.9101C84.3559 16.9119 84.3602 16.9147 84.3639 16.9182C84.3675 16.9217 84.3704 16.926 84.3724 16.9306C84.3744 16.9353 84.3754 16.9403 84.3754 16.9454V34.6299C84.3754 34.6399 84.3715 34.6495 84.3644 34.6566C84.3573 34.6637 84.3477 34.6676 84.3377 34.6676Z" fill="#1E1E1E"/>
<path d="M25.0702 25.0944C24.9277 24.6379 24.7939 24.2576 24.2861 24.2227C24.2035 24.217 23.9148 24.2156 23.4202 24.2185C21.8421 24.227 20.6499 24.8174 19.6465 26.0202C19.6048 26.07 19.525 26.1381 19.4073 26.2245C18.9444 26.5642 18.3747 26.456 18.0485 26.0123C17.9018 25.8129 17.7879 25.4476 17.7138 25.209C17.71 25.1963 17.71 25.1828 17.7138 25.17C17.7176 25.1572 17.725 25.1458 17.7352 25.1371C20.1949 23.0714 21.4523 22.0163 21.5074 21.9717C22.3398 21.298 23.4095 21.2959 24.3837 21.6455C26.6886 22.473 27.8933 22.9055 27.9978 22.943C28.6081 23.1617 29.3935 23.5441 29.6243 24.1294C29.8515 24.7077 29.5858 25.333 29.286 25.8507C28.7647 26.7508 28.4367 27.3191 28.3018 27.5555C27.5975 28.7882 26.2965 28.9599 24.9634 28.9157C24.9571 28.9155 24.9511 28.913 24.9465 28.9089C24.9418 28.9047 24.9387 28.8991 24.9377 28.8929C24.8532 28.3807 24.8102 28.1207 24.8088 28.1131C24.7298 27.5983 24.3936 27.5213 23.9058 27.5263C23.4164 27.5316 23.0152 27.5306 22.7023 27.5235C21.9111 27.5064 21.0957 27.5043 20.4933 27.0079C20.4843 27.0004 20.4785 26.9897 20.477 26.9781C20.4756 26.9665 20.4786 26.9547 20.4854 26.9452C20.7898 26.5241 21.1361 26.1835 21.5244 25.9233C22.5172 25.2575 23.8759 25.1286 25.0374 25.1393C25.0428 25.1393 25.048 25.1381 25.0528 25.1356C25.0576 25.1332 25.0617 25.1297 25.0649 25.1253C25.0681 25.1209 25.0703 25.1159 25.0712 25.1105C25.0721 25.1051 25.0717 25.0996 25.0702 25.0944Z" fill="#1E1E1E"/>
<path d="M7.12722 30.9225C6.91927 30.8679 6.74788 30.7328 6.61305 30.5173C6.23847 29.917 6.27692 29.066 6.40725 28.3802C6.47324 28.0336 6.62017 27.1942 6.84806 25.8621C6.90859 25.506 6.82527 24.8864 6.32108 24.9363C6.22708 24.9458 6.08417 25.0063 5.89237 25.1179C5.12991 25.5618 4.6637 25.8324 4.49374 25.9297C4.40496 25.9805 4.32187 25.9945 4.24449 25.9717C4.21167 25.9624 4.18322 25.9412 4.1641 25.9119C4.14498 25.8826 4.13638 25.8471 4.1398 25.8115C4.24734 24.6899 4.96161 23.5868 6.23847 23.6523C7.34086 23.7079 7.88279 24.5097 8.23743 25.459C8.63243 26.5153 8.84228 27.0981 8.86696 27.2073C8.98375 27.7264 8.84702 28.0804 8.55647 28.5817C7.92694 29.668 7.48494 30.4338 7.23047 30.8791C7.22046 30.8967 7.20491 30.9105 7.18623 30.9184C7.16756 30.9262 7.14681 30.9277 7.12722 30.9225Z" fill="#1E1E1E"/>
<path d="M38.5723 29.7973C38.3852 30.5721 37.9612 31.1442 37.3004 31.5136C37.0905 31.6304 36.8688 31.6961 36.6353 31.7108C36.6213 31.7117 36.6074 31.7079 36.5957 31.7002C36.5841 31.6925 36.5752 31.6813 36.5704 31.6681L35.3392 28.2755C35.3376 28.271 35.3372 28.2662 35.338 28.2615C35.3387 28.2569 35.3406 28.2525 35.3435 28.2487C35.3464 28.245 35.3502 28.242 35.3546 28.2401C35.3589 28.2382 35.3636 28.2374 35.3684 28.2377C36.2258 28.3061 36.8769 27.9754 37.3218 27.2457C37.6175 26.7605 37.9171 26.2632 38.2205 25.7538L38.192 25.9696C38.183 26.0366 38.1849 26.1049 38.1977 26.1718C38.389 27.1489 38.5079 28.135 38.5545 29.1301C38.5658 29.3622 38.5718 29.5846 38.5723 29.7973Z" fill="white"/>
<path d="M155.22 55.811C155.226 55.8091 155.233 55.8088 155.239 55.8099C155.246 55.811 155.252 55.8136 155.257 55.8174C155.262 55.8212 155.267 55.8262 155.27 55.832C155.273 55.8378 155.275 55.8443 155.275 55.8508L155.328 57.7138C155.329 57.7241 155.326 57.7343 155.32 57.7429C155.314 57.7515 155.306 57.758 155.296 57.7615C154.328 58.1126 153.166 58.2849 152.226 57.7757C151.409 57.3328 151.061 56.4804 151.061 55.5674C151.063 46.031 151.063 40.7377 151.061 39.6875C151.061 39.6741 151.066 39.6613 151.075 39.6517C151.084 39.6422 151.097 39.6366 151.11 39.6362L153.536 39.5664C153.542 39.5662 153.547 39.5672 153.553 39.5693C153.558 39.5713 153.563 39.5745 153.567 39.5785C153.571 39.5825 153.574 39.5872 153.576 39.5925C153.578 39.5978 153.579 39.6035 153.579 39.6092C153.575 41.9896 153.575 46.9055 153.58 54.3568C153.58 54.7798 153.632 55.1408 153.737 55.4399C153.991 56.1713 154.652 55.9833 155.22 55.811Z" fill="#1E1E1E"/>
<path d="M76.324 41.6747C76.3254 40.8543 75.673 40.1881 74.8667 40.1867C74.0605 40.1853 73.4057 40.8492 73.4043 41.6696C73.4028 42.4901 74.0553 43.1563 74.8615 43.1577C75.6678 43.1591 76.3226 42.4952 76.324 41.6747Z" fill="#1E1E1E"/>
<path d="M133.555 43.1456C134.368 43.1456 135.028 42.4863 135.028 41.6729C135.028 40.8596 134.368 40.2002 133.555 40.2002C132.742 40.2002 132.082 40.8596 132.082 41.6729C132.082 42.4863 132.742 43.1456 133.555 43.1456Z" fill="#1E1E1E"/>
<path d="M159.843 41.8282L159.427 41.8253C159.42 41.8254 159.414 41.824 159.408 41.8215C159.402 41.819 159.397 41.8152 159.393 41.8105C159.388 41.8059 159.385 41.8003 159.383 41.7943C159.381 41.7883 159.38 41.7819 159.38 41.7755C159.381 41.7603 159.369 41.7052 159.344 41.6103C159.183 41.0042 158.083 40.9145 157.868 41.5034C157.666 42.0554 158.297 42.2455 158.695 42.3587C159.238 42.5133 159.808 42.754 159.878 43.3507C159.988 44.2865 159.072 44.5592 158.331 44.4659C157.736 44.3912 157.233 44.0201 157.198 43.3885C157.197 43.3836 157.198 43.3788 157.2 43.3742C157.201 43.3696 157.204 43.3654 157.207 43.3619C157.21 43.3584 157.214 43.3555 157.219 43.3536C157.223 43.3517 157.228 43.3507 157.233 43.3507H157.669C157.68 43.3507 157.691 43.3549 157.699 43.3625C157.707 43.37 157.711 43.3804 157.712 43.3913C157.75 44.055 158.586 44.1925 159.067 43.9788C159.308 43.8715 159.408 43.6669 159.366 43.365C159.333 43.1236 159.011 42.9655 158.789 42.895C158.158 42.6941 157.181 42.4435 157.329 41.5547C157.442 40.8775 158.172 40.6339 158.791 40.7144C159.436 40.7984 159.804 41.1498 159.895 41.7684C159.896 41.7759 159.895 41.7835 159.893 41.7907C159.891 41.798 159.887 41.8047 159.882 41.8104C159.877 41.816 159.871 41.8206 159.864 41.8236C159.857 41.8267 159.85 41.8283 159.843 41.8282Z" fill="#1E1E1E"/>
<path d="M64.5596 42.9156V48.2139C64.5596 48.2235 64.5634 48.2328 64.5702 48.2396C64.577 48.2464 64.5862 48.2502 64.5959 48.2502H70.7231C70.7327 48.2502 70.742 48.254 70.7488 48.2608C70.7556 48.2677 70.7594 48.2769 70.7594 48.2865V50.3353C70.7594 50.345 70.7556 50.3542 70.7488 50.361C70.742 50.3678 70.7327 50.3717 70.7231 50.3717H64.5959C64.5862 50.3717 64.577 50.3755 64.5702 50.3823C64.5634 50.3891 64.5596 50.3983 64.5596 50.408V57.8484C64.5596 57.858 64.5557 57.8672 64.5489 57.8741C64.5421 57.8809 64.5329 57.8847 64.5232 57.8847H62.082C62.0724 57.8847 62.0632 57.8809 62.0564 57.8741C62.0495 57.8672 62.0457 57.858 62.0457 57.8484V40.7892C62.0457 40.7795 62.0495 40.7703 62.0564 40.7635C62.0632 40.7567 62.0724 40.7528 62.082 40.7528H71.4167C71.4263 40.7528 71.4356 40.7567 71.4424 40.7635C71.4492 40.7703 71.453 40.7795 71.453 40.7892V42.843C71.453 42.8526 71.4492 42.8618 71.4424 42.8686C71.4356 42.8755 71.4263 42.8793 71.4167 42.8793H64.5959C64.5862 42.8793 64.577 42.8831 64.5702 42.8899C64.5634 42.8967 64.5596 42.906 64.5596 42.9156Z" fill="#1E1E1E"/>
<path d="M162.37 43.6733C162.383 43.6733 162.394 43.6619 162.403 43.6391C162.753 42.7499 163.133 41.8013 163.544 40.7934C163.549 40.7812 163.557 40.7707 163.568 40.7634C163.579 40.756 163.592 40.7521 163.606 40.7521H164.16C164.172 40.7521 164.184 40.757 164.192 40.7657C164.201 40.7744 164.206 40.7861 164.206 40.7984V44.4225C164.206 44.4253 164.205 44.428 164.204 44.4306C164.203 44.4332 164.202 44.4356 164.2 44.4376C164.198 44.4396 164.196 44.4411 164.193 44.4422C164.191 44.4433 164.188 44.4438 164.185 44.4438H163.708C163.705 44.4438 163.702 44.4426 163.7 44.4405C163.698 44.4384 163.697 44.4355 163.697 44.4324L163.73 41.6188C163.73 41.616 163.73 41.6133 163.728 41.6112C163.726 41.609 163.724 41.6076 163.721 41.607C163.718 41.6065 163.716 41.607 163.713 41.6084C163.71 41.6097 163.708 41.6119 163.707 41.6145L162.575 44.4125C162.571 44.4226 162.564 44.4312 162.555 44.4372C162.546 44.4432 162.535 44.4463 162.525 44.446C162.475 44.445 162.424 44.4445 162.37 44.4445C162.316 44.4445 162.264 44.445 162.215 44.446C162.204 44.4463 162.193 44.4432 162.184 44.4372C162.175 44.4312 162.168 44.4226 162.164 44.4125L161.033 41.6138C161.032 41.6112 161.03 41.609 161.028 41.6076C161.025 41.6063 161.022 41.6058 161.02 41.6063C161.017 41.6068 161.014 41.6083 161.013 41.6105C161.011 41.6126 161.01 41.6153 161.011 41.6181L161.043 44.4317C161.043 44.4332 161.042 44.4347 161.042 44.4361C161.041 44.4375 161.04 44.4387 161.039 44.4398C161.038 44.4408 161.037 44.4417 161.036 44.4422C161.034 44.4428 161.033 44.4431 161.031 44.4431H160.554C160.549 44.4431 160.543 44.4409 160.539 44.4369C160.536 44.4329 160.533 44.4274 160.533 44.4218L160.536 40.7977C160.536 40.7854 160.54 40.7736 160.549 40.765C160.558 40.7563 160.57 40.7514 160.582 40.7514H161.136C161.149 40.7514 161.162 40.7553 161.173 40.7626C161.184 40.77 161.193 40.7805 161.198 40.7927C161.608 41.8011 161.987 42.7497 162.337 43.6384C162.346 43.6617 162.357 43.6733 162.37 43.6733Z" fill="#1E1E1E"/>
<path d="M100.114 51.2291C100.119 51.2307 100.125 51.231 100.131 51.23C100.137 51.2291 100.142 51.2268 100.147 51.2235C100.152 51.2202 100.156 51.2158 100.158 51.2107C100.161 51.2056 100.163 51.2 100.163 51.1942C100.171 51.094 100.173 50.7913 100.17 50.2862C100.161 48.9289 100.217 47.6249 98.4985 47.3985C97.5806 47.2774 96.627 47.37 95.7283 47.5317C95.0356 47.656 94.3617 47.849 93.7066 48.1106C93.7017 48.1126 93.6965 48.1134 93.6913 48.1129C93.6861 48.1125 93.6811 48.1109 93.6767 48.1081C93.6723 48.1054 93.6687 48.1017 93.6661 48.0973C93.6634 48.0929 93.6619 48.088 93.6617 48.0829L93.5214 46.2448C93.5201 46.2282 93.524 46.2115 93.5326 46.1972C93.5411 46.1829 93.5539 46.1717 93.5691 46.1651C94.9314 45.569 96.4298 45.3077 97.9074 45.2941C100.026 45.2742 102.246 45.9472 102.612 48.3777C102.659 48.6967 102.683 49.0457 102.683 49.4245C102.682 50.7629 102.682 52.3115 102.683 54.0705C102.683 54.4963 102.707 54.8455 102.754 55.118C102.857 55.7084 103.101 56.0474 103.729 55.9534C103.935 55.9225 104.127 55.8729 104.307 55.8045C104.313 55.8021 104.32 55.8013 104.326 55.802C104.333 55.8027 104.339 55.805 104.345 55.8087C104.35 55.8124 104.355 55.8174 104.358 55.8233C104.361 55.8291 104.363 55.8356 104.363 55.8423L104.418 57.7152C104.418 57.7263 104.415 57.7372 104.409 57.7465C104.403 57.7557 104.393 57.7627 104.383 57.7665C103.253 58.1589 101.805 58.3818 100.92 57.4019C100.652 57.1051 100.462 56.76 100.351 56.3664C100.349 56.3607 100.346 56.3554 100.342 56.3514C100.337 56.3473 100.332 56.3445 100.326 56.3433C100.32 56.3421 100.314 56.3426 100.309 56.3446C100.303 56.3467 100.298 56.3503 100.295 56.355C99.3279 57.5291 98.0722 58.1164 96.5273 58.1168C95.2063 58.1183 93.9636 57.5571 93.2629 56.4462C92.6846 55.5289 92.5913 54.3119 92.931 53.2886C93.7799 50.7391 96.6434 50.4158 98.8916 50.9093C99.2842 50.9957 99.6916 51.1023 100.114 51.2291ZM100.147 52.83C98.8375 52.3051 96.4105 51.7489 95.5033 53.2814C95.3618 53.5212 95.2759 53.7875 95.2455 54.0805C95.1216 55.2783 95.8031 56.0787 96.9646 56.256C98.0029 56.4148 99.1038 55.9484 99.7903 55.1942C99.994 54.9702 100.128 54.7292 100.191 54.4714C100.194 54.4615 100.195 54.4515 100.195 54.4415V52.9005C100.195 52.8853 100.19 52.8705 100.182 52.8579C100.173 52.8454 100.161 52.8356 100.147 52.83Z" fill="#1E1E1E"/>
<path d="M144.929 51.1942C144.936 51.094 144.938 50.7913 144.935 50.2862C144.928 48.9289 144.983 47.6242 143.265 47.3978C142.347 47.2767 141.393 47.3686 140.494 47.5302C139.801 47.6546 139.127 47.8476 138.472 48.1092C138.467 48.1111 138.462 48.1119 138.457 48.1115C138.452 48.1111 138.447 48.1094 138.442 48.1067C138.438 48.104 138.434 48.1003 138.432 48.0959C138.429 48.0915 138.428 48.0865 138.427 48.0814L138.287 46.2427C138.286 46.2261 138.29 46.2095 138.298 46.1952C138.307 46.1809 138.319 46.1697 138.335 46.1629C139.698 45.5669 141.196 45.3062 142.674 45.2927C144.793 45.2735 147.013 45.9471 147.378 48.3777C147.426 48.6967 147.449 49.0459 147.449 49.4252C147.448 50.7636 147.448 52.3125 147.449 54.0719C147.449 54.4978 147.472 54.847 147.519 55.1195C147.622 55.7098 147.866 56.0488 148.494 55.9548C148.7 55.9239 148.893 55.8746 149.072 55.8067C149.078 55.8043 149.085 55.8034 149.092 55.8041C149.098 55.8048 149.105 55.8072 149.11 55.8109C149.116 55.8146 149.12 55.8196 149.123 55.8254C149.127 55.8312 149.128 55.8378 149.129 55.8444L149.183 57.7173C149.183 57.7284 149.18 57.7394 149.174 57.7486C149.167 57.7578 149.158 57.7648 149.148 57.7686C148.018 58.161 146.569 58.3832 145.684 57.4033C145.416 57.1066 145.227 56.7612 145.116 56.3671C145.114 56.3614 145.111 56.3561 145.107 56.3521C145.102 56.348 145.097 56.3452 145.091 56.344C145.085 56.3428 145.079 56.3433 145.074 56.3454C145.068 56.3474 145.063 56.351 145.059 56.3557C144.092 57.5298 142.836 58.1171 141.291 58.1176C139.97 58.1183 138.727 57.5571 138.026 56.4455C137.448 55.5282 137.355 54.3112 137.695 53.2878C138.545 50.7377 141.408 50.4151 143.657 50.9093C144.05 50.9957 144.457 51.1023 144.879 51.2291C144.885 51.2307 144.891 51.231 144.896 51.23C144.902 51.2291 144.908 51.2268 144.912 51.2235C144.917 51.2202 144.921 51.2158 144.924 51.2107C144.927 51.2056 144.929 51.2 144.929 51.1942ZM144.908 52.8292C143.599 52.3051 141.173 51.7496 140.266 53.2821C140.125 53.5219 140.039 53.7882 140.009 54.0812C139.886 55.279 140.567 56.0787 141.729 56.2553C142.766 56.4141 143.867 55.947 144.553 55.1928C144.756 54.9687 144.89 54.7278 144.953 54.47C144.956 54.4601 144.957 54.45 144.957 54.4401L144.956 52.8997C144.956 52.8846 144.952 52.8698 144.943 52.8572C144.935 52.8446 144.922 52.8349 144.908 52.8292Z" fill="#1E1E1E"/>
<path d="M81.8367 47.328C81.8372 47.3324 81.839 47.3365 81.8418 47.3399C81.8447 47.3432 81.8484 47.3457 81.8527 47.347C81.8569 47.3483 81.8614 47.3483 81.8656 47.3471C81.8699 47.3459 81.8737 47.3434 81.8765 47.3401C82.9683 46.0063 84.4844 45.2386 86.2427 45.3254C89 45.4608 90.0618 47.7253 90.0668 50.1893C90.0725 52.8143 90.0742 55.3644 90.0718 57.8398C90.0718 57.851 90.0674 57.8616 90.0595 57.8695C90.0516 57.8774 90.0409 57.8818 90.0298 57.8818L87.585 57.8825C87.5773 57.8825 87.5699 57.8795 87.5644 57.874C87.5589 57.8685 87.5558 57.8611 87.5558 57.8533C87.5601 55.3704 87.5594 52.8527 87.5537 50.3004C87.5528 49.8974 87.4936 49.4824 87.3764 49.0556C87.0616 47.9169 86.2619 47.3714 85.0854 47.4191C83.8677 47.4697 82.8358 48.1576 82.1578 49.1867C82.0703 49.3198 82.0261 49.4046 82.0261 49.5862C82.0261 52.5539 82.0263 55.3091 82.0268 57.8519C82.0269 57.856 82.0262 57.8601 82.0246 57.8639C82.0231 57.8676 82.0208 57.8711 82.0179 57.874C82.015 57.8769 82.0115 57.8793 82.0076 57.8809C82.0038 57.8824 81.9997 57.8833 81.9955 57.8833L79.5407 57.884C79.5334 57.884 79.5263 57.881 79.5211 57.8758C79.5159 57.8706 79.513 57.8636 79.513 57.8562C79.5125 54.0221 79.5123 50.7923 79.5123 48.1669C79.5115 47.286 79.4823 46.5275 79.4467 45.6139C79.4465 45.6079 79.4475 45.6019 79.4497 45.5963C79.4518 45.5907 79.455 45.5856 79.4591 45.5812C79.4632 45.5768 79.4681 45.5733 79.4736 45.5709C79.479 45.5684 79.4849 45.567 79.4909 45.5669L81.6152 45.5056C81.623 45.5054 81.6305 45.5082 81.6363 45.5133C81.6422 45.5185 81.6458 45.5256 81.6465 45.5334L81.8367 47.328Z" fill="#1E1E1E"/>
<path d="M108.861 47.3287C108.861 47.3331 108.863 47.3372 108.866 47.3406C108.869 47.344 108.873 47.3465 108.877 47.3477C108.881 47.349 108.886 47.349 108.89 47.3478C108.894 47.3466 108.898 47.3442 108.901 47.3408C109.993 46.007 111.509 45.2393 113.268 45.3262C116.026 45.4622 117.087 47.7275 117.092 50.1915C117.098 52.8174 117.099 55.3682 117.096 57.8441C117.096 57.8552 117.092 57.8659 117.084 57.8738C117.076 57.8817 117.065 57.8861 117.054 57.8861H114.609C114.601 57.8861 114.594 57.883 114.589 57.8776C114.583 57.8721 114.58 57.8647 114.58 57.8569C114.584 55.3735 114.584 52.8554 114.579 50.3026C114.578 49.8995 114.518 49.4846 114.401 49.0578C114.087 47.9184 113.287 47.3729 112.11 47.4206C110.893 47.4704 109.86 48.1583 109.182 49.1881C109.094 49.3213 109.05 49.406 109.05 49.5876C109.05 52.5558 109.05 55.3115 109.05 57.8548C109.05 57.8589 109.049 57.8629 109.047 57.8667C109.046 57.8705 109.044 57.874 109.041 57.8769C109.038 57.8798 109.034 57.8821 109.03 57.8837C109.026 57.8853 109.022 57.8861 109.018 57.8861H106.563C106.555 57.8861 106.548 57.8832 106.543 57.878C106.538 57.8728 106.535 57.8657 106.535 57.8583C106.535 54.0237 106.536 50.7935 106.536 48.1676C106.536 47.2867 106.506 46.5276 106.471 45.6139C106.471 45.6079 106.472 45.6019 106.474 45.5963C106.476 45.5907 106.479 45.5856 106.483 45.5812C106.487 45.5769 106.492 45.5734 106.498 45.5709C106.503 45.5684 106.509 45.5671 106.515 45.5669L108.639 45.5056C108.647 45.5054 108.655 45.5082 108.66 45.5133C108.666 45.5185 108.67 45.5257 108.671 45.5334L108.861 47.3287Z" fill="#1E1E1E"/>
<path d="M122.422 51.7297C122.422 53.6532 123.205 55.4777 125.214 55.9826C125.928 56.162 126.656 56.14 127.448 56.0517C128.183 55.97 128.883 55.8029 129.547 55.5503C129.55 55.549 129.554 55.5485 129.558 55.5489C129.562 55.5493 129.566 55.5506 129.569 55.5527C129.572 55.5548 129.575 55.5576 129.576 55.5609C129.578 55.5642 129.579 55.5679 129.58 55.5717L129.634 57.456C129.634 57.4668 129.631 57.4775 129.626 57.487C129.621 57.4965 129.614 57.5044 129.605 57.5101C129.536 57.5524 129.456 57.5889 129.365 57.6198C127.433 58.2621 125.081 58.3618 123.188 57.5058C120.843 56.4455 119.835 54.2008 119.836 51.729C119.836 49.2572 120.846 47.0132 123.19 45.9543C125.085 45.0997 127.437 45.2001 129.368 45.8439C129.46 45.8748 129.54 45.9113 129.607 45.9536C129.617 45.9593 129.624 45.9672 129.629 45.9767C129.634 45.9862 129.637 45.9969 129.637 46.0077L129.582 47.892C129.582 47.8958 129.581 47.8995 129.579 47.9028C129.577 47.9061 129.574 47.9089 129.571 47.911C129.568 47.9131 129.564 47.9144 129.56 47.9148C129.556 47.9152 129.553 47.9147 129.549 47.9134C128.885 47.6603 128.186 47.4927 127.45 47.4106C126.658 47.3223 125.93 47.2995 125.216 47.479C123.207 47.9825 122.423 49.8062 122.422 51.7297Z" fill="#1E1E1E"/>
<path d="M76.0783 57.8847H73.6371C73.6271 57.8847 73.6175 57.8807 73.6104 57.8737C73.6034 57.8666 73.5994 57.857 73.5994 57.847V45.6103C73.5996 45.6007 73.6034 45.5915 73.6102 45.5846C73.6169 45.5777 73.6261 45.5737 73.6357 45.5733L76.0769 45.5028C76.082 45.5026 76.0871 45.5034 76.0918 45.5053C76.0965 45.5071 76.1009 45.5098 76.1045 45.5133C76.1082 45.5169 76.1111 45.5211 76.1131 45.5258C76.1151 45.5304 76.1161 45.5355 76.1161 45.5405V57.847C76.1161 57.857 76.1121 57.8666 76.105 57.8737C76.098 57.8807 76.0884 57.8847 76.0783 57.8847Z" fill="#1E1E1E"/>
<path d="M134.793 57.884H132.32C132.314 57.884 132.309 57.8816 132.304 57.8775C132.3 57.8734 132.298 57.8677 132.298 57.8619V45.5946C132.298 45.5889 132.3 45.5834 132.304 45.5793C132.308 45.5752 132.314 45.5728 132.319 45.5726L134.793 45.5014C134.795 45.5013 134.798 45.5018 134.801 45.5028C134.804 45.5039 134.806 45.5055 134.809 45.5076C134.811 45.5096 134.812 45.5121 134.814 45.5148C134.815 45.5175 134.815 45.5205 134.815 45.5234V57.8619C134.815 57.8677 134.813 57.8734 134.809 57.8775C134.805 57.8816 134.799 57.884 134.793 57.884Z" fill="#1E1E1E"/>
</svg>
