<svg width="296" height="66" viewBox="0 0 296 66" fill="none" xmlns="http://www.w3.org/2000/svg">
<path d="M27.6869 20.362C27.5321 19.7488 27.4105 19.1285 27.3219 18.5011C26.7218 14.2333 27.1854 9.81799 28.544 5.73412C28.5459 5.72857 28.5463 5.72263 28.5451 5.71688C28.544 5.71112 28.5414 5.70577 28.5375 5.70134C28.5337 5.69691 28.5288 5.69356 28.5232 5.69163C28.5177 5.6897 28.5118 5.68925 28.506 5.69032C25.0901 6.31597 24.0243 10.5772 23.7023 13.4478C23.5529 14.7837 23.4921 16.1341 23.5198 17.4988C23.5763 20.236 23.8826 22.9507 24.4389 25.6431C24.4402 25.6478 24.4396 25.6527 24.4374 25.6569C24.4351 25.6612 24.4314 25.6644 24.4268 25.666C24.4223 25.6676 24.4173 25.6674 24.4129 25.6654C24.4086 25.6635 24.4051 25.66 24.4032 25.6556C23.8133 24.5408 23.4132 23.2742 23.127 22.0192C22.4284 18.9486 22.378 15.708 22.8102 12.5892C22.811 12.5836 22.8101 12.5778 22.8079 12.5726C22.8056 12.5674 22.8019 12.5628 22.7973 12.5595C22.7926 12.5562 22.7871 12.5543 22.7814 12.5538C22.7757 12.5534 22.77 12.5545 22.7649 12.5571C20.7675 13.5471 19.9638 15.7423 19.7068 17.8273C19.4659 19.7838 19.5761 21.7622 19.8725 23.7231C20.1918 25.8373 20.7189 27.9187 21.4538 29.9672C21.8105 30.9615 22.2449 31.9254 22.7569 32.8589C22.7592 32.862 22.7602 32.8659 22.7597 32.8697C22.7591 32.8736 22.7571 32.877 22.754 32.8793C22.7509 32.8817 22.747 32.8827 22.7432 32.8821C22.7393 32.8816 22.7359 32.8795 22.7336 32.8764C22.1213 32.2569 21.5993 31.5704 21.1676 30.817C20.0506 28.8656 19.3797 26.7462 18.984 24.5167C18.8887 23.9794 18.7991 23.3503 18.7154 22.6295C18.7147 22.6237 18.7124 22.6183 18.7086 22.6139C18.7048 22.6094 18.6998 22.6062 18.6942 22.6046C18.6885 22.603 18.6825 22.603 18.6768 22.6047C18.6711 22.6064 18.666 22.6097 18.6621 22.6142C18.1228 23.2537 17.7666 23.9833 17.5933 24.8029C17.2064 26.6324 17.4911 28.5765 17.9802 30.3797C18.3813 31.8597 18.9334 33.302 19.6367 34.7066C19.8397 35.1125 20.0596 35.5002 20.2967 35.8696C20.2991 35.8738 20.2999 35.8787 20.2992 35.8834C20.2984 35.8882 20.2961 35.8925 20.2925 35.8958C20.2889 35.899 20.2843 35.9009 20.2795 35.9012C20.2747 35.9015 20.2699 35.9001 20.266 35.8973C18.6256 34.5862 17.559 32.5085 17.0881 30.4855C17.0869 30.4798 17.0838 30.4746 17.0795 30.4706C17.0751 30.4666 17.0696 30.4641 17.0638 30.4634C17.058 30.4627 17.052 30.4638 17.0468 30.4666C17.0417 30.4694 17.0375 30.4737 17.0348 30.479C16.7978 30.9447 16.6659 31.4302 16.6391 31.9354C16.5953 32.7628 16.6608 33.5979 16.8355 34.4409C17.1694 36.0494 17.7391 37.5713 18.5446 39.0066C18.7023 39.2869 18.9716 39.6614 19.1337 39.8972C19.1349 39.8991 19.1354 39.9013 19.1352 39.9034C19.135 39.9056 19.134 39.9076 19.1325 39.9092C19.1309 39.9107 19.1289 39.9117 19.1267 39.9119C19.1246 39.9121 19.1224 39.9116 19.1206 39.9104L15.939 37.64C15.9364 37.6382 15.9334 37.6371 15.9303 37.6368C15.9271 37.6366 15.9239 37.6371 15.9211 37.6384C15.9182 37.6398 15.9157 37.6418 15.9139 37.6444C15.912 37.6469 15.9109 37.6499 15.9106 37.6531C15.8332 38.2766 16.0193 38.9942 16.2267 39.6155C16.6657 40.9344 17.2436 42.2412 17.9605 43.5358C18.2998 44.148 18.6302 44.6593 18.9519 45.0696C18.9533 45.0719 18.9539 45.0746 18.9536 45.0772C18.9533 45.0799 18.9522 45.0824 18.9504 45.0843C18.9486 45.0863 18.9462 45.0876 18.9436 45.0881C18.941 45.0886 18.9383 45.0883 18.9359 45.0871L15.4747 42.843C15.4709 42.8403 15.4664 42.8388 15.4618 42.8387C15.4571 42.8385 15.4525 42.8398 15.4486 42.8423C15.4447 42.8448 15.4416 42.8485 15.4397 42.8527C15.4379 42.857 15.4374 42.8618 15.4382 42.8663C15.8646 45.412 17.6597 47.6605 19.463 49.4302C19.4667 49.4339 19.4691 49.4388 19.4698 49.444C19.4704 49.4493 19.4692 49.4546 19.4664 49.4591C19.4636 49.4636 19.4593 49.4671 19.4543 49.4688C19.4493 49.4706 19.4439 49.4706 19.4389 49.4688L14.9849 47.8489C14.9793 47.8468 14.9732 47.8463 14.9674 47.8473C14.9615 47.8484 14.956 47.851 14.9515 47.8549C14.947 47.8587 14.9436 47.8637 14.9416 47.8693C14.9396 47.875 14.9392 47.881 14.9403 47.8868C15.1396 48.8943 15.6843 49.8383 16.3128 50.6603C17.2181 51.8439 18.2718 52.8431 19.4739 53.6578C19.4758 53.659 19.4773 53.6607 19.4781 53.6629C19.4788 53.665 19.4788 53.6673 19.478 53.6694C19.4772 53.6715 19.4757 53.6732 19.4738 53.6743C19.4718 53.6754 19.4695 53.6758 19.4673 53.6754L15.4857 53.0256C15.4792 53.0247 15.4726 53.0254 15.4666 53.0278C15.4605 53.0302 15.4552 53.0341 15.4511 53.0392C15.447 53.0443 15.4444 53.0504 15.4434 53.0569C15.4424 53.0633 15.4432 53.0699 15.4455 53.076C15.8519 54.0499 16.4552 54.8605 17.2553 55.5078C18.1693 56.2473 19.1812 56.8204 20.2551 57.3132C20.2601 57.315 20.2644 57.3186 20.267 57.3234C20.2695 57.3281 20.2703 57.3337 20.269 57.3389C20.2677 57.3442 20.2646 57.3488 20.2601 57.3519C20.2556 57.3549 20.2502 57.3562 20.2448 57.3555C17.7262 57.1788 15.4032 57.027 13.1554 57.0299C9.58206 57.0348 6.04013 57.1433 2.5296 57.3555C2.52292 57.3561 2.51653 57.3586 2.5113 57.3628C2.50606 57.367 2.50223 57.3727 2.50032 57.3791C2.49841 57.3854 2.49852 57.3922 2.50062 57.3984C2.50272 57.4047 2.50672 57.4101 2.51207 57.4139C3.05669 57.8101 3.65678 58.1238 4.31236 58.3549C5.57339 58.8003 6.85145 59.0263 8.14655 59.0332C8.15091 59.0332 8.15515 59.0345 8.15866 59.0371C8.16218 59.0397 8.16477 59.0433 8.16608 59.0475C8.16738 59.0516 8.16732 59.0561 8.16591 59.0602C8.1645 59.0643 8.16181 59.0679 8.15823 59.0704L5.45342 61.0123C5.45043 61.0145 5.4482 61.0176 5.44701 61.0211C5.44582 61.0246 5.44573 61.0284 5.44677 61.032C5.4478 61.0356 5.4499 61.0388 5.45278 61.0411C5.45567 61.0435 5.4592 61.0449 5.46291 61.0452C6.79232 61.1408 8.13706 60.997 9.45552 60.7203C9.45921 60.7194 9.4631 60.7197 9.4666 60.7212C9.4701 60.7227 9.47302 60.7253 9.47492 60.7286C9.47681 60.7319 9.47759 60.7357 9.47712 60.7395C9.47665 60.7432 9.47496 60.7467 9.47231 60.7495L7.92535 62.4987C7.92293 62.5008 7.9214 62.5038 7.92105 62.5071C7.92071 62.5103 7.92157 62.5135 7.92348 62.5162C7.92538 62.5188 7.92819 62.5206 7.93137 62.5213C7.93455 62.522 7.93786 62.5215 7.94068 62.5198C9.14866 62.0263 10.3766 61.6538 11.6245 61.4021C12.1165 61.3033 12.6361 61.2403 13.1831 61.2131C13.8679 61.1795 14.5541 61.37 15.2134 61.5467C15.5735 61.6431 15.7818 61.6998 15.8383 61.7168C19.3242 62.7673 22.4291 63.7419 25.78 64.3544C27.5185 64.6718 29.2567 64.783 30.9947 64.6881C31.2045 64.6769 31.4724 64.6338 31.7985 64.5589C31.8276 64.5523 31.8531 64.5348 31.87 64.5099C31.9684 64.363 32.301 63.9877 32.868 63.3842C33.4165 62.7997 33.9952 62.1969 34.6041 61.5759C34.6072 61.5728 34.6094 61.569 34.6106 61.5648C34.6117 61.5606 34.6117 61.5561 34.6106 61.5519C34.6095 61.5477 34.6073 61.5439 34.6042 61.5408C34.6012 61.5377 34.5973 61.5354 34.5931 61.5343L31.8883 60.7217C31.8839 60.7204 31.8799 60.718 31.8768 60.7146C31.8737 60.7113 31.8716 60.7071 31.8706 60.7026C31.8696 60.6982 31.8699 60.6935 31.8713 60.6892C31.8728 60.6848 31.8753 60.6809 31.8788 60.6779L34.1106 58.7295C34.1144 58.726 34.1174 58.7217 34.1194 58.7169C34.1213 58.7121 34.122 58.707 34.1215 58.7019C34.121 58.6968 34.1193 58.6919 34.1165 58.6877C34.1137 58.6835 34.1099 58.68 34.1054 58.6776C32.7495 57.9276 31.4936 57.2295 30.3377 56.5831C29.8753 56.3242 29.4504 55.9835 29.063 55.5611C28.5559 55.0077 28.4021 54.3691 28.6016 53.6454C28.9586 52.3511 29.877 51.175 30.8108 50.0901C31.0799 49.7772 31.2624 49.5326 31.3583 49.3564C31.6065 48.9004 31.7671 48.4587 31.8401 48.0314C31.9535 47.369 32.01 46.6029 32.0095 45.7332C32.0036 31.1771 32.0041 21.285 32.0109 16.0569C32.0148 12.5605 32.1699 9.02273 32.476 5.44357C32.5865 4.15236 32.7549 2.74167 32.9812 1.2115C32.9818 1.20666 32.9814 1.20174 32.9801 1.19706C32.9787 1.19239 32.9764 1.18805 32.9733 1.18434C32.9702 1.18063 32.9664 1.17762 32.9621 1.17551C32.9578 1.1734 32.9531 1.17223 32.9483 1.17208C32.4738 1.15821 31.87 1.46702 31.4773 1.76196C30.5049 2.49419 29.8296 3.6097 29.3507 4.74783C29.1 5.34355 28.8881 5.95776 28.7148 6.59046C28.398 7.74685 28.1605 8.95264 28.0023 10.2078C27.584 13.5208 27.5686 16.8928 27.7263 20.2182C27.7283 20.262 27.7244 20.3034 27.7146 20.3423" stroke="#1E1E1E" stroke-width="0.146009"/>
<path d="M32.587 56.5408C32.5828 56.5402 32.5786 56.5411 32.5749 56.5433C32.5713 56.5454 32.5685 56.5487 32.567 56.5526C32.5655 56.5565 32.5655 56.5607 32.5669 56.5646C32.5682 56.5684 32.571 56.5716 32.5746 56.5736L35.7408 58.3367C35.7455 58.3393 35.7495 58.343 35.7525 58.3475C35.7555 58.352 35.7574 58.3572 35.758 58.3625C35.7585 58.3679 35.7578 58.3734 35.7558 58.3784C35.7539 58.3834 35.7507 58.3879 35.7466 58.3914L33.6937 60.1837C33.6904 60.1867 33.6878 60.1905 33.6863 60.1947C33.6847 60.1989 33.6842 60.2034 33.6848 60.2079C33.6854 60.2123 33.687 60.2166 33.6896 60.2202C33.6922 60.2239 33.6956 60.2269 33.6996 60.229L36.2387 61.5226C36.2443 61.5254 36.2492 61.5296 36.253 61.5346C36.2568 61.5397 36.2594 61.5456 36.2605 61.5518C36.2616 61.558 36.2613 61.5644 36.2596 61.5705C36.2578 61.5766 36.2546 61.5822 36.2503 61.5868L33.7186 64.3325C33.7158 64.3357 33.7141 64.3396 33.7137 64.3438C33.7133 64.348 33.7143 64.3522 33.7164 64.3557C33.7186 64.3592 33.7219 64.3619 33.7257 64.3632C33.7295 64.3646 33.7337 64.3646 33.7375 64.3632C35.0823 63.923 36.1919 63.3543 37.5929 62.6403C37.8654 62.5011 38.1957 62.3127 38.5836 62.0752C39.5786 61.4664 40.6532 60.9444 41.8045 60.7414C41.861 60.7317 42.07 60.6891 42.4316 60.6137C42.8521 60.5261 43.4311 60.5224 43.8158 60.5714C44.1073 60.6088 44.373 60.6998 44.613 60.8444C44.6162 60.8464 44.6199 60.8475 44.6237 60.8477C44.6275 60.8479 44.6313 60.8471 44.6348 60.8454C44.6382 60.8437 44.6411 60.8412 44.6433 60.8381C44.6455 60.835 44.6469 60.8314 44.6473 60.8276C44.7802 59.4047 43.0522 59.0142 42.0133 59.0375C41.3074 59.0536 40.5218 59.1668 39.7589 59.3609C39.755 59.3619 39.7508 59.362 39.7468 59.3611C39.7428 59.3602 39.739 59.3584 39.7358 59.3558C39.7326 59.3532 39.7299 59.3499 39.7281 59.3461C39.7263 59.3423 39.7254 59.3381 39.7254 59.3339V58.5659C39.7254 58.5596 39.7268 58.5533 39.7295 58.5475C39.7321 58.5418 39.7361 58.5366 39.7409 58.5325C39.7458 58.5284 39.7515 58.5255 39.7576 58.5238C39.7638 58.5221 39.7702 58.5218 39.7765 58.5229L41.8228 58.8565C41.8271 58.8571 41.8315 58.8568 41.8357 58.8556C41.8399 58.8544 41.8437 58.8523 41.8469 58.8494C41.8502 58.8465 41.8527 58.843 41.8543 58.839C41.8559 58.8351 41.8566 58.8308 41.8563 58.8265C41.8364 58.4338 41.687 58.1031 41.4081 57.8344C41.2363 57.6689 41.0655 57.5704 40.8956 57.5388C39.0961 57.2059 37.1403 57.0204 35.2903 56.8992C34.9657 56.8778 34.6438 56.8394 34.3245 56.7839C33.7996 56.6926 33.1769 56.659 32.587 56.5408Z" stroke="#1E1E1E" stroke-width="0.146009"/>
<path d="M16.6662 37.1881C16.3026 36.5968 16.0062 35.9806 15.777 35.3396C15.7664 35.3108 15.7497 35.2849 15.7281 35.2637L10.6893 30.2928C10.6875 30.2909 10.6851 30.2896 10.6825 30.2891C10.6799 30.2885 10.6772 30.2888 10.6747 30.2898C10.6723 30.2908 10.6702 30.2926 10.6687 30.2948C10.6673 30.2971 10.6666 30.2997 10.6667 30.3023V53.8105C10.6667 53.8213 10.6624 53.8317 10.6549 53.8394C10.6474 53.847 10.6372 53.8514 10.6265 53.8514H0.0408823C0.0300396 53.8514 0.0196412 53.847 0.0119742 53.8394C0.00430727 53.8317 0 53.8213 0 53.8105V14.9086C0 14.9001 0.00338418 14.8919 0.00940821 14.8859C0.0154322 14.8799 0.0236026 14.8765 0.0321218 14.8765H11.8012C11.8127 14.8765 11.8241 14.8788 11.8346 14.8832C11.8451 14.8876 11.8546 14.894 11.8625 14.9021L18.3131 21.352C18.3162 21.3553 18.3203 21.3576 18.3247 21.3584C18.3292 21.3593 18.3338 21.3587 18.3379 21.3567C18.342 21.3548 18.3453 21.3516 18.3474 21.3476C18.3496 21.3435 18.3503 21.339 18.3496 21.3345C18.3219 21.0872 18.3049 20.8675 18.2985 20.6753C18.2586 19.4639 18.3667 18.2335 18.6227 16.9841C19.0848 14.7298 20.1339 12.0301 22.6146 11.3672C22.6253 11.3645 22.6349 11.3584 22.6419 11.3497C22.6488 11.341 22.6528 11.3302 22.6533 11.319C22.6832 10.505 22.9883 9.6348 23.3176 8.8792C23.359 8.78381 23.5227 8.42512 23.8089 7.80312C24.6419 5.99115 26.156 4.69897 28.1914 4.50989C28.2036 4.5088 28.2153 4.50452 28.2254 4.49748C28.2355 4.49045 28.2437 4.48089 28.249 4.46974C29.0966 2.76217 30.3224 1.15242 32.1132 0.393905C32.7541 0.122815 33.4134 -0.00834916 34.0909 0.000411364C34.0966 0.000505457 34.1022 0.00187079 34.1074 0.0044127C34.1125 0.00695462 34.1171 0.0106127 34.1207 0.0151301C34.1243 0.0196475 34.1269 0.024916 34.1283 0.0305696C34.1297 0.0362231 34.1299 0.0421257 34.1288 0.0478649C33.6543 2.384 33.3769 4.76176 33.19 7.11396C32.9001 10.7766 32.8279 14.1691 32.8308 18.2486C32.8327 21.342 32.8332 27.2843 32.8323 36.0755C32.8323 36.0891 32.8351 36.1026 32.8405 36.1152C32.8458 36.1277 32.8537 36.1391 32.8636 36.1485L35.9094 39.0877C35.9127 39.0908 35.9168 39.0929 35.9213 39.0937C35.9258 39.0945 35.9304 39.094 35.9346 39.0922C35.9388 39.0904 35.9424 39.0875 35.9449 39.0837C35.9474 39.0799 35.9488 39.0754 35.9488 39.0709V14.9101C35.9488 14.9012 35.9523 14.8926 35.9586 14.8863C35.9649 14.88 35.9735 14.8765 35.9824 14.8765H46.6053C46.6118 14.8765 46.6182 14.8791 46.6228 14.8838C46.6275 14.8884 46.6301 14.8948 46.6301 14.9013V53.8287C46.6301 53.8347 46.6277 53.8405 46.6235 53.8447C46.6192 53.849 46.6134 53.8514 46.6074 53.8514H35.0085C34.9779 53.8514 34.9484 53.8405 34.9253 53.8207L31.378 50.8633C31.3749 50.8607 31.3714 50.8588 31.3676 50.8577C31.3637 50.8565 31.3597 50.8562 31.3557 50.8567C31.3518 50.8571 31.3479 50.8584 31.3445 50.8604C31.341 50.8625 31.338 50.8652 31.3357 50.8684C31.0529 51.2534 30.6721 51.7569 30.1931 52.3789C30.0019 52.6271 29.8101 52.986 29.6179 53.4557C29.2784 54.2828 29.2426 55.1632 30.1048 55.6254C30.3267 55.7446 30.5779 55.8142 30.8582 55.8342C34.8983 56.1233 37.1675 56.2926 37.6659 56.3423C38.7999 56.4557 39.6265 56.543 40.1458 56.6043C40.7109 56.671 41.117 56.7706 41.3643 56.9029C41.8641 57.1701 42.1931 57.5948 42.3513 58.1769C42.3536 58.1859 42.3587 58.1939 42.3659 58.2001C42.373 58.2062 42.3819 58.2101 42.3914 58.2112C42.8937 58.2623 43.3797 58.4168 43.8493 58.6748C45.0641 59.3413 45.1342 60.6021 44.8232 61.8337C44.822 61.8384 44.8196 61.8427 44.8162 61.8463C44.8129 61.8499 44.8087 61.8526 44.804 61.8541C44.7994 61.8556 44.7944 61.856 44.7896 61.8551C44.7848 61.8542 44.7803 61.8521 44.7765 61.849C44.2501 61.4314 43.4763 61.2912 42.8098 61.2993C41.9468 61.3095 41.0963 61.4935 40.2583 61.8512C39.4659 62.1889 38.7176 62.5481 38.0134 62.9287C37.3739 63.2743 36.811 63.5682 36.3248 63.8106C34.3778 64.7786 32.2869 65.4116 30.1282 65.5299C28.2271 65.6335 26.3626 65.4006 24.3302 64.994C22.5805 64.6436 20.7118 64.1759 18.7242 63.5909C16.2508 62.8637 14.8944 62.4615 13.8869 62.1958C13.2386 62.0242 12.7028 62.0038 12.0384 62.1008C11.3721 62.1982 10.7876 62.3133 10.2849 62.4462C8.66319 62.8759 7.05563 63.4069 5.46219 64.0391C5.45843 64.0408 5.45427 64.0411 5.45035 64.04C5.44643 64.039 5.44299 64.0365 5.44056 64.0332C5.43813 64.0298 5.43686 64.0257 5.43694 64.0215C5.43702 64.0173 5.43846 64.0132 5.44102 64.0099L7.16392 61.9439C7.16755 61.9394 7.16977 61.934 7.17031 61.9282C7.17085 61.9225 7.16968 61.9167 7.16695 61.9117C7.16422 61.9066 7.16004 61.9024 7.15496 61.8997C7.14987 61.897 7.1441 61.8959 7.13837 61.8964C5.74301 62.039 4.41555 61.8733 3.15598 61.3993C3.15016 61.3971 3.14507 61.3933 3.14131 61.3884C3.13755 61.3834 3.13527 61.3775 3.13473 61.3713C3.1342 61.3651 3.13543 61.3589 3.13828 61.3534C3.14114 61.3479 3.1455 61.3433 3.15087 61.3401L6.02797 59.5691C6.03086 59.5671 6.03307 59.5643 6.0343 59.5611C6.03553 59.5578 6.03571 59.5542 6.03483 59.5509C6.03395 59.5475 6.03204 59.5445 6.02937 59.5423C6.02671 59.54 6.02341 59.5387 6.01994 59.5384C3.77944 59.3924 1.64552 58.2521 0.0248215 56.7299C0.0209836 56.7264 0.0182616 56.7218 0.0169867 56.7167C0.0157119 56.7116 0.0159389 56.7063 0.0176401 56.7013C0.0193413 56.6964 0.0224437 56.692 0.0265699 56.6888C0.030696 56.6856 0.0356681 56.6836 0.0408823 56.6832C1.57787 56.5109 3.34749 56.3783 5.34976 56.2853C6.28811 56.2415 8.06114 56.2057 10.6689 56.178C12.4745 56.1585 14.4768 56.1067 16.6757 56.0225C16.6796 56.0222 16.6834 56.0207 16.6863 56.0181C16.6893 56.0155 16.6914 56.012 16.6922 56.0081C16.693 56.0042 16.6926 56.0002 16.6909 55.9966C16.6892 55.993 16.6865 55.9901 16.683 55.9882C16.5905 55.9429 16.5116 55.8984 16.4464 55.8546C15.1207 54.9654 14.2753 53.4535 13.9584 51.8861C13.9575 51.8809 13.9577 51.8755 13.9592 51.8704C13.9607 51.8653 13.9633 51.8607 13.9669 51.8568C13.9704 51.853 13.9748 51.8501 13.9797 51.8483C13.9846 51.8465 13.9898 51.846 13.9949 51.8467L16.6567 52.1642C16.6605 52.1647 16.6644 52.1637 16.6675 52.1616C16.6707 52.1595 16.673 52.1563 16.6741 52.1525C16.6753 52.1488 16.6751 52.1447 16.6736 52.141C16.6722 52.1373 16.6695 52.1342 16.6662 52.1321C16.4491 52.0143 16.241 51.8586 16.042 51.6649C14.9695 50.6209 14.1723 49.2616 13.7197 47.8701C13.5231 47.2656 13.4335 46.6553 13.4511 46.0392C13.4512 46.0334 13.4528 46.0277 13.4557 46.0227C13.4586 46.0177 13.4627 46.0135 13.4676 46.0105C13.4726 46.0075 13.4782 46.0059 13.484 46.0056C13.4898 46.0054 13.4955 46.0066 13.5007 46.0092L16.6457 47.6109C16.647 47.6115 16.6484 47.6117 16.6498 47.6113C16.6511 47.611 16.6523 47.6102 16.6531 47.609C16.6539 47.6079 16.6542 47.6065 16.6541 47.6051C16.6539 47.6037 16.6533 47.6024 16.6523 47.6015C15.3275 46.3312 14.4853 44.7759 14.1256 42.9357C13.9699 42.1405 13.9112 41.3277 13.9497 40.4974C13.9498 40.4945 13.9508 40.4917 13.9525 40.4893C13.9541 40.4869 13.9564 40.485 13.959 40.4838C13.9616 40.4827 13.9644 40.4823 13.9672 40.4828C13.9699 40.4832 13.9725 40.4845 13.9745 40.4864L16.323 42.5642C16.3252 42.5665 16.3281 42.5679 16.3313 42.568C16.3344 42.5681 16.3375 42.567 16.3398 42.5649C16.3422 42.5627 16.3435 42.5598 16.3437 42.5566C16.3438 42.5535 16.3427 42.5504 16.3406 42.5481C15.5823 41.4924 15.0966 40.3285 14.8834 39.0563C14.6843 37.8683 14.6474 36.6815 14.7724 35.4959C14.7727 35.4929 14.7738 35.49 14.7756 35.4876C14.7775 35.4852 14.7799 35.4834 14.7827 35.4823C14.7856 35.4812 14.7886 35.481 14.7916 35.4816C14.7945 35.4822 14.7973 35.4836 14.7994 35.4856L16.6559 37.1969C16.6565 37.1975 16.6572 37.1981 16.658 37.1985C16.6588 37.1989 16.6597 37.1991 16.6605 37.1992C16.6614 37.1993 16.6623 37.1992 16.6631 37.1989C16.664 37.1986 16.6648 37.1982 16.6654 37.1976C16.6661 37.197 16.6667 37.1963 16.6671 37.1955C16.6675 37.1947 16.6677 37.1939 16.6678 37.193C16.6678 37.1921 16.6677 37.1912 16.6675 37.1904C16.6672 37.1896 16.6667 37.1888 16.6662 37.1881ZM27.7146 20.3424L27.6869 20.3621C27.5321 19.7488 27.4105 19.1285 27.3219 18.5012C26.7218 14.2333 27.1854 9.81804 28.544 5.73418C28.5459 5.72863 28.5463 5.72268 28.5451 5.71693C28.544 5.71118 28.5414 5.70582 28.5376 5.70139C28.5337 5.69696 28.5288 5.69362 28.5233 5.69168C28.5177 5.68975 28.5118 5.6893 28.506 5.69037C25.0901 6.31602 24.0243 10.5773 23.7023 13.4478C23.5529 14.7838 23.4921 16.1341 23.5198 17.4988C23.5763 20.236 23.8826 22.9508 24.4389 25.6432C24.4402 25.6478 24.4396 25.6528 24.4374 25.657C24.4351 25.6612 24.4314 25.6645 24.4268 25.666C24.4223 25.6676 24.4173 25.6674 24.4129 25.6655C24.4086 25.6635 24.4051 25.66 24.4032 25.6556C23.8133 24.5408 23.4132 23.2742 23.1271 22.0193C22.4284 18.9487 22.378 15.708 22.8102 12.5893C22.811 12.5836 22.8101 12.5779 22.8079 12.5726C22.8056 12.5674 22.8019 12.5629 22.7973 12.5596C22.7926 12.5563 22.7871 12.5543 22.7814 12.5539C22.7757 12.5535 22.77 12.5546 22.765 12.5572C20.7676 13.5471 19.9638 15.7423 19.7068 17.8273C19.4659 19.7839 19.5761 21.7623 19.8725 23.7232C20.1918 25.8374 20.7189 27.9187 21.4538 29.9672C21.8105 30.9616 22.2449 31.9255 22.7569 32.859C22.7592 32.8621 22.7602 32.8659 22.7597 32.8698C22.7591 32.8736 22.7571 32.8771 22.754 32.8794C22.7509 32.8817 22.747 32.8827 22.7432 32.8822C22.7393 32.8816 22.7359 32.8796 22.7336 32.8765C22.1213 32.2569 21.5993 31.5704 21.1676 30.817C20.0506 28.8656 19.3797 26.7463 18.9841 24.5167C18.8887 23.9794 18.7991 23.3504 18.7154 22.6296C18.7147 22.6238 18.7124 22.6184 18.7086 22.6139C18.7048 22.6095 18.6998 22.6063 18.6942 22.6046C18.6885 22.603 18.6825 22.6031 18.6768 22.6048C18.6711 22.6065 18.666 22.6098 18.6621 22.6142C18.1228 23.2538 17.7666 23.9833 17.5933 24.8029C17.2064 26.6324 17.4911 28.5765 17.9802 30.3797C18.3813 31.8598 18.9334 33.3021 19.6367 34.7067C19.8397 35.1126 20.0597 35.5002 20.2967 35.8697C20.2991 35.8738 20.3 35.8787 20.2992 35.8835C20.2984 35.8882 20.2961 35.8926 20.2925 35.8958C20.2889 35.8991 20.2843 35.901 20.2795 35.9013C20.2747 35.9016 20.2699 35.9002 20.266 35.8974C18.6256 34.5862 17.559 32.5085 17.0881 30.4856C17.0869 30.4798 17.0838 30.4746 17.0795 30.4706C17.0751 30.4667 17.0697 30.4642 17.0638 30.4634C17.058 30.4627 17.052 30.4638 17.0468 30.4666C17.0417 30.4694 17.0375 30.4737 17.0348 30.479C16.7978 30.9448 16.6659 31.4303 16.6392 31.9354C16.5954 32.7628 16.6608 33.598 16.8355 34.441C17.1694 36.0495 17.7391 37.5714 18.5446 39.0066C18.7023 39.287 18.9716 39.6615 19.1337 39.8973C19.1349 39.8991 19.1354 39.9013 19.1352 39.9035C19.135 39.9056 19.134 39.9077 19.1325 39.9092C19.1309 39.9108 19.1289 39.9117 19.1267 39.9119C19.1246 39.9122 19.1224 39.9116 19.1206 39.9104L15.939 37.64C15.9364 37.6382 15.9334 37.6371 15.9303 37.6369C15.9271 37.6366 15.9239 37.6372 15.9211 37.6385C15.9182 37.6398 15.9157 37.6419 15.9139 37.6444C15.912 37.647 15.9109 37.65 15.9106 37.6531C15.8332 38.2766 16.0193 38.9942 16.2267 39.6155C16.6657 40.9344 17.2436 42.2412 17.9605 43.5358C18.2998 44.1481 18.6302 44.6594 18.9519 45.0697C18.9533 45.0719 18.9539 45.0746 18.9536 45.0773C18.9533 45.0799 18.9522 45.0824 18.9504 45.0844C18.9486 45.0864 18.9462 45.0877 18.9436 45.0882C18.941 45.0887 18.9383 45.0883 18.9359 45.0872L15.4747 42.843C15.4709 42.8403 15.4664 42.8388 15.4618 42.8387C15.4571 42.8386 15.4525 42.8399 15.4486 42.8424C15.4447 42.8449 15.4416 42.8485 15.4397 42.8528C15.4379 42.8571 15.4374 42.8618 15.4382 42.8664C15.8646 45.412 17.6598 47.6606 19.463 49.4302C19.4667 49.4339 19.4691 49.4388 19.4698 49.4441C19.4704 49.4494 19.4692 49.4547 19.4664 49.4592C19.4636 49.4637 19.4593 49.4671 19.4543 49.4689C19.4493 49.4706 19.4439 49.4706 19.4389 49.4689L14.9849 47.8489C14.9793 47.8469 14.9732 47.8464 14.9674 47.8474C14.9615 47.8485 14.956 47.851 14.9515 47.8549C14.947 47.8588 14.9436 47.8638 14.9416 47.8694C14.9396 47.875 14.9392 47.8811 14.9403 47.8869C15.1396 48.8944 15.6843 49.8383 16.3128 50.6603C17.2181 51.844 18.2718 52.8432 19.4739 53.6579C19.4759 53.659 19.4773 53.6608 19.4781 53.6629C19.4788 53.665 19.4788 53.6673 19.478 53.6694C19.4772 53.6715 19.4757 53.6733 19.4738 53.6744C19.4718 53.6755 19.4695 53.6758 19.4673 53.6754L15.4857 53.0257C15.4792 53.0247 15.4726 53.0255 15.4666 53.0279C15.4605 53.0303 15.4552 53.0342 15.4511 53.0393C15.447 53.0444 15.4444 53.0505 15.4434 53.0569C15.4424 53.0634 15.4432 53.07 15.4455 53.0761C15.8519 54.0499 16.4552 54.8605 17.2553 55.5078C18.1693 56.2474 19.1812 56.8204 20.2551 57.3132C20.2602 57.315 20.2644 57.3187 20.267 57.3234C20.2695 57.3282 20.2703 57.3337 20.269 57.339C20.2677 57.3442 20.2646 57.3489 20.2601 57.3519C20.2556 57.355 20.2502 57.3563 20.2448 57.3556C17.7262 57.1789 15.4032 57.027 13.1554 57.03C9.58207 57.0348 6.04014 57.1434 2.5296 57.3556C2.52293 57.3561 2.51654 57.3587 2.5113 57.3629C2.50607 57.3671 2.50224 57.3727 2.50033 57.3791C2.49842 57.3855 2.49852 57.3922 2.50062 57.3985C2.50272 57.4047 2.50672 57.4101 2.51208 57.414C3.05669 57.8101 3.65679 58.1238 4.31237 58.355C5.5734 58.8003 6.85146 59.0264 8.14656 59.0332C8.15091 59.0332 8.15516 59.0346 8.15867 59.0372C8.16218 59.0397 8.16478 59.0434 8.16608 59.0475C8.16739 59.0517 8.16733 59.0561 8.16592 59.0603C8.16451 59.0644 8.16182 59.0679 8.15824 59.0704L5.45343 61.0124C5.45044 61.0146 5.4482 61.0176 5.44701 61.0212C5.44582 61.0247 5.44574 61.0285 5.44677 61.0321C5.4478 61.0356 5.4499 61.0388 5.45279 61.0412C5.45567 61.0435 5.45921 61.0449 5.46292 61.0452C6.79233 61.1408 8.13707 60.997 9.45553 60.7203C9.45922 60.7194 9.46311 60.7197 9.46661 60.7212C9.47011 60.7227 9.47303 60.7253 9.47492 60.7286C9.47682 60.7319 9.47759 60.7357 9.47712 60.7395C9.47665 60.7433 9.47496 60.7468 9.47232 60.7495L7.92535 62.4987C7.92293 62.5009 7.92141 62.5039 7.92106 62.5071C7.92071 62.5103 7.92158 62.5136 7.92348 62.5162C7.92539 62.5188 7.9282 62.5207 7.93138 62.5214C7.93455 62.522 7.93787 62.5215 7.94069 62.5199C9.14866 62.0264 10.3766 61.6538 11.6245 61.4022C12.1165 61.3034 12.6361 61.2404 13.1831 61.2131C13.8679 61.1795 14.5542 61.3701 15.2134 61.5467C15.5735 61.6431 15.7818 61.6998 15.8383 61.7168C19.3243 62.7674 22.4291 63.742 25.78 64.3545C27.5185 64.6718 29.2567 64.783 30.9947 64.6881C31.2045 64.6769 31.4724 64.6339 31.7985 64.5589C31.8276 64.5523 31.8531 64.5348 31.8701 64.51C31.9684 64.363 32.301 63.9878 32.868 63.3843C33.4165 62.7997 33.9952 62.197 34.6041 61.5759C34.6072 61.5729 34.6094 61.5691 34.6106 61.5648C34.6117 61.5606 34.6117 61.5562 34.6106 61.552C34.6095 61.5478 34.6073 61.5439 34.6042 61.5408C34.6012 61.5377 34.5973 61.5355 34.5931 61.5343L31.8883 60.7218C31.8839 60.7205 31.8799 60.718 31.8768 60.7147C31.8737 60.7113 31.8716 60.7072 31.8706 60.7027C31.8696 60.6982 31.8699 60.6936 31.8713 60.6892C31.8728 60.6849 31.8754 60.681 31.8788 60.678L34.1106 58.7295C34.1144 58.7261 34.1175 58.7218 34.1194 58.717C34.1213 58.7122 34.122 58.707 34.1215 58.7019C34.121 58.6969 34.1193 58.692 34.1165 58.6878C34.1137 58.6835 34.1099 58.6801 34.1054 58.6777C32.7495 57.9277 31.4936 57.2295 30.3377 56.5832C29.8753 56.3243 29.4504 55.9836 29.063 55.5611C28.5559 55.0077 28.4021 54.3692 28.6017 53.6455C28.9586 52.3511 29.877 51.175 30.8108 50.0902C31.0799 49.7772 31.2624 49.5327 31.3583 49.3565C31.6065 48.9004 31.7671 48.4588 31.8401 48.0314C31.9535 47.3691 32.01 46.603 32.0095 45.7333C32.0037 31.1772 32.0041 21.2851 32.011 16.057C32.0148 12.5606 32.1699 9.02278 32.476 5.44362C32.5865 4.15241 32.7549 2.74173 32.9812 1.21155C32.9818 1.20671 32.9814 1.20179 32.9801 1.19711C32.9787 1.19244 32.9764 1.1881 32.9733 1.18439C32.9702 1.18068 32.9664 1.17767 32.9621 1.17556C32.9578 1.17345 32.9531 1.17228 32.9483 1.17213C32.4738 1.15826 31.8701 1.46707 31.4773 1.76201C30.5049 2.49424 29.8296 3.60975 29.3507 4.74789C29.1 5.3436 28.8881 5.95781 28.7148 6.59052C28.398 7.7469 28.1605 8.95269 28.0023 10.2079C27.584 13.5208 27.5686 16.8929 27.7263 20.2182C27.7283 20.262 27.7244 20.3034 27.7146 20.3424ZM32.587 56.5408C32.5828 56.5403 32.5785 56.5412 32.5749 56.5433C32.5712 56.5455 32.5684 56.5488 32.567 56.5527C32.5655 56.5566 32.5655 56.5608 32.5668 56.5646C32.5682 56.5685 32.5709 56.5717 32.5745 56.5737L35.7407 58.3367C35.7455 58.3394 35.7495 58.3431 35.7525 58.3476C35.7555 58.3521 35.7574 58.3572 35.7579 58.3626C35.7585 58.368 35.7578 58.3734 35.7558 58.3784C35.7538 58.3835 35.7507 58.388 35.7466 58.3915L33.6937 60.1838C33.6904 60.1868 33.6878 60.1905 33.6863 60.1947C33.6847 60.1989 33.6842 60.2035 33.6848 60.2079C33.6853 60.2124 33.687 60.2166 33.6896 60.2203C33.6921 60.224 33.6956 60.227 33.6995 60.229L36.2386 61.5227C36.2443 61.5255 36.2492 61.5296 36.253 61.5347C36.2568 61.5398 36.2594 61.5456 36.2605 61.5519C36.2616 61.5581 36.2613 61.5645 36.2595 61.5706C36.2578 61.5767 36.2546 61.5822 36.2503 61.5869L33.7185 64.3326C33.7157 64.3357 33.714 64.3397 33.7136 64.3439C33.7133 64.3481 33.7142 64.3522 33.7164 64.3558C33.7186 64.3593 33.7218 64.3619 33.7257 64.3633C33.7295 64.3646 33.7336 64.3646 33.7375 64.3633C35.0822 63.923 36.1919 63.3543 37.5929 62.6403C37.8654 62.5012 38.1956 62.3128 38.5835 62.0753C39.5786 61.4664 40.6532 60.9445 41.8045 60.7415C41.8609 60.7318 42.07 60.6892 42.4316 60.6137C42.8521 60.5261 43.431 60.5225 43.8158 60.5714C44.1073 60.6089 44.373 60.6999 44.613 60.8444C44.6162 60.8464 44.6199 60.8476 44.6237 60.8477C44.6275 60.8479 44.6313 60.8471 44.6347 60.8455C44.6382 60.8438 44.6411 60.8413 44.6433 60.8382C44.6455 60.8351 44.6469 60.8314 44.6473 60.8277C44.7801 59.4048 43.0521 59.0142 42.0133 59.0376C41.3073 59.0536 40.5218 59.1668 39.7589 59.361C39.7549 59.362 39.7508 59.362 39.7468 59.3612C39.7428 59.3603 39.739 59.3584 39.7358 59.3558C39.7325 59.3532 39.7299 59.3499 39.7281 59.3461C39.7263 59.3423 39.7253 59.3382 39.7253 59.334V58.566C39.7253 58.5596 39.7267 58.5533 39.7294 58.5476C39.7321 58.5418 39.736 58.5367 39.7409 58.5326C39.7458 58.5285 39.7515 58.5255 39.7576 58.5238C39.7637 58.5222 39.7702 58.5218 39.7764 58.5229L41.8227 58.8565C41.8271 58.8572 41.8315 58.8569 41.8357 58.8557C41.8398 58.8544 41.8437 58.8523 41.8469 58.8494C41.8501 58.8466 41.8527 58.843 41.8543 58.8391C41.8559 58.8351 41.8566 58.8309 41.8563 58.8266C41.8364 58.4338 41.687 58.1031 41.4081 57.8345C41.2363 57.669 41.0654 57.5704 40.8956 57.5388C39.096 57.2059 37.1402 57.0205 35.2903 56.8993C34.9657 56.8779 34.6437 56.8394 34.3245 56.7839C33.7996 56.6927 33.1768 56.6591 32.587 56.5408Z" fill="#1E1E1E"/>
<path d="M27.6869 20.362L27.7081 20.4401C27.7095 20.4444 27.712 20.4484 27.7154 20.4518C27.7168 20.4538 27.7183 20.4555 27.7198 20.4569C27.7202 20.4577 27.7208 20.4582 27.7215 20.4583C27.7222 20.4584 27.723 20.4581 27.7236 20.4575C27.7242 20.4569 27.7247 20.4559 27.725 20.4549C27.7252 20.4538 27.7252 20.4527 27.7249 20.4518C27.7171 20.4168 27.7137 20.3803 27.7146 20.3423C27.7244 20.3034 27.7283 20.262 27.7263 20.2182C27.5686 16.8928 27.584 13.5208 28.0023 10.2078C28.1605 8.95264 28.398 7.74685 28.7148 6.59046C28.8881 5.95776 29.1 5.34355 29.3507 4.74783C29.8296 3.6097 30.5049 2.49419 31.4773 1.76196C31.87 1.46702 32.4738 1.15821 32.9483 1.17208C32.9531 1.17223 32.9578 1.1734 32.9621 1.17551C32.9664 1.17762 32.9702 1.18063 32.9733 1.18434C32.9764 1.18805 32.9787 1.19239 32.9801 1.19706C32.9814 1.20174 32.9818 1.20666 32.9812 1.2115C32.7549 2.74167 32.5865 4.15236 32.476 5.44357C32.1699 9.02273 32.0148 12.5605 32.0109 16.0569C32.0041 21.285 32.0036 31.1771 32.0095 45.7332C32.01 46.6029 31.9535 47.369 31.8401 48.0314C31.7671 48.4587 31.6065 48.9004 31.3583 49.3564C31.2624 49.5326 31.0799 49.7772 30.8108 50.0901C29.877 51.175 28.9586 52.3511 28.6016 53.6454C28.4021 54.3691 28.5559 55.0077 29.063 55.5611C29.4504 55.9835 29.8753 56.3242 30.3377 56.5831C31.4936 57.2295 32.7495 57.9276 34.1054 58.6776C34.1099 58.68 34.1137 58.6835 34.1165 58.6877C34.1193 58.6919 34.121 58.6968 34.1215 58.7019C34.122 58.707 34.1213 58.7121 34.1194 58.7169C34.1174 58.7217 34.1144 58.726 34.1106 58.7295L31.8788 60.6779C31.8753 60.6809 31.8728 60.6848 31.8713 60.6892C31.8699 60.6935 31.8696 60.6982 31.8706 60.7026C31.8716 60.7071 31.8737 60.7113 31.8768 60.7146C31.8799 60.718 31.8839 60.7204 31.8883 60.7217L34.5931 61.5343C34.5973 61.5354 34.6012 61.5377 34.6042 61.5408C34.6073 61.5439 34.6095 61.5477 34.6106 61.5519C34.6117 61.5561 34.6117 61.5606 34.6106 61.5648C34.6094 61.569 34.6072 61.5728 34.6041 61.5759C33.9952 62.1969 33.4165 62.7997 32.868 63.3842C32.301 63.9877 31.9684 64.363 31.87 64.5099C31.8531 64.5348 31.8276 64.5523 31.7985 64.5589C31.4724 64.6338 31.2045 64.6769 30.9947 64.6881C29.2567 64.783 27.5185 64.6718 25.78 64.3544C22.4291 63.7419 19.3242 62.7673 15.8383 61.7168C15.7818 61.6998 15.5735 61.6431 15.2134 61.5467C14.5541 61.37 13.8679 61.1795 13.1831 61.2131C12.6361 61.2403 12.1165 61.3033 11.6245 61.4021C10.3766 61.6538 9.14866 62.0263 7.94068 62.5198C7.93786 62.5215 7.93455 62.522 7.93137 62.5213C7.92819 62.5206 7.92538 62.5188 7.92348 62.5162C7.92157 62.5135 7.92071 62.5103 7.92105 62.5071C7.9214 62.5038 7.92293 62.5008 7.92535 62.4987L9.47231 60.7495C9.47496 60.7467 9.47665 60.7432 9.47712 60.7395C9.47759 60.7357 9.47681 60.7319 9.47492 60.7286C9.47302 60.7253 9.4701 60.7227 9.4666 60.7212C9.4631 60.7197 9.45921 60.7194 9.45552 60.7203C8.13706 60.997 6.79232 61.1408 5.46291 61.0452C5.4592 61.0449 5.45567 61.0435 5.45278 61.0411C5.4499 61.0388 5.4478 61.0356 5.44677 61.032C5.44573 61.0284 5.44582 61.0246 5.44701 61.0211C5.4482 61.0176 5.45043 61.0145 5.45342 61.0123L8.15823 59.0704C8.16181 59.0679 8.1645 59.0643 8.16591 59.0602C8.16732 59.0561 8.16738 59.0516 8.16608 59.0475C8.16477 59.0433 8.16218 59.0397 8.15866 59.0371C8.15515 59.0345 8.15091 59.0332 8.14655 59.0332C6.85145 59.0263 5.57339 58.8003 4.31236 58.3549C3.65678 58.1238 3.05669 57.8101 2.51207 57.4139C2.50672 57.4101 2.50272 57.4047 2.50062 57.3984C2.49852 57.3922 2.49841 57.3854 2.50032 57.3791C2.50223 57.3727 2.50606 57.367 2.5113 57.3628C2.51653 57.3586 2.52292 57.3561 2.5296 57.3555C6.04013 57.1433 9.58206 57.0348 13.1554 57.0299C15.4032 57.027 17.7262 57.1788 20.2448 57.3555C20.2502 57.3562 20.2556 57.3549 20.2601 57.3519C20.2646 57.3488 20.2677 57.3442 20.269 57.3389C20.2703 57.3337 20.2695 57.3281 20.267 57.3234C20.2644 57.3186 20.2601 57.315 20.2551 57.3132C19.1812 56.8204 18.1693 56.2473 17.2553 55.5078C16.4552 54.8605 15.8519 54.0499 15.4455 53.076C15.4432 53.0699 15.4424 53.0633 15.4434 53.0569C15.4444 53.0504 15.447 53.0443 15.4511 53.0392C15.4552 53.0341 15.4605 53.0302 15.4666 53.0278C15.4726 53.0254 15.4792 53.0247 15.4857 53.0256L19.4673 53.6754C19.4695 53.6758 19.4718 53.6754 19.4738 53.6743C19.4757 53.6732 19.4772 53.6715 19.478 53.6694C19.4788 53.6673 19.4788 53.665 19.4781 53.6629C19.4773 53.6607 19.4758 53.659 19.4739 53.6578C18.2718 52.8431 17.2181 51.8439 16.3128 50.6603C15.6843 49.8383 15.1396 48.8943 14.9403 47.8868C14.9392 47.881 14.9396 47.875 14.9416 47.8693C14.9436 47.8637 14.947 47.8587 14.9515 47.8549C14.956 47.851 14.9615 47.8484 14.9674 47.8473C14.9732 47.8463 14.9793 47.8468 14.9849 47.8489L19.4389 49.4688C19.4439 49.4706 19.4493 49.4706 19.4543 49.4688C19.4593 49.4671 19.4636 49.4636 19.4664 49.4591C19.4692 49.4546 19.4704 49.4493 19.4698 49.444C19.4691 49.4388 19.4667 49.4339 19.463 49.4302C17.6597 47.6605 15.8646 45.412 15.4382 42.8663C15.4374 42.8618 15.4379 42.857 15.4397 42.8527C15.4416 42.8485 15.4447 42.8448 15.4486 42.8423C15.4525 42.8398 15.4571 42.8385 15.4618 42.8387C15.4664 42.8388 15.4709 42.8403 15.4747 42.843L18.9359 45.0871C18.9383 45.0883 18.941 45.0886 18.9436 45.0881C18.9462 45.0876 18.9486 45.0863 18.9504 45.0843C18.9522 45.0824 18.9533 45.0799 18.9536 45.0772C18.9539 45.0746 18.9533 45.0719 18.9519 45.0696C18.6302 44.6593 18.2998 44.148 17.9605 43.5358C17.2436 42.2412 16.6657 40.9344 16.2267 39.6155C16.0193 38.9942 15.8332 38.2766 15.9106 37.6531C15.9109 37.6499 15.912 37.6469 15.9139 37.6444C15.9157 37.6418 15.9182 37.6398 15.9211 37.6384C15.9239 37.6371 15.9271 37.6366 15.9303 37.6368C15.9334 37.6371 15.9364 37.6382 15.939 37.64L19.1206 39.9104C19.1224 39.9116 19.1246 39.9121 19.1267 39.9119C19.1289 39.9117 19.1309 39.9107 19.1325 39.9092C19.134 39.9076 19.135 39.9056 19.1352 39.9034C19.1354 39.9013 19.1349 39.8991 19.1337 39.8972C18.9716 39.6614 18.7023 39.2869 18.5446 39.0066C17.7391 37.5713 17.1694 36.0494 16.8355 34.4409C16.6608 33.5979 16.5953 32.7628 16.6391 31.9354C16.6659 31.4302 16.7978 30.9447 17.0348 30.479C17.0375 30.4737 17.0417 30.4694 17.0468 30.4666C17.052 30.4638 17.058 30.4627 17.0638 30.4634C17.0696 30.4641 17.0751 30.4666 17.0795 30.4706C17.0838 30.4746 17.0869 30.4798 17.0881 30.4855C17.559 32.5085 18.6256 34.5862 20.266 35.8973C20.2699 35.9001 20.2747 35.9015 20.2795 35.9012C20.2843 35.9009 20.2889 35.899 20.2925 35.8958C20.2961 35.8925 20.2984 35.8882 20.2992 35.8834C20.2999 35.8787 20.2991 35.8738 20.2967 35.8696C20.0596 35.5002 19.8397 35.1125 19.6367 34.7066C18.9334 33.302 18.3813 31.8597 17.9802 30.3797C17.4911 28.5765 17.2064 26.6324 17.5933 24.8029C17.7666 23.9833 18.1228 23.2537 18.6621 22.6142C18.666 22.6097 18.6711 22.6064 18.6768 22.6047C18.6825 22.603 18.6885 22.603 18.6942 22.6046C18.6998 22.6062 18.7048 22.6094 18.7086 22.6139C18.7124 22.6183 18.7147 22.6237 18.7154 22.6295C18.7991 23.3503 18.8887 23.9794 18.984 24.5167C19.3797 26.7462 20.0506 28.8656 21.1676 30.817C21.5993 31.5704 22.1213 32.2569 22.7336 32.8764C22.7359 32.8795 22.7393 32.8816 22.7432 32.8821C22.747 32.8827 22.7509 32.8817 22.754 32.8793C22.7571 32.877 22.7591 32.8736 22.7597 32.8697C22.7602 32.8659 22.7592 32.862 22.7569 32.8589C22.2449 31.9254 21.8105 30.9615 21.4538 29.9672C20.7189 27.9187 20.1918 25.8373 19.8725 23.7231C19.5761 21.7622 19.4659 19.7838 19.7068 17.8273C19.9638 15.7423 20.7675 13.5471 22.7649 12.5571C22.77 12.5545 22.7757 12.5534 22.7814 12.5538C22.7871 12.5543 22.7926 12.5562 22.7973 12.5595C22.8019 12.5628 22.8056 12.5674 22.8079 12.5726C22.8101 12.5778 22.811 12.5836 22.8102 12.5892C22.378 15.708 22.4284 18.9486 23.127 22.0192C23.4132 23.2742 23.8133 24.5408 24.4032 25.6556C24.4051 25.66 24.4086 25.6635 24.4129 25.6654C24.4173 25.6674 24.4223 25.6676 24.4268 25.666C24.4314 25.6644 24.4351 25.6612 24.4374 25.6569C24.4396 25.6527 24.4402 25.6478 24.4389 25.6431C23.8826 22.9507 23.5763 20.236 23.5198 17.4988C23.4921 16.1341 23.5529 14.7837 23.7023 13.4478C24.0243 10.5772 25.0901 6.31597 28.506 5.69032C28.5118 5.68925 28.5177 5.6897 28.5232 5.69163C28.5288 5.69356 28.5337 5.69691 28.5375 5.70134C28.5414 5.70577 28.544 5.71112 28.5451 5.71688C28.5463 5.72263 28.5459 5.72857 28.544 5.73412C27.1854 9.81799 26.7218 14.2333 27.3219 18.5011C27.4105 19.1285 27.5321 19.7488 27.6869 20.362Z" fill="white"/>
<path d="M74.218 54.3754H67.9551C67.9311 54.3754 67.9081 54.3659 67.8911 54.3489C67.8742 54.3319 67.8646 54.3089 67.8646 54.2849V23.8722C67.8646 23.8583 67.87 23.845 67.8795 23.8352C67.889 23.8253 67.9019 23.8198 67.9154 23.8198H75.696C75.7251 23.8199 75.7537 23.8273 75.779 23.8415C75.8043 23.8557 75.8255 23.8761 75.8405 23.9008L88.4758 44.4262C88.4826 44.4367 88.4926 44.4447 88.5043 44.4492C88.516 44.4536 88.5288 44.4541 88.5408 44.4508C88.5529 44.4474 88.5635 44.4403 88.5713 44.4304C88.579 44.4206 88.5833 44.4086 88.5837 44.3961V23.8722C88.5837 23.8592 88.5889 23.8466 88.5982 23.8374C88.6074 23.8282 88.6199 23.823 88.6329 23.823H94.9435C94.9551 23.823 94.9667 23.8253 94.9775 23.8298C94.9883 23.8342 94.9981 23.8408 95.0063 23.849C95.0146 23.8573 95.0211 23.8671 95.0256 23.8779C95.0301 23.8887 95.0324 23.9002 95.0324 23.9119V54.2627C95.0324 54.2926 95.0205 54.3212 94.9993 54.3424C94.9782 54.3635 94.9495 54.3754 94.9196 54.3754H87.6026C87.575 54.3754 87.5479 54.3684 87.524 54.3551C87.5001 54.3417 87.4801 54.3225 87.4661 54.2992L74.3577 33.0054C74.3547 33.0011 74.3504 32.9979 74.3455 32.9962C74.3406 32.9944 74.3353 32.9942 74.3302 32.9956C74.3252 32.997 74.3207 32.9999 74.3174 33.0039C74.3141 33.0079 74.3121 33.0129 74.3117 33.0181V54.2801C74.3117 54.3054 74.3018 54.3296 74.2842 54.3475C74.2667 54.3654 74.2428 54.3754 74.218 54.3754Z" fill="#1E1E1E"/>
<path d="M142.702 23.8191C140.736 23.6885 139.046 25.0401 138.926 26.8379C138.807 28.6357 140.304 30.199 142.27 30.3296C144.235 30.4601 145.926 29.1086 146.045 27.3107C146.165 25.5129 144.668 23.9496 142.702 23.8191Z" fill="#1E1E1E"/>
<path d="M233.396 23.8191C231.43 23.6885 229.739 25.0394 229.62 26.8363C229.501 28.6333 230.998 30.1958 232.963 30.3264C234.929 30.457 236.619 29.1061 236.739 27.3091C236.858 25.5122 235.361 23.9496 233.396 23.8191Z" fill="#1E1E1E"/>
<path d="M256.391 52.6402C256.391 52.6322 256.389 52.6244 256.385 52.6176C256.38 52.6109 256.374 52.6057 256.367 52.6026C256.359 52.5995 256.351 52.5987 256.343 52.6003C256.335 52.6019 256.328 52.6059 256.323 52.6117C255.025 53.959 253.543 54.8332 251.878 55.2343C248.945 55.9408 245.569 55.0247 243.295 52.9927C240.128 50.1621 239.096 45.7439 239.849 41.629C240.18 39.816 240.863 38.2099 241.898 36.8108C243.149 35.1174 244.739 33.9669 246.669 33.3594C249.836 32.3625 253.554 32.9213 255.948 35.3598C255.955 35.3668 255.964 35.3715 255.974 35.3735C255.984 35.3754 255.994 35.3745 256.004 35.3707C256.013 35.367 256.021 35.3606 256.026 35.3524C256.031 35.3443 256.034 35.3347 256.034 35.3248V23.9215C256.034 23.8958 256.044 23.8711 256.063 23.853C256.081 23.8348 256.106 23.8246 256.132 23.8246H262.032C262.056 23.8246 262.079 23.8343 262.097 23.8516C262.114 23.8688 262.124 23.8923 262.124 23.9167V54.6723C262.124 54.6929 262.115 54.7127 262.101 54.7273C262.086 54.7419 262.066 54.7501 262.046 54.7501H256.526C256.49 54.7501 256.456 54.736 256.43 54.711C256.405 54.686 256.391 54.6521 256.391 54.6167V52.6402ZM256.035 43.7976C256.023 40.6415 254.035 38.0062 250.666 38.0205C247.296 38.0364 245.332 40.6876 245.346 43.8436C245.359 46.9997 247.347 49.635 250.715 49.6207C254.086 49.6064 256.05 46.9536 256.035 43.7976Z" fill="#1E1E1E"/>
<path d="M291.122 23.8301C291.73 23.8407 292.33 23.9731 292.887 24.2197C293.445 24.4664 293.949 24.8224 294.371 25.2675C294.794 25.7127 295.126 26.2381 295.348 26.814C295.571 27.3898 295.68 28.0047 295.669 28.6236C295.659 29.2425 295.528 29.8532 295.285 30.421C295.043 30.9887 294.693 31.5022 294.255 31.9324C293.818 32.3625 293.301 32.7007 292.735 32.9277C292.169 33.1547 291.565 33.2661 290.957 33.2555C290.349 33.2449 289.749 33.1125 289.191 32.8659C288.634 32.6192 288.129 32.2632 287.707 31.818C287.285 31.3729 286.953 30.8474 286.73 30.2716C286.507 29.6958 286.398 29.0809 286.409 28.462C286.42 27.8431 286.55 27.2324 286.793 26.6646C287.036 26.0969 287.386 25.5834 287.823 25.1532C288.261 24.7231 288.777 24.3849 289.343 24.1579C289.909 23.9308 290.513 23.8195 291.122 23.8301ZM291.393 24.558C290.356 24.558 289.361 24.9779 288.627 25.7251C287.894 26.4724 287.482 27.486 287.482 28.5428C287.482 29.5996 287.894 30.6132 288.627 31.3604C289.361 32.1077 290.356 32.5275 291.393 32.5275C292.431 32.5275 293.426 32.1077 294.159 31.3604C294.893 30.6132 295.305 29.5996 295.305 28.5428C295.305 27.486 294.893 26.4724 294.159 25.7251C293.426 24.9779 292.431 24.558 291.393 24.558Z" fill="#1E1E1E"/>
<path d="M293.492 31.0988H292.513C292.496 31.0988 292.481 31.0944 292.467 31.086C292.454 31.0775 292.443 31.0654 292.436 31.0511L291.433 28.973C291.422 28.9502 291.405 28.9309 291.383 28.9174C291.362 28.904 291.337 28.8968 291.312 28.8968H290.788C290.763 28.8968 290.739 28.907 290.721 28.9252C290.703 28.9434 290.693 28.968 290.693 28.9937V30.9718C290.693 30.9887 290.69 31.0054 290.683 31.021C290.677 31.0366 290.667 31.0508 290.655 31.0627C290.643 31.0746 290.629 31.0841 290.613 31.0906C290.597 31.097 290.58 31.1004 290.563 31.1004H289.726C289.694 31.1004 289.662 31.0871 289.639 31.0636C289.616 31.0401 289.603 31.0082 289.603 30.9749V25.6836C289.603 25.6685 289.609 25.6539 289.619 25.6432C289.63 25.6325 289.645 25.6265 289.66 25.6265C290.633 25.6233 291.158 25.6207 291.235 25.6185C292.163 25.59 292.974 25.7392 293.354 26.5838C293.515 26.9394 293.574 27.2632 293.53 27.5554C293.425 28.2666 292.995 28.719 292.239 28.9127C292.232 28.9149 292.226 28.9187 292.22 28.9237C292.214 28.9288 292.21 28.935 292.207 28.9419C292.205 28.9489 292.203 28.9563 292.204 28.9636C292.205 28.9709 292.207 28.9779 292.211 28.9841L293.502 31.0813C293.503 31.083 293.503 31.085 293.504 31.0871C293.504 31.0891 293.503 31.0912 293.502 31.093C293.501 31.0948 293.5 31.0963 293.498 31.0973C293.496 31.0983 293.494 31.0988 293.492 31.0988ZM290.333 26.7759L290.326 28.1126C290.326 28.1256 290.332 28.1382 290.341 28.1474C290.35 28.1566 290.363 28.1618 290.376 28.1618L291.568 28.1681C291.683 28.1688 291.797 28.154 291.904 28.1247C292.011 28.0954 292.108 28.0522 292.189 27.9975C292.271 27.9428 292.336 27.8777 292.38 27.8059C292.424 27.7341 292.447 27.6571 292.447 27.5792V27.3283C292.448 27.1715 292.356 27.0208 292.192 26.9092C292.029 26.7976 291.806 26.7342 291.574 26.733L290.382 26.7267C290.369 26.7267 290.356 26.7318 290.347 26.7411C290.338 26.7503 290.333 26.7628 290.333 26.7759Z" fill="#1E1E1E"/>
<path d="M130.124 33.2721H135.282C135.303 33.2721 135.323 33.2805 135.338 33.2954C135.353 33.3103 135.361 33.3305 135.361 33.3515V38.2824C135.361 38.3052 135.352 38.327 135.336 38.3431C135.32 38.3591 135.298 38.3682 135.275 38.3682H130.122C130.095 38.3682 130.07 38.3787 130.051 38.3975C130.032 38.4162 130.022 38.4416 130.022 38.4682C130.021 42.1418 130.022 45.1041 130.025 47.3553C130.026 47.568 130.08 47.8802 130.185 48.2919C130.408 49.154 131.006 49.6001 131.881 49.6112C133.18 49.6302 134.235 49.7049 135.296 49.3191C135.303 49.3165 135.311 49.3157 135.319 49.3168C135.327 49.3178 135.334 49.3206 135.34 49.3249C135.347 49.3293 135.352 49.335 135.355 49.3418C135.359 49.3485 135.361 49.3559 135.361 49.3635V54.666C135.361 54.6899 135.353 54.7132 135.339 54.7326C135.325 54.7521 135.305 54.7665 135.282 54.7739C131.294 55.9884 125.548 56.0185 124.27 51.0067C124.052 50.1536 123.941 49.1238 123.935 47.9173C123.93 46.9161 123.93 43.7658 123.935 38.4666C123.935 38.4537 123.933 38.4409 123.928 38.4289C123.923 38.417 123.916 38.4061 123.906 38.397C123.897 38.3879 123.886 38.3806 123.875 38.3757C123.863 38.3707 123.85 38.3682 123.837 38.3682H120.105C120.078 38.3682 120.053 38.3576 120.034 38.3389C120.015 38.3201 120.005 38.2947 120.005 38.2681V33.3277C120.005 33.313 120.01 33.2988 120.02 33.2884C120.03 33.278 120.044 33.2721 120.059 33.2721H123.872C123.88 33.2721 123.888 33.2706 123.895 33.2675C123.902 33.2645 123.909 33.2601 123.914 33.2545C123.92 33.2489 123.924 33.2422 123.928 33.2349C123.931 33.2276 123.932 33.2197 123.932 33.2118V26.7902C123.932 26.7721 123.939 26.7547 123.952 26.7419C123.964 26.7291 123.981 26.7219 123.999 26.7219H129.952C129.961 26.7219 129.97 26.7237 129.979 26.7272C129.987 26.7307 129.995 26.7359 130.002 26.7424C130.008 26.7488 130.013 26.7565 130.017 26.765C130.02 26.7735 130.022 26.7826 130.022 26.7917V33.1705C130.022 33.1975 130.033 33.2233 130.052 33.2424C130.071 33.2614 130.097 33.2721 130.124 33.2721Z" fill="#1E1E1E"/>
<path d="M271.527 45.6677C271.51 45.6676 271.493 45.6711 271.477 45.6781C271.462 45.685 271.448 45.6953 271.436 45.7081C271.425 45.721 271.416 45.7362 271.41 45.7527C271.405 45.7693 271.403 45.7868 271.404 45.8042C271.472 46.544 271.757 47.196 272.26 47.7601C273.825 49.5096 276.432 49.9763 278.653 49.3841C279.938 49.0428 281.065 48.1713 282.047 47.1393C282.063 47.1229 282.084 47.1127 282.107 47.1107C282.129 47.1086 282.152 47.1149 282.17 47.1282L286.008 49.9715C286.013 49.9749 286.017 49.979 286.02 49.9839C286.023 49.9887 286.025 49.9941 286.026 49.9997C286.027 50.0053 286.026 50.0111 286.025 50.0166C286.024 50.0221 286.021 50.0273 286.018 50.0319C285.154 51.231 284.134 52.2243 282.959 53.0117C280.533 54.6374 277.469 55.0104 274.53 54.5691C272.376 54.2468 270.255 53.3372 268.647 51.8401C267.164 50.4579 266.179 48.728 265.691 46.6504C264.199 40.2811 267.215 33.2785 274.251 32.3037C274.98 32.2021 275.546 32.1624 275.948 32.1846C276.739 32.228 277.572 32.364 278.448 32.5926C284.603 34.2024 287.129 39.6588 286.735 45.5899C286.734 45.611 286.725 45.6308 286.709 45.6453C286.693 45.6597 286.673 45.6678 286.651 45.6677H271.527ZM271.157 41.6321H280.217C280.229 41.632 280.241 41.6294 280.252 41.6242C280.263 41.6191 280.273 41.6117 280.281 41.6024C280.289 41.5932 280.295 41.5824 280.298 41.5708C280.301 41.5592 280.302 41.5471 280.299 41.5353C280.112 40.4415 279.715 39.4048 278.898 38.6571C278.449 38.2475 277.853 37.9591 277.11 37.7919C274.213 37.1441 271.747 38.5856 271.058 41.5083C271.055 41.5231 271.055 41.5385 271.058 41.5533C271.062 41.568 271.068 41.5819 271.078 41.5938C271.087 41.6056 271.099 41.6153 271.113 41.6219C271.127 41.6285 271.142 41.632 271.157 41.6321Z" fill="#1E1E1E"/>
<path d="M112.499 52.2926C112.498 52.2822 112.495 52.2721 112.489 52.2636C112.483 52.255 112.475 52.2485 112.465 52.2447C112.455 52.241 112.445 52.2402 112.435 52.2425C112.424 52.2448 112.415 52.2501 112.408 52.2577C109.976 54.8724 106.217 55.3185 102.975 54.1214C99.4219 52.8117 97.7248 49.3747 98.9758 45.7693C99.9553 42.9451 102.902 41.5893 105.774 41.0353C107.747 40.6553 109.84 40.4886 112.054 40.5352C112.065 40.5354 112.076 40.5334 112.087 40.5292C112.097 40.5251 112.107 40.5189 112.115 40.5111C112.123 40.5033 112.129 40.4939 112.133 40.4836C112.138 40.4733 112.14 40.4622 112.14 40.451C112.143 39.5059 111.891 38.7651 111.384 38.2285C110.265 37.0457 107.73 37.1823 106.272 37.4839C104.873 37.7739 103.643 38.4084 102.583 39.3874C102.566 39.4025 102.544 39.4106 102.522 39.41C102.499 39.4094 102.478 39.4002 102.462 39.3842L99.3521 36.2742C99.3404 36.2624 99.3312 36.2485 99.325 36.2331C99.3188 36.2177 99.3157 36.2012 99.316 36.1846C99.3163 36.168 99.3199 36.1517 99.3267 36.1365C99.3334 36.1214 99.3431 36.1077 99.3553 36.0964C101.87 33.7246 104.87 32.5392 108.355 32.5403C108.899 32.5403 109.635 32.5673 110.563 32.6213C112.225 32.7176 113.717 33.2346 115.039 34.1723C115.558 34.5406 115.956 34.9507 116.232 35.4026C117.31 37.1696 117.847 39.1889 117.86 41.2972C117.883 45.1507 117.886 49.4906 117.869 54.3167C117.869 54.3323 117.863 54.3472 117.852 54.3582C117.841 54.3693 117.826 54.3754 117.811 54.3754H112.618C112.586 54.3754 112.556 54.3627 112.533 54.3401C112.511 54.3175 112.499 54.2868 112.499 54.2548V52.2926ZM112.038 45.2661C109.706 45.2994 107.733 45.4105 105.998 46.3663C104.918 46.9616 104.251 47.976 104.943 49.1842C105.421 50.0176 106.56 50.3558 107.471 50.3621C110.455 50.3859 112.399 48.384 112.137 45.3534C112.135 45.3292 112.123 45.3068 112.105 45.2905C112.087 45.2743 112.063 45.2656 112.038 45.2661Z" fill="#1E1E1E"/>
<path d="M156.18 54.5199C155.94 54.377 155.67 54.3389 155.359 54.2072C153.295 53.3308 151.685 52.0312 150.527 50.3081C148.779 47.7056 148.201 44.7623 148.792 41.4782C149.284 38.7476 150.582 36.5531 152.686 34.8946C154.94 33.1165 158.039 32.3244 160.922 32.6149C166.121 33.1388 170.4 36.4202 171.257 41.7449C171.943 46.0075 170.573 50.3621 167.077 52.9228C165.596 54.0066 163.865 54.6898 161.884 54.9724C160.022 55.2369 158.142 55.0951 156.242 54.5469C156.221 54.5406 156.2 54.5315 156.18 54.5199ZM154.653 43.8405C154.666 46.9981 156.652 49.6334 160.022 49.6207C163.392 49.608 165.358 46.9552 165.345 43.7992C165.332 40.6431 163.346 38.0062 159.977 38.0189C156.607 38.0332 154.642 40.6844 154.653 43.8405Z" fill="#1E1E1E"/>
<path d="M180.712 35.6868C180.713 35.6938 180.715 35.7006 180.719 35.7062C180.723 35.7118 180.729 35.7159 180.736 35.718C180.742 35.7201 180.75 35.7201 180.756 35.7179C180.763 35.7157 180.769 35.7115 180.773 35.7058C181.096 35.2423 181.413 34.8935 181.724 34.6596C183.52 33.307 185.557 32.7318 187.836 32.934C189.207 33.0562 190.296 33.4102 191.357 34.3231C192.689 35.4693 193.483 36.9886 193.737 38.8809C193.867 39.8504 193.933 40.7722 193.934 41.6464C193.939 46.1911 193.938 50.6425 193.932 55.0009C193.932 55.0257 193.922 55.0496 193.905 55.0671C193.888 55.0847 193.864 55.0946 193.84 55.0946H187.933C187.921 55.0946 187.909 55.0922 187.898 55.0877C187.887 55.0831 187.877 55.0764 187.869 55.068C187.861 55.0596 187.854 55.0496 187.85 55.0386C187.846 55.0276 187.844 55.0159 187.844 55.0041C187.859 50.9823 187.857 46.9399 187.841 42.8768C187.836 41.8782 187.798 40.7384 187.209 39.9081C186.837 39.3842 186.724 39.1857 186.051 38.9174C185.464 38.6825 184.216 38.6571 183.572 38.8889C181.757 39.5413 181.074 41.1718 181.071 42.9974C181.063 47.0182 181.061 50.9172 181.066 54.6945C181.066 54.7097 181.06 54.7242 181.05 54.7349C181.039 54.7456 181.024 54.7517 181.009 54.7517H175.077C175.055 54.7517 175.034 54.7431 175.018 54.7279C175.003 54.7128 174.994 54.6922 174.994 54.6707V33.7388C174.994 33.7119 175.005 33.6861 175.024 33.667C175.043 33.6479 175.069 33.6372 175.096 33.6372H180.616C180.641 33.6372 180.666 33.6474 180.684 33.6656C180.702 33.6838 180.712 33.7084 180.712 33.7341V35.6868Z" fill="#1E1E1E"/>
<path d="M145.285 33.2721H139.354C139.311 33.2721 139.276 33.307 139.276 33.3499V54.2961C139.276 54.339 139.311 54.3738 139.354 54.3738H145.285C145.328 54.3738 145.362 54.339 145.362 54.2961V33.3499C145.362 33.307 145.328 33.2721 145.285 33.2721Z" fill="#1E1E1E"/>
<path d="M211.768 41.3861C211.767 41.3841 211.766 41.3824 211.764 41.3813C211.762 41.3802 211.759 41.3797 211.757 41.3798C211.755 41.38 211.753 41.3809 211.751 41.3823C211.749 41.3837 211.748 41.3855 211.747 41.3877L208.218 54.331C208.215 54.3437 208.208 54.355 208.197 54.3631C208.187 54.3711 208.174 54.3755 208.161 54.3754H202.216C202.19 54.3754 202.165 54.3672 202.144 54.3521C202.123 54.337 202.108 54.3157 202.1 54.2913L195.72 33.3452C195.717 33.3367 195.717 33.3278 195.718 33.3192C195.72 33.3105 195.723 33.3024 195.728 33.2953C195.734 33.2882 195.74 33.2825 195.748 33.2785C195.756 33.2744 195.765 33.2723 195.774 33.2721H202.048C202.073 33.2722 202.099 33.2807 202.119 33.2962C202.139 33.3117 202.154 33.3334 202.16 33.3579L205.662 46.2107C205.665 46.2185 205.67 46.2254 205.676 46.2303C205.683 46.2352 205.691 46.2379 205.699 46.2379C205.707 46.2379 205.715 46.2352 205.722 46.2303C205.728 46.2254 205.733 46.2185 205.735 46.2107L208.891 33.3579C208.897 33.3334 208.911 33.3117 208.931 33.2962C208.95 33.2807 208.975 33.2722 208.999 33.2721H214.9C214.927 33.2721 214.952 33.2811 214.973 33.2975C214.994 33.3139 215.008 33.3368 215.015 33.3626L218.166 46.2186C218.168 46.2264 218.172 46.2334 218.178 46.2384C218.184 46.2434 218.192 46.2461 218.2 46.2461C218.208 46.2461 218.216 46.2434 218.222 46.2384C218.228 46.2334 218.232 46.2264 218.234 46.2186L221.739 33.3563C221.746 33.3321 221.76 33.3107 221.78 33.2954C221.8 33.2802 221.824 33.272 221.849 33.2721H228.102C228.114 33.2723 228.126 33.2752 228.136 33.2806C228.147 33.2861 228.156 33.294 228.162 33.3035C228.169 33.3131 228.174 33.3242 228.175 33.3359C228.177 33.3475 228.176 33.3594 228.172 33.3706L221.458 54.2484C221.446 54.2854 221.423 54.3176 221.392 54.3404C221.361 54.3632 221.324 54.3755 221.285 54.3754H215.783C215.766 54.3754 215.75 54.3701 215.737 54.3601C215.723 54.3501 215.713 54.336 215.708 54.3199L211.768 41.3861Z" fill="#1E1E1E"/>
<path d="M235.975 33.2737H230.063C230.014 33.2737 229.974 33.3135 229.974 33.3626V54.2865C229.974 54.3356 230.014 54.3754 230.063 54.3754H235.975C236.024 54.3754 236.064 54.3356 236.064 54.2865V33.3626C236.064 33.3135 236.024 33.2737 235.975 33.2737Z" fill="#1E1E1E"/>
<path d="M32.5869 56.5408C33.1768 56.6591 33.7995 56.6927 34.3244 56.7839C34.6437 56.8394 34.9657 56.8779 35.2903 56.8993C37.1402 57.0205 39.096 57.2059 40.8955 57.5388C41.0654 57.5704 41.2362 57.669 41.408 57.8345C41.6869 58.1031 41.8363 58.4338 41.8563 58.8266C41.8566 58.8308 41.8559 58.8351 41.8543 58.839C41.8526 58.843 41.8501 58.8465 41.8469 58.8494C41.8437 58.8523 41.8398 58.8544 41.8356 58.8557C41.8314 58.8569 41.827 58.8572 41.8227 58.8565L39.7764 58.5229C39.7701 58.5218 39.7637 58.5221 39.7576 58.5238C39.7514 58.5255 39.7457 58.5285 39.7409 58.5326C39.736 58.5367 39.7321 58.5418 39.7294 58.5475C39.7267 58.5533 39.7253 58.5596 39.7253 58.566V59.334C39.7253 59.3382 39.7263 59.3423 39.7281 59.3461C39.7299 59.3499 39.7325 59.3532 39.7357 59.3558C39.739 59.3584 39.7427 59.3602 39.7467 59.3611C39.7507 59.362 39.7549 59.362 39.7589 59.361C40.5218 59.1668 41.3073 59.0536 42.0132 59.0376C43.0521 59.0142 44.7801 59.4048 44.6472 60.8276C44.6468 60.8314 44.6454 60.835 44.6433 60.8381C44.6411 60.8413 44.6381 60.8438 44.6347 60.8454C44.6313 60.8471 44.6275 60.8479 44.6237 60.8477C44.6199 60.8475 44.6162 60.8464 44.6129 60.8444C44.373 60.6999 44.1073 60.6089 43.8157 60.5714C43.431 60.5225 42.8521 60.5261 42.4316 60.6137C42.0699 60.6892 41.8609 60.7317 41.8045 60.7415C40.6532 60.9444 39.5786 61.4664 38.5835 62.0753C38.1956 62.3128 37.8654 62.5011 37.5928 62.6403C36.1919 63.3543 35.0822 63.923 33.7375 64.3632C33.7336 64.3646 33.7294 64.3646 33.7256 64.3633C33.7218 64.3619 33.7185 64.3592 33.7164 64.3557C33.7142 64.3522 33.7132 64.348 33.7136 64.3438C33.714 64.3396 33.7157 64.3357 33.7185 64.3326L36.2503 61.5869C36.2546 61.5822 36.2577 61.5766 36.2595 61.5706C36.2613 61.5645 36.2616 61.5581 36.2605 61.5518C36.2593 61.5456 36.2568 61.5397 36.253 61.5347C36.2492 61.5296 36.2443 61.5255 36.2386 61.5226L33.6995 60.229C33.6955 60.2269 33.6921 60.2239 33.6895 60.2203C33.6869 60.2166 33.6853 60.2123 33.6847 60.2079C33.6841 60.2034 33.6847 60.1989 33.6862 60.1947C33.6878 60.1905 33.6903 60.1867 33.6937 60.1837L35.7466 58.3915C35.7506 58.3879 35.7538 58.3834 35.7558 58.3784C35.7577 58.3734 35.7585 58.3679 35.7579 58.3626C35.7573 58.3572 35.7555 58.352 35.7525 58.3475C35.7495 58.343 35.7454 58.3393 35.7407 58.3367L32.5745 56.5737C32.5709 56.5716 32.5682 56.5684 32.5668 56.5646C32.5654 56.5608 32.5655 56.5566 32.5669 56.5527C32.5684 56.5488 32.5712 56.5455 32.5748 56.5433C32.5785 56.5411 32.5828 56.5403 32.5869 56.5408Z" fill="white"/>
</svg>
