<svg width="257" height="60" viewBox="0 0 257 60" fill="none" xmlns="http://www.w3.org/2000/svg">
<path d="M26.1627 1.65361L27.4762 1.62662" stroke="#1E1E1E" stroke-width="0.899679"/>
<path d="M29.9863 1.63559L30.9625 1.64459" stroke="#1E1E1E" stroke-width="0.899679"/>
<path d="M192.455 38.0096C192.359 37.8507 192.221 37.8042 192.041 37.8702" stroke="#1E1E1E" stroke-width="0.899679"/>
<path d="M26.1627 1.65363L27.4762 1.62664L29.9863 1.63564L30.9624 1.64464L35.2089 2.33289C35.2301 2.33633 35.2497 2.34658 35.2645 2.36209C35.2794 2.37761 35.2888 2.39754 35.2914 2.41888C35.2939 2.44022 35.2894 2.46181 35.2786 2.48038C35.2678 2.49895 35.2512 2.5135 35.2314 2.52182C34.5776 2.80372 34.1383 3.17259 33.9134 3.62843C33.865 3.72518 33.787 3.80396 33.6907 3.85331C33.5944 3.90267 33.4849 3.92001 33.3781 3.90283C27.2963 2.94317 21.7107 3.76338 16.6216 6.36345C8.06112 10.7359 2.66305 18.8915 1.92531 28.563C1.56095 33.3403 3.56723 38.3695 6.30675 42.3371C7.95766 44.7257 10.7782 46.5701 12.7709 43.0928C13.8446 41.2215 14.4338 39.5691 14.5388 38.1356C14.6693 36.3632 14.1654 33.7092 14.4084 31.6894C14.7322 29.0309 15.3035 26.1654 16.905 24.1771C16.9799 24.0871 17.0669 24.0241 17.1659 23.9882C17.2526 23.9564 17.3448 23.9424 17.4371 23.947C17.5293 23.9517 17.6197 23.9748 17.7028 24.0151C17.7859 24.0554 17.8601 24.112 17.9209 24.1816C17.9816 24.2512 18.0278 24.3322 18.0566 24.42C18.6383 26.2194 19.1422 27.9587 19.568 29.6381C19.679 30.067 19.9114 30.5903 20.2653 31.2081C20.306 31.2799 20.3627 31.3413 20.4311 31.3876C20.4995 31.4339 20.5778 31.4639 20.6599 31.4752C20.742 31.4865 20.8258 31.4788 20.9047 31.4528C20.9837 31.4268 21.0558 31.3831 21.1155 31.325C23.0138 29.4762 21.3674 24.3795 20.6026 21.1677C19.9594 18.4506 20.4317 16.6648 23.2027 15.7426C24.8131 15.2073 25.3979 12.5038 26.0007 10.6684C26.3366 9.64578 26.8014 8.78059 27.3952 8.07284C27.5479 7.89134 27.7565 7.76801 27.9833 7.72511C28.2102 7.68221 28.4404 7.72258 28.6323 7.83892C29.7569 8.52268 30.5441 11.2442 30.9669 12.8546C31.7946 16.0185 32.4709 18.5841 32.9957 20.5514C33.0137 20.6221 33.0535 20.6854 33.1095 20.7322C33.1656 20.779 33.235 20.8068 33.3078 20.8118C33.3806 20.8168 33.4532 20.7987 33.5151 20.76C33.577 20.7213 33.6251 20.664 33.6525 20.5964C35.6258 15.8641 35.9766 11.0988 34.7051 6.30047C34.1698 4.2717 36.5809 3.39001 38.2588 3.34053C40.478 3.28055 42.3599 3.06313 43.9043 2.68826C47.7639 1.7526 51.1722 0.860417 54.1292 0.01172C54.1789 -0.00357863 54.2321 -0.00390659 54.282 0.0107762C54.332 0.0254589 54.3765 0.0545056 54.41 0.0942991C54.4436 0.134093 54.4647 0.182877 54.4708 0.23458C54.4768 0.286284 54.4675 0.338624 54.4441 0.385087C50.8273 7.83892 46.4234 14.6135 40.5395 21.2396C33.576 29.0758 26.0097 36.0603 17.8406 42.1931C12.1936 46.4366 8.89782 48.9063 7.95316 49.602C7.88026 49.6558 7.78974 49.6802 7.69968 49.6702C7.60962 49.6601 7.52664 49.6165 7.46734 49.548C2.48611 43.8381 -0.00299622 37.4264 2.70661e-06 30.3129C0.00899949 15.2748 11.1785 3.11111 26.1627 1.65363Z" fill="#1E1E1E"/>
<path d="M5.27665 53.4346C5.24523 53.4495 5.20928 53.4517 5.1763 53.4407C5.14332 53.4297 5.11585 53.4064 5.09961 53.3757C5.08337 53.3449 5.07962 53.3091 5.08914 53.2757C5.09866 53.2423 5.12071 53.2138 5.1507 53.1962C16.4507 45.6269 26.9934 36.9525 36.7789 27.173C41.8936 22.0628 47.3591 15.7921 50.7014 10.1736C52.3358 7.42056 53.9763 4.38565 55.6227 1.06884C55.6407 1.03077 55.6693 0.998684 55.705 0.976367C55.7408 0.954051 55.7822 0.942442 55.8243 0.942916C55.8664 0.943389 55.9075 0.955925 55.9427 0.979039C55.978 1.00215 56.0058 1.03488 56.023 1.07333C57.2136 3.74838 57.6394 6.54638 57.3006 9.46733C57.2676 9.75823 57.0232 11.0373 56.5673 13.3045C55.9825 16.2149 56.5448 18.779 57.1476 21.7255C57.8764 25.2612 55.9151 27.5599 52.0914 27.146C50.9788 27.0261 48.9486 26.7682 46.0006 26.3723C44.939 26.2313 44.0213 26.4323 43.2476 26.9751C43.15 27.0436 43.067 27.1309 43.0035 27.2318C42.9399 27.3327 42.897 27.4452 42.8774 27.5629C42.8577 27.6805 42.8616 27.8008 42.8889 27.9169C42.9161 28.033 42.9662 28.1426 43.0362 28.2391C44.0303 29.6156 47.0442 30.7852 49.3384 31.8019C50.2201 32.1917 50.9638 32.6431 51.5696 33.1559C51.6524 33.2264 51.7207 33.3123 51.7705 33.4088C51.8203 33.5053 51.8507 33.6105 51.8599 33.7183C51.8691 33.8261 51.8569 33.9344 51.8241 34.037C51.7912 34.1397 51.7384 34.2346 51.6686 34.3165C50.553 35.639 47.9034 36.4442 44.5026 37.9242C41.7946 39.1072 41.1513 40.7042 39.8423 43.0838C39.1316 44.3764 37.935 44.8142 36.2526 44.3973C33.9014 43.8156 31.8007 42.8634 29.9503 41.5409C29.8059 41.4388 29.6339 41.3828 29.4571 41.3802C29.2802 41.3776 29.1067 41.4285 28.9593 41.5263C28.8119 41.6241 28.6975 41.7642 28.6311 41.9281C28.5647 42.0921 28.5495 42.2723 28.5873 42.445L28.8617 43.6866C29.1152 44.8273 29.8106 45.8219 30.796 46.4531L33.747 48.3469C33.7914 48.3765 33.8297 48.4164 33.8594 48.4639C35.5104 51.1359 28.9067 50.8256 28.5153 50.8481C28.192 50.866 27.8715 50.9112 27.5572 50.983C25.7848 51.3729 24.6797 51.5648 24.2419 51.5588C23.3032 51.5468 21.9267 51.2079 20.1124 50.5422C19.9359 50.4793 19.752 50.4341 19.5635 50.4072C17.4268 50.1148 16.0323 50.4792 14.3814 50.6006C14.3017 50.606 14.2252 50.6335 14.1604 50.6802C14.0956 50.7268 14.045 50.7907 14.0142 50.8648C13.9835 50.9389 13.9737 51.0202 13.9862 51.0999C13.9986 51.1795 14.0326 51.2543 14.0845 51.3159C17.7237 55.5849 25.9288 57.3977 31.1919 56.8264C45.6857 55.243 55.8746 43.1558 55.2943 28.6665C55.2915 28.5957 55.3061 28.5254 55.3367 28.4619C55.3673 28.3983 55.413 28.3435 55.4697 28.3021L56.7563 27.3574C56.7892 27.3333 56.8279 27.3184 56.8686 27.3142C56.9092 27.31 56.9502 27.3168 56.9873 27.3337C57.0244 27.3507 57.0564 27.3773 57.0798 27.4107C57.1032 27.4441 57.1173 27.4832 57.1206 27.5239C59.2619 53.2817 29.9818 68.4278 9.98197 52.0131C9.85298 51.907 9.6974 51.838 9.53182 51.8134C9.36624 51.7889 9.19687 51.8097 9.04181 51.8737L5.27665 53.4346Z" fill="#1E1E1E"/>
<path d="M120.399 14.3604C120.402 16.0972 120.056 17.8176 119.379 19.4233C118.702 21.0291 117.708 22.4888 116.454 23.719C115.2 24.9493 113.71 25.9261 112.071 26.5936C110.431 27.2611 108.672 27.6062 106.896 27.6093C105.119 27.6124 103.36 27.2734 101.718 26.6116C100.075 25.9499 98.5825 24.9783 97.3243 23.7524C96.0661 22.5265 95.0672 21.0703 94.3846 19.467C93.702 17.8636 93.3491 16.1444 93.3461 14.4077C93.3431 12.6709 93.6899 10.9505 94.3669 9.34477C95.0439 7.73901 96.0377 6.27933 97.2916 5.04905C98.5456 3.81878 100.035 2.84201 101.675 2.17452C103.315 1.50702 105.073 1.16187 106.85 1.15877C108.626 1.15567 110.386 1.49468 112.028 2.15645C113.67 2.81821 115.163 3.78978 116.421 5.01567C117.679 6.24155 118.678 7.69776 119.361 9.30114C120.044 10.9045 120.396 12.6237 120.399 14.3604ZM106.885 4.7125C105.64 4.71033 104.406 4.96032 103.255 5.44819C102.104 5.93607 101.057 6.65228 100.175 7.55593C99.2929 8.45958 98.5926 9.53297 98.114 10.7148C97.6354 11.8967 97.3879 13.1638 97.3856 14.444C97.3834 15.7241 97.6265 16.9921 98.101 18.1756C98.5754 19.3592 99.272 20.435 100.151 21.3417C101.03 22.2484 102.074 22.9683 103.224 23.4602C104.373 23.9521 105.606 24.2064 106.851 24.2085C108.097 24.2107 109.33 23.9607 110.481 23.4728C111.633 22.985 112.679 22.2688 113.561 21.3651C114.444 20.4615 115.144 19.3881 115.623 18.2062C116.101 17.0244 116.349 15.7572 116.351 14.4771C116.353 13.1969 116.11 11.9289 115.636 10.7454C115.161 9.56189 114.464 8.48605 113.586 7.57933C112.707 6.6726 111.662 5.95274 110.513 5.46085C109.363 4.96896 108.131 4.71467 106.885 4.7125Z" fill="#1E1E1E"/>
<path d="M85.2626 19.1614C85.2777 19.1791 85.2979 19.1916 85.3205 19.1974C85.3431 19.2031 85.3669 19.2016 85.3886 19.1932C85.4103 19.1848 85.4289 19.1699 85.4418 19.1505C85.4547 19.1311 85.4612 19.1082 85.4605 19.0849V1.86504C85.4605 1.81016 85.4823 1.75753 85.5211 1.71872C85.5599 1.67991 85.6125 1.65811 85.6674 1.65811H89.2167C89.256 1.65811 89.2938 1.67375 89.3216 1.70159C89.3495 1.72943 89.3651 1.76719 89.3651 1.80656V27.3754C89.3654 27.4413 89.3429 27.5053 89.3011 27.5569C89.2594 27.6085 89.201 27.6444 89.1357 27.6588C88.5929 27.7728 88.1535 27.6483 87.8177 27.2855C81.172 20.091 75.4336 13.7333 70.6023 8.21227C70.6014 8.21032 70.6 8.20896 70.5983 8.20837C70.5966 8.20778 70.5946 8.20799 70.5926 8.20897C70.5907 8.20994 70.5888 8.21164 70.5874 8.21384C70.5859 8.21604 70.5848 8.21863 70.5843 8.22127V26.7367C70.5843 26.8058 70.5573 26.8722 70.5092 26.9211C70.4611 26.9701 70.3959 26.9976 70.3279 26.9976H66.8686C66.7959 26.9976 66.7261 26.9682 66.6746 26.9159C66.6231 26.8636 66.5942 26.7926 66.5942 26.7187V1.95501C66.5942 1.87627 66.625 1.80075 66.6799 1.74507C66.7347 1.68939 66.8091 1.65811 66.8866 1.65811H68.9199C69.0897 1.65808 69.2577 1.69415 69.4128 1.76394C69.5679 1.83372 69.7065 1.93564 69.8196 2.06297L85.2626 19.1614Z" fill="#1E1E1E"/>
<path d="M143.742 26.8941C143.763 26.9223 143.775 26.9557 143.778 26.9907C143.781 27.0257 143.774 27.0608 143.758 27.092C143.742 27.1233 143.718 27.1496 143.688 27.1679C143.658 27.1861 143.624 27.1957 143.589 27.1955H139.45C139.351 27.1956 139.254 27.1728 139.166 27.1291C139.079 27.0853 139.003 27.0217 138.946 26.9436L131.16 16.3544C131.09 16.2596 131 16.1826 130.896 16.1294C130.792 16.0763 130.677 16.0486 130.561 16.0485H128.519C128.448 16.0485 128.379 16.0774 128.328 16.1288C128.278 16.1803 128.249 16.2501 128.249 16.3229V26.7636C128.249 26.8627 128.21 26.9576 128.14 27.0276C128.07 27.0977 127.975 27.137 127.876 27.137H124.736C124.639 27.137 124.547 27.0986 124.478 27.0303C124.41 26.9619 124.372 26.8693 124.372 26.7726V1.93701C124.372 1.8996 124.387 1.86365 124.414 1.83678C124.44 1.80991 124.477 1.79423 124.516 1.79306C127.754 1.72408 130.422 1.73158 132.518 1.81555C140.359 2.13494 142.509 11.9864 135.604 15.3332C135.571 15.3488 135.542 15.3714 135.519 15.3994C135.496 15.4275 135.479 15.4603 135.47 15.4955C135.461 15.5307 135.46 15.5675 135.467 15.6032C135.474 15.6389 135.488 15.6727 135.51 15.7021L143.742 26.8941ZM128.245 5.50873V12.4902C128.245 12.5654 128.275 12.6375 128.328 12.6906C128.381 12.7438 128.453 12.7736 128.528 12.7736H131.578C132.672 12.7736 133.721 12.3788 134.495 11.6761C135.268 10.9734 135.703 10.0203 135.703 9.02647V8.97249C135.703 7.97868 135.268 7.02558 134.495 6.32285C133.721 5.62012 132.672 5.22533 131.578 5.22533H128.528C128.453 5.22533 128.381 5.25519 128.328 5.30834C128.275 5.36149 128.245 5.43357 128.245 5.50873Z" fill="#1E1E1E"/>
<path d="M152.774 1.75708C156.013 1.73909 159.254 1.76158 162.495 1.82456C162.591 1.82804 162.681 1.86796 162.748 1.93592C162.814 2.00388 162.851 2.09458 162.851 2.18893V4.86997C162.851 4.96542 162.813 5.05695 162.745 5.12444C162.678 5.19193 162.586 5.22984 162.491 5.22984H155.037C154.964 5.22984 154.895 5.25875 154.843 5.31021C154.792 5.36167 154.763 5.43147 154.763 5.50425L154.754 26.8356C154.753 26.9247 154.721 27.0106 154.662 27.0776C154.604 27.1446 154.523 27.188 154.434 27.2C154.305 27.218 153.751 27.227 152.77 27.227C151.789 27.227 151.234 27.218 151.105 27.2C151.017 27.188 150.936 27.1446 150.878 27.0776C150.819 27.0106 150.786 26.9247 150.786 26.8356V5.50425C150.786 5.43147 150.757 5.36167 150.706 5.31021C150.654 5.25875 150.584 5.22984 150.512 5.22984L143.058 5.22534C142.962 5.22534 142.871 5.18743 142.803 5.11994C142.736 5.05245 142.698 4.96092 142.698 4.86547V2.18443C142.698 2.08933 142.736 1.99799 142.803 1.92991C142.87 1.86183 142.962 1.82241 143.058 1.82006C146.297 1.76008 149.536 1.73909 152.774 1.75708Z" fill="#1E1E1E"/>
<path d="M177.529 12.8006C179.637 12.8036 181.699 12.8051 183.714 12.8051C183.791 12.8051 183.864 12.7748 183.918 12.7208C183.972 12.6668 184.002 12.5936 184.002 12.5172V2.16643C184.002 2.08649 184.034 2.00983 184.091 1.95331C184.147 1.89679 184.224 1.86503 184.304 1.86503H187.731C187.764 1.86561 187.796 1.87247 187.826 1.88522C187.856 1.89797 187.883 1.91636 187.905 1.93933C187.928 1.96231 187.945 1.98942 187.957 2.01913C187.969 2.04883 187.975 2.08054 187.974 2.11245C187.983 10.1046 187.988 14.2476 187.988 14.5415C187.988 14.8324 187.971 18.9739 187.938 26.9661C187.939 26.9983 187.933 27.0304 187.921 27.0604C187.909 27.0904 187.891 27.1177 187.868 27.1407C187.844 27.1638 187.817 27.1821 187.787 27.1946C187.756 27.2071 187.724 27.2135 187.691 27.2135L184.263 27.2045C184.223 27.2045 184.184 27.1965 184.147 27.1811C184.11 27.1657 184.076 27.1431 184.048 27.1146C184.02 27.0862 183.998 27.0524 183.983 27.0153C183.969 26.9782 183.961 26.9385 183.962 26.8986L183.993 16.5478C183.993 16.4722 183.964 16.3997 183.911 16.3458C183.858 16.2919 183.785 16.2611 183.71 16.2599C181.695 16.2569 179.633 16.2539 177.525 16.2509C175.416 16.2479 173.355 16.2449 171.339 16.2419C171.263 16.2419 171.19 16.2722 171.136 16.3262C171.082 16.3802 171.051 16.4534 171.051 16.5298V26.8806C171.051 26.9605 171.02 27.0372 170.963 27.0937C170.907 27.1502 170.83 27.182 170.75 27.182H167.322C167.289 27.182 167.257 27.1756 167.226 27.1631C167.196 27.1506 167.169 27.1323 167.146 27.1092C167.123 27.0862 167.104 27.0589 167.092 27.0289C167.08 26.9989 167.074 26.9668 167.075 26.9346C167.069 18.9424 167.066 14.8009 167.066 14.51C167.066 14.2161 167.082 10.0731 167.115 2.08096C167.115 2.01653 167.141 1.95475 167.188 1.90919C167.234 1.86364 167.297 1.83804 167.363 1.83804L170.79 1.84704C170.87 1.84822 170.945 1.8805 171.001 1.93689C171.056 1.99328 171.087 2.06927 171.087 2.14843L171.056 12.4992C171.056 12.5756 171.086 12.6488 171.14 12.7028C171.194 12.7568 171.267 12.7871 171.344 12.7871C173.359 12.7931 175.421 12.7976 177.529 12.8006Z" fill="#1E1E1E"/>
<path d="M77.053 52.193C74.06 52.181 72.5336 52.1765 72.4736 52.1795C72.3902 52.1842 72.3098 52.2124 72.2414 52.2609C72.173 52.3094 72.1194 52.3763 72.0867 52.4539L69.5002 58.5718C69.485 58.608 69.4593 58.639 69.4265 58.6606C69.3936 58.6822 69.3551 58.6936 69.3157 58.6932L65.5641 58.6662C65.5548 58.6655 65.5459 58.6626 65.538 58.6578C65.5301 58.653 65.5234 58.6463 65.5186 58.6384C65.5138 58.6305 65.5109 58.6216 65.5102 58.6123C65.5095 58.6031 65.511 58.5938 65.5146 58.5853C69.941 48.161 73.4782 39.824 76.1263 33.5742C76.3242 33.1064 76.6436 32.9579 77.1294 32.9624C77.6153 32.9624 77.9301 33.1109 78.1281 33.5832C80.7281 39.8509 84.1994 48.2165 88.5419 58.6797C88.5447 58.6884 88.5454 58.6975 88.544 58.7065C88.5427 58.7155 88.5392 58.724 88.534 58.7315C88.5288 58.7389 88.5219 58.745 88.5139 58.7493C88.5058 58.7536 88.497 58.7559 88.4879 58.7562H84.7407C84.7009 58.7562 84.6619 58.7442 84.629 58.7217C84.5961 58.6992 84.5708 58.6674 84.5563 58.6302L82.0192 52.4899C81.9865 52.4123 81.9329 52.3454 81.8645 52.2969C81.7961 52.2484 81.7157 52.2202 81.6323 52.2155C81.5723 52.2125 80.0459 52.205 77.053 52.193ZM77.0035 48.9677C78.0531 48.9707 79.0787 49.0082 80.0804 49.0801C80.1309 49.084 80.1816 49.0748 80.2276 49.0535C80.2736 49.0322 80.3134 48.9995 80.3432 48.9584C80.373 48.9174 80.3917 48.8694 80.3977 48.819C80.4036 48.7687 80.3966 48.7177 80.3773 48.6708C79.0727 45.4454 77.8942 42.9218 77.3723 40.9605C77.2464 40.4837 77.1384 40.2453 77.0485 40.2453C76.9585 40.2453 76.8475 40.4837 76.7156 40.9605C76.1758 42.9129 74.9702 45.423 73.6342 48.6393C73.615 48.6858 73.608 48.7364 73.6138 48.7863C73.6196 48.8363 73.6379 48.884 73.6671 48.9249C73.6964 48.9658 73.7355 48.9986 73.7809 49.0203C73.8263 49.0419 73.8764 49.0517 73.9266 49.0487C74.9282 48.9887 75.9538 48.9617 77.0035 48.9677Z" fill="#1E1E1E"/>
<path d="M207.956 33.1829C208.438 33.1829 208.757 33.3313 208.95 33.8036C211.565 40.0894 215.056 48.4759 219.423 58.9632C219.426 58.972 219.428 58.9817 219.427 58.9913C219.426 59.0009 219.423 59.0101 219.417 59.0181C219.412 59.0261 219.405 59.0327 219.396 59.0372C219.388 59.0417 219.378 59.0441 219.369 59.0441H215.608C215.568 59.0441 215.529 59.0321 215.496 59.0096C215.463 58.9872 215.438 58.9553 215.424 58.9182L212.873 52.7644C212.841 52.6859 212.788 52.6181 212.719 52.5687C212.651 52.5194 212.57 52.4905 212.486 52.4855C212.426 52.4825 210.895 52.4765 207.893 52.4675C204.891 52.4585 203.36 52.4555 203.3 52.4585C203.217 52.4631 203.137 52.4913 203.068 52.5398C203 52.5884 202.946 52.6552 202.913 52.7329L200.322 58.8732C200.307 58.9095 200.282 58.9404 200.249 58.962C200.216 58.9837 200.177 58.995 200.138 58.9946L196.377 58.9721C196.368 58.9721 196.358 58.9698 196.35 58.9652C196.341 58.9607 196.334 58.9541 196.329 58.9461C196.323 58.9381 196.32 58.9289 196.319 58.9193C196.318 58.9097 196.32 58.9001 196.323 58.8912C200.756 48.4309 204.297 40.0669 206.949 33.7991C207.146 33.3268 207.466 33.1829 207.956 33.1829ZM204.434 49.0802C204.425 49.103 204.422 49.1276 204.425 49.1519C204.428 49.1762 204.437 49.1994 204.45 49.2197C204.464 49.2399 204.482 49.2566 204.504 49.2684C204.525 49.2801 204.549 49.2865 204.573 49.2871L211.128 49.3141C211.153 49.3145 211.178 49.3087 211.201 49.297C211.223 49.2853 211.242 49.2682 211.257 49.2473C211.271 49.2263 211.28 49.2021 211.282 49.1768C211.285 49.1516 211.281 49.1261 211.272 49.1027L208.024 40.9606C208.012 40.9324 207.993 40.9083 207.967 40.8913C207.942 40.8743 207.912 40.8652 207.882 40.8652C207.852 40.8652 207.822 40.8743 207.797 40.8913C207.771 40.9083 207.752 40.9324 207.74 40.9606L204.434 49.0802Z" fill="#1E1E1E"/>
<path d="M105.429 52.6429C105.433 52.6549 105.44 52.6657 105.45 52.6739C105.459 52.6821 105.471 52.6873 105.483 52.6887C105.495 52.6902 105.508 52.6879 105.518 52.6821C105.528 52.6763 105.536 52.6674 105.541 52.6564L115.127 33.7901C115.178 33.6926 115.253 33.6108 115.346 33.5536C115.439 33.4965 115.545 33.4663 115.654 33.4662H117.593C117.666 33.4659 117.737 33.4931 117.792 33.5423C117.846 33.5916 117.879 33.6592 117.885 33.7316L120.067 58.5988C120.069 58.6221 120.067 58.6457 120.06 58.668C120.052 58.6903 120.04 58.7108 120.025 58.7283C120.009 58.7457 119.99 58.7596 119.968 58.769C119.947 58.7785 119.924 58.7833 119.9 58.7832H116.481C116.438 58.7833 116.397 58.7672 116.365 58.738C116.333 58.7088 116.314 58.6687 116.31 58.6257L114.88 42.3461C114.879 42.326 114.872 42.3067 114.859 42.2913C114.846 42.2759 114.828 42.2653 114.809 42.2611C114.789 42.257 114.768 42.2596 114.75 42.2684C114.732 42.2773 114.718 42.292 114.709 42.3101L106.463 58.5448C106.428 58.616 106.379 58.6788 106.32 58.7292C105.451 59.4714 104.718 59.0351 104.214 58.0724C101.065 52.0746 98.3589 46.753 96.0947 42.1077C96.0919 42.1 96.0867 42.0939 96.0799 42.09C96.073 42.0862 96.0649 42.085 96.0568 42.0865C96.0486 42.088 96.0409 42.0923 96.0348 42.0985C96.0286 42.1047 96.0244 42.1127 96.0227 42.1211L94.5652 58.5853C94.5607 58.6418 94.5345 58.6945 94.492 58.7329C94.4494 58.7713 94.3937 58.7925 94.3358 58.7922H91.2004C91.1776 58.7923 91.1549 58.7876 91.134 58.7786C91.1131 58.7695 91.0943 58.7563 91.079 58.7397C91.0637 58.7232 91.0522 58.7036 91.0452 58.6824C91.0382 58.6612 91.0359 58.6388 91.0385 58.6168L93.2472 33.6417C93.255 33.5638 93.2911 33.4916 93.3485 33.4392C93.4059 33.3868 93.4804 33.358 93.5576 33.3583H95.4469C95.5374 33.3581 95.6261 33.3829 95.7031 33.4297C95.7801 33.4766 95.8425 33.5437 95.8833 33.6237C100.652 42.8184 103.619 48.6078 104.786 50.992C105.097 51.6307 105.312 52.1811 105.429 52.6429Z" fill="#1E1E1E"/>
<path d="M139.455 55.7108V58.5493C139.455 58.6232 139.425 58.6942 139.373 58.7465C139.321 58.7988 139.25 58.8282 139.176 58.8282H124.646C124.572 58.8282 124.501 58.7988 124.449 58.7465C124.396 58.6942 124.367 58.6232 124.367 58.5493V33.7406C124.367 33.6667 124.396 33.5957 124.449 33.5434C124.501 33.4911 124.572 33.4617 124.646 33.4617H137.781C137.818 33.4617 137.854 33.4689 137.888 33.483C137.922 33.497 137.953 33.5175 137.978 33.5434C138.004 33.5693 138.025 33.6001 138.039 33.6339C138.053 33.6677 138.06 33.704 138.06 33.7406V36.5701C138.06 36.6067 138.053 36.643 138.039 36.6769C138.025 36.7107 138.004 36.7414 137.978 36.7673C137.953 36.7932 137.922 36.8138 137.888 36.8278C137.854 36.8418 137.818 36.849 137.781 36.849H128.564C128.49 36.849 128.419 36.8784 128.367 36.9307C128.315 36.983 128.285 37.0539 128.285 37.1279V44.0779C128.285 44.1519 128.315 44.2228 128.367 44.2751C128.419 44.3275 128.49 44.3568 128.564 44.3568H136.153C136.227 44.3568 136.298 44.3862 136.35 44.4385C136.402 44.4908 136.432 44.5618 136.432 44.6357V47.5057C136.432 47.5797 136.402 47.6506 136.35 47.7029C136.298 47.7552 136.227 47.7846 136.153 47.7846H128.537C128.463 47.7846 128.392 47.814 128.34 47.8663C128.288 47.9186 128.258 47.9895 128.258 48.0635V55.153C128.258 55.2269 128.288 55.2979 128.34 55.3502C128.392 55.4025 128.463 55.4319 128.537 55.4319H139.176C139.25 55.4319 139.321 55.4613 139.373 55.5136C139.425 55.5659 139.455 55.6368 139.455 55.7108Z" fill="#1E1E1E"/>
<path d="M162.288 58.6123C162.309 58.6404 162.322 58.6739 162.325 58.7089C162.328 58.7438 162.321 58.7789 162.305 58.8102C162.289 58.8415 162.265 58.8678 162.235 58.886C162.205 58.9043 162.171 58.9139 162.136 58.9136L157.993 58.9181C157.894 58.9182 157.797 58.8955 157.709 58.8517C157.622 58.8079 157.546 58.7444 157.489 58.6662L149.697 48.0725C149.627 47.9772 149.536 47.8997 149.431 47.8466C149.327 47.7934 149.211 47.766 149.095 47.7666H147.052C147.017 47.7666 146.982 47.7737 146.949 47.7875C146.916 47.8013 146.887 47.8215 146.862 47.847C146.837 47.8725 146.817 47.9027 146.803 47.936C146.789 47.9693 146.783 48.005 146.783 48.041L146.787 58.4863C146.787 58.5853 146.748 58.6803 146.678 58.7503C146.608 58.8203 146.513 58.8597 146.414 58.8597H143.269C143.173 58.8597 143.08 58.8213 143.012 58.7529C142.943 58.6846 142.905 58.5919 142.905 58.4953L142.9 33.6462C142.9 33.6088 142.915 33.5728 142.942 33.5459C142.969 33.5191 143.006 33.5034 143.044 33.5022C146.286 33.4333 148.955 33.4407 151.051 33.5247C158.897 33.8396 161.051 43.6956 154.142 47.0469C154.109 47.0624 154.08 47.085 154.057 47.1131C154.034 47.1411 154.017 47.1739 154.008 47.2091C153.999 47.2444 153.998 47.2811 154.005 47.3168C154.011 47.3525 154.026 47.3863 154.047 47.4158L162.288 58.6123ZM146.877 37.1819L146.742 44.1184C146.741 44.1598 146.749 44.2008 146.764 44.2393C146.78 44.2777 146.802 44.3128 146.831 44.3424C146.86 44.3721 146.894 44.3958 146.932 44.4121C146.97 44.4285 147.011 44.4372 147.052 44.4378L150.012 44.4963C151.109 44.5168 152.168 44.1498 152.957 43.4758C153.746 42.8018 154.199 41.8761 154.218 40.9021L154.223 40.6862C154.232 40.2035 154.135 39.7234 153.936 39.2734C153.736 38.8234 153.44 38.4122 153.062 38.0634C152.684 37.7146 152.233 37.435 151.735 37.2405C151.236 37.046 150.7 36.9405 150.156 36.93L147.196 36.876C147.114 36.8748 147.034 36.9062 146.974 36.9635C146.914 37.0207 146.879 37.0992 146.877 37.1819Z" fill="#1E1E1E"/>
<path d="M192.455 38.0096C192.359 37.8507 192.221 37.8042 192.041 37.8702C184.677 34.8472 176.53 38.8328 177.255 47.5732C177.911 55.4724 187.632 57.5596 193.467 54.3703C193.473 54.3668 193.479 54.3651 193.486 54.3653C193.493 54.3654 193.5 54.3675 193.505 54.3713C193.511 54.375 193.515 54.3803 193.518 54.3865C193.521 54.3927 193.522 54.3995 193.521 54.4063L193.201 58.014C193.199 58.0511 193.185 58.0867 193.162 58.1163C193.139 58.1459 193.107 58.1682 193.071 58.1804C188.642 59.5629 184.634 59.5059 181.047 58.0095C174.812 55.4049 172.064 49.404 173.588 42.8769C174.533 38.8283 177.709 35.576 181.632 34.222C185.596 32.8515 189.652 33.0269 193.8 34.7483C193.888 34.7849 193.961 34.8512 194.006 34.9357C194.052 35.0202 194.066 35.1177 194.047 35.2116L193.467 38.221C193.46 38.2543 193.447 38.2857 193.427 38.3133C193.407 38.3409 193.382 38.364 193.353 38.381C193.324 38.398 193.292 38.4086 193.259 38.4121C193.226 38.4155 193.192 38.4117 193.161 38.401C192.906 38.317 192.671 38.1866 192.455 38.0096Z" fill="#1E1E1E"/>
<path d="M169.211 33.5906L165.936 33.5849C165.74 33.5845 165.581 33.7434 165.58 33.9396L165.537 58.5638C165.537 58.7601 165.696 58.9194 165.892 58.9198L169.167 58.9255C169.363 58.9258 169.523 58.767 169.523 58.5708L169.566 33.9466C169.566 33.7503 169.407 33.5909 169.211 33.5906Z" fill="#1E1E1E"/>
<path d="M241.343 51.1629C241.358 51.1806 241.379 51.1932 241.401 51.1989C241.424 51.2046 241.448 51.2032 241.469 51.1948C241.491 51.1864 241.51 51.1715 241.523 51.1521C241.535 51.1326 241.542 51.1097 241.541 51.0864L241.546 33.8756C241.546 33.8207 241.568 33.7681 241.606 33.7293C241.645 33.6905 241.698 33.6687 241.753 33.6687H245.297C245.337 33.6687 245.374 33.6843 245.402 33.7121C245.43 33.74 245.446 33.7777 245.446 33.8171L245.441 59.3725C245.442 59.4383 245.419 59.5024 245.377 59.554C245.336 59.6055 245.277 59.6415 245.212 59.6559C244.669 59.7698 244.23 59.6454 243.894 59.2825C237.254 52.0911 231.52 45.7349 226.692 40.2138C226.691 40.2119 226.69 40.2105 226.688 40.2099C226.686 40.2093 226.684 40.2095 226.682 40.2105C226.68 40.2115 226.679 40.2132 226.677 40.2154C226.676 40.2176 226.675 40.2202 226.674 40.2228L226.67 58.7292C226.67 58.7984 226.642 58.8648 226.594 58.9137C226.546 58.9626 226.481 58.9901 226.413 58.9901H222.954C222.881 58.9901 222.811 58.9607 222.76 58.9084C222.708 58.8561 222.679 58.7852 222.679 58.7112L222.688 33.9566C222.688 33.8778 222.719 33.8023 222.774 33.7466C222.829 33.6909 222.903 33.6597 222.981 33.6597H225.01C225.179 33.6596 225.347 33.6957 225.502 33.7655C225.658 33.8353 225.796 33.9372 225.909 34.0645L241.343 51.1629Z" fill="#1E1E1E"/>
<path d="M192.455 38.0096L192.041 37.8702C192.221 37.8042 192.359 37.8507 192.455 38.0096Z" fill="#1E1E1E"/>
<path d="M248.622 59.4625C248.59 59.452 248.563 59.4316 248.543 59.4042C248.524 59.3767 248.514 59.3436 248.514 59.3095V58.5853C248.513 58.5711 248.517 58.5571 248.525 58.5449C248.532 58.5327 248.542 58.5228 248.555 58.5162C248.568 58.5097 248.582 58.5068 248.596 58.5079C248.61 58.509 248.624 58.5139 248.635 58.5223C249.115 58.8432 249.598 58.8552 250.084 58.5583C250.13 58.5299 250.168 58.49 250.195 58.4425C250.221 58.395 250.235 58.3415 250.234 58.2871C250.234 58.2328 250.219 58.1795 250.192 58.1324C250.165 58.0853 250.126 58.0461 250.079 58.0185L248.797 57.2762C248.716 57.2296 248.655 57.1577 248.626 57.0738C248.028 55.4544 249.719 54.8426 250.88 55.4049C250.956 55.4411 251.017 55.502 251.053 55.5776C251.09 55.6532 251.099 55.739 251.08 55.8208C251.061 55.9025 251.015 55.9754 250.949 56.0274C250.883 56.0794 250.802 56.1074 250.718 56.1067H250.021C249.936 56.1087 249.854 56.1406 249.791 56.1969C249.727 56.2531 249.686 56.33 249.673 56.4139C249.661 56.4979 249.679 56.5835 249.723 56.6557C249.768 56.7279 249.837 56.782 249.917 56.8084C251.174 57.1833 251.514 57.9855 250.938 59.2151C250.884 59.3334 250.785 59.4255 250.664 59.4715C250.058 59.7144 249.377 59.7114 248.622 59.4625Z" fill="#1E1E1E"/>
<path d="M254.2 57.9285C254.215 57.9285 254.227 57.927 254.236 57.924C254.252 57.9212 254.267 57.9171 254.278 57.9124C254.29 57.9076 254.299 57.9023 254.303 57.897L255.567 55.4274C255.612 55.3418 255.684 55.273 255.771 55.2312C255.859 55.1895 255.957 55.1771 256.052 55.1958C256.147 55.2145 256.233 55.2633 256.298 55.335C256.363 55.4067 256.404 55.4975 256.413 55.5938L256.741 59.35C256.744 59.3716 256.742 59.3935 256.735 59.4143C256.729 59.4352 256.718 59.4546 256.704 59.4714C256.69 59.4881 256.672 59.502 256.652 59.512C256.632 59.5221 256.611 59.5282 256.588 59.5299L255.999 59.5839C255.971 59.5864 255.943 59.5833 255.917 59.5749C255.89 59.5665 255.865 59.5529 255.844 59.5349C255.823 59.517 255.805 59.4949 255.792 59.4702C255.78 59.4454 255.772 59.4183 255.77 59.3905L255.612 57.5956C255.61 57.5659 255.597 57.538 255.576 57.5168C255.555 57.4955 255.528 57.4824 255.498 57.4797C255.468 57.477 255.439 57.4849 255.414 57.502C255.39 57.5191 255.372 57.5443 255.365 57.5731C255.266 57.963 254.967 58.6093 254.47 59.5119C254.437 59.5689 254.402 59.6064 254.366 59.6244C254.315 59.6454 254.26 59.6559 254.2 59.6559C254.137 59.6559 254.08 59.6454 254.029 59.6244C253.993 59.6064 253.958 59.5689 253.925 59.5119C253.431 58.6063 253.134 57.9585 253.035 57.5686C253.027 57.5398 253.01 57.5146 252.985 57.4975C252.961 57.4804 252.931 57.4725 252.901 57.4752C252.872 57.4779 252.844 57.491 252.823 57.5122C252.802 57.5335 252.79 57.5614 252.787 57.5911L252.625 59.386C252.623 59.4138 252.615 59.4409 252.603 59.4657C252.59 59.4905 252.572 59.5125 252.551 59.5305C252.53 59.5484 252.505 59.562 252.478 59.5704C252.452 59.5788 252.424 59.5819 252.396 59.5794L251.807 59.5254C251.784 59.5237 251.762 59.5175 251.742 59.5072C251.721 59.4968 251.704 59.4826 251.689 59.4653C251.675 59.448 251.664 59.428 251.658 59.4067C251.652 59.3853 251.651 59.3629 251.654 59.341L251.996 55.5893C252.005 55.493 252.045 55.4022 252.11 55.3305C252.175 55.2588 252.261 55.21 252.356 55.1913C252.451 55.1726 252.55 55.185 252.637 55.2267C252.725 55.2685 252.796 55.3373 252.841 55.4229L254.096 57.897C254.101 57.9023 254.109 57.9076 254.121 57.9124C254.133 57.9171 254.148 57.9212 254.164 57.924C254.173 57.927 254.185 57.9285 254.2 57.9285Z" fill="#1E1E1E"/>
</svg>
